<?xml version="1.0" encoding="UTF-8" standalone="no"?>
<!DOCTYPE svg PUBLIC "-//W3C//DTD SVG 1.1//EN"
 "http://www.w3.org/Graphics/SVG/1.1/DTD/svg11.dtd">
<!-- Generated by graphviz version 2.40.1 (20161225.0304)
 -->
<!-- Title: G Pages: 1 -->
<svg width="1178pt" height="169pt"
 viewBox="0.00 0.00 1178.26 169.00" xmlns="http://www.w3.org/2000/svg" xmlns:xlink="http://www.w3.org/1999/xlink">
<g id="graph0" class="graph" transform="scale(1 1) rotate(0) translate(4 165)">
<title>G</title>
<polygon fill="#ffffff" stroke="transparent" points="-4,4 -4,-165 1174.2636,-165 1174.2636,4 -4,4"/>
<g id="clust1" class="cluster">
<title>cluster_admin</title>
<polygon fill="#ffffff" stroke="#000000" points="8,-8 8,-152 139.6897,-152 139.6897,-8 8,-8"/>
<text text-anchor="middle" x="73.8449" y="-136.8" font-family="Times,serif" font-size="14.00" fill="#000000">Admin</text>
<text text-anchor="middle" x="73.8449" y="-121.8" font-family="Times,serif" font-size="14.00" fill="#000000">workstation</text>
</g>
<g id="clust2" class="cluster">
<title>cluster_ssh_host</title>
<polygon fill="#ffffff" stroke="#000000" points="299.6897,-60 299.6897,-153 1162.2636,-153 1162.2636,-60 299.6897,-60"/>
<text text-anchor="middle" x="730.9766" y="-137.8" font-family="Times,serif" font-size="14.00" fill="#000000">Host</text>
</g>
<!-- ldap_client -->
<g id="node1" class="node">
<title>ldap_client</title>
<ellipse fill="none" stroke="#000000" cx="73.8449" cy="-34" rx="57.6901" ry="18"/>
<text text-anchor="middle" x="73.8449" y="-30.3" font-family="Times,serif" font-size="14.00" fill="#000000">LDAP client</text>
</g>
<!-- slapd_aedir -->
<g id="node7" class="node">
<title>slapd_aedir</title>
<ellipse fill="none" stroke="#000000" cx="956.6828" cy="-34" rx="58.4896" ry="18"/>
<text text-anchor="middle" x="956.6828" y="-30.3" font-family="Times,serif" font-size="14.00" fill="#000000">Æ&#45;DIR slapd</text>
</g>
<!-- ldap_client&#45;&gt;slapd_aedir -->
<g id="edge1" class="edge">
<title>ldap_client&#45;&gt;slapd_aedir</title>
<path fill="none" stroke="#000000" d="M131.8617,-34C184.722,-34 264.95,-34 334.6897,-34 334.6897,-34 334.6897,-34 737.6863,-34 788.02,-34 844.8611,-34 888.0184,-34"/>
<polygon fill="#000000" stroke="#000000" points="888.1239,-37.5001 898.1238,-34 888.1238,-30.5001 888.1239,-37.5001"/>
<text text-anchor="middle" x="529.1897" y="-37.8" font-family="Times,serif" font-size="14.00" fill="#000000">1. set host password</text>
</g>
<!-- ssh -->
<g id="node2" class="node">
<title>ssh</title>
<ellipse fill="none" stroke="#000000" cx="73.8449" cy="-88" rx="27" ry="18"/>
<text text-anchor="middle" x="73.8449" y="-84.3" font-family="Times,serif" font-size="14.00" fill="#000000">ssh</text>
</g>
<!-- sshd -->
<g id="node3" class="node">
<title>sshd</title>
<ellipse fill="none" stroke="#000000" cx="334.6897" cy="-88" rx="27" ry="18"/>
<text text-anchor="middle" x="334.6897" y="-84.3" font-family="Times,serif" font-size="14.00" fill="#000000">sshd</text>
</g>
<!-- ssh&#45;&gt;sshd -->
<g id="edge2" class="edge">
<title>ssh&#45;&gt;sshd</title>
<path fill="none" stroke="#000000" d="M101.2668,-88C148.2577,-88 244.2257,-88 297.3054,-88"/>
<polygon fill="#000000" stroke="#000000" points="297.6352,-91.5001 307.6352,-88 297.6352,-84.5001 297.6352,-91.5001"/>
<text text-anchor="middle" x="219.6897" y="-91.8" font-family="Times,serif" font-size="14.00" fill="#000000">2. aehost&#45;init@hostname</text>
</g>
<!-- pam_aedir -->
<g id="node4" class="node">
<title>pam_aedir</title>
<ellipse fill="none" stroke="#000000" cx="529.1897" cy="-88" rx="49.2915" ry="18"/>
<text text-anchor="middle" x="529.1897" y="-84.3" font-family="Times,serif" font-size="14.00" fill="#000000">pam_aedir</text>
</g>
<!-- sshd&#45;&gt;pam_aedir -->
<g id="edge3" class="edge">
<title>sshd&#45;&gt;pam_aedir</title>
<path fill="none" stroke="#000000" d="M361.7341,-88C389.3801,-88 433.2341,-88 469.1294,-88"/>
<polygon fill="#000000" stroke="#000000" points="469.5035,-91.5001 479.5035,-88 469.5035,-84.5001 469.5035,-91.5001"/>
<text text-anchor="middle" x="417.1897" y="-91.8" font-family="Times,serif" font-size="14.00" fill="#000000">3. auth</text>
</g>
<!-- aehostd -->
<g id="node5" class="node">
<title>aehostd</title>
<ellipse fill="none" stroke="#000000" cx="737.6863" cy="-88" rx="38.9931" ry="18"/>
<text text-anchor="middle" x="737.6863" y="-84.3" font-family="Times,serif" font-size="14.00" fill="#000000">aehostd</text>
</g>
<!-- pam_aedir&#45;&gt;aehostd -->
<g id="edge4" class="edge">
<title>pam_aedir&#45;&gt;aehostd</title>
<path fill="none" stroke="#000000" d="M578.6005,-88C611.6333,-88 654.9353,-88 688.0207,-88"/>
<polygon fill="#000000" stroke="#000000" points="688.3778,-91.5001 698.3778,-88 688.3778,-84.5001 688.3778,-91.5001"/>
<text text-anchor="middle" x="642.1897" y="-91.8" font-family="Times,serif" font-size="14.00" fill="#000000">4. auth</text>
</g>
<!-- pwfile -->
<g id="node6" class="node">
<title>pwfile</title>
<ellipse fill="none" stroke="#000000" cx="1105.4732" cy="-95" rx="48.5816" ry="26.7407"/>
<text text-anchor="middle" x="1105.4732" y="-98.8" font-family="Times,serif" font-size="14.00" fill="#000000">password</text>
<text text-anchor="middle" x="1105.4732" y="-83.8" font-family="Times,serif" font-size="14.00" fill="#000000">file</text>
</g>
<!-- aehostd&#45;&gt;pwfile -->
<g id="edge6" class="edge">
<title>aehostd&#45;&gt;pwfile</title>
<path fill="none" stroke="#000000" d="M776.6977,-88.7425C841.1447,-89.9691 970.2455,-92.4262 1046.0826,-93.8696"/>
<polygon fill="#000000" stroke="#000000" points="1046.353,-97.3753 1056.4178,-94.0663 1046.4863,-90.3766 1046.353,-97.3753"/>
<text text-anchor="middle" x="956.6828" y="-96.8" font-family="Times,serif" font-size="14.00" fill="#000000">6. store host password</text>
</g>
<!-- aehostd&#45;&gt;slapd_aedir -->
<g id="edge5" class="edge">
<title>aehostd&#45;&gt;slapd_aedir</title>
<path fill="none" stroke="#000000" d="M770.1352,-77.9225C778.1318,-75.5495 786.6938,-73.1014 794.6828,-71 828.7734,-62.0332 867.2268,-53.197 898.112,-46.4095"/>
<polygon fill="#000000" stroke="#000000" points="899.256,-49.7422 908.2788,-44.189 897.7623,-42.9035 899.256,-49.7422"/>
<text text-anchor="middle" x="835.1828" y="-74.8" font-family="Times,serif" font-size="14.00" fill="#000000">5. simple bind</text>
</g>
</g>
</svg>
