<?xml version="1.0" encoding="UTF-8" standalone="no"?>
<!DOCTYPE svg PUBLIC "-//W3C//DTD SVG 1.1//EN"
 "http://www.w3.org/Graphics/SVG/1.1/DTD/svg11.dtd">
<!-- Generated by graphviz version 2.36.0 (20140111.2315)
 -->
<!-- Title: aeStatus Pages: 1 -->
<svg width="576pt" height="101pt"
 viewBox="0.00 0.00 576.00 100.99" xmlns="http://www.w3.org/2000/svg" xmlns:xlink="http://www.w3.org/1999/xlink">
<g id="graph0" class="graph" transform="scale(0.935065 0.935065) rotate(0) translate(4 104)">
<title>aeStatus</title>
<polygon fill="white" stroke="none" points="-4,4 -4,-104 612,-104 612,4 -4,4"/>
<!-- requested -->
<g id="node1" class="node"><title>requested</title>
<ellipse fill="none" stroke="black" cx="48" cy="-50" rx="44.3766" ry="44.3766"/>
<ellipse fill="none" stroke="black" cx="48" cy="-50" rx="48.393" ry="48.393"/>
<text text-anchor="middle" x="48" y="-46.3" font-family="Times,serif" font-size="14.00">requested</text>
</g>
<!-- active -->
<g id="node2" class="node"><title>active</title>
<ellipse fill="none" stroke="black" cx="212" cy="-50" rx="31.712" ry="31.712"/>
<ellipse fill="none" stroke="black" cx="212" cy="-50" rx="35.695" ry="35.695"/>
<text text-anchor="middle" x="212" y="-46.3" font-family="Times,serif" font-size="14.00">active</text>
</g>
<!-- requested&#45;&gt;active -->
<g id="edge1" class="edge"><title>requested&#45;&gt;active</title>
<path fill="none" stroke="black" d="M96.2926,-50C118.203,-50 144.119,-50 165.768,-50"/>
<polygon fill="black" stroke="black" points="166.018,-53.5001 176.017,-50 166.017,-46.5001 166.018,-53.5001"/>
<text text-anchor="middle" x="136" y="-53.8" font-family="Times,serif" font-size="14.00">activate</text>
</g>
<!-- active&#45;&gt;requested -->
<g id="edge2" class="edge"><title>active&#45;&gt;requested</title>
<path fill="none" stroke="black" d="M178.681,-36.4359C171.959,-34.1793 164.838,-32.1886 158,-31 138.733,-27.6509 133.358,-28.2287 114,-31 110.741,-31.4665 107.418,-32.0583 104.083,-32.7423"/>
<polygon fill="black" stroke="black" points="103.058,-29.3866 94.0959,-35.0382 104.626,-36.2087 103.058,-29.3866"/>
<text text-anchor="middle" x="136" y="-34.8" font-family="Times,serif" font-size="14.00">reset</text>
</g>
<!-- deactivated -->
<g id="node4" class="node"><title>deactivated</title>
<ellipse fill="none" stroke="black" cx="391" cy="-50" rx="50.8918" ry="50.8918"/>
<text text-anchor="middle" x="391" y="-46.3" font-family="Times,serif" font-size="14.00">deactivated</text>
</g>
<!-- active&#45;&gt;deactivated -->
<g id="edge3" class="edge"><title>active&#45;&gt;deactivated</title>
<path fill="none" stroke="black" d="M247.97,-50C271.286,-50 302.543,-50 329.799,-50"/>
<polygon fill="black" stroke="black" points="330.024,-53.5001 340.024,-50 330.024,-46.5001 330.024,-53.5001"/>
<text text-anchor="middle" x="294" y="-53.8" font-family="Times,serif" font-size="14.00">deactivate</text>
</g>
<!-- archived -->
<g id="node3" class="node"><title>archived</title>
<ellipse fill="none" stroke="black" cx="563" cy="-50" rx="40.8976" ry="40.8976"/>
<ellipse fill="none" stroke="black" cx="563" cy="-50" rx="44.8928" ry="44.8928"/>
<text text-anchor="middle" x="563" y="-46.3" font-family="Times,serif" font-size="14.00">archived</text>
</g>
<!-- deactivated&#45;&gt;active -->
<g id="edge5" class="edge"><title>deactivated&#45;&gt;active</title>
<path fill="none" stroke="black" d="M342.42,-34.9475C335.627,-33.3148 328.679,-31.9156 322,-31 297.342,-27.6198 290.521,-26.7375 266,-31 262.368,-31.6314 258.655,-32.4893 254.965,-33.4931"/>
<polygon fill="black" stroke="black" points="253.862,-30.1701 245.319,-36.4359 255.905,-36.8654 253.862,-30.1701"/>
<text text-anchor="middle" x="294" y="-34.8" font-family="Times,serif" font-size="14.00">reactivate</text>
</g>
<!-- deactivated&#45;&gt;archived -->
<g id="edge4" class="edge"><title>deactivated&#45;&gt;archived</title>
<path fill="none" stroke="black" d="M442.086,-50C462.791,-50 486.842,-50 507.946,-50"/>
<polygon fill="black" stroke="black" points="508.041,-53.5001 518.041,-50 508.041,-46.5001 508.041,-53.5001"/>
<text text-anchor="middle" x="480" y="-53.8" font-family="Times,serif" font-size="14.00">archive</text>
</g>
</g>
</svg>
