<?xml version="1.0" encoding="UTF-8" standalone="no"?>
<!DOCTYPE svg PUBLIC "-//W3C//DTD SVG 1.1//EN"
 "http://www.w3.org/Graphics/SVG/1.1/DTD/svg11.dtd">
<!-- Generated by graphviz version 2.38.0 (20140413.2041)
 -->
<!-- Title: AE&#45;DIR object classes Pages: 1 -->
<svg width="450pt" height="1178pt"
 viewBox="0.00 0.00 450.00 1178.00" xmlns="http://www.w3.org/2000/svg" xmlns:xlink="http://www.w3.org/1999/xlink">
<g id="graph0" class="graph" transform="scale(1 1) rotate(0) translate(4 1174)">
<title>AE&#45;DIR object classes</title>
<polygon fill="white" stroke="none" points="-4,4 -4,-1174 446,-1174 446,4 -4,4"/>
<!-- distinguishedName -->
<g id="node1" class="node"><title>distinguishedName</title>
<path fill="none" stroke="black" d="M114,-441C114,-441 12,-441 12,-441 6,-441 0,-435 0,-429 0,-429 0,-417 0,-417 0,-411 6,-405 12,-405 12,-405 114,-405 114,-405 120,-405 126,-411 126,-417 126,-417 126,-429 126,-429 126,-435 120,-441 114,-441"/>
<text text-anchor="middle" x="63" y="-419.3" font-family="Times,serif" font-size="14.00">distinguishedName</text>
</g>
<!-- aeDept -->
<g id="node2" class="node"><title>aeDept</title>
<path fill="none" stroke="black" d="M240,-792C240,-792 208,-792 208,-792 202,-792 196,-786 196,-780 196,-780 196,-768 196,-768 196,-762 202,-756 208,-756 208,-756 240,-756 240,-756 246,-756 252,-762 252,-768 252,-768 252,-780 252,-780 252,-786 246,-792 240,-792"/>
<text text-anchor="middle" x="224" y="-770.3" font-family="Times,serif" font-size="14.00">aeDept</text>
</g>
<!-- distinguishedName&#45;&gt;aeDept -->
<g id="edge1" class="edge"><title>distinguishedName&#45;&gt;aeDept</title>
<path fill="none" stroke="black" d="M64.4224,-441.283C66.6161,-494.991 80.0687,-654.318 162,-747 168.547,-754.406 177.509,-759.875 186.548,-763.875"/>
<polygon fill="black" stroke="black" points="185.309,-767.149 195.897,-767.532 187.859,-760.63 185.309,-767.149"/>
</g>
<!-- aeHost -->
<g id="node3" class="node"><title>aeHost</title>
<path fill="none" stroke="black" d="M240,-738C240,-738 208,-738 208,-738 202,-738 196,-732 196,-726 196,-726 196,-714 196,-714 196,-708 202,-702 208,-702 208,-702 240,-702 240,-702 246,-702 252,-708 252,-714 252,-714 252,-726 252,-726 252,-732 246,-738 240,-738"/>
<text text-anchor="middle" x="224" y="-716.3" font-family="Times,serif" font-size="14.00">aeHost</text>
</g>
<!-- distinguishedName&#45;&gt;aeHost -->
<g id="edge2" class="edge"><title>distinguishedName&#45;&gt;aeHost</title>
<path fill="none" stroke="black" d="M65.7317,-441.283C71.1571,-488.839 91.8924,-617.916 162,-693 168.617,-700.087 177.43,-705.426 186.295,-709.403"/>
<polygon fill="black" stroke="black" points="185.248,-712.753 195.833,-713.201 187.838,-706.25 185.248,-712.753"/>
</g>
<!-- aeLoginGroups -->
<g id="node4" class="node"><title>aeLoginGroups</title>
<path fill="none" stroke="black" d="M264,-684C264,-684 184,-684 184,-684 178,-684 172,-678 172,-672 172,-672 172,-660 172,-660 172,-654 178,-648 184,-648 184,-648 264,-648 264,-648 270,-648 276,-654 276,-660 276,-660 276,-672 276,-672 276,-678 270,-684 264,-684"/>
<text text-anchor="middle" x="224" y="-662.3" font-family="Times,serif" font-size="14.00">aeLoginGroups</text>
</g>
<!-- distinguishedName&#45;&gt;aeLoginGroups -->
<g id="edge3" class="edge"><title>distinguishedName&#45;&gt;aeLoginGroups</title>
<path fill="none" stroke="black" d="M67.6182,-441.164C76.59,-481.804 103.496,-581.033 162,-639 162.949,-639.94 163.936,-640.85 164.956,-641.731"/>
<polygon fill="black" stroke="black" points="163.21,-644.793 173.33,-647.928 167.373,-639.166 163.21,-644.793"/>
</g>
<!-- aeLogStoreGroups -->
<g id="node5" class="node"><title>aeLogStoreGroups</title>
<path fill="none" stroke="black" d="M274,-630C274,-630 174,-630 174,-630 168,-630 162,-624 162,-618 162,-618 162,-606 162,-606 162,-600 168,-594 174,-594 174,-594 274,-594 274,-594 280,-594 286,-600 286,-606 286,-606 286,-618 286,-618 286,-624 280,-630 274,-630"/>
<text text-anchor="middle" x="224" y="-608.3" font-family="Times,serif" font-size="14.00">aeLogStoreGroups</text>
</g>
<!-- distinguishedName&#45;&gt;aeLogStoreGroups -->
<g id="edge4" class="edge"><title>distinguishedName&#45;&gt;aeLogStoreGroups</title>
<path fill="none" stroke="black" d="M70.6304,-441.006C83.5149,-473.758 114.871,-543.52 162,-585 163.285,-586.131 164.625,-587.221 166.009,-588.272"/>
<polygon fill="black" stroke="black" points="164.093,-591.201 174.349,-593.863 167.991,-585.387 164.093,-591.201"/>
</g>
<!-- aePerson -->
<g id="node6" class="node"><title>aePerson</title>
<path fill="none" stroke="black" d="M246,-576C246,-576 202,-576 202,-576 196,-576 190,-570 190,-564 190,-564 190,-552 190,-552 190,-546 196,-540 202,-540 202,-540 246,-540 246,-540 252,-540 258,-546 258,-552 258,-552 258,-564 258,-564 258,-570 252,-576 246,-576"/>
<text text-anchor="middle" x="224" y="-554.3" font-family="Times,serif" font-size="14.00">aePerson</text>
</g>
<!-- distinguishedName&#45;&gt;aePerson -->
<g id="edge5" class="edge"><title>distinguishedName&#45;&gt;aePerson</title>
<path fill="none" stroke="black" d="M76.7288,-441.207C93.8441,-464.587 126.281,-505.213 162,-531 167.678,-535.099 174.077,-538.768 180.54,-541.982"/>
<polygon fill="black" stroke="black" points="179.433,-545.327 189.977,-546.361 182.379,-538.977 179.433,-545.327"/>
</g>
<!-- aeProxyFor -->
<g id="node7" class="node"><title>aeProxyFor</title>
<path fill="none" stroke="black" d="M254,-522C254,-522 194,-522 194,-522 188,-522 182,-516 182,-510 182,-510 182,-498 182,-498 182,-492 188,-486 194,-486 194,-486 254,-486 254,-486 260,-486 266,-492 266,-498 266,-498 266,-510 266,-510 266,-516 260,-522 254,-522"/>
<text text-anchor="middle" x="224" y="-500.3" font-family="Times,serif" font-size="14.00">aeProxyFor</text>
</g>
<!-- distinguishedName&#45;&gt;aeProxyFor -->
<g id="edge6" class="edge"><title>distinguishedName&#45;&gt;aeProxyFor</title>
<path fill="none" stroke="black" d="M95.4078,-441.217C114.455,-452.035 139.373,-465.785 162,-477 165.363,-478.667 168.851,-480.344 172.381,-482.003"/>
<polygon fill="black" stroke="black" points="171.211,-485.318 181.758,-486.329 174.144,-478.962 171.211,-485.318"/>
</g>
<!-- aeSetupGroups -->
<g id="node8" class="node"><title>aeSetupGroups</title>
<path fill="none" stroke="black" d="M263,-468C263,-468 185,-468 185,-468 179,-468 173,-462 173,-456 173,-456 173,-444 173,-444 173,-438 179,-432 185,-432 185,-432 263,-432 263,-432 269,-432 275,-438 275,-444 275,-444 275,-456 275,-456 275,-462 269,-468 263,-468"/>
<text text-anchor="middle" x="224" y="-446.3" font-family="Times,serif" font-size="14.00">aeSetupGroups</text>
</g>
<!-- distinguishedName&#45;&gt;aeSetupGroups -->
<g id="edge7" class="edge"><title>distinguishedName&#45;&gt;aeSetupGroups</title>
<path fill="none" stroke="black" d="M126.385,-433.594C138.228,-435.605 150.603,-437.706 162.39,-439.708"/>
<polygon fill="black" stroke="black" points="162.124,-443.213 172.569,-441.436 163.296,-436.311 162.124,-443.213"/>
</g>
<!-- aeSrvGroup -->
<g id="node9" class="node"><title>aeSrvGroup</title>
<path fill="none" stroke="black" d="M254,-414C254,-414 194,-414 194,-414 188,-414 182,-408 182,-402 182,-402 182,-390 182,-390 182,-384 188,-378 194,-378 194,-378 254,-378 254,-378 260,-378 266,-384 266,-390 266,-390 266,-402 266,-402 266,-408 260,-414 254,-414"/>
<text text-anchor="middle" x="224" y="-392.3" font-family="Times,serif" font-size="14.00">aeSrvGroup</text>
</g>
<!-- distinguishedName&#45;&gt;aeSrvGroup -->
<g id="edge8" class="edge"><title>distinguishedName&#45;&gt;aeSrvGroup</title>
<path fill="none" stroke="black" d="M126.385,-412.406C141.367,-409.862 157.2,-407.174 171.617,-404.725"/>
<polygon fill="black" stroke="black" points="172.559,-408.116 181.832,-402.991 171.387,-401.214 172.559,-408.116"/>
</g>
<!-- aeVisibleGroups -->
<g id="node10" class="node"><title>aeVisibleGroups</title>
<path fill="none" stroke="black" d="M267,-360C267,-360 181,-360 181,-360 175,-360 169,-354 169,-348 169,-348 169,-336 169,-336 169,-330 175,-324 181,-324 181,-324 267,-324 267,-324 273,-324 279,-330 279,-336 279,-336 279,-348 279,-348 279,-354 273,-360 267,-360"/>
<text text-anchor="middle" x="224" y="-338.3" font-family="Times,serif" font-size="14.00">aeVisibleGroups</text>
</g>
<!-- distinguishedName&#45;&gt;aeVisibleGroups -->
<g id="edge9" class="edge"><title>distinguishedName&#45;&gt;aeVisibleGroups</title>
<path fill="none" stroke="black" d="M95.4078,-404.783C114.455,-393.965 139.373,-380.215 162,-369 165.103,-367.462 168.314,-365.915 171.565,-364.381"/>
<polygon fill="black" stroke="black" points="173.171,-367.494 180.775,-360.117 170.23,-361.142 173.171,-367.494"/>
</g>
<!-- aeVisibleSudoers -->
<g id="node11" class="node"><title>aeVisibleSudoers</title>
<path fill="none" stroke="black" d="M269.5,-306C269.5,-306 178.5,-306 178.5,-306 172.5,-306 166.5,-300 166.5,-294 166.5,-294 166.5,-282 166.5,-282 166.5,-276 172.5,-270 178.5,-270 178.5,-270 269.5,-270 269.5,-270 275.5,-270 281.5,-276 281.5,-282 281.5,-282 281.5,-294 281.5,-294 281.5,-300 275.5,-306 269.5,-306"/>
<text text-anchor="middle" x="224" y="-284.3" font-family="Times,serif" font-size="14.00">aeVisibleSudoers</text>
</g>
<!-- distinguishedName&#45;&gt;aeVisibleSudoers -->
<g id="edge10" class="edge"><title>distinguishedName&#45;&gt;aeVisibleSudoers</title>
<path fill="none" stroke="black" d="M76.7288,-404.793C93.8441,-381.413 126.281,-340.787 162,-315 163.831,-313.678 165.737,-312.401 167.696,-311.169"/>
<polygon fill="black" stroke="black" points="169.639,-314.089 176.556,-306.064 166.144,-308.024 169.639,-314.089"/>
</g>
<!-- member -->
<g id="node12" class="node"><title>member</title>
<path fill="none" stroke="black" d="M244,-252C244,-252 204,-252 204,-252 198,-252 192,-246 192,-240 192,-240 192,-228 192,-228 192,-222 198,-216 204,-216 204,-216 244,-216 244,-216 250,-216 256,-222 256,-228 256,-228 256,-240 256,-240 256,-246 250,-252 244,-252"/>
<text text-anchor="middle" x="224" y="-230.3" font-family="Times,serif" font-size="14.00">member</text>
</g>
<!-- distinguishedName&#45;&gt;member -->
<g id="edge11" class="edge"><title>distinguishedName&#45;&gt;member</title>
<path fill="none" stroke="black" d="M70.6304,-404.994C83.5149,-372.242 114.871,-302.48 162,-261 167.99,-255.728 175.176,-251.337 182.478,-247.736"/>
<polygon fill="black" stroke="black" points="184.022,-250.88 191.71,-243.59 181.154,-244.494 184.022,-250.88"/>
</g>
<!-- oathParamsEntry -->
<g id="node13" class="node"><title>oathParamsEntry</title>
<path fill="none" stroke="black" d="M268.5,-198C268.5,-198 179.5,-198 179.5,-198 173.5,-198 167.5,-192 167.5,-186 167.5,-186 167.5,-174 167.5,-174 167.5,-168 173.5,-162 179.5,-162 179.5,-162 268.5,-162 268.5,-162 274.5,-162 280.5,-168 280.5,-174 280.5,-174 280.5,-186 280.5,-186 280.5,-192 274.5,-198 268.5,-198"/>
<text text-anchor="middle" x="224" y="-176.3" font-family="Times,serif" font-size="14.00">oathParamsEntry</text>
</g>
<!-- distinguishedName&#45;&gt;oathParamsEntry -->
<g id="edge12" class="edge"><title>distinguishedName&#45;&gt;oathParamsEntry</title>
<path fill="none" stroke="black" d="M67.6182,-404.836C76.59,-364.196 103.496,-264.967 162,-207 162.949,-206.06 163.936,-205.15 164.956,-204.269"/>
<polygon fill="black" stroke="black" points="167.373,-206.834 173.33,-198.072 163.21,-201.207 167.373,-206.834"/>
</g>
<!-- oathToken -->
<g id="node16" class="node"><title>oathToken</title>
<path fill="none" stroke="black" d="M251,-144C251,-144 197,-144 197,-144 191,-144 185,-138 185,-132 185,-132 185,-120 185,-120 185,-114 191,-108 197,-108 197,-108 251,-108 251,-108 257,-108 263,-114 263,-120 263,-120 263,-132 263,-132 263,-138 257,-144 251,-144"/>
<text text-anchor="middle" x="224" y="-122.3" font-family="Times,serif" font-size="14.00">oathToken</text>
</g>
<!-- distinguishedName&#45;&gt;oathToken -->
<g id="edge15" class="edge"><title>distinguishedName&#45;&gt;oathToken</title>
<path fill="none" stroke="black" d="M65.7317,-404.717C71.1571,-357.161 91.8924,-228.084 162,-153 166,-148.716 170.803,-145.071 175.934,-141.979"/>
<polygon fill="black" stroke="black" points="177.599,-145.057 184.797,-137.283 174.322,-138.872 177.599,-145.057"/>
</g>
<!-- owner -->
<g id="node19" class="node"><title>owner</title>
<path fill="none" stroke="black" d="M239,-63C239,-63 209,-63 209,-63 203,-63 197,-57 197,-51 197,-51 197,-39 197,-39 197,-33 203,-27 209,-27 209,-27 239,-27 239,-27 245,-27 251,-33 251,-39 251,-39 251,-51 251,-51 251,-57 245,-63 239,-63"/>
<text text-anchor="middle" x="224" y="-41.3" font-family="Times,serif" font-size="14.00">owner</text>
</g>
<!-- distinguishedName&#45;&gt;owner -->
<g id="edge18" class="edge"><title>distinguishedName&#45;&gt;owner</title>
<path fill="none" stroke="black" d="M65.9952,-404.704C72.3459,-352.922 95.7255,-202.407 162,-99 169.106,-87.9126 179.112,-77.747 188.969,-69.2994"/>
<polygon fill="black" stroke="black" points="191.259,-71.9483 196.784,-62.9081 186.827,-66.5297 191.259,-71.9483"/>
</g>
<!-- oathTOTPParams -->
<g id="node14" class="node"><title>oathTOTPParams</title>
<path fill="none" stroke="black" d="M429.5,-252C429.5,-252 334.5,-252 334.5,-252 328.5,-252 322.5,-246 322.5,-240 322.5,-240 322.5,-228 322.5,-228 322.5,-222 328.5,-216 334.5,-216 334.5,-216 429.5,-216 429.5,-216 435.5,-216 441.5,-222 441.5,-228 441.5,-228 441.5,-240 441.5,-240 441.5,-246 435.5,-252 429.5,-252"/>
<text text-anchor="middle" x="382" y="-230.3" font-family="Times,serif" font-size="14.00">oathTOTPParams</text>
</g>
<!-- oathParamsEntry&#45;&gt;oathTOTPParams -->
<g id="edge13" class="edge"><title>oathParamsEntry&#45;&gt;oathTOTPParams</title>
<path fill="none" stroke="black" d="M277.38,-198.131C290.828,-202.787 305.42,-207.838 319.293,-212.64"/>
<polygon fill="black" stroke="black" points="318.164,-215.953 328.759,-215.916 320.454,-209.338 318.164,-215.953"/>
</g>
<!-- oathHOTPParams -->
<g id="node15" class="node"><title>oathHOTPParams</title>
<path fill="none" stroke="black" d="M430,-198C430,-198 334,-198 334,-198 328,-198 322,-192 322,-186 322,-186 322,-174 322,-174 322,-168 328,-162 334,-162 334,-162 430,-162 430,-162 436,-162 442,-168 442,-174 442,-174 442,-186 442,-186 442,-192 436,-198 430,-198"/>
<text text-anchor="middle" x="382" y="-176.3" font-family="Times,serif" font-size="14.00">oathHOTPParams</text>
</g>
<!-- oathParamsEntry&#45;&gt;oathHOTPParams -->
<g id="edge14" class="edge"><title>oathParamsEntry&#45;&gt;oathHOTPParams</title>
<path fill="none" stroke="black" d="M280.879,-180C290.846,-180 301.338,-180 311.627,-180"/>
<polygon fill="black" stroke="black" points="311.822,-183.5 321.822,-180 311.821,-176.5 311.822,-183.5"/>
</g>
<!-- oathTOTPToken -->
<g id="node17" class="node"><title>oathTOTPToken</title>
<path fill="none" stroke="black" d="M427.5,-144C427.5,-144 336.5,-144 336.5,-144 330.5,-144 324.5,-138 324.5,-132 324.5,-132 324.5,-120 324.5,-120 324.5,-114 330.5,-108 336.5,-108 336.5,-108 427.5,-108 427.5,-108 433.5,-108 439.5,-114 439.5,-120 439.5,-120 439.5,-132 439.5,-132 439.5,-138 433.5,-144 427.5,-144"/>
<text text-anchor="middle" x="382" y="-122.3" font-family="Times,serif" font-size="14.00">oathTOTPToken</text>
</g>
<!-- oathToken&#45;&gt;oathTOTPToken -->
<g id="edge16" class="edge"><title>oathToken&#45;&gt;oathTOTPToken</title>
<path fill="none" stroke="black" d="M263.162,-126C278.544,-126 296.752,-126 314.197,-126"/>
<polygon fill="black" stroke="black" points="314.353,-129.5 324.353,-126 314.353,-122.5 314.353,-129.5"/>
</g>
<!-- oathHOTPToken -->
<g id="node18" class="node"><title>oathHOTPToken</title>
<path fill="none" stroke="black" d="M428,-90C428,-90 336,-90 336,-90 330,-90 324,-84 324,-78 324,-78 324,-66 324,-66 324,-60 330,-54 336,-54 336,-54 428,-54 428,-54 434,-54 440,-60 440,-66 440,-66 440,-78 440,-78 440,-84 434,-90 428,-90"/>
<text text-anchor="middle" x="382" y="-68.3" font-family="Times,serif" font-size="14.00">oathHOTPToken</text>
</g>
<!-- oathToken&#45;&gt;oathHOTPToken -->
<g id="edge17" class="edge"><title>oathToken&#45;&gt;oathHOTPToken</title>
<path fill="none" stroke="black" d="M263.162,-112.79C280.061,-106.94 300.371,-99.9102 319.332,-93.3466"/>
<polygon fill="black" stroke="black" points="320.499,-96.6464 328.804,-90.0677 318.21,-90.0315 320.499,-96.6464"/>
</g>
<!-- aeOwnerGroup -->
<g id="node20" class="node"><title>aeOwnerGroup</title>
<path fill="none" stroke="black" d="M422,-36C422,-36 342,-36 342,-36 336,-36 330,-30 330,-24 330,-24 330,-12 330,-12 330,-6 336,-0 342,-0 342,-0 422,-0 422,-0 428,-0 434,-6 434,-12 434,-12 434,-24 434,-24 434,-30 428,-36 422,-36"/>
<text text-anchor="middle" x="382" y="-14.3" font-family="Times,serif" font-size="14.00">aeOwnerGroup</text>
</g>
<!-- owner&#45;&gt;aeOwnerGroup -->
<g id="edge19" class="edge"><title>owner&#45;&gt;aeOwnerGroup</title>
<path fill="none" stroke="black" d="M251.111,-40.4808C269.857,-37.2363 295.921,-32.7252 319.785,-28.5949"/>
<polygon fill="black" stroke="black" points="320.593,-32.0072 329.85,-26.8529 319.399,-25.1097 320.593,-32.0072"/>
</g>
<!-- associatedDomain -->
<g id="node21" class="node"><title>associatedDomain</title>
<path fill="none" stroke="black" d="M111,-846C111,-846 15,-846 15,-846 9,-846 3,-840 3,-834 3,-834 3,-822 3,-822 3,-816 9,-810 15,-810 15,-810 111,-810 111,-810 117,-810 123,-816 123,-822 123,-822 123,-834 123,-834 123,-840 117,-846 111,-846"/>
<text text-anchor="middle" x="63" y="-824.3" font-family="Times,serif" font-size="14.00">associatedDomain</text>
</g>
<!-- aeFqdn -->
<g id="node22" class="node"><title>aeFqdn</title>
<path fill="none" stroke="black" d="M241.5,-846C241.5,-846 206.5,-846 206.5,-846 200.5,-846 194.5,-840 194.5,-834 194.5,-834 194.5,-822 194.5,-822 194.5,-816 200.5,-810 206.5,-810 206.5,-810 241.5,-810 241.5,-810 247.5,-810 253.5,-816 253.5,-822 253.5,-822 253.5,-834 253.5,-834 253.5,-840 247.5,-846 241.5,-846"/>
<text text-anchor="middle" x="224" y="-824.3" font-family="Times,serif" font-size="14.00">aeFqdn</text>
</g>
<!-- associatedDomain&#45;&gt;aeFqdn -->
<g id="edge20" class="edge"><title>associatedDomain&#45;&gt;aeFqdn</title>
<path fill="none" stroke="black" d="M123.206,-828C143.672,-828 166.061,-828 184.437,-828"/>
<polygon fill="black" stroke="black" points="184.471,-831.5 194.471,-828 184.471,-824.5 184.471,-831.5"/>
</g>
<!-- name -->
<g id="node23" class="node"><title>name</title>
<path fill="none" stroke="black" d="M78,-1035C78,-1035 48,-1035 48,-1035 42,-1035 36,-1029 36,-1023 36,-1023 36,-1011 36,-1011 36,-1005 42,-999 48,-999 48,-999 78,-999 78,-999 84,-999 90,-1005 90,-1011 90,-1011 90,-1023 90,-1023 90,-1029 84,-1035 78,-1035"/>
<text text-anchor="middle" x="63" y="-1013.3" font-family="Times,serif" font-size="14.00">name</text>
</g>
<!-- aeTag -->
<g id="node24" class="node"><title>aeTag</title>
<path fill="none" stroke="black" d="M239,-1170C239,-1170 209,-1170 209,-1170 203,-1170 197,-1164 197,-1158 197,-1158 197,-1146 197,-1146 197,-1140 203,-1134 209,-1134 209,-1134 239,-1134 239,-1134 245,-1134 251,-1140 251,-1146 251,-1146 251,-1158 251,-1158 251,-1164 245,-1170 239,-1170"/>
<text text-anchor="middle" x="224" y="-1148.3" font-family="Times,serif" font-size="14.00">aeTag</text>
</g>
<!-- name&#45;&gt;aeTag -->
<g id="edge21" class="edge"><title>name&#45;&gt;aeTag</title>
<path fill="none" stroke="black" d="M76.7288,-1035.21C93.8441,-1058.59 126.281,-1099.21 162,-1125 169.723,-1130.58 178.781,-1135.36 187.517,-1139.28"/>
<polygon fill="black" stroke="black" points="186.22,-1142.53 196.794,-1143.19 188.94,-1136.08 186.22,-1142.53"/>
</g>
<!-- givenName -->
<g id="node25" class="node"><title>givenName</title>
<path fill="none" stroke="black" d="M253.5,-1116C253.5,-1116 194.5,-1116 194.5,-1116 188.5,-1116 182.5,-1110 182.5,-1104 182.5,-1104 182.5,-1092 182.5,-1092 182.5,-1086 188.5,-1080 194.5,-1080 194.5,-1080 253.5,-1080 253.5,-1080 259.5,-1080 265.5,-1086 265.5,-1092 265.5,-1092 265.5,-1104 265.5,-1104 265.5,-1110 259.5,-1116 253.5,-1116"/>
<text text-anchor="middle" x="224" y="-1094.3" font-family="Times,serif" font-size="14.00">givenName</text>
</g>
<!-- name&#45;&gt;givenName -->
<g id="edge22" class="edge"><title>name&#45;&gt;givenName</title>
<path fill="none" stroke="black" d="M90.2896,-1032.3C109.835,-1043.48 137.285,-1058.75 162,-1071 165.575,-1072.77 169.293,-1074.56 173.05,-1076.32"/>
<polygon fill="black" stroke="black" points="171.864,-1079.62 182.411,-1080.63 174.791,-1073.27 171.864,-1079.62"/>
</g>
<!-- sn -->
<g id="node26" class="node"><title>sn</title>
<path fill="none" stroke="black" d="M239,-1062C239,-1062 209,-1062 209,-1062 203,-1062 197,-1056 197,-1050 197,-1050 197,-1038 197,-1038 197,-1032 203,-1026 209,-1026 209,-1026 239,-1026 239,-1026 245,-1026 251,-1032 251,-1038 251,-1038 251,-1050 251,-1050 251,-1056 245,-1062 239,-1062"/>
<text text-anchor="middle" x="224" y="-1040.3" font-family="Times,serif" font-size="14.00">sn</text>
</g>
<!-- name&#45;&gt;sn -->
<g id="edge23" class="edge"><title>name&#45;&gt;sn</title>
<path fill="none" stroke="black" d="M90.2556,-1021.46C116.688,-1025.95 157.652,-1032.9 187.083,-1037.9"/>
<polygon fill="black" stroke="black" points="186.525,-1041.36 196.97,-1039.58 187.697,-1034.45 186.525,-1041.36"/>
</g>
<!-- cn -->
<g id="node27" class="node"><title>cn</title>
<path fill="none" stroke="black" d="M239,-1008C239,-1008 209,-1008 209,-1008 203,-1008 197,-1002 197,-996 197,-996 197,-984 197,-984 197,-978 203,-972 209,-972 209,-972 239,-972 239,-972 245,-972 251,-978 251,-984 251,-984 251,-996 251,-996 251,-1002 245,-1008 239,-1008"/>
<text text-anchor="middle" x="224" y="-986.3" font-family="Times,serif" font-size="14.00">cn</text>
</g>
<!-- name&#45;&gt;cn -->
<g id="edge24" class="edge"><title>name&#45;&gt;cn</title>
<path fill="none" stroke="black" d="M90.2556,-1012.54C116.688,-1008.05 157.652,-1001.1 187.083,-996.099"/>
<polygon fill="black" stroke="black" points="187.697,-999.545 196.97,-994.42 186.525,-992.644 187.697,-999.545"/>
</g>
<!-- o -->
<g id="node28" class="node"><title>o</title>
<path fill="none" stroke="black" d="M239,-954C239,-954 209,-954 209,-954 203,-954 197,-948 197,-942 197,-942 197,-930 197,-930 197,-924 203,-918 209,-918 209,-918 239,-918 239,-918 245,-918 251,-924 251,-930 251,-930 251,-942 251,-942 251,-948 245,-954 239,-954"/>
<text text-anchor="middle" x="224" y="-932.3" font-family="Times,serif" font-size="14.00">o</text>
</g>
<!-- name&#45;&gt;o -->
<g id="edge25" class="edge"><title>name&#45;&gt;o</title>
<path fill="none" stroke="black" d="M90.2896,-1001.7C109.835,-990.525 137.285,-975.25 162,-963 170.218,-958.927 179.189,-954.79 187.661,-951.018"/>
<polygon fill="black" stroke="black" points="189.2,-954.165 196.947,-946.938 186.384,-947.757 189.2,-954.165"/>
</g>
<!-- ou -->
<g id="node29" class="node"><title>ou</title>
<path fill="none" stroke="black" d="M239,-900C239,-900 209,-900 209,-900 203,-900 197,-894 197,-888 197,-888 197,-876 197,-876 197,-870 203,-864 209,-864 209,-864 239,-864 239,-864 245,-864 251,-870 251,-876 251,-876 251,-888 251,-888 251,-894 245,-900 239,-900"/>
<text text-anchor="middle" x="224" y="-878.3" font-family="Times,serif" font-size="14.00">ou</text>
</g>
<!-- name&#45;&gt;ou -->
<g id="edge26" class="edge"><title>name&#45;&gt;ou</title>
<path fill="none" stroke="black" d="M76.7288,-998.793C93.8441,-975.413 126.281,-934.787 162,-909 169.723,-903.424 178.781,-898.644 187.517,-894.724"/>
<polygon fill="black" stroke="black" points="188.94,-897.923 196.794,-890.811 186.22,-891.473 188.94,-897.923"/>
</g>
</g>
</svg>
