<?xml version="1.0" encoding="UTF-8" standalone="no"?>
<!DOCTYPE svg PUBLIC "-//W3C//DTD SVG 1.1//EN"
 "http://www.w3.org/Graphics/SVG/1.1/DTD/svg11.dtd">
<!-- Generated by graphviz version 2.40.1 (20161225.0304)
 -->
<!-- Title: AE&#45;DIR object classes Pages: 1 -->
<svg width="640pt" height="1205pt"
 viewBox="0.00 0.00 640.00 1205.00" xmlns="http://www.w3.org/2000/svg" xmlns:xlink="http://www.w3.org/1999/xlink">
<g id="graph0" class="graph" transform="scale(1 1) rotate(0) translate(4 1201)">
<title>AE&#45;DIR object classes</title>
<polygon fill="#ffffff" stroke="transparent" points="-4,4 -4,-1201 636,-1201 636,4 -4,4"/>
<!-- distinguishedName -->
<g id="node1" class="node">
<title>distinguishedName</title>
<path fill="none" stroke="#000000" d="M114,-684C114,-684 12,-684 12,-684 6,-684 0,-678 0,-672 0,-672 0,-660 0,-660 0,-654 6,-648 12,-648 12,-648 114,-648 114,-648 120,-648 126,-654 126,-660 126,-660 126,-672 126,-672 126,-678 120,-684 114,-684"/>
<text text-anchor="middle" x="63" y="-662.3" font-family="Times,serif" font-size="14.00" fill="#000000">distinguishedName</text>
</g>
<!-- aeRoot -->
<g id="node2" class="node">
<title>aeRoot</title>
<path fill="none" stroke="#000000" d="M251.5,-819C251.5,-819 218.5,-819 218.5,-819 212.5,-819 206.5,-813 206.5,-807 206.5,-807 206.5,-795 206.5,-795 206.5,-789 212.5,-783 218.5,-783 218.5,-783 251.5,-783 251.5,-783 257.5,-783 263.5,-789 263.5,-795 263.5,-795 263.5,-807 263.5,-807 263.5,-813 257.5,-819 251.5,-819"/>
<text text-anchor="middle" x="235" y="-797.3" font-family="Times,serif" font-size="14.00" fill="#000000">aeRoot</text>
</g>
<!-- distinguishedName&#45;&gt;aeRoot -->
<g id="edge1" class="edge">
<title>distinguishedName&#45;&gt;aeRoot</title>
<path fill="none" stroke="#000000" d="M75.3645,-684.1394C92.3557,-707.8236 125.0514,-749.1776 162,-774 172.5155,-781.0644 185.1193,-786.5757 196.8716,-790.724"/>
<polygon fill="#000000" stroke="#000000" points="195.8857,-794.0842 206.4788,-793.8921 198.078,-787.4363 195.8857,-794.0842"/>
</g>
<!-- defaultNamingContext -->
<g id="node3" class="node">
<title>defaultNamingContext</title>
<path fill="none" stroke="#000000" d="M296,-765C296,-765 174,-765 174,-765 168,-765 162,-759 162,-753 162,-753 162,-741 162,-741 162,-735 168,-729 174,-729 174,-729 296,-729 296,-729 302,-729 308,-735 308,-741 308,-741 308,-753 308,-753 308,-759 302,-765 296,-765"/>
<text text-anchor="middle" x="235" y="-743.3" font-family="Times,serif" font-size="14.00" fill="#000000">defaultNamingContext</text>
</g>
<!-- distinguishedName&#45;&gt;defaultNamingContext -->
<g id="edge2" class="edge">
<title>distinguishedName&#45;&gt;defaultNamingContext</title>
<path fill="none" stroke="#000000" d="M93.6224,-684.2049C112.8893,-695.2793 138.4752,-709.3019 162,-720 165.8055,-721.7306 169.7573,-723.4372 173.7645,-725.1004"/>
<polygon fill="#000000" stroke="#000000" points="172.5892,-728.4002 183.1725,-728.8931 175.2065,-721.9079 172.5892,-728.4002"/>
</g>
<!-- member -->
<g id="node4" class="node">
<title>member</title>
<path fill="none" stroke="#000000" d="M255,-711C255,-711 215,-711 215,-711 209,-711 203,-705 203,-699 203,-699 203,-687 203,-687 203,-681 209,-675 215,-675 215,-675 255,-675 255,-675 261,-675 267,-681 267,-687 267,-687 267,-699 267,-699 267,-705 261,-711 255,-711"/>
<text text-anchor="middle" x="235" y="-689.3" font-family="Times,serif" font-size="14.00" fill="#000000">member</text>
</g>
<!-- distinguishedName&#45;&gt;member -->
<g id="edge3" class="edge">
<title>distinguishedName&#45;&gt;member</title>
<path fill="none" stroke="#000000" d="M126.0698,-675.9005C148.2772,-679.3865 172.6852,-683.218 192.7578,-686.369"/>
<polygon fill="#000000" stroke="#000000" points="192.4029,-689.856 202.8247,-687.9492 193.4885,-682.9407 192.4029,-689.856"/>
</g>
<!-- oathParamsEntry -->
<g id="node5" class="node">
<title>oathParamsEntry</title>
<path fill="none" stroke="#000000" d="M279.5,-657C279.5,-657 190.5,-657 190.5,-657 184.5,-657 178.5,-651 178.5,-645 178.5,-645 178.5,-633 178.5,-633 178.5,-627 184.5,-621 190.5,-621 190.5,-621 279.5,-621 279.5,-621 285.5,-621 291.5,-627 291.5,-633 291.5,-633 291.5,-645 291.5,-645 291.5,-651 285.5,-657 279.5,-657"/>
<text text-anchor="middle" x="235" y="-635.3" font-family="Times,serif" font-size="14.00" fill="#000000">oathParamsEntry</text>
</g>
<!-- distinguishedName&#45;&gt;oathParamsEntry -->
<g id="edge4" class="edge">
<title>distinguishedName&#45;&gt;oathParamsEntry</title>
<path fill="none" stroke="#000000" d="M126.0698,-656.0995C139.8797,-653.9317 154.5407,-651.6302 168.4809,-649.442"/>
<polygon fill="#000000" stroke="#000000" points="169.1454,-652.8806 178.4816,-647.8721 168.0598,-645.9653 169.1454,-652.8806"/>
</g>
<!-- oathToken -->
<g id="node8" class="node">
<title>oathToken</title>
<path fill="none" stroke="#000000" d="M262,-603C262,-603 208,-603 208,-603 202,-603 196,-597 196,-591 196,-591 196,-579 196,-579 196,-573 202,-567 208,-567 208,-567 262,-567 262,-567 268,-567 274,-573 274,-579 274,-579 274,-591 274,-591 274,-597 268,-603 262,-603"/>
<text text-anchor="middle" x="235" y="-581.3" font-family="Times,serif" font-size="14.00" fill="#000000">oathToken</text>
</g>
<!-- distinguishedName&#45;&gt;oathToken -->
<g id="edge7" class="edge">
<title>distinguishedName&#45;&gt;oathToken</title>
<path fill="none" stroke="#000000" d="M93.6224,-647.7951C112.8893,-636.7207 138.4752,-622.6981 162,-612 169.7801,-608.4619 178.1719,-605.024 186.3983,-601.8527"/>
<polygon fill="#000000" stroke="#000000" points="187.8077,-605.0619 195.9327,-598.2623 185.3408,-598.511 187.8077,-605.0619"/>
</g>
<!-- aeObjectReference -->
<g id="node11" class="node">
<title>aeObjectReference</title>
<path fill="none" stroke="#000000" d="M286.5,-360C286.5,-360 183.5,-360 183.5,-360 177.5,-360 171.5,-354 171.5,-348 171.5,-348 171.5,-336 171.5,-336 171.5,-330 177.5,-324 183.5,-324 183.5,-324 286.5,-324 286.5,-324 292.5,-324 298.5,-330 298.5,-336 298.5,-336 298.5,-348 298.5,-348 298.5,-354 292.5,-360 286.5,-360"/>
<text text-anchor="middle" x="235" y="-338.3" font-family="Times,serif" font-size="14.00" fill="#000000">aeObjectReference</text>
</g>
<!-- distinguishedName&#45;&gt;aeObjectReference -->
<g id="edge10" class="edge">
<title>distinguishedName&#45;&gt;aeObjectReference</title>
<path fill="none" stroke="#000000" d="M72.7403,-647.652C101.5359,-593.409 186.3803,-433.5859 220.5236,-369.2695"/>
<polygon fill="#000000" stroke="#000000" points="223.769,-370.6205 225.3665,-360.1467 217.5862,-367.3382 223.769,-370.6205"/>
</g>
<!-- oathTOTPParams -->
<g id="node6" class="node">
<title>oathTOTPParams</title>
<path fill="none" stroke="#000000" d="M453.5,-711C453.5,-711 358.5,-711 358.5,-711 352.5,-711 346.5,-705 346.5,-699 346.5,-699 346.5,-687 346.5,-687 346.5,-681 352.5,-675 358.5,-675 358.5,-675 453.5,-675 453.5,-675 459.5,-675 465.5,-681 465.5,-687 465.5,-687 465.5,-699 465.5,-699 465.5,-705 459.5,-711 453.5,-711"/>
<text text-anchor="middle" x="406" y="-689.3" font-family="Times,serif" font-size="14.00" fill="#000000">oathTOTPParams</text>
</g>
<!-- oathParamsEntry&#45;&gt;oathTOTPParams -->
<g id="edge5" class="edge">
<title>oathParamsEntry&#45;&gt;oathTOTPParams</title>
<path fill="none" stroke="#000000" d="M291.9405,-656.9812C307.0665,-661.7579 323.5399,-666.96 339.1426,-671.8871"/>
<polygon fill="#000000" stroke="#000000" points="338.1353,-675.2393 348.7251,-674.9132 340.2432,-668.5643 338.1353,-675.2393"/>
</g>
<!-- oathHOTPParams -->
<g id="node7" class="node">
<title>oathHOTPParams</title>
<path fill="none" stroke="#000000" d="M454,-657C454,-657 358,-657 358,-657 352,-657 346,-651 346,-645 346,-645 346,-633 346,-633 346,-627 352,-621 358,-621 358,-621 454,-621 454,-621 460,-621 466,-627 466,-633 466,-633 466,-645 466,-645 466,-651 460,-657 454,-657"/>
<text text-anchor="middle" x="406" y="-635.3" font-family="Times,serif" font-size="14.00" fill="#000000">oathHOTPParams</text>
</g>
<!-- oathParamsEntry&#45;&gt;oathHOTPParams -->
<g id="edge6" class="edge">
<title>oathParamsEntry&#45;&gt;oathHOTPParams</title>
<path fill="none" stroke="#000000" d="M291.9405,-639C305.8566,-639 320.9132,-639 335.3829,-639"/>
<polygon fill="#000000" stroke="#000000" points="335.7907,-642.5001 345.7907,-639 335.7907,-635.5001 335.7907,-642.5001"/>
</g>
<!-- oathTOTPToken -->
<g id="node9" class="node">
<title>oathTOTPToken</title>
<path fill="none" stroke="#000000" d="M451.5,-603C451.5,-603 360.5,-603 360.5,-603 354.5,-603 348.5,-597 348.5,-591 348.5,-591 348.5,-579 348.5,-579 348.5,-573 354.5,-567 360.5,-567 360.5,-567 451.5,-567 451.5,-567 457.5,-567 463.5,-573 463.5,-579 463.5,-579 463.5,-591 463.5,-591 463.5,-597 457.5,-603 451.5,-603"/>
<text text-anchor="middle" x="406" y="-581.3" font-family="Times,serif" font-size="14.00" fill="#000000">oathTOTPToken</text>
</g>
<!-- oathToken&#45;&gt;oathTOTPToken -->
<g id="edge8" class="edge">
<title>oathToken&#45;&gt;oathTOTPToken</title>
<path fill="none" stroke="#000000" d="M274.2309,-585C293.2132,-585 316.5498,-585 338.2826,-585"/>
<polygon fill="#000000" stroke="#000000" points="338.4638,-588.5001 348.4638,-585 338.4637,-581.5001 338.4638,-588.5001"/>
</g>
<!-- oathHOTPToken -->
<g id="node10" class="node">
<title>oathHOTPToken</title>
<path fill="none" stroke="#000000" d="M452,-549C452,-549 360,-549 360,-549 354,-549 348,-543 348,-537 348,-537 348,-525 348,-525 348,-519 354,-513 360,-513 360,-513 452,-513 452,-513 458,-513 464,-519 464,-525 464,-525 464,-537 464,-537 464,-543 458,-549 452,-549"/>
<text text-anchor="middle" x="406" y="-527.3" font-family="Times,serif" font-size="14.00" fill="#000000">oathHOTPToken</text>
</g>
<!-- oathToken&#45;&gt;oathHOTPToken -->
<g id="edge9" class="edge">
<title>oathToken&#45;&gt;oathHOTPToken</title>
<path fill="none" stroke="#000000" d="M274.2309,-572.6113C293.4709,-566.5355 317.1842,-559.0471 339.1667,-552.1052"/>
<polygon fill="#000000" stroke="#000000" points="340.3102,-555.4146 348.792,-549.0657 338.2022,-548.7395 340.3102,-555.4146"/>
</g>
<!-- aeDept -->
<g id="node12" class="node">
<title>aeDept</title>
<path fill="none" stroke="#000000" d="M422,-495C422,-495 390,-495 390,-495 384,-495 378,-489 378,-483 378,-483 378,-471 378,-471 378,-465 384,-459 390,-459 390,-459 422,-459 422,-459 428,-459 434,-465 434,-471 434,-471 434,-483 434,-483 434,-489 428,-495 422,-495"/>
<text text-anchor="middle" x="406" y="-473.3" font-family="Times,serif" font-size="14.00" fill="#000000">aeDept</text>
</g>
<!-- aeObjectReference&#45;&gt;aeDept -->
<g id="edge11" class="edge">
<title>aeObjectReference&#45;&gt;aeDept</title>
<path fill="none" stroke="#000000" d="M249.5764,-360.1379C269.0656,-383.444 305.6326,-423.9899 344,-450 351.4842,-455.0737 360.0766,-459.5383 368.4331,-463.301"/>
<polygon fill="#000000" stroke="#000000" points="367.1242,-466.5477 377.696,-467.2462 369.8672,-460.1075 367.1242,-466.5477"/>
</g>
<!-- aeHost -->
<g id="node13" class="node">
<title>aeHost</title>
<path fill="none" stroke="#000000" d="M422,-441C422,-441 390,-441 390,-441 384,-441 378,-435 378,-429 378,-429 378,-417 378,-417 378,-411 384,-405 390,-405 390,-405 422,-405 422,-405 428,-405 434,-411 434,-417 434,-417 434,-429 434,-429 434,-435 428,-441 422,-441"/>
<text text-anchor="middle" x="406" y="-419.3" font-family="Times,serif" font-size="14.00" fill="#000000">aeHost</text>
</g>
<!-- aeObjectReference&#45;&gt;aeHost -->
<g id="edge12" class="edge">
<title>aeObjectReference&#45;&gt;aeHost</title>
<path fill="none" stroke="#000000" d="M270.6233,-360.201C291.8137,-370.889 319.2981,-384.511 344,-396 351.8808,-399.6654 360.3885,-403.4688 368.5014,-407.0238"/>
<polygon fill="#000000" stroke="#000000" points="367.2166,-410.2817 377.7828,-411.0599 370.0081,-403.8623 367.2166,-410.2817"/>
</g>
<!-- aePerson -->
<g id="node14" class="node">
<title>aePerson</title>
<path fill="none" stroke="#000000" d="M428,-387C428,-387 384,-387 384,-387 378,-387 372,-381 372,-375 372,-375 372,-363 372,-363 372,-357 378,-351 384,-351 384,-351 428,-351 428,-351 434,-351 440,-357 440,-363 440,-363 440,-375 440,-375 440,-381 434,-387 428,-387"/>
<text text-anchor="middle" x="406" y="-365.3" font-family="Times,serif" font-size="14.00" fill="#000000">aePerson</text>
</g>
<!-- aeObjectReference&#45;&gt;aePerson -->
<g id="edge13" class="edge">
<title>aeObjectReference&#45;&gt;aePerson</title>
<path fill="none" stroke="#000000" d="M298.6741,-352.0538C319.6016,-355.3581 342.3988,-358.9577 361.5784,-361.9861"/>
<polygon fill="#000000" stroke="#000000" points="361.1135,-365.4559 371.5371,-363.5585 362.2053,-358.5416 361.1135,-365.4559"/>
</g>
<!-- aeProxyFor -->
<g id="node15" class="node">
<title>aeProxyFor</title>
<path fill="none" stroke="#000000" d="M436,-333C436,-333 376,-333 376,-333 370,-333 364,-327 364,-321 364,-321 364,-309 364,-309 364,-303 370,-297 376,-297 376,-297 436,-297 436,-297 442,-297 448,-303 448,-309 448,-309 448,-321 448,-321 448,-327 442,-333 436,-333"/>
<text text-anchor="middle" x="406" y="-311.3" font-family="Times,serif" font-size="14.00" fill="#000000">aeProxyFor</text>
</g>
<!-- aeObjectReference&#45;&gt;aeProxyFor -->
<g id="edge14" class="edge">
<title>aeObjectReference&#45;&gt;aeProxyFor</title>
<path fill="none" stroke="#000000" d="M298.6741,-331.9462C316.8516,-329.0761 336.4396,-325.9832 353.8424,-323.2354"/>
<polygon fill="#000000" stroke="#000000" points="354.4775,-326.6786 363.8092,-321.6617 353.3857,-319.7642 354.4775,-326.6786"/>
</g>
<!-- aeSrvGroup -->
<g id="node16" class="node">
<title>aeSrvGroup</title>
<path fill="none" stroke="#000000" d="M436,-279C436,-279 376,-279 376,-279 370,-279 364,-273 364,-267 364,-267 364,-255 364,-255 364,-249 370,-243 376,-243 376,-243 436,-243 436,-243 442,-243 448,-249 448,-255 448,-255 448,-267 448,-267 448,-273 442,-279 436,-279"/>
<text text-anchor="middle" x="406" y="-257.3" font-family="Times,serif" font-size="14.00" fill="#000000">aeSrvGroup</text>
</g>
<!-- aeObjectReference&#45;&gt;aeSrvGroup -->
<g id="edge15" class="edge">
<title>aeObjectReference&#45;&gt;aeSrvGroup</title>
<path fill="none" stroke="#000000" d="M270.6233,-323.799C291.8137,-313.111 319.2981,-299.489 344,-288 347.3932,-286.4218 350.9025,-284.8181 354.4466,-283.2196"/>
<polygon fill="#000000" stroke="#000000" points="356.1474,-286.2933 363.8529,-279.0217 353.2946,-279.901 356.1474,-286.2933"/>
</g>
<!-- aeVisibleSudoers -->
<g id="node17" class="node">
<title>aeVisibleSudoers</title>
<path fill="none" stroke="#000000" d="M451.5,-225C451.5,-225 360.5,-225 360.5,-225 354.5,-225 348.5,-219 348.5,-213 348.5,-213 348.5,-201 348.5,-201 348.5,-195 354.5,-189 360.5,-189 360.5,-189 451.5,-189 451.5,-189 457.5,-189 463.5,-195 463.5,-201 463.5,-201 463.5,-213 463.5,-213 463.5,-219 457.5,-225 451.5,-225"/>
<text text-anchor="middle" x="406" y="-203.3" font-family="Times,serif" font-size="14.00" fill="#000000">aeVisibleSudoers</text>
</g>
<!-- aeObjectReference&#45;&gt;aeVisibleSudoers -->
<g id="edge16" class="edge">
<title>aeObjectReference&#45;&gt;aeVisibleSudoers</title>
<path fill="none" stroke="#000000" d="M249.5764,-323.8621C269.0656,-300.556 305.6326,-260.0101 344,-234 346.0832,-232.5877 348.2523,-231.2227 350.4783,-229.9068"/>
<polygon fill="#000000" stroke="#000000" points="352.1982,-232.9554 359.2847,-225.0794 348.8334,-226.8171 352.1982,-232.9554"/>
</g>
<!-- aeGroupReference -->
<g id="node18" class="node">
<title>aeGroupReference</title>
<path fill="none" stroke="#000000" d="M456,-171C456,-171 356,-171 356,-171 350,-171 344,-165 344,-159 344,-159 344,-147 344,-147 344,-141 350,-135 356,-135 356,-135 456,-135 456,-135 462,-135 468,-141 468,-147 468,-147 468,-159 468,-159 468,-165 462,-171 456,-171"/>
<text text-anchor="middle" x="406" y="-149.3" font-family="Times,serif" font-size="14.00" fill="#000000">aeGroupReference</text>
</g>
<!-- aeObjectReference&#45;&gt;aeGroupReference -->
<g id="edge17" class="edge">
<title>aeObjectReference&#45;&gt;aeGroupReference</title>
<path fill="none" stroke="#000000" d="M242.8919,-323.9874C258.0637,-291.224 294.2557,-221.444 344,-180 345.3643,-178.8634 346.7838,-177.7668 348.2472,-176.7095"/>
<polygon fill="#000000" stroke="#000000" points="350.5009,-179.4222 357.0303,-171.0785 346.7228,-173.5293 350.5009,-179.4222"/>
</g>
<!-- aeLoginGroups -->
<g id="node19" class="node">
<title>aeLoginGroups</title>
<path fill="none" stroke="#000000" d="M608,-306C608,-306 528,-306 528,-306 522,-306 516,-300 516,-294 516,-294 516,-282 516,-282 516,-276 522,-270 528,-270 528,-270 608,-270 608,-270 614,-270 620,-276 620,-282 620,-282 620,-294 620,-294 620,-300 614,-306 608,-306"/>
<text text-anchor="middle" x="568" y="-284.3" font-family="Times,serif" font-size="14.00" fill="#000000">aeLoginGroups</text>
</g>
<!-- aeGroupReference&#45;&gt;aeLoginGroups -->
<g id="edge18" class="edge">
<title>aeGroupReference&#45;&gt;aeLoginGroups</title>
<path fill="none" stroke="#000000" d="M456.8134,-171.1631C460.8617,-173.7583 464.6669,-176.6918 468,-180 495.9611,-207.752 475.8798,-233.4092 504,-261 505.1029,-262.0821 506.2557,-263.1236 507.4507,-264.1257"/>
<polygon fill="#000000" stroke="#000000" points="505.706,-267.1822 515.8669,-270.1832 509.7951,-261.5008 505.706,-267.1822"/>
</g>
<!-- aeLogStoreGroups -->
<g id="node20" class="node">
<title>aeLogStoreGroups</title>
<path fill="none" stroke="#000000" d="M618,-252C618,-252 518,-252 518,-252 512,-252 506,-246 506,-240 506,-240 506,-228 506,-228 506,-222 512,-216 518,-216 518,-216 618,-216 618,-216 624,-216 630,-222 630,-228 630,-228 630,-240 630,-240 630,-246 624,-252 618,-252"/>
<text text-anchor="middle" x="568" y="-230.3" font-family="Times,serif" font-size="14.00" fill="#000000">aeLogStoreGroups</text>
</g>
<!-- aeGroupReference&#45;&gt;aeLogStoreGroups -->
<g id="edge19" class="edge">
<title>aeGroupReference&#45;&gt;aeLogStoreGroups</title>
<path fill="none" stroke="#000000" d="M450.9834,-171.1028C456.8138,-173.8786 462.6222,-176.8699 468,-180 485.2853,-190.0607 486.6572,-197.0388 504,-207 506.6846,-208.5419 509.4743,-210.0461 512.3211,-211.5047"/>
<polygon fill="#000000" stroke="#000000" points="511.0256,-214.7667 521.5487,-215.9977 514.0901,-208.4731 511.0256,-214.7667"/>
</g>
<!-- aePasswordAdmins -->
<g id="node21" class="node">
<title>aePasswordAdmins</title>
<path fill="none" stroke="#000000" d="M620,-198C620,-198 516,-198 516,-198 510,-198 504,-192 504,-186 504,-186 504,-174 504,-174 504,-168 510,-162 516,-162 516,-162 620,-162 620,-162 626,-162 632,-168 632,-174 632,-174 632,-186 632,-186 632,-192 626,-198 620,-198"/>
<text text-anchor="middle" x="568" y="-176.3" font-family="Times,serif" font-size="14.00" fill="#000000">aePasswordAdmins</text>
</g>
<!-- aeGroupReference&#45;&gt;aePasswordAdmins -->
<g id="edge20" class="edge">
<title>aeGroupReference&#45;&gt;aePasswordAdmins</title>
<path fill="none" stroke="#000000" d="M468.1701,-163.3617C476.5715,-164.7619 485.259,-166.2098 493.8433,-167.6405"/>
<polygon fill="#000000" stroke="#000000" points="493.4104,-171.1166 503.8497,-169.3083 494.5612,-164.2118 493.4104,-171.1166"/>
</g>
<!-- aeVisibleGroups -->
<g id="node22" class="node">
<title>aeVisibleGroups</title>
<path fill="none" stroke="#000000" d="M611,-144C611,-144 525,-144 525,-144 519,-144 513,-138 513,-132 513,-132 513,-120 513,-120 513,-114 519,-108 525,-108 525,-108 611,-108 611,-108 617,-108 623,-114 623,-120 623,-120 623,-132 623,-132 623,-138 617,-144 611,-144"/>
<text text-anchor="middle" x="568" y="-122.3" font-family="Times,serif" font-size="14.00" fill="#000000">aeVisibleGroups</text>
</g>
<!-- aeGroupReference&#45;&gt;aeVisibleGroups -->
<g id="edge21" class="edge">
<title>aeGroupReference&#45;&gt;aeVisibleGroups</title>
<path fill="none" stroke="#000000" d="M468.1701,-142.6383C479.5572,-140.7405 491.4698,-138.755 502.9386,-136.8436"/>
<polygon fill="#000000" stroke="#000000" points="503.5901,-140.2833 512.8787,-135.1869 502.4393,-133.3786 503.5901,-140.2833"/>
</g>
<!-- aeZoneAdmins -->
<g id="node23" class="node">
<title>aeZoneAdmins</title>
<path fill="none" stroke="#000000" d="M608,-90C608,-90 528,-90 528,-90 522,-90 516,-84 516,-78 516,-78 516,-66 516,-66 516,-60 522,-54 528,-54 528,-54 608,-54 608,-54 614,-54 620,-60 620,-66 620,-66 620,-78 620,-78 620,-84 614,-90 608,-90"/>
<text text-anchor="middle" x="568" y="-68.3" font-family="Times,serif" font-size="14.00" fill="#000000">aeZoneAdmins</text>
</g>
<!-- aeGroupReference&#45;&gt;aeZoneAdmins -->
<g id="edge22" class="edge">
<title>aeGroupReference&#45;&gt;aeZoneAdmins</title>
<path fill="none" stroke="#000000" d="M436.8993,-134.8895C455.9761,-123.9816 481.1013,-110.1015 504,-99 507.2859,-97.4069 510.69,-95.813 514.1382,-94.2406"/>
<polygon fill="#000000" stroke="#000000" points="515.6123,-97.4155 523.3183,-90.1444 512.7599,-91.023 515.6123,-97.4155"/>
</g>
<!-- aeZoneAuditors -->
<g id="node24" class="node">
<title>aeZoneAuditors</title>
<path fill="none" stroke="#000000" d="M610.5,-36C610.5,-36 525.5,-36 525.5,-36 519.5,-36 513.5,-30 513.5,-24 513.5,-24 513.5,-12 513.5,-12 513.5,-6 519.5,0 525.5,0 525.5,0 610.5,0 610.5,0 616.5,0 622.5,-6 622.5,-12 622.5,-12 622.5,-24 622.5,-24 622.5,-30 616.5,-36 610.5,-36"/>
<text text-anchor="middle" x="568" y="-14.3" font-family="Times,serif" font-size="14.00" fill="#000000">aeZoneAuditors</text>
</g>
<!-- aeGroupReference&#45;&gt;aeZoneAuditors -->
<g id="edge23" class="edge">
<title>aeGroupReference&#45;&gt;aeZoneAuditors</title>
<path fill="none" stroke="#000000" d="M418.6599,-134.6971C435.7006,-111.2125 468.0572,-70.4738 504,-45 505.8786,-43.6686 507.833,-42.3855 509.8415,-41.1511"/>
<polygon fill="#000000" stroke="#000000" points="511.9199,-43.9982 518.9261,-36.0506 508.4929,-37.8944 511.9199,-43.9982"/>
</g>
<!-- associatedDomain -->
<g id="node25" class="node">
<title>associatedDomain</title>
<path fill="none" stroke="#000000" d="M111,-873C111,-873 15,-873 15,-873 9,-873 3,-867 3,-861 3,-861 3,-849 3,-849 3,-843 9,-837 15,-837 15,-837 111,-837 111,-837 117,-837 123,-843 123,-849 123,-849 123,-861 123,-861 123,-867 117,-873 111,-873"/>
<text text-anchor="middle" x="63" y="-851.3" font-family="Times,serif" font-size="14.00" fill="#000000">associatedDomain</text>
</g>
<!-- aeFqdn -->
<g id="node26" class="node">
<title>aeFqdn</title>
<path fill="none" stroke="#000000" d="M252.5,-873C252.5,-873 217.5,-873 217.5,-873 211.5,-873 205.5,-867 205.5,-861 205.5,-861 205.5,-849 205.5,-849 205.5,-843 211.5,-837 217.5,-837 217.5,-837 252.5,-837 252.5,-837 258.5,-837 264.5,-843 264.5,-849 264.5,-849 264.5,-861 264.5,-861 264.5,-867 258.5,-873 252.5,-873"/>
<text text-anchor="middle" x="235" y="-851.3" font-family="Times,serif" font-size="14.00" fill="#000000">aeFqdn</text>
</g>
<!-- associatedDomain&#45;&gt;aeFqdn -->
<g id="edge24" class="edge">
<title>associatedDomain&#45;&gt;aeFqdn</title>
<path fill="none" stroke="#000000" d="M123.1573,-855C146.9672,-855 173.6907,-855 195.0437,-855"/>
<polygon fill="#000000" stroke="#000000" points="195.0583,-858.5001 205.0583,-855 195.0583,-851.5001 195.0583,-858.5001"/>
</g>
<!-- name -->
<g id="node27" class="node">
<title>name</title>
<path fill="none" stroke="#000000" d="M78,-1062C78,-1062 48,-1062 48,-1062 42,-1062 36,-1056 36,-1050 36,-1050 36,-1038 36,-1038 36,-1032 42,-1026 48,-1026 48,-1026 78,-1026 78,-1026 84,-1026 90,-1032 90,-1038 90,-1038 90,-1050 90,-1050 90,-1056 84,-1062 78,-1062"/>
<text text-anchor="middle" x="63" y="-1040.3" font-family="Times,serif" font-size="14.00" fill="#000000">name</text>
</g>
<!-- aeTag -->
<g id="node28" class="node">
<title>aeTag</title>
<path fill="none" stroke="#000000" d="M250,-1197C250,-1197 220,-1197 220,-1197 214,-1197 208,-1191 208,-1185 208,-1185 208,-1173 208,-1173 208,-1167 214,-1161 220,-1161 220,-1161 250,-1161 250,-1161 256,-1161 262,-1167 262,-1173 262,-1173 262,-1185 262,-1185 262,-1191 256,-1197 250,-1197"/>
<text text-anchor="middle" x="235" y="-1175.3" font-family="Times,serif" font-size="14.00" fill="#000000">aeTag</text>
</g>
<!-- name&#45;&gt;aeTag -->
<g id="edge25" class="edge">
<title>name&#45;&gt;aeTag</title>
<path fill="none" stroke="#000000" d="M75.3645,-1062.1394C92.3557,-1085.8236 125.0514,-1127.1776 162,-1152 172.866,-1159.2999 185.9619,-1164.9414 198.0439,-1169.1342"/>
<polygon fill="#000000" stroke="#000000" points="197.2913,-1172.5694 207.8832,-1172.3201 199.4476,-1165.9098 197.2913,-1172.5694"/>
</g>
<!-- givenName -->
<g id="node29" class="node">
<title>givenName</title>
<path fill="none" stroke="#000000" d="M264.5,-1143C264.5,-1143 205.5,-1143 205.5,-1143 199.5,-1143 193.5,-1137 193.5,-1131 193.5,-1131 193.5,-1119 193.5,-1119 193.5,-1113 199.5,-1107 205.5,-1107 205.5,-1107 264.5,-1107 264.5,-1107 270.5,-1107 276.5,-1113 276.5,-1119 276.5,-1119 276.5,-1131 276.5,-1131 276.5,-1137 270.5,-1143 264.5,-1143"/>
<text text-anchor="middle" x="235" y="-1121.3" font-family="Times,serif" font-size="14.00" fill="#000000">givenName</text>
</g>
<!-- name&#45;&gt;givenName -->
<g id="edge26" class="edge">
<title>name&#45;&gt;givenName</title>
<path fill="none" stroke="#000000" d="M90.1908,-1060.2252C109.7804,-1071.5674 137.0495,-1086.6536 162,-1098 168.8499,-1101.115 176.1739,-1104.1524 183.4417,-1106.9986"/>
<polygon fill="#000000" stroke="#000000" points="182.6771,-1110.4531 193.2677,-1110.7506 185.1741,-1103.9136 182.6771,-1110.4531"/>
</g>
<!-- sn -->
<g id="node30" class="node">
<title>sn</title>
<path fill="none" stroke="#000000" d="M250,-1089C250,-1089 220,-1089 220,-1089 214,-1089 208,-1083 208,-1077 208,-1077 208,-1065 208,-1065 208,-1059 214,-1053 220,-1053 220,-1053 250,-1053 250,-1053 256,-1053 262,-1059 262,-1065 262,-1065 262,-1077 262,-1077 262,-1083 256,-1089 250,-1089"/>
<text text-anchor="middle" x="235" y="-1067.3" font-family="Times,serif" font-size="14.00" fill="#000000">sn</text>
</g>
<!-- name&#45;&gt;sn -->
<g id="edge27" class="edge">
<title>name&#45;&gt;sn</title>
<path fill="none" stroke="#000000" d="M90.2539,-1048.2782C119.3153,-1052.8402 165.5207,-1060.0934 197.8897,-1065.1745"/>
<polygon fill="#000000" stroke="#000000" points="197.4518,-1068.6486 207.8736,-1066.7418 198.5374,-1061.7333 197.4518,-1068.6486"/>
</g>
<!-- cn -->
<g id="node31" class="node">
<title>cn</title>
<path fill="none" stroke="#000000" d="M250,-1035C250,-1035 220,-1035 220,-1035 214,-1035 208,-1029 208,-1023 208,-1023 208,-1011 208,-1011 208,-1005 214,-999 220,-999 220,-999 250,-999 250,-999 256,-999 262,-1005 262,-1011 262,-1011 262,-1023 262,-1023 262,-1029 256,-1035 250,-1035"/>
<text text-anchor="middle" x="235" y="-1013.3" font-family="Times,serif" font-size="14.00" fill="#000000">cn</text>
</g>
<!-- name&#45;&gt;cn -->
<g id="edge28" class="edge">
<title>name&#45;&gt;cn</title>
<path fill="none" stroke="#000000" d="M90.2539,-1039.7218C119.3153,-1035.1598 165.5207,-1027.9066 197.8897,-1022.8255"/>
<polygon fill="#000000" stroke="#000000" points="198.5374,-1026.2667 207.8736,-1021.2582 197.4518,-1019.3514 198.5374,-1026.2667"/>
</g>
<!-- o -->
<g id="node32" class="node">
<title>o</title>
<path fill="none" stroke="#000000" d="M250,-981C250,-981 220,-981 220,-981 214,-981 208,-975 208,-969 208,-969 208,-957 208,-957 208,-951 214,-945 220,-945 220,-945 250,-945 250,-945 256,-945 262,-951 262,-957 262,-957 262,-969 262,-969 262,-975 256,-981 250,-981"/>
<text text-anchor="middle" x="235" y="-959.3" font-family="Times,serif" font-size="14.00" fill="#000000">o</text>
</g>
<!-- name&#45;&gt;o -->
<g id="edge29" class="edge">
<title>name&#45;&gt;o</title>
<path fill="none" stroke="#000000" d="M90.1908,-1027.7748C109.7804,-1016.4326 137.0495,-1001.3464 162,-990 173.6278,-984.7122 186.6221,-979.6479 198.3882,-975.3632"/>
<polygon fill="#000000" stroke="#000000" points="199.684,-978.6171 207.9259,-971.9596 197.3312,-972.0243 199.684,-978.6171"/>
</g>
<!-- ou -->
<g id="node33" class="node">
<title>ou</title>
<path fill="none" stroke="#000000" d="M250,-927C250,-927 220,-927 220,-927 214,-927 208,-921 208,-915 208,-915 208,-903 208,-903 208,-897 214,-891 220,-891 220,-891 250,-891 250,-891 256,-891 262,-897 262,-903 262,-903 262,-915 262,-915 262,-921 256,-927 250,-927"/>
<text text-anchor="middle" x="235" y="-905.3" font-family="Times,serif" font-size="14.00" fill="#000000">ou</text>
</g>
<!-- name&#45;&gt;ou -->
<g id="edge30" class="edge">
<title>name&#45;&gt;ou</title>
<path fill="none" stroke="#000000" d="M75.3645,-1025.8606C92.3557,-1002.1764 125.0514,-960.8224 162,-936 172.866,-928.7001 185.9619,-923.0586 198.0439,-918.8658"/>
<polygon fill="#000000" stroke="#000000" points="199.4476,-922.0902 207.8832,-915.6799 197.2913,-915.4306 199.4476,-922.0902"/>
</g>
</g>
</svg>
