<?xml version="1.0" encoding="UTF-8" standalone="no"?>
<!DOCTYPE svg PUBLIC "-//W3C//DTD SVG 1.1//EN"
 "http://www.w3.org/Graphics/SVG/1.1/DTD/svg11.dtd">
<!-- Generated by graphviz version 2.40.1 (20161225.0304)
 -->
<!-- Title: G Pages: 1 -->
<svg width="1138pt" height="1450pt"
 viewBox="0.00 0.00 1138.00 1450.00" xmlns="http://www.w3.org/2000/svg" xmlns:xlink="http://www.w3.org/1999/xlink">
<g id="graph0" class="graph" transform="scale(1 1) rotate(0) translate(4 1446)">
<title>G</title>
<polygon fill="#ffffff" stroke="transparent" points="-4,4 -4,-1446 1134,-1446 1134,4 -4,4"/>
<g id="clust1" class="cluster">
<title>clusterorga</title>
<polygon fill="#ffffff" stroke="#ffffff" points="489,-8 489,-231 767,-231 767,-8 489,-8"/>
</g>
<g id="clust2" class="cluster">
<title>clusterauthz</title>
<polygon fill="#ffffff" stroke="#ffffff" points="130,-266 130,-1434 701,-1434 701,-266 130,-266"/>
</g>
<g id="clust3" class="cluster">
<title>clusterpolicy</title>
<polygon fill="#ffffff" stroke="#ffffff" points="131,-156 131,-231 409,-231 409,-156 131,-156"/>
</g>
<!-- aePerson -->
<g id="node1" class="node">
<title>aePerson</title>
<g id="a_node1"><a xlink:href="https://ae-dir.com/docs.html#schema-oc-aePerson" xlink:title="\N">
<polygon fill="none" stroke="#000000" points="498,-164.5 498,-222.5 620,-222.5 620,-164.5 498,-164.5"/>
<text text-anchor="middle" x="559" y="-189.8" font-family="Times,serif" font-size="14.00" fill="#000000">aePerson</text>
</a>
</g>
</g>
<!-- aeDept -->
<g id="node2" class="node">
<title>aeDept</title>
<g id="a_node2"><a xlink:href="https://ae-dir.com/docs.html#schema-oc-aeDept" xlink:title="\N">
<polygon fill="none" stroke="#000000" points="637,-16.5 637,-74.5 759,-74.5 759,-16.5 637,-16.5"/>
<text text-anchor="middle" x="698" y="-41.8" font-family="Times,serif" font-size="14.00" fill="#000000">aeDept</text>
</a>
</g>
</g>
<!-- aePerson&#45;&gt;aeDept -->
<g id="edge1" class="edge">
<title>aePerson&#45;&gt;aeDept</title>
<path fill="none" stroke="#000000" d="M586.4619,-164.26C608.546,-140.746 639.7009,-107.5739 663.4728,-82.2627"/>
<polygon fill="#000000" stroke="#000000" points="666.3004,-84.3646 670.5951,-74.6793 661.1979,-79.5724 666.3004,-84.3646"/>
<text text-anchor="middle" x="655" y="-115.8" font-family="Times,serif" font-size="14.00" fill="#000000">aeDept</text>
</g>
<!-- aeLocation -->
<g id="node3" class="node">
<title>aeLocation</title>
<g id="a_node3"><a xlink:href="https://ae-dir.com/docs.html#schema-oc-aeLocation" xlink:title="\N">
<polygon fill="none" stroke="#000000" points="497,-16.5 497,-74.5 619,-74.5 619,-16.5 497,-16.5"/>
<text text-anchor="middle" x="558" y="-41.8" font-family="Times,serif" font-size="14.00" fill="#000000">aeLocation</text>
</a>
</g>
</g>
<!-- aePerson&#45;&gt;aeLocation -->
<g id="edge2" class="edge">
<title>aePerson&#45;&gt;aeLocation</title>
<path fill="none" stroke="#000000" d="M542.6014,-164.2993C537.1359,-153.0098 531.7437,-139.7538 529,-127 525.9246,-112.7041 529.3837,-97.4931 534.8515,-84.1312"/>
<polygon fill="#000000" stroke="#000000" points="538.1568,-85.3186 539.1232,-74.7679 531.7883,-82.4131 538.1568,-85.3186"/>
<text text-anchor="middle" x="561" y="-115.8" font-family="Times,serif" font-size="14.00" fill="#000000">aeLocation</text>
</g>
<!-- aeSrvGroup -->
<g id="node4" class="node">
<title>aeSrvGroup</title>
<g id="a_node4"><a xlink:href="https://ae-dir.com/docs.html#schema-oc-aeSrvGroup" xlink:title="\N">
<polygon fill="none" stroke="#000000" points="323,-1367.5 323,-1425.5 445,-1425.5 445,-1367.5 323,-1367.5"/>
<text text-anchor="middle" x="384" y="-1392.8" font-family="Times,serif" font-size="14.00" fill="#000000">aeSrvGroup</text>
</a>
</g>
</g>
<!-- aeSrvGroup&#45;&gt;aeSrvGroup -->
<g id="edge18" class="edge">
<title>aeSrvGroup&#45;&gt;aeSrvGroup</title>
<path fill="none" stroke="#000000" d="M445.2789,-1404.9018C455.7472,-1403.7537 463,-1400.9531 463,-1396.5 463,-1393.6472 460.0235,-1391.4726 455.1318,-1389.9762"/>
<polygon fill="#000000" stroke="#000000" points="455.7574,-1386.5325 445.2789,-1388.0982 454.4467,-1393.4088 455.7574,-1386.5325"/>
<text text-anchor="middle" x="497" y="-1392.8" font-family="Times,serif" font-size="14.00" fill="#000000">aeProxyFor</text>
</g>
<!-- aeGroup -->
<g id="node5" class="node">
<title>aeGroup</title>
<g id="a_node5"><a xlink:href="https://ae-dir.com/docs.html#schema-oc-aeGroup" xlink:title="\N">
<polygon fill="none" stroke="#000000" points="571,-1040.5 571,-1098.5 693,-1098.5 693,-1040.5 571,-1040.5"/>
<text text-anchor="middle" x="632" y="-1065.8" font-family="Times,serif" font-size="14.00" fill="#000000">aeGroup</text>
</a>
</g>
</g>
<!-- aeSrvGroup&#45;&gt;aeGroup -->
<g id="edge16" class="edge">
<title>aeSrvGroup&#45;&gt;aeGroup</title>
<path fill="none" stroke="#000000" d="M388.2511,-1367.2938C395.5693,-1320.0263 411.5515,-1229.3902 430,-1203 462.6717,-1156.2637 517.4383,-1121.5725 561.7096,-1099.2843"/>
<polygon fill="#000000" stroke="#000000" points="563.2764,-1102.4142 570.6995,-1094.8545 560.1823,-1096.1351 563.2764,-1102.4142"/>
<text text-anchor="middle" x="496" y="-1266.8" font-family="Times,serif" font-size="14.00" fill="#000000">aeSetupGroups</text>
<text text-anchor="middle" x="496" y="-1251.8" font-family="Times,serif" font-size="14.00" fill="#000000">aeLogStoreGroups</text>
<text text-anchor="middle" x="496" y="-1236.8" font-family="Times,serif" font-size="14.00" fill="#000000">aeLoginGroups</text>
<text text-anchor="middle" x="496" y="-1221.8" font-family="Times,serif" font-size="14.00" fill="#000000">aeVisibleGroups</text>
<text text-anchor="middle" x="496" y="-1206.8" font-family="Times,serif" font-size="14.00" fill="#000000">aeDisplayNameGroups</text>
</g>
<!-- aeSudoRule -->
<g id="node6" class="node">
<title>aeSudoRule</title>
<g id="a_node6"><a xlink:href="https://ae-dir.com/docs.html#schema-oc-aeSudoRule" xlink:title="\N">
<polygon fill="none" stroke="#000000" points="571,-1211.5 571,-1269.5 693,-1269.5 693,-1211.5 571,-1211.5"/>
<text text-anchor="middle" x="632" y="-1236.8" font-family="Times,serif" font-size="14.00" fill="#000000">aeSudoRule</text>
</a>
</g>
</g>
<!-- aeSrvGroup&#45;&gt;aeSudoRule -->
<g id="edge19" class="edge">
<title>aeSrvGroup&#45;&gt;aeSudoRule</title>
<path fill="none" stroke="#000000" d="M430.356,-1367.3406C472.0204,-1341.1323 533.2541,-1302.6144 577.3019,-1274.9069"/>
<polygon fill="#000000" stroke="#000000" points="579.2704,-1277.8035 585.8714,-1269.5164 575.5432,-1271.8783 579.2704,-1277.8035"/>
<text text-anchor="middle" x="562.5" y="-1318.8" font-family="Times,serif" font-size="14.00" fill="#000000">aeVisibleSudoers</text>
</g>
<!-- aeMailGroup -->
<g id="node13" class="node">
<title>aeMailGroup</title>
<g id="a_node13"><a xlink:href="https://ae-dir.com/docs.html#schema-oc-aeMailGroup" xlink:title="\N">
<polygon fill="none" stroke="#000000" points="532,-685.5 532,-743.5 654,-743.5 654,-685.5 532,-685.5"/>
<text text-anchor="middle" x="593" y="-710.8" font-family="Times,serif" font-size="14.00" fill="#000000">aeMailGroup</text>
</a>
</g>
</g>
<!-- aeSrvGroup&#45;&gt;aeMailGroup -->
<g id="edge17" class="edge">
<title>aeSrvGroup&#45;&gt;aeMailGroup</title>
<path fill="none" stroke="#000000" d="M383.8729,-1367.2149C384.3168,-1328.9313 387.2172,-1260.0366 401,-1203 405.168,-1185.752 411.6459,-1183.2019 416,-1166 429.8256,-1111.3779 399.2945,-1087.2429 430,-1040 454.9658,-1001.5881 478.543,-1009.494 519,-988 552.5298,-970.1863 570.0728,-978.7373 596,-951 650.9186,-892.2472 688.3525,-855.476 658,-781 653.5702,-770.1307 646.414,-760.0716 638.4373,-751.2391"/>
<polygon fill="#000000" stroke="#000000" points="640.726,-748.5704 631.2641,-743.8035 635.6881,-753.4305 640.726,-748.5704"/>
<text text-anchor="middle" x="496" y="-1073.3" font-family="Times,serif" font-size="14.00" fill="#000000">aeVisibleGroups</text>
<text text-anchor="middle" x="496" y="-1058.3" font-family="Times,serif" font-size="14.00" fill="#000000">aeDisplayNameGroups</text>
</g>
<!-- aeGroup&#45;&gt;aeDept -->
<g id="edge24" class="edge">
<title>aeGroup&#45;&gt;aeDept</title>
<path fill="none" stroke="#000000" d="M693.028,-1042.029C709.0787,-1030.4979 722,-1015.1216 722,-995.5 722,-995.5 722,-995.5 722,-762.5 722,-703.9526 738.2445,-691.141 751,-634 778.8105,-509.4171 808.3121,-478.3783 800,-351 793.0215,-244.0573 807.2745,-211.7143 768,-112 763.5848,-100.7902 756.1309,-90.6329 747.6927,-81.8208"/>
<polygon fill="#000000" stroke="#000000" points="750.0258,-79.2075 740.4182,-74.7415 745.1438,-84.2241 750.0258,-79.2075"/>
<text text-anchor="middle" x="795" y="-545.8" font-family="Times,serif" font-size="14.00" fill="#000000">aeDept</text>
</g>
<!-- aeGroup&#45;&gt;aeLocation -->
<g id="edge25" class="edge">
<title>aeGroup&#45;&gt;aeLocation</title>
<path fill="none" stroke="#000000" d="M693.001,-1058.0823C725.9688,-1047.9981 760,-1029.3826 760,-995.5 760,-995.5 760,-995.5 760,-659.5 760,-607.3743 716.0857,-607.4564 703,-557 694.3802,-523.7635 721,-282.8361 721,-248.5 721,-248.5 721,-248.5 721,-119.5 721,-116.789 672.5486,-95.0377 628.4777,-75.8138"/>
<polygon fill="#000000" stroke="#000000" points="629.7249,-72.5395 619.1589,-71.7577 626.9312,-78.9579 629.7249,-72.5395"/>
<text text-anchor="middle" x="735" y="-545.8" font-family="Times,serif" font-size="14.00" fill="#000000">aeLocation</text>
</g>
<!-- aeService -->
<g id="node9" class="node">
<title>aeService</title>
<g id="a_node9"><a xlink:href="https://ae-dir.com/docs.html#schema-oc-aeService" xlink:title="\N">
<polygon fill="none" stroke="#000000" points="465,-892.5 465,-950.5 587,-950.5 587,-892.5 465,-892.5"/>
<text text-anchor="middle" x="526" y="-917.8" font-family="Times,serif" font-size="14.00" fill="#000000">aeService</text>
</a>
</g>
</g>
<!-- aeGroup&#45;&gt;aeService -->
<g id="edge4" class="edge">
<title>aeGroup&#45;&gt;aeService</title>
<path fill="none" stroke="#000000" d="M621.8057,-1040.1666C615.4363,-1023.985 606.2966,-1003.9918 595,-988 587.5016,-977.3849 578.1545,-967.0561 568.7852,-957.8272"/>
<polygon fill="#000000" stroke="#000000" points="570.9497,-955.0545 561.3014,-950.6772 566.1141,-960.1159 570.9497,-955.0545"/>
<text text-anchor="middle" x="628" y="-991.8" font-family="Times,serif" font-size="14.00" fill="#000000">member</text>
</g>
<!-- aeUser -->
<g id="node10" class="node">
<title>aeUser</title>
<g id="a_node10"><a xlink:href="https://ae-dir.com/docs.html#schema-oc-aeUser" xlink:title="\N">
<polygon fill="none" stroke="#000000" points="265,-465.5 265,-523.5 387,-523.5 387,-465.5 265,-465.5"/>
<text text-anchor="middle" x="326" y="-490.8" font-family="Times,serif" font-size="14.00" fill="#000000">aeUser</text>
</a>
</g>
</g>
<!-- aeGroup&#45;&gt;aeUser -->
<g id="edge5" class="edge">
<title>aeGroup&#45;&gt;aeUser</title>
<path fill="none" stroke="#000000" d="M570.7529,-1045.0869C530.9522,-1025.7983 481.8263,-994.7842 456,-951 394.573,-846.8607 475.1799,-778.8877 399,-685 386.7168,-669.8616 375.6765,-677.0967 359,-667 338.6926,-654.7051 327.5158,-655.2832 317,-634 301.5654,-602.7613 306.2739,-562.6849 313.3865,-533.5092"/>
<polygon fill="#000000" stroke="#000000" points="316.8138,-534.2378 315.9734,-523.6763 310.0442,-532.4567 316.8138,-534.2378"/>
<text text-anchor="middle" x="459" y="-784.8" font-family="Times,serif" font-size="14.00" fill="#000000">member</text>
</g>
<!-- aeZone -->
<g id="node16" class="node">
<title>aeZone</title>
<g id="a_node16"><a xlink:href="https://ae-dir.com/docs.html#schema-oc-aeZone" xlink:title="\N">
<polygon fill="none" stroke="#000000" points="839,-575.5 839,-633.5 961,-633.5 961,-575.5 839,-575.5"/>
<text text-anchor="middle" x="900" y="-600.8" font-family="Times,serif" font-size="14.00" fill="#000000">aeZone</text>
</a>
</g>
</g>
<!-- aeGroup&#45;&gt;aeZone -->
<g id="edge26" class="edge">
<title>aeGroup&#45;&gt;aeZone</title>
<path fill="none" stroke="#000000" d="M693.1487,-1064.8798C772.2462,-1057.1864 900,-1038.1576 900,-995.5 900,-995.5 900,-995.5 900,-714.5 900,-691.138 900,-664.985 900,-644.0432"/>
<polygon fill="#000000" stroke="#000000" points="903.5001,-643.9136 900,-633.9137 896.5001,-643.9137 903.5001,-643.9136"/>
<text text-anchor="middle" x="946" y="-840.3" font-family="Times,serif" font-size="14.00" fill="#000000">aeMemberZone</text>
</g>
<!-- aeSudoRule&#45;&gt;aeGroup -->
<g id="edge20" class="edge">
<title>aeSudoRule&#45;&gt;aeGroup</title>
<path fill="none" stroke="#000000" d="M632,-1211.4922C632,-1183.241 632,-1140.0954 632,-1108.7786"/>
<polygon fill="#000000" stroke="#000000" points="635.5001,-1108.6501 632,-1098.6501 628.5001,-1108.6502 635.5001,-1108.6501"/>
<text text-anchor="middle" x="659.5" y="-1147.3" font-family="Times,serif" font-size="14.00" fill="#000000">sudoUser</text>
</g>
<!-- aeHost -->
<g id="node7" class="node">
<title>aeHost</title>
<g id="a_node7"><a xlink:href="https://ae-dir.com/docs.html#schema-oc-aeHost" xlink:title="\N">
<polygon fill="none" stroke="#000000" points="268,-685.5 268,-743.5 390,-743.5 390,-685.5 268,-685.5"/>
<text text-anchor="middle" x="329" y="-710.8" font-family="Times,serif" font-size="14.00" fill="#000000">aeHost</text>
</a>
</g>
</g>
<!-- aeHost&#45;&gt;aeLocation -->
<g id="edge27" class="edge">
<title>aeHost&#45;&gt;aeLocation</title>
<path fill="none" stroke="#000000" d="M390.2114,-707.5195C472.2527,-696.7682 611.1667,-673.1916 642,-634 680.8891,-584.5688 642.3399,-413.7886 646,-351 652.21,-244.4679 721.6081,-204.8442 669,-112 663.5976,-102.4657 646.1913,-90.5401 626.7153,-79.4306"/>
<polygon fill="#000000" stroke="#000000" points="628.4054,-76.3657 617.9651,-74.5625 625.0022,-82.4828 628.4054,-76.3657"/>
<text text-anchor="middle" x="678" y="-354.8" font-family="Times,serif" font-size="14.00" fill="#000000">aeLocation</text>
</g>
<!-- aeHost&#45;&gt;aeSrvGroup -->
<g id="edge6" class="edge">
<title>aeHost&#45;&gt;aeSrvGroup</title>
<path fill="none" stroke="#000000" d="M341.8768,-743.7056C360.2759,-786.0372 392.4849,-862.5912 398,-892 402.8332,-917.7729 408.7937,-927.1023 398,-951 373.3724,-1005.5265 321.6276,-985.4735 297,-1040 282.8218,-1071.3911 297,-1083.0556 297,-1117.5 297,-1322.5 297,-1322.5 297,-1322.5 297,-1337.79 304.8932,-1350.5828 315.9246,-1360.9955"/>
<polygon fill="#000000" stroke="#000000" points="313.6888,-1363.6886 323.5756,-1367.4968 318.2216,-1358.3543 313.6888,-1363.6886"/>
<text text-anchor="middle" x="331" y="-1073.3" font-family="Times,serif" font-size="14.00" fill="#000000">(child of)</text>
<text text-anchor="middle" x="331" y="-1058.3" font-family="Times,serif" font-size="14.00" fill="#000000">aeSrvGroup</text>
</g>
<!-- pwdPolicy -->
<g id="node14" class="node">
<title>pwdPolicy</title>
<g id="a_node14"><a xlink:href="https://ae-dir.com/docs.html#schema-oc-pwdPolicy" xlink:title="\N">
<polygon fill="none" stroke="#000000" points="139,-164.5 139,-222.5 261,-222.5 261,-164.5 139,-164.5"/>
<text text-anchor="middle" x="200" y="-189.8" font-family="Times,serif" font-size="14.00" fill="#000000">pwdPolicy</text>
</a>
</g>
</g>
<!-- aeHost&#45;&gt;pwdPolicy -->
<g id="edge28" class="edge">
<title>aeHost&#45;&gt;pwdPolicy</title>
<path fill="none" stroke="#000000" d="M267.8452,-707.1659C208.3913,-696.2218 127,-669.3896 127,-604.5 127,-604.5 127,-604.5 127,-303.5 127,-275.9817 143.0568,-250.0802 160.1092,-230.3317"/>
<polygon fill="#000000" stroke="#000000" points="162.806,-232.5677 166.9174,-222.8031 157.6141,-227.8725 162.806,-232.5677"/>
<text text-anchor="middle" x="183" y="-435.8" font-family="Times,serif" font-size="14.00" fill="#000000">pwdPolicySubentry</text>
</g>
<!-- aeNwDevice -->
<g id="node8" class="node">
<title>aeNwDevice</title>
<g id="a_node8"><a xlink:href="https://ae-dir.com/docs.html#schema-oc-aeNwDevice" xlink:title="\N">
<polygon fill="none" stroke="#000000" points="175,-892.5 175,-950.5 297,-950.5 297,-892.5 175,-892.5"/>
<text text-anchor="middle" x="236" y="-917.8" font-family="Times,serif" font-size="14.00" fill="#000000">aeNwDevice</text>
</a>
</g>
</g>
<!-- aeNwDevice&#45;&gt;aeHost -->
<g id="edge10" class="edge">
<title>aeNwDevice&#45;&gt;aeHost</title>
<path fill="none" stroke="#000000" d="M238.5625,-892.3041C242.1101,-862.807 250.3448,-816.6264 269,-781 274.4675,-770.5586 281.9572,-760.4705 289.7923,-751.4419"/>
<polygon fill="#000000" stroke="#000000" points="292.5992,-753.5569 296.7245,-743.7981 287.414,-748.8543 292.5992,-753.5569"/>
<text text-anchor="middle" x="296.5" y="-784.8" font-family="Times,serif" font-size="14.00" fill="#000000">(child of)</text>
</g>
<!-- aeNwDevice&#45;&gt;aeNwDevice -->
<g id="edge11" class="edge">
<title>aeNwDevice&#45;&gt;aeNwDevice</title>
<path fill="none" stroke="#000000" d="M297.2789,-929.9018C307.7472,-928.7537 315,-925.9531 315,-921.5 315,-918.6472 312.0235,-916.4726 307.1318,-914.9762"/>
<polygon fill="#000000" stroke="#000000" points="307.7574,-911.5325 297.2789,-913.0982 306.4467,-918.4088 307.7574,-911.5325"/>
<text text-anchor="middle" x="352" y="-917.8" font-family="Times,serif" font-size="14.00" fill="#000000">aeNwDevice</text>
</g>
<!-- aeService&#45;&gt;aeSrvGroup -->
<g id="edge15" class="edge">
<title>aeService&#45;&gt;aeSrvGroup</title>
<path fill="none" stroke="#000000" d="M491.9374,-950.6535C469.7643,-970.0297 440.5149,-996.3519 416,-1021 408.0094,-1029.034 405.3995,-1030.649 399,-1040 382.386,-1064.2767 382.9306,-1073.0901 369,-1099 360.0459,-1115.654 355.3394,-1118.574 348,-1136 339.2916,-1156.6766 334,-1162.0644 334,-1184.5 334,-1322.5 334,-1322.5 334,-1322.5 334,-1335.7204 339.5467,-1348.3434 346.9453,-1359.3003"/>
<polygon fill="#000000" stroke="#000000" points="344.1359,-1361.3876 352.9029,-1367.3366 349.7592,-1357.2189 344.1359,-1361.3876"/>
<text text-anchor="middle" x="382" y="-1154.8" font-family="Times,serif" font-size="14.00" fill="#000000">(child of)</text>
<text text-anchor="middle" x="382" y="-1139.8" font-family="Times,serif" font-size="14.00" fill="#000000">aeSrvGroup</text>
</g>
<!-- aeService&#45;&gt;aeGroup -->
<g id="edge12" class="edge">
<title>aeService&#45;&gt;aeGroup</title>
<path fill="none" stroke="#000000" stroke-dasharray="1,5" d="M520.2889,-950.7988C518.6135,-967.1605 519.1746,-987.3407 528,-1003 536.0602,-1017.3017 548.6085,-1028.9986 562.2373,-1038.3691"/>
<polygon fill="#000000" stroke="#000000" points="560.53,-1041.4327 570.8323,-1043.9054 564.3207,-1035.5478 560.53,-1041.4327"/>
<text text-anchor="middle" x="559.5" y="-991.8" font-family="Times,serif" font-size="14.00" fill="#000000">memberOf</text>
</g>
<!-- aeService&#45;&gt;aeHost -->
<g id="edge13" class="edge">
<title>aeService&#45;&gt;aeHost</title>
<path fill="none" stroke="#000000" d="M485.9151,-892.3984C454.8223,-868.6247 411.8079,-833.0094 380,-796 368.648,-782.7916 358.0773,-766.8108 349.5369,-752.5119"/>
<polygon fill="#000000" stroke="#000000" points="352.5552,-750.7398 344.4928,-743.866 346.5089,-754.2672 352.5552,-750.7398"/>
<text text-anchor="middle" x="400" y="-784.8" font-family="Times,serif" font-size="14.00" fill="#000000">aeHost</text>
</g>
<!-- aeService&#45;&gt;aeMailGroup -->
<g id="edge14" class="edge">
<title>aeService&#45;&gt;aeMailGroup</title>
<path fill="none" stroke="#000000" stroke-dasharray="1,5" d="M544.5596,-892.3931C559.2133,-867.7658 578.6889,-830.9924 588,-796 591.6019,-782.4635 593.1682,-767.2344 593.7337,-753.6362"/>
<polygon fill="#000000" stroke="#000000" points="597.2332,-753.6962 593.9881,-743.6105 590.2354,-753.5185 597.2332,-753.6962"/>
<text text-anchor="middle" x="622.5" y="-784.8" font-family="Times,serif" font-size="14.00" fill="#000000">memberOf</text>
</g>
<!-- aeService&#45;&gt;pwdPolicy -->
<g id="edge31" class="edge">
<title>aeService&#45;&gt;pwdPolicy</title>
<path fill="none" stroke="#000000" d="M464.8897,-906.8514C326.2831,-873.5224 0,-794.4349 0,-788.5 0,-788.5 0,-788.5 0,-303.5 0,-242.8142 71.57,-215.3701 129.0828,-203.1133"/>
<polygon fill="#000000" stroke="#000000" points="129.7944,-206.5404 138.9067,-201.1351 128.4125,-199.6781 129.7944,-206.5404"/>
<text text-anchor="middle" x="56" y="-545.8" font-family="Times,serif" font-size="14.00" fill="#000000">pwdPolicySubentry</text>
</g>
<!-- aeUser&#45;&gt;aePerson -->
<g id="edge32" class="edge">
<title>aeUser&#45;&gt;aePerson</title>
<path fill="none" stroke="#000000" d="M385.6428,-465.3361C408.9027,-451.9536 434.5832,-434.4789 454,-414 509.3041,-355.6708 511.6733,-330.4388 542,-256 545.0428,-248.5313 547.7149,-240.3421 549.9853,-232.4221"/>
<polygon fill="#000000" stroke="#000000" points="553.4071,-233.1761 552.6439,-222.6088 546.6507,-231.3457 553.4071,-233.1761"/>
<text text-anchor="middle" x="528" y="-354.8" font-family="Times,serif" font-size="14.00" fill="#000000">aePerson</text>
</g>
<!-- aeUser&#45;&gt;aeGroup -->
<g id="edge22" class="edge">
<title>aeUser&#45;&gt;aeGroup</title>
<path fill="none" stroke="#000000" stroke-dasharray="1,5" d="M264.6261,-507.7567C215.9316,-522.306 156,-551.0666 156,-604.5 156,-844 156,-844 156,-844 156,-891.7628 134.5028,-915.0944 166,-951 224.7646,-1017.9893 471.8496,-1013.7273 557,-1040 558.4206,-1040.4383 559.8524,-1040.891 561.2921,-1041.3563"/>
<polygon fill="#000000" stroke="#000000" points="560.2787,-1044.7081 570.8729,-1044.5871 562.5156,-1038.0751 560.2787,-1044.7081"/>
<text text-anchor="middle" x="187.5" y="-784.8" font-family="Times,serif" font-size="14.00" fill="#000000">memberOf</text>
</g>
<!-- aeAuthcToken -->
<g id="node11" class="node">
<title>aeAuthcToken</title>
<g id="a_node11"><a xlink:href="https://ae-dir.com/docs.html#schema-oc-aeAuthcToken" xlink:title="\N">
<polygon fill="none" stroke="#000000" points="301,-274.5 301,-332.5 423,-332.5 423,-274.5 301,-274.5"/>
<text text-anchor="middle" x="362" y="-299.8" font-family="Times,serif" font-size="14.00" fill="#000000">aeAuthcToken</text>
</a>
</g>
</g>
<!-- aeUser&#45;&gt;aeAuthcToken -->
<g id="edge21" class="edge">
<title>aeUser&#45;&gt;aeAuthcToken</title>
<path fill="none" stroke="#000000" d="M332.7023,-465.2582C338.5229,-439.2802 346.9452,-400.2328 353,-366 354.3409,-358.419 355.6233,-350.294 356.7786,-342.4939"/>
<polygon fill="#000000" stroke="#000000" points="360.2565,-342.897 358.2181,-332.5002 353.328,-341.899 360.2565,-342.897"/>
<text text-anchor="middle" x="400" y="-402.8" font-family="Times,serif" font-size="14.00" fill="#000000">oathHOTPToken</text>
<text text-anchor="middle" x="400" y="-387.8" font-family="Times,serif" font-size="14.00" fill="#000000">oathTOTPToken</text>
</g>
<!-- aeUser&#45;&gt;aeMailGroup -->
<g id="edge23" class="edge">
<title>aeUser&#45;&gt;aeMailGroup</title>
<path fill="none" stroke="#000000" stroke-dasharray="1,5" d="M348.422,-523.5795C379.0144,-563.16 430.6708,-629.6156 436,-634 461.8268,-655.2481 494.1819,-673.0146 522.7987,-686.4043"/>
<polygon fill="#000000" stroke="#000000" points="521.3966,-689.6118 531.9455,-690.5967 524.3132,-683.2483 521.3966,-689.6118"/>
<text text-anchor="middle" x="467.5" y="-600.8" font-family="Times,serif" font-size="14.00" fill="#000000">memberOf</text>
</g>
<!-- aeUser&#45;&gt;pwdPolicy -->
<g id="edge33" class="edge">
<title>aeUser&#45;&gt;pwdPolicy</title>
<path fill="none" stroke="#000000" d="M300.7713,-465.3674C280.5771,-440.5501 253.0627,-403.1073 237,-366 218.1738,-322.5085 208.5886,-268.5753 203.9511,-232.7098"/>
<polygon fill="#000000" stroke="#000000" points="207.4081,-232.1446 202.7183,-222.6443 200.4601,-232.9956 207.4081,-232.1446"/>
<text text-anchor="middle" x="293" y="-354.8" font-family="Times,serif" font-size="14.00" fill="#000000">pwdPolicySubentry</text>
</g>
<!-- aeAuthcToken&#45;&gt;aePerson -->
<g id="edge37" class="edge">
<title>aeAuthcToken&#45;&gt;aePerson</title>
<path fill="none" stroke="#000000" d="M423.0586,-275.6254C435.7437,-269.4397 448.9212,-262.7174 461,-256 476.332,-247.4734 492.5527,-237.5301 507.2902,-228.1156"/>
<polygon fill="#000000" stroke="#000000" points="509.2665,-231.0059 515.7781,-222.6483 505.4759,-225.121 509.2665,-231.0059"/>
<text text-anchor="middle" x="512" y="-244.8" font-family="Times,serif" font-size="14.00" fill="#000000">aeOwner</text>
</g>
<!-- aeAuthcToken&#45;&gt;pwdPolicy -->
<g id="edge39" class="edge">
<title>aeAuthcToken&#45;&gt;pwdPolicy</title>
<path fill="none" stroke="#000000" d="M300.8946,-290.5307C277.9604,-283.3207 252.8995,-272.3751 234,-256 226.3783,-249.3964 220.16,-240.6482 215.2251,-231.795"/>
<polygon fill="#000000" stroke="#000000" points="218.2045,-229.9332 210.542,-222.6164 211.9692,-233.1147 218.2045,-229.9332"/>
<text text-anchor="middle" x="290" y="-244.8" font-family="Times,serif" font-size="14.00" fill="#000000">pwdPolicySubentry</text>
</g>
<!-- oathParams -->
<g id="node15" class="node">
<title>oathParams</title>
<g id="a_node15"><a xlink:href="https://ae-dir.com/docs.html#schema-oc-oathParams" xlink:title="\N">
<polygon fill="none" stroke="#000000" points="279,-164.5 279,-222.5 401,-222.5 401,-164.5 279,-164.5"/>
<text text-anchor="middle" x="340" y="-189.8" font-family="Times,serif" font-size="14.00" fill="#000000">oathParams</text>
</a>
</g>
</g>
<!-- aeAuthcToken&#45;&gt;oathParams -->
<g id="edge38" class="edge">
<title>aeAuthcToken&#45;&gt;oathParams</title>
<path fill="none" stroke="#000000" d="M356.1622,-274.3108C353.6262,-261.6308 350.6168,-246.5838 347.8863,-232.9314"/>
<polygon fill="#000000" stroke="#000000" points="351.2584,-231.945 345.8651,-222.8256 344.3943,-233.3178 351.2584,-231.945"/>
<text text-anchor="middle" x="405" y="-244.8" font-family="Times,serif" font-size="14.00" fill="#000000">oathHOTPParams</text>
</g>
<!-- aeContact -->
<g id="node12" class="node">
<title>aeContact</title>
<g id="a_node12"><a xlink:href="https://ae-dir.com/docs.html#schema-oc-aeContact" xlink:title="\N">
<polygon fill="none" stroke="#000000" points="475,-465.5 475,-523.5 597,-523.5 597,-465.5 475,-465.5"/>
<text text-anchor="middle" x="536" y="-490.8" font-family="Times,serif" font-size="14.00" fill="#000000">aeContact</text>
</a>
</g>
</g>
<!-- aeContact&#45;&gt;aeMailGroup -->
<g id="edge3" class="edge">
<title>aeContact&#45;&gt;aeMailGroup</title>
<path fill="none" stroke="#000000" stroke-dasharray="1,5" d="M545.6795,-523.7848C550.5542,-538.984 556.3913,-557.903 561,-575 570.1005,-608.7604 578.8651,-647.5559 584.9133,-675.6503"/>
<polygon fill="#000000" stroke="#000000" points="581.5027,-676.4391 587.0142,-685.4875 588.3483,-674.977 581.5027,-676.4391"/>
<text text-anchor="middle" x="606.5" y="-600.8" font-family="Times,serif" font-size="14.00" fill="#000000">memberOf</text>
</g>
<!-- aeMailGroup&#45;&gt;aeDept -->
<g id="edge29" class="edge">
<title>aeMailGroup&#45;&gt;aeDept</title>
<path fill="none" stroke="#000000" d="M654.0222,-694.2747C668.9625,-687.3006 684.0685,-678.3138 696,-667 736.105,-628.971 740.1939,-610.5164 754,-557 761.0374,-529.721 759,-331.6721 759,-303.5 759,-303.5 759,-303.5 759,-145.5 759,-122.6059 747.2034,-100.5088 733.9854,-82.9351"/>
<polygon fill="#000000" stroke="#000000" points="736.3911,-80.3369 727.4279,-74.6878 730.9119,-84.6934 736.3911,-80.3369"/>
<text text-anchor="middle" x="779" y="-354.8" font-family="Times,serif" font-size="14.00" fill="#000000">aeDept</text>
</g>
<!-- aeMailGroup&#45;&gt;aeService -->
<g id="edge8" class="edge">
<title>aeMailGroup&#45;&gt;aeService</title>
<path fill="none" stroke="#000000" d="M563.8587,-743.5791C554.6773,-754.4475 545.5041,-767.4603 540,-781 526.8453,-813.3596 523.9976,-853.2277 524.0583,-882.2185"/>
<polygon fill="#000000" stroke="#000000" points="520.5607,-882.4225 524.1985,-892.3732 527.56,-882.3258 520.5607,-882.4225"/>
<text text-anchor="middle" x="564" y="-784.8" font-family="Times,serif" font-size="14.00" fill="#000000">member</text>
</g>
<!-- aeMailGroup&#45;&gt;aeUser -->
<g id="edge9" class="edge">
<title>aeMailGroup&#45;&gt;aeUser</title>
<path fill="none" stroke="#000000" d="M531.9241,-703.8859C464.3037,-690.7037 361.9112,-665.9919 340,-634 320.0069,-604.8087 318.2049,-563.7909 320.3816,-533.789"/>
<polygon fill="#000000" stroke="#000000" points="323.8814,-533.9479 321.2941,-523.6738 316.9097,-533.3188 323.8814,-533.9479"/>
<text text-anchor="middle" x="364" y="-600.8" font-family="Times,serif" font-size="14.00" fill="#000000">member</text>
</g>
<!-- aeMailGroup&#45;&gt;aeContact -->
<g id="edge7" class="edge">
<title>aeMailGroup&#45;&gt;aeContact</title>
<path fill="none" stroke="#000000" d="M550.265,-685.3849C534.1524,-671.8497 517.6413,-654.2501 509,-634 495.1256,-601.4868 505.2443,-561.6623 516.8424,-532.8995"/>
<polygon fill="#000000" stroke="#000000" points="520.1063,-534.1678 520.7998,-523.5957 513.6648,-531.4279 520.1063,-534.1678"/>
<text text-anchor="middle" x="533" y="-600.8" font-family="Times,serif" font-size="14.00" fill="#000000">member</text>
</g>
<!-- aeMailGroup&#45;&gt;aeZone -->
<g id="edge30" class="edge">
<title>aeMailGroup&#45;&gt;aeZone</title>
<path fill="none" stroke="#000000" d="M654.0204,-692.636C704.4759,-674.5575 776.1845,-648.8639 829.1671,-629.8799"/>
<polygon fill="#000000" stroke="#000000" points="830.5995,-633.0846 838.8328,-626.4166 828.2383,-626.4948 830.5995,-633.0846"/>
<text text-anchor="middle" x="810" y="-655.8" font-family="Times,serif" font-size="14.00" fill="#000000">aeMemberZone</text>
</g>
<!-- aeZone&#45;&gt;aeDept -->
<g id="edge34" class="edge">
<title>aeZone&#45;&gt;aeDept</title>
<path fill="none" stroke="#000000" d="M926.4915,-575.0665C942.5647,-554.1391 960,-524.5197 960,-494.5 960,-494.5 960,-494.5 960,-119.5 960,-79.75 846.8996,-60.2891 769.3182,-51.6157"/>
<polygon fill="#000000" stroke="#000000" points="769.4147,-48.1058 759.0967,-50.5118 768.6631,-55.0654 769.4147,-48.1058"/>
<text text-anchor="middle" x="980" y="-299.8" font-family="Times,serif" font-size="14.00" fill="#000000">aeDept</text>
</g>
<!-- aeZone&#45;&gt;aeLocation -->
<g id="edge35" class="edge">
<title>aeZone&#45;&gt;aeLocation</title>
<path fill="none" stroke="#000000" d="M883.0364,-575.1959C872.1344,-553.6117 860,-523.1521 860,-494.5 860,-494.5 860,-494.5 860,-358.5 860,-227.5025 841.5023,-164.8998 732,-93 695.2386,-68.8623 675.5632,-85.7587 628.8821,-74.7933"/>
<polygon fill="#000000" stroke="#000000" points="629.7366,-71.3989 619.1727,-72.2083 627.9356,-78.1633 629.7366,-71.3989"/>
<text text-anchor="middle" x="891" y="-299.8" font-family="Times,serif" font-size="14.00" fill="#000000">aeLocation</text>
</g>
<!-- aeZone&#45;&gt;aeGroup -->
<g id="edge36" class="edge">
<title>aeZone&#45;&gt;aeGroup</title>
<path fill="none" stroke="#000000" d="M958.5107,-633.6366C986.9199,-652.2815 1015,-679.5504 1015,-714.5 1015,-995.5 1015,-995.5 1015,-995.5 1015,-1026.8997 813.9888,-1051.6418 703.2131,-1062.8929"/>
<polygon fill="#000000" stroke="#000000" points="702.7114,-1059.4256 693.111,-1063.907 703.4106,-1066.3906 702.7114,-1059.4256"/>
<text text-anchor="middle" x="1072.5" y="-862.8" font-family="Times,serif" font-size="14.00" fill="#000000">aeZoneAdmins</text>
<text text-anchor="middle" x="1072.5" y="-847.8" font-family="Times,serif" font-size="14.00" fill="#000000">aeZoneAuditors</text>
<text text-anchor="middle" x="1072.5" y="-832.8" font-family="Times,serif" font-size="14.00" fill="#000000">aePasswordAdmins</text>
<text text-anchor="middle" x="1072.5" y="-817.8" font-family="Times,serif" font-size="14.00" fill="#000000">aeABAccessGroups</text>
</g>
</g>
</svg>
