<?xml version="1.0" encoding="UTF-8" standalone="no"?>
<!DOCTYPE svg PUBLIC "-//W3C//DTD SVG 1.1//EN"
 "http://www.w3.org/Graphics/SVG/1.1/DTD/svg11.dtd">
<!-- Generated by graphviz version 2.38.0 (20140413.2041)
 -->
<!-- Title: AE&#45;DIR object classes Pages: 1 -->
<svg width="395pt" height="838pt"
 viewBox="0.00 0.00 395.00 838.00" xmlns="http://www.w3.org/2000/svg" xmlns:xlink="http://www.w3.org/1999/xlink">
<g id="graph0" class="graph" transform="scale(1 1) rotate(0) translate(4 834)">
<title>AE&#45;DIR object classes</title>
<polygon fill="white" stroke="none" points="-4,4 -4,-834 391,-834 391,4 -4,4"/>
<!-- account -->
<g id="node1" class="node"><title>account</title>
<path fill="none" stroke="black" d="M79.5,-820C79.5,-820 42.5,-820 42.5,-820 36.5,-820 30.5,-814 30.5,-808 30.5,-808 30.5,-796 30.5,-796 30.5,-790 36.5,-784 42.5,-784 42.5,-784 79.5,-784 79.5,-784 85.5,-784 91.5,-790 91.5,-796 91.5,-796 91.5,-808 91.5,-808 91.5,-814 85.5,-820 79.5,-820"/>
<text text-anchor="middle" x="61" y="-798.3" font-family="Times,serif" font-size="14.00">account</text>
</g>
<!-- aeService -->
<g id="node2" class="node"><title>aeService</title>
<path fill="none" stroke="black" d="M228,-830C228,-830 180,-830 180,-830 174,-830 168,-824 168,-818 168,-818 168,-806 168,-806 168,-800 174,-794 180,-794 180,-794 228,-794 228,-794 234,-794 240,-800 240,-806 240,-806 240,-818 240,-818 240,-824 234,-830 228,-830"/>
<text text-anchor="middle" x="204" y="-808.3" font-family="Times,serif" font-size="14.00">aeService</text>
</g>
<!-- account&#45;&gt;aeService -->
<g id="edge1" class="edge"><title>account&#45;&gt;aeService</title>
<path fill="none" stroke="black" d="M91.5582,-804.096C110.729,-805.456 136.081,-807.254 157.761,-808.792"/>
<polygon fill="black" stroke="black" points="157.523,-812.283 167.746,-809.5 158.019,-805.301 157.523,-812.283"/>
</g>
<!-- aeUser -->
<g id="node3" class="node"><title>aeUser</title>
<path fill="none" stroke="black" d="M220,-776C220,-776 188,-776 188,-776 182,-776 176,-770 176,-764 176,-764 176,-752 176,-752 176,-746 182,-740 188,-740 188,-740 220,-740 220,-740 226,-740 232,-746 232,-752 232,-752 232,-764 232,-764 232,-770 226,-776 220,-776"/>
<text text-anchor="middle" x="204" y="-754.3" font-family="Times,serif" font-size="14.00">aeUser</text>
</g>
<!-- account&#45;&gt;aeUser -->
<g id="edge2" class="edge"><title>account&#45;&gt;aeUser</title>
<path fill="none" stroke="black" d="M91.5582,-792.776C113.224,-786.015 142.785,-776.791 166.017,-769.541"/>
<polygon fill="black" stroke="black" points="167.365,-772.787 175.869,-766.467 165.28,-766.104 167.365,-772.787"/>
</g>
<!-- sudoRole -->
<g id="node4" class="node"><title>sudoRole</title>
<path fill="none" stroke="black" d="M84.5,-684C84.5,-684 37.5,-684 37.5,-684 31.5,-684 25.5,-678 25.5,-672 25.5,-672 25.5,-660 25.5,-660 25.5,-654 31.5,-648 37.5,-648 37.5,-648 84.5,-648 84.5,-648 90.5,-648 96.5,-654 96.5,-660 96.5,-660 96.5,-672 96.5,-672 96.5,-678 90.5,-684 84.5,-684"/>
<text text-anchor="middle" x="61" y="-662.3" font-family="Times,serif" font-size="14.00">sudoRole</text>
</g>
<!-- aeSudoRule -->
<g id="node5" class="node"><title>aeSudoRule</title>
<path fill="none" stroke="black" d="M234.5,-668C234.5,-668 173.5,-668 173.5,-668 167.5,-668 161.5,-662 161.5,-656 161.5,-656 161.5,-644 161.5,-644 161.5,-638 167.5,-632 173.5,-632 173.5,-632 234.5,-632 234.5,-632 240.5,-632 246.5,-638 246.5,-644 246.5,-644 246.5,-656 246.5,-656 246.5,-662 240.5,-668 234.5,-668"/>
<text text-anchor="middle" x="204" y="-646.3" font-family="Times,serif" font-size="14.00">aeSudoRule</text>
</g>
<!-- sudoRole&#45;&gt;aeSudoRule -->
<g id="edge3" class="edge"><title>sudoRole&#45;&gt;aeSudoRule</title>
<path fill="none" stroke="black" d="M96.8539,-662.045C113.223,-660.187 133.071,-657.935 151.155,-655.883"/>
<polygon fill="black" stroke="black" points="151.731,-659.34 161.272,-654.735 150.941,-652.385 151.731,-659.34"/>
</g>
<!-- locality -->
<g id="node6" class="node"><title>locality</title>
<path fill="none" stroke="black" d="M78.5,-630C78.5,-630 43.5,-630 43.5,-630 37.5,-630 31.5,-624 31.5,-618 31.5,-618 31.5,-606 31.5,-606 31.5,-600 37.5,-594 43.5,-594 43.5,-594 78.5,-594 78.5,-594 84.5,-594 90.5,-600 90.5,-606 90.5,-606 90.5,-618 90.5,-618 90.5,-624 84.5,-630 78.5,-630"/>
<text text-anchor="middle" x="61" y="-608.3" font-family="Times,serif" font-size="14.00">locality</text>
</g>
<!-- aeLocation -->
<g id="node7" class="node"><title>aeLocation</title>
<path fill="none" stroke="black" d="M232,-614C232,-614 176,-614 176,-614 170,-614 164,-608 164,-602 164,-602 164,-590 164,-590 164,-584 170,-578 176,-578 176,-578 232,-578 232,-578 238,-578 244,-584 244,-590 244,-590 244,-602 244,-602 244,-608 238,-614 232,-614"/>
<text text-anchor="middle" x="204" y="-592.3" font-family="Times,serif" font-size="14.00">aeLocation</text>
</g>
<!-- locality&#45;&gt;aeLocation -->
<g id="edge4" class="edge"><title>locality&#45;&gt;aeLocation</title>
<path fill="none" stroke="black" d="M90.5335,-608.762C108.652,-606.706 132.584,-603.99 153.714,-601.593"/>
<polygon fill="black" stroke="black" points="154.282,-605.051 163.823,-600.446 153.492,-598.096 154.282,-605.051"/>
</g>
<!-- inetOrgPerson -->
<g id="node8" class="node"><title>inetOrgPerson</title>
<path fill="none" stroke="black" d="M98.5,-757C98.5,-757 23.5,-757 23.5,-757 17.5,-757 11.5,-751 11.5,-745 11.5,-745 11.5,-733 11.5,-733 11.5,-727 17.5,-721 23.5,-721 23.5,-721 98.5,-721 98.5,-721 104.5,-721 110.5,-727 110.5,-733 110.5,-733 110.5,-745 110.5,-745 110.5,-751 104.5,-757 98.5,-757"/>
<text text-anchor="middle" x="61" y="-735.3" font-family="Times,serif" font-size="14.00">inetOrgPerson</text>
</g>
<!-- inetOrgPerson&#45;&gt;aeUser -->
<g id="edge5" class="edge"><title>inetOrgPerson&#45;&gt;aeUser</title>
<path fill="none" stroke="black" d="M110.524,-745.539C128.6,-747.974 148.817,-750.699 165.727,-752.977"/>
<polygon fill="black" stroke="black" points="165.402,-756.465 175.78,-754.332 166.337,-749.528 165.402,-756.465"/>
</g>
<!-- aePerson -->
<g id="node9" class="node"><title>aePerson</title>
<path fill="none" stroke="black" d="M226,-722C226,-722 182,-722 182,-722 176,-722 170,-716 170,-710 170,-710 170,-698 170,-698 170,-692 176,-686 182,-686 182,-686 226,-686 226,-686 232,-686 238,-692 238,-698 238,-698 238,-710 238,-710 238,-716 232,-722 226,-722"/>
<text text-anchor="middle" x="204" y="-700.3" font-family="Times,serif" font-size="14.00">aePerson</text>
</g>
<!-- inetOrgPerson&#45;&gt;aePerson -->
<g id="edge6" class="edge"><title>inetOrgPerson&#45;&gt;aePerson</title>
<path fill="none" stroke="black" d="M110.524,-726.955C126.599,-722.965 144.368,-718.554 159.999,-714.674"/>
<polygon fill="black" stroke="black" points="161.06,-718.017 169.922,-712.211 159.374,-711.223 161.06,-718.017"/>
</g>
<!-- posixGroup -->
<g id="node10" class="node"><title>posixGroup</title>
<path fill="none" stroke="black" d="M90.5,-522C90.5,-522 31.5,-522 31.5,-522 25.5,-522 19.5,-516 19.5,-510 19.5,-510 19.5,-498 19.5,-498 19.5,-492 25.5,-486 31.5,-486 31.5,-486 90.5,-486 90.5,-486 96.5,-486 102.5,-492 102.5,-498 102.5,-498 102.5,-510 102.5,-510 102.5,-516 96.5,-522 90.5,-522"/>
<text text-anchor="middle" x="61" y="-500.3" font-family="Times,serif" font-size="14.00">posixGroup</text>
</g>
<!-- aeGroup -->
<g id="node11" class="node"><title>aeGroup</title>
<path fill="none" stroke="black" d="M224.5,-522C224.5,-522 183.5,-522 183.5,-522 177.5,-522 171.5,-516 171.5,-510 171.5,-510 171.5,-498 171.5,-498 171.5,-492 177.5,-486 183.5,-486 183.5,-486 224.5,-486 224.5,-486 230.5,-486 236.5,-492 236.5,-498 236.5,-498 236.5,-510 236.5,-510 236.5,-516 230.5,-522 224.5,-522"/>
<text text-anchor="middle" x="204" y="-500.3" font-family="Times,serif" font-size="14.00">aeGroup</text>
</g>
<!-- posixGroup&#45;&gt;aeGroup -->
<g id="edge7" class="edge"><title>posixGroup&#45;&gt;aeGroup</title>
<path fill="none" stroke="black" d="M102.783,-504C121.089,-504 142.668,-504 161.104,-504"/>
<polygon fill="black" stroke="black" points="161.264,-507.5 171.263,-504 161.263,-500.5 161.264,-507.5"/>
</g>
<!-- namedObject -->
<g id="node12" class="node"><title>namedObject</title>
<path fill="none" stroke="black" d="M96,-306C96,-306 26,-306 26,-306 20,-306 14,-300 14,-294 14,-294 14,-282 14,-282 14,-276 20,-270 26,-270 26,-270 96,-270 96,-270 102,-270 108,-276 108,-282 108,-282 108,-294 108,-294 108,-300 102,-306 96,-306"/>
<text text-anchor="middle" x="61" y="-284.3" font-family="Times,serif" font-size="14.00">namedObject</text>
</g>
<!-- namedPolicy -->
<g id="node13" class="node"><title>namedPolicy</title>
<path fill="none" stroke="black" d="M238,-252C238,-252 170,-252 170,-252 164,-252 158,-246 158,-240 158,-240 158,-228 158,-228 158,-222 164,-216 170,-216 170,-216 238,-216 238,-216 244,-216 250,-222 250,-228 250,-228 250,-240 250,-240 250,-246 244,-252 238,-252"/>
<text text-anchor="middle" x="204" y="-230.3" font-family="Times,serif" font-size="14.00">namedPolicy</text>
</g>
<!-- namedObject&#45;&gt;namedPolicy -->
<g id="edge8" class="edge"><title>namedObject&#45;&gt;namedPolicy</title>
<path fill="none" stroke="black" d="M108.169,-270.318C120.965,-265.418 134.981,-260.05 148.217,-254.981"/>
<polygon fill="black" stroke="black" points="149.603,-258.198 157.69,-251.353 147.099,-251.661 149.603,-258.198"/>
</g>
<!-- aeContact -->
<g id="node15" class="node"><title>aeContact</title>
<path fill="none" stroke="black" d="M229,-414C229,-414 179,-414 179,-414 173,-414 167,-408 167,-402 167,-402 167,-390 167,-390 167,-384 173,-378 179,-378 179,-378 229,-378 229,-378 235,-378 241,-384 241,-390 241,-390 241,-402 241,-402 241,-408 235,-414 229,-414"/>
<text text-anchor="middle" x="204" y="-392.3" font-family="Times,serif" font-size="14.00">aeContact</text>
</g>
<!-- namedObject&#45;&gt;aeContact -->
<g id="edge10" class="edge"><title>namedObject&#45;&gt;aeContact</title>
<path fill="none" stroke="black" d="M108.177,-305.489C113.092,-308.292 117.816,-311.456 122,-315 144.009,-333.644 137.124,-349.095 158,-369 158.927,-369.884 159.888,-370.753 160.877,-371.605"/>
<polygon fill="black" stroke="black" points="158.831,-374.447 168.884,-377.794 163.113,-368.909 158.831,-374.447"/>
</g>
<!-- aeSrvGroup -->
<g id="node16" class="node"><title>aeSrvGroup</title>
<path fill="none" stroke="black" d="M234,-360C234,-360 174,-360 174,-360 168,-360 162,-354 162,-348 162,-348 162,-336 162,-336 162,-330 168,-324 174,-324 174,-324 234,-324 234,-324 240,-324 246,-330 246,-336 246,-336 246,-348 246,-348 246,-354 240,-360 234,-360"/>
<text text-anchor="middle" x="204" y="-338.3" font-family="Times,serif" font-size="14.00">aeSrvGroup</text>
</g>
<!-- namedObject&#45;&gt;aeSrvGroup -->
<g id="edge11" class="edge"><title>namedObject&#45;&gt;aeSrvGroup</title>
<path fill="none" stroke="black" d="M108.169,-305.682C122.264,-311.08 137.838,-317.045 152.222,-322.553"/>
<polygon fill="black" stroke="black" points="151.366,-325.973 161.956,-326.281 153.87,-319.436 151.366,-325.973"/>
</g>
<!-- aeTag -->
<g id="node17" class="node"><title>aeTag</title>
<path fill="none" stroke="black" d="M219,-198C219,-198 189,-198 189,-198 183,-198 177,-192 177,-186 177,-186 177,-174 177,-174 177,-168 183,-162 189,-162 189,-162 219,-162 219,-162 225,-162 231,-168 231,-174 231,-174 231,-186 231,-186 231,-192 225,-198 219,-198"/>
<text text-anchor="middle" x="204" y="-176.3" font-family="Times,serif" font-size="14.00">aeTag</text>
</g>
<!-- namedObject&#45;&gt;aeTag -->
<g id="edge12" class="edge"><title>namedObject&#45;&gt;aeTag</title>
<path fill="none" stroke="black" d="M81.4708,-269.961C100.352,-252.865 130.148,-226.91 158,-207 161.243,-204.682 164.691,-202.368 168.181,-200.123"/>
<polygon fill="black" stroke="black" points="170.207,-202.985 176.845,-194.727 166.506,-197.043 170.207,-202.985"/>
</g>
<!-- aeZone -->
<g id="node18" class="node"><title>aeZone</title>
<path fill="none" stroke="black" d="M221.5,-306C221.5,-306 186.5,-306 186.5,-306 180.5,-306 174.5,-300 174.5,-294 174.5,-294 174.5,-282 174.5,-282 174.5,-276 180.5,-270 186.5,-270 186.5,-270 221.5,-270 221.5,-270 227.5,-270 233.5,-276 233.5,-282 233.5,-282 233.5,-294 233.5,-294 233.5,-300 227.5,-306 221.5,-306"/>
<text text-anchor="middle" x="204" y="-284.3" font-family="Times,serif" font-size="14.00">aeZone</text>
</g>
<!-- namedObject&#45;&gt;aeZone -->
<g id="edge13" class="edge"><title>namedObject&#45;&gt;aeZone</title>
<path fill="none" stroke="black" d="M108.169,-288C126.26,-288 146.787,-288 164.106,-288"/>
<polygon fill="black" stroke="black" points="164.424,-291.5 174.424,-288 164.424,-284.5 164.424,-291.5"/>
</g>
<!-- aePolicy -->
<g id="node14" class="node"><title>aePolicy</title>
<path fill="none" stroke="black" d="M358,-410C358,-410 315,-410 315,-410 309,-410 303,-404 303,-398 303,-398 303,-386 303,-386 303,-380 309,-374 315,-374 315,-374 358,-374 358,-374 364,-374 370,-380 370,-386 370,-386 370,-398 370,-398 370,-404 364,-410 358,-410"/>
<text text-anchor="middle" x="336.5" y="-388.3" font-family="Times,serif" font-size="14.00">aePolicy</text>
</g>
<!-- namedPolicy&#45;&gt;aePolicy -->
<g id="edge9" class="edge"><title>namedPolicy&#45;&gt;aePolicy</title>
<path fill="none" stroke="black" d="M239.146,-252.175C243.002,-254.885 246.718,-257.84 250,-261 281.814,-291.633 307.71,-336.208 322.369,-364.652"/>
<polygon fill="black" stroke="black" points="319.273,-366.285 326.902,-373.636 325.522,-363.131 319.273,-366.285"/>
</g>
<!-- device -->
<g id="node19" class="node"><title>device</title>
<path fill="none" stroke="black" d="M76.5,-144C76.5,-144 45.5,-144 45.5,-144 39.5,-144 33.5,-138 33.5,-132 33.5,-132 33.5,-120 33.5,-120 33.5,-114 39.5,-108 45.5,-108 45.5,-108 76.5,-108 76.5,-108 82.5,-108 88.5,-114 88.5,-120 88.5,-120 88.5,-132 88.5,-132 88.5,-138 82.5,-144 76.5,-144"/>
<text text-anchor="middle" x="61" y="-122.3" font-family="Times,serif" font-size="14.00">device</text>
</g>
<!-- aeDevice -->
<g id="node20" class="node"><title>aeDevice</title>
<path fill="none" stroke="black" d="M227,-144C227,-144 181,-144 181,-144 175,-144 169,-138 169,-132 169,-132 169,-120 169,-120 169,-114 175,-108 181,-108 181,-108 227,-108 227,-108 233,-108 239,-114 239,-120 239,-120 239,-132 239,-132 239,-138 233,-144 227,-144"/>
<text text-anchor="middle" x="204" y="-122.3" font-family="Times,serif" font-size="14.00">aeDevice</text>
</g>
<!-- device&#45;&gt;aeDevice -->
<g id="edge14" class="edge"><title>device&#45;&gt;aeDevice</title>
<path fill="none" stroke="black" d="M88.521,-126C108.237,-126 135.594,-126 158.62,-126"/>
<polygon fill="black" stroke="black" points="158.852,-129.5 168.852,-126 158.852,-122.5 158.852,-129.5"/>
</g>
<!-- aeHost -->
<g id="node21" class="node"><title>aeHost</title>
<path fill="none" stroke="black" d="M352.5,-198C352.5,-198 320.5,-198 320.5,-198 314.5,-198 308.5,-192 308.5,-186 308.5,-186 308.5,-174 308.5,-174 308.5,-168 314.5,-162 320.5,-162 320.5,-162 352.5,-162 352.5,-162 358.5,-162 364.5,-168 364.5,-174 364.5,-174 364.5,-186 364.5,-186 364.5,-192 358.5,-198 352.5,-198"/>
<text text-anchor="middle" x="336.5" y="-176.3" font-family="Times,serif" font-size="14.00">aeHost</text>
</g>
<!-- aeDevice&#45;&gt;aeHost -->
<g id="edge15" class="edge"><title>aeDevice&#45;&gt;aeHost</title>
<path fill="none" stroke="black" d="M239.287,-140.188C257.679,-147.798 280.344,-157.177 299.055,-164.919"/>
<polygon fill="black" stroke="black" points="297.857,-168.211 308.436,-168.801 300.534,-161.743 297.857,-168.211"/>
</g>
<!-- aeNwDevice -->
<g id="node22" class="node"><title>aeNwDevice</title>
<path fill="none" stroke="black" d="M369.5,-144C369.5,-144 303.5,-144 303.5,-144 297.5,-144 291.5,-138 291.5,-132 291.5,-132 291.5,-120 291.5,-120 291.5,-114 297.5,-108 303.5,-108 303.5,-108 369.5,-108 369.5,-108 375.5,-108 381.5,-114 381.5,-120 381.5,-120 381.5,-132 381.5,-132 381.5,-138 375.5,-144 369.5,-144"/>
<text text-anchor="middle" x="336.5" y="-122.3" font-family="Times,serif" font-size="14.00">aeNwDevice</text>
</g>
<!-- aeDevice&#45;&gt;aeNwDevice -->
<g id="edge16" class="edge"><title>aeDevice&#45;&gt;aeNwDevice</title>
<path fill="none" stroke="black" d="M239.287,-126C252.049,-126 266.867,-126 280.994,-126"/>
<polygon fill="black" stroke="black" points="281.12,-129.5 291.119,-126 281.119,-122.5 281.12,-129.5"/>
</g>
<!-- aeAuthcToken -->
<g id="node23" class="node"><title>aeAuthcToken</title>
<path fill="none" stroke="black" d="M375,-90C375,-90 298,-90 298,-90 292,-90 286,-84 286,-78 286,-78 286,-66 286,-66 286,-60 292,-54 298,-54 298,-54 375,-54 375,-54 381,-54 387,-60 387,-66 387,-66 387,-78 387,-78 387,-84 381,-90 375,-90"/>
<text text-anchor="middle" x="336.5" y="-68.3" font-family="Times,serif" font-size="14.00">aeAuthcToken</text>
</g>
<!-- aeDevice&#45;&gt;aeAuthcToken -->
<g id="edge17" class="edge"><title>aeDevice&#45;&gt;aeAuthcToken</title>
<path fill="none" stroke="black" d="M239.287,-111.812C252.42,-106.378 267.732,-100.042 282.227,-94.0441"/>
<polygon fill="black" stroke="black" points="283.701,-97.222 291.603,-90.1643 281.024,-90.7539 283.701,-97.222"/>
</g>
<!-- nisMailAlias -->
<g id="node24" class="node"><title>nisMailAlias</title>
<path fill="none" stroke="black" d="M93,-360C93,-360 29,-360 29,-360 23,-360 17,-354 17,-348 17,-348 17,-336 17,-336 17,-330 23,-324 29,-324 29,-324 93,-324 93,-324 99,-324 105,-330 105,-336 105,-336 105,-348 105,-348 105,-354 99,-360 93,-360"/>
<text text-anchor="middle" x="61" y="-338.3" font-family="Times,serif" font-size="14.00">nisMailAlias</text>
</g>
<!-- aeMailGroup -->
<g id="node25" class="node"><title>aeMailGroup</title>
<path fill="none" stroke="black" d="M238,-468C238,-468 170,-468 170,-468 164,-468 158,-462 158,-456 158,-456 158,-444 158,-444 158,-438 164,-432 170,-432 170,-432 238,-432 238,-432 244,-432 250,-438 250,-444 250,-444 250,-456 250,-456 250,-462 244,-468 238,-468"/>
<text text-anchor="middle" x="204" y="-446.3" font-family="Times,serif" font-size="14.00">aeMailGroup</text>
</g>
<!-- nisMailAlias&#45;&gt;aeMailGroup -->
<g id="edge18" class="edge"><title>nisMailAlias&#45;&gt;aeMailGroup</title>
<path fill="none" stroke="black" d="M105.084,-357.785C111.1,-360.99 116.945,-364.718 122,-369 144.009,-387.644 137.124,-403.095 158,-423 158.927,-423.884 159.888,-424.753 160.877,-425.605"/>
<polygon fill="black" stroke="black" points="158.831,-428.447 168.884,-431.794 163.113,-422.909 158.831,-428.447"/>
</g>
<!-- aeObject -->
<g id="node26" class="node"><title>aeObject</title>
<path fill="none" stroke="black" d="M83,-576C83,-576 39,-576 39,-576 33,-576 27,-570 27,-564 27,-564 27,-552 27,-552 27,-546 33,-540 39,-540 39,-540 83,-540 83,-540 89,-540 95,-546 95,-552 95,-552 95,-564 95,-564 95,-570 89,-576 83,-576"/>
<text text-anchor="middle" x="61" y="-554.3" font-family="Times,serif" font-size="14.00">aeObject</text>
</g>
<!-- aeObject&#45;&gt;aeService -->
<g id="edge29" class="edge"><title>aeObject&#45;&gt;aeService</title>
<path fill="none" stroke="black" d="M95.1061,-566.329C105.126,-570.4 115.251,-576.357 122,-585 177.59,-656.183 106.688,-710.674 158,-785 158.757,-786.097 159.574,-787.156 160.443,-788.179"/>
<polygon fill="black" stroke="black" points="158.287,-790.958 167.943,-795.317 163.112,-785.888 158.287,-790.958"/>
</g>
<!-- aeObject&#45;&gt;aeUser -->
<g id="edge30" class="edge"><title>aeObject&#45;&gt;aeUser</title>
<path fill="none" stroke="black" d="M95.1003,-566.714C104.998,-570.797 115.052,-576.664 122,-585 164.791,-636.337 118.299,-677.237 158,-731 160.691,-734.644 164.034,-737.891 167.674,-740.758"/>
<polygon fill="black" stroke="black" points="165.749,-743.681 175.981,-746.432 169.698,-737.901 165.749,-743.681"/>
</g>
<!-- aeObject&#45;&gt;aeSudoRule -->
<g id="edge28" class="edge"><title>aeObject&#45;&gt;aeSudoRule</title>
<path fill="none" stroke="black" d="M95.017,-570.101C104.154,-574.169 113.805,-579.179 122,-585 140.966,-598.473 139.858,-608.436 158,-623 159.319,-624.059 160.683,-625.106 162.079,-626.137"/>
<polygon fill="black" stroke="black" points="160.114,-629.034 170.328,-631.85 164.1,-623.279 160.114,-629.034"/>
</g>
<!-- aeObject&#45;&gt;aeLocation -->
<g id="edge20" class="edge"><title>aeObject&#45;&gt;aeLocation</title>
<path fill="none" stroke="black" d="M95.0582,-561.089C112.675,-564.869 134.687,-570.589 154.229,-576.4"/>
<polygon fill="black" stroke="black" points="153.304,-579.776 163.89,-579.343 155.344,-573.08 153.304,-579.776"/>
</g>
<!-- aeObject&#45;&gt;aeLocation -->
<g id="edge24" class="edge"><title>aeObject&#45;&gt;aeLocation</title>
<path fill="none" stroke="black" d="M95.0582,-572.73C112.595,-578.419 134.486,-584.534 153.961,-589.248"/>
<polygon fill="black" stroke="black" points="153.355,-592.7 163.89,-591.576 154.953,-585.885 153.355,-592.7"/>
</g>
<!-- aeObject&#45;&gt;aePerson -->
<g id="edge31" class="edge"><title>aeObject&#45;&gt;aePerson</title>
<path fill="none" stroke="black" d="M95.0926,-567.538C104.757,-571.636 114.678,-577.303 122,-585 152.264,-616.812 129.657,-643.465 158,-677 159.132,-678.34 160.348,-679.63 161.63,-680.872"/>
<polygon fill="black" stroke="black" points="159.619,-683.751 169.548,-687.446 164.09,-678.365 159.619,-683.751"/>
</g>
<!-- aeObject&#45;&gt;aeGroup -->
<g id="edge23" class="edge"><title>aeObject&#45;&gt;aeGroup</title>
<path fill="none" stroke="black" d="M95.0582,-545.339C114.964,-537.716 140.479,-527.944 161.704,-519.815"/>
<polygon fill="black" stroke="black" points="163.032,-523.055 171.119,-516.21 160.529,-516.518 163.032,-523.055"/>
</g>
<!-- aeObject&#45;&gt;aePolicy -->
<g id="edge32" class="edge"><title>aeObject&#45;&gt;aePolicy</title>
<path fill="none" stroke="black" d="M95.1776,-561.302C135.216,-563.588 203.004,-561.857 250,-531 290.176,-504.621 314.651,-452.165 326.591,-419.776"/>
<polygon fill="black" stroke="black" points="330.005,-420.619 330.031,-410.024 323.404,-418.29 330.005,-420.619"/>
</g>
<!-- aeObject&#45;&gt;aeContact -->
<g id="edge26" class="edge"><title>aeObject&#45;&gt;aeContact</title>
<path fill="none" stroke="black" d="M95.0233,-548.818C104.799,-544.723 114.801,-538.966 122,-531 155.924,-493.461 126.34,-462.467 158,-423 158.574,-422.285 159.172,-421.584 159.791,-420.898"/>
<polygon fill="black" stroke="black" points="162.174,-423.462 167.131,-414.098 157.416,-418.327 162.174,-423.462"/>
</g>
<!-- aeObject&#45;&gt;aeSrvGroup -->
<g id="edge21" class="edge"><title>aeObject&#45;&gt;aeSrvGroup</title>
<path fill="none" stroke="black" d="M95.215,-549.38C105.12,-545.303 115.149,-539.415 122,-531 168.567,-473.803 114.874,-428.834 158,-369 158.366,-368.492 158.745,-367.992 159.136,-367.499"/>
<polygon fill="black" stroke="black" points="161.817,-369.765 166.354,-360.191 156.837,-364.847 161.817,-369.765"/>
</g>
<!-- aeObject&#45;&gt;aeZone -->
<g id="edge22" class="edge"><title>aeObject&#45;&gt;aeZone</title>
<path fill="none" stroke="black" d="M95.1718,-549.722C105.196,-545.655 115.307,-539.686 122,-531 181.405,-453.909 103.226,-395.448 158,-315 160.243,-311.705 163.034,-308.748 166.12,-306.109"/>
<polygon fill="black" stroke="black" points="168.224,-308.907 174.254,-300.195 164.107,-303.245 168.224,-308.907"/>
</g>
<!-- aeObject&#45;&gt;aeDevice -->
<g id="edge27" class="edge"><title>aeObject&#45;&gt;aeDevice</title>
<path fill="none" stroke="black" d="M95.2198,-550.117C105.373,-546.067 115.549,-540.009 122,-531 220.254,-393.792 67.9763,-295.744 158,-153 159.057,-151.324 160.259,-149.738 161.575,-148.238"/>
<polygon fill="black" stroke="black" points="163.96,-150.799 168.942,-141.449 159.216,-145.652 163.96,-150.799"/>
</g>
<!-- aeObject&#45;&gt;aeMailGroup -->
<g id="edge25" class="edge"><title>aeObject&#45;&gt;aeMailGroup</title>
<path fill="none" stroke="black" d="M95.0721,-547.047C104.411,-542.955 114.156,-537.645 122,-531 144.009,-512.356 137.124,-496.905 158,-477 158.927,-476.116 159.888,-475.247 160.877,-474.395"/>
<polygon fill="black" stroke="black" points="163.113,-477.091 168.884,-468.206 158.831,-471.553 163.113,-477.091"/>
</g>
<!-- aeDept -->
<g id="node27" class="node"><title>aeDept</title>
<path fill="none" stroke="black" d="M220,-90C220,-90 188,-90 188,-90 182,-90 176,-84 176,-78 176,-78 176,-66 176,-66 176,-60 182,-54 188,-54 188,-54 220,-54 220,-54 226,-54 232,-60 232,-66 232,-66 232,-78 232,-78 232,-84 226,-90 220,-90"/>
<text text-anchor="middle" x="204" y="-68.3" font-family="Times,serif" font-size="14.00">aeDept</text>
</g>
<!-- aeObject&#45;&gt;aeDept -->
<g id="edge19" class="edge"><title>aeObject&#45;&gt;aeDept</title>
<path fill="none" stroke="black" d="M95.2815,-550.161C105.439,-546.114 115.602,-540.046 122,-531 177.623,-452.348 107.094,-180.784 158,-99 160.449,-95.0649 163.702,-91.6275 167.343,-88.6454"/>
<polygon fill="black" stroke="black" points="169.529,-91.3894 175.77,-82.8279 165.552,-85.6286 169.529,-91.3894"/>
</g>
<!-- groupOfEntries -->
<g id="node28" class="node"><title>groupOfEntries</title>
<path fill="none" stroke="black" d="M101,-468C101,-468 21,-468 21,-468 15,-468 9,-462 9,-456 9,-456 9,-444 9,-444 9,-438 15,-432 21,-432 21,-432 101,-432 101,-432 107,-432 113,-438 113,-444 113,-444 113,-456 113,-456 113,-462 107,-468 101,-468"/>
<text text-anchor="middle" x="61" y="-446.3" font-family="Times,serif" font-size="14.00">groupOfEntries</text>
</g>
<!-- groupOfEntries&#45;&gt;aeGroup -->
<g id="edge33" class="edge"><title>groupOfEntries&#45;&gt;aeGroup</title>
<path fill="none" stroke="black" d="M109.343,-468.131C126.33,-474.637 145.335,-481.916 161.763,-488.207"/>
<polygon fill="black" stroke="black" points="160.512,-491.476 171.103,-491.784 163.016,-484.939 160.512,-491.476"/>
</g>
<!-- groupOfEntries&#45;&gt;aeMailGroup -->
<g id="edge34" class="edge"><title>groupOfEntries&#45;&gt;aeMailGroup</title>
<path fill="none" stroke="black" d="M113.303,-450C124.396,-450 136.175,-450 147.423,-450"/>
<polygon fill="black" stroke="black" points="147.568,-453.5 157.568,-450 147.568,-446.5 147.568,-453.5"/>
</g>
<!-- organizationalUnit -->
<g id="node29" class="node"><title>organizationalUnit</title>
<path fill="none" stroke="black" d="M110,-63C110,-63 12,-63 12,-63 6,-63 -7.10543e-15,-57 -7.10543e-15,-51 -7.10543e-15,-51 -7.10543e-15,-39 -7.10543e-15,-39 -7.10543e-15,-33 6,-27 12,-27 12,-27 110,-27 110,-27 116,-27 122,-33 122,-39 122,-39 122,-51 122,-51 122,-57 116,-63 110,-63"/>
<text text-anchor="middle" x="61" y="-41.3" font-family="Times,serif" font-size="14.00">organizationalUnit</text>
</g>
<!-- organizationalUnit&#45;&gt;aeDept -->
<g id="edge35" class="edge"><title>organizationalUnit&#45;&gt;aeDept</title>
<path fill="none" stroke="black" d="M122.206,-56.5287C136.971,-59.3562 152.352,-62.3015 165.683,-64.8541"/>
<polygon fill="black" stroke="black" points="165.403,-68.3641 175.883,-66.8074 166.72,-61.489 165.403,-68.3641"/>
</g>
<!-- aeRoot -->
<g id="node30" class="node"><title>aeRoot</title>
<path fill="none" stroke="black" d="M220.5,-36C220.5,-36 187.5,-36 187.5,-36 181.5,-36 175.5,-30 175.5,-24 175.5,-24 175.5,-12 175.5,-12 175.5,-6 181.5,-0 187.5,-0 187.5,-0 220.5,-0 220.5,-0 226.5,-0 232.5,-6 232.5,-12 232.5,-12 232.5,-24 232.5,-24 232.5,-30 226.5,-36 220.5,-36"/>
<text text-anchor="middle" x="204" y="-14.3" font-family="Times,serif" font-size="14.00">aeRoot</text>
</g>
<!-- organizationalUnit&#45;&gt;aeRoot -->
<g id="edge36" class="edge"><title>organizationalUnit&#45;&gt;aeRoot</title>
<path fill="none" stroke="black" d="M122.206,-33.4713C136.735,-30.6891 151.86,-27.7927 165.041,-25.2687"/>
<polygon fill="black" stroke="black" points="165.984,-28.6519 175.147,-23.3336 164.667,-21.7768 165.984,-28.6519"/>
</g>
<!-- groupOfURLs -->
<g id="node31" class="node"><title>groupOfURLs</title>
<path fill="none" stroke="black" d="M98,-414C98,-414 24,-414 24,-414 18,-414 12,-408 12,-402 12,-402 12,-390 12,-390 12,-384 18,-378 24,-378 24,-378 98,-378 98,-378 104,-378 110,-384 110,-390 110,-390 110,-402 110,-402 110,-408 104,-414 98,-414"/>
<text text-anchor="middle" x="61" y="-392.3" font-family="Times,serif" font-size="14.00">groupOfURLs</text>
</g>
<!-- groupOfURLs&#45;&gt;aeGroup -->
<g id="edge37" class="edge"><title>groupOfURLs&#45;&gt;aeGroup</title>
<path fill="none" stroke="black" d="M109.097,-414.019C113.681,-416.689 118.078,-419.677 122,-423 144.009,-441.644 137.124,-457.095 158,-477 159.607,-478.533 161.316,-480.018 163.093,-481.451"/>
<polygon fill="black" stroke="black" points="161.076,-484.312 171.214,-487.388 165.207,-478.661 161.076,-484.312"/>
</g>
<!-- groupOfURLs&#45;&gt;aeMailGroup -->
<g id="edge38" class="edge"><title>groupOfURLs&#45;&gt;aeMailGroup</title>
<path fill="none" stroke="black" d="M109.343,-414.131C121.839,-418.917 135.426,-424.121 148.277,-429.042"/>
<polygon fill="black" stroke="black" points="147.339,-432.431 157.929,-432.739 149.843,-425.894 147.339,-432.431"/>
</g>
</g>
</svg>
