<?xml version="1.0" encoding="UTF-8" standalone="no"?>
<!DOCTYPE svg PUBLIC "-//W3C//DTD SVG 1.1//EN"
 "http://www.w3.org/Graphics/SVG/1.1/DTD/svg11.dtd">
<!-- Generated by graphviz version 2.40.1 (20161225.0304)
 -->
<!-- Title: G Pages: 1 -->
<svg width="912pt" height="207pt"
 viewBox="0.00 0.00 912.00 206.55" xmlns="http://www.w3.org/2000/svg" xmlns:xlink="http://www.w3.org/1999/xlink">
<g id="graph0" class="graph" transform="scale(1 1) rotate(0) translate(4 202.5507)">
<title>G</title>
<polygon fill="#ffffff" stroke="transparent" points="-4,4 -4,-202.5507 908,-202.5507 908,4 -4,4"/>
<!-- admin_client -->
<g id="node1" class="node">
<title>admin_client</title>
<polygon fill="none" stroke="#000000" points="0,-63.0507 0,-121.0507 122,-121.0507 122,-63.0507 0,-63.0507"/>
<text text-anchor="middle" x="61" y="-95.8507" font-family="Times,serif" font-size="14.00" fill="#000000">Admin</text>
<text text-anchor="middle" x="61" y="-80.8507" font-family="Times,serif" font-size="14.00" fill="#000000">work&#45;station</text>
</g>
<!-- pdns_auth -->
<g id="node2" class="node">
<title>pdns_auth</title>
<polygon fill="none" stroke="#000000" points="207,-140.0507 207,-198.0507 329,-198.0507 329,-140.0507 207,-140.0507"/>
<text text-anchor="middle" x="268" y="-180.3507" font-family="Times,serif" font-size="14.00" fill="#000000">PowerDNS</text>
<text text-anchor="middle" x="268" y="-165.3507" font-family="Times,serif" font-size="14.00" fill="#000000">Authoritative</text>
<text text-anchor="middle" x="268" y="-150.3507" font-family="Times,serif" font-size="14.00" fill="#000000">Server</text>
</g>
<!-- admin_client&#45;&gt;pdns_auth -->
<g id="edge2" class="edge">
<title>admin_client&#45;&gt;pdns_auth</title>
<path fill="none" stroke="#000000" d="M122.2666,-114.8407C145.8419,-123.6103 172.9458,-133.6924 197.3358,-142.765"/>
<polygon fill="#000000" stroke="#000000" points="196.2977,-146.1131 206.8906,-146.3192 198.7383,-139.5523 196.2977,-146.1131"/>
<text text-anchor="middle" x="164.5" y="-140.8507" font-family="Times,serif" font-size="14.00" fill="#000000">maintain</text>
</g>
<!-- isc_dhcp -->
<g id="node3" class="node">
<title>isc_dhcp</title>
<polygon fill="none" stroke="#000000" points="207,-63.0507 207,-121.0507 329,-121.0507 329,-63.0507 207,-63.0507"/>
<text text-anchor="middle" x="268" y="-88.3507" font-family="Times,serif" font-size="14.00" fill="#000000">ISC dhcpd</text>
</g>
<!-- admin_client&#45;&gt;isc_dhcp -->
<g id="edge3" class="edge">
<title>admin_client&#45;&gt;isc_dhcp</title>
<path fill="none" stroke="#000000" d="M122.2666,-92.0507C145.6332,-92.0507 172.4663,-92.0507 196.6876,-92.0507"/>
<polygon fill="#000000" stroke="#000000" points="196.8906,-95.5508 206.8906,-92.0507 196.8905,-88.5508 196.8906,-95.5508"/>
<text text-anchor="middle" x="164.5" y="-95.8507" font-family="Times,serif" font-size="14.00" fill="#000000">maintain</text>
</g>
<!-- infra_ldap -->
<g id="node4" class="node">
<title>infra_ldap</title>
<polygon fill="none" stroke="#000000" points="480,-63.0507 480,-121.0507 602,-121.0507 602,-63.0507 480,-63.0507"/>
<text text-anchor="middle" x="541" y="-95.8507" font-family="Times,serif" font-size="14.00" fill="#000000">Infrastructure</text>
<text text-anchor="middle" x="541" y="-80.8507" font-family="Times,serif" font-size="14.00" fill="#000000">LDAP</text>
</g>
<!-- admin_client&#45;&gt;infra_ldap -->
<g id="edge1" class="edge">
<title>admin_client&#45;&gt;infra_ldap</title>
<path fill="none" stroke="#000000" d="M98.8009,-62.8696C126.9195,-43.094 167.1643,-18.6925 207,-8.0507 302.584,17.4837 414.1428,-25.0838 481.0927,-58.3847"/>
<polygon fill="#000000" stroke="#000000" points="479.7346,-61.62 490.2373,-63.014 482.8962,-55.3747 479.7346,-61.62"/>
<text text-anchor="middle" x="268" y="-41.8507" font-family="Times,serif" font-size="14.00" fill="#000000">maintain</text>
<text text-anchor="middle" x="268" y="-26.8507" font-family="Times,serif" font-size="14.00" fill="#000000">DNS and DHCP</text>
<text text-anchor="middle" x="268" y="-11.8507" font-family="Times,serif" font-size="14.00" fill="#000000">entries (LDAPS)</text>
</g>
<!-- pdns_auth&#45;&gt;infra_ldap -->
<g id="edge4" class="edge">
<title>pdns_auth&#45;&gt;infra_ldap</title>
<path fill="none" stroke="#000000" d="M329.0802,-158.572C367.6792,-151.2023 418.3366,-140.1467 462,-126.0507 464.7309,-125.1691 467.497,-124.2283 470.2776,-123.242"/>
<polygon fill="#000000" stroke="#000000" points="471.5938,-126.487 479.7576,-119.734 469.1644,-119.922 471.5938,-126.487"/>
<text text-anchor="middle" x="404.5" y="-172.8507" font-family="Times,serif" font-size="14.00" fill="#000000">query data</text>
<text text-anchor="middle" x="404.5" y="-157.8507" font-family="Times,serif" font-size="14.00" fill="#000000">(LDAPI or LDAPS)</text>
</g>
<!-- isc_dhcp&#45;&gt;infra_ldap -->
<g id="edge5" class="edge">
<title>isc_dhcp&#45;&gt;infra_ldap</title>
<path fill="none" stroke="#000000" d="M329.2665,-92.0507C370.8905,-92.0507 426.0877,-92.0507 469.6883,-92.0507"/>
<polygon fill="#000000" stroke="#000000" points="469.938,-95.5508 479.938,-92.0507 469.9379,-88.5508 469.938,-95.5508"/>
<text text-anchor="middle" x="404.5" y="-110.8507" font-family="Times,serif" font-size="14.00" fill="#000000">query data</text>
<text text-anchor="middle" x="404.5" y="-95.8507" font-family="Times,serif" font-size="14.00" fill="#000000">(LDAPI or LDAPS)</text>
</g>
<!-- aedir_consumer -->
<g id="node5" class="node">
<title>aedir_consumer</title>
<polygon fill="none" stroke="#000000" points="782,-63.0507 782,-121.0507 904,-121.0507 904,-63.0507 782,-63.0507"/>
<text text-anchor="middle" x="843" y="-95.8507" font-family="Times,serif" font-size="14.00" fill="#000000">Æ&#45;DIR</text>
<text text-anchor="middle" x="843" y="-80.8507" font-family="Times,serif" font-size="14.00" fill="#000000">consumer</text>
</g>
<!-- infra_ldap&#45;&gt;aedir_consumer -->
<g id="edge6" class="edge">
<title>infra_ldap&#45;&gt;aedir_consumer</title>
<path fill="none" stroke="#000000" d="M602.1142,-92.0507C651.2351,-92.0507 720.3088,-92.0507 771.9022,-92.0507"/>
<polygon fill="#000000" stroke="#000000" points="771.9767,-95.5508 781.9767,-92.0507 771.9766,-88.5508 771.9767,-95.5508"/>
<text text-anchor="middle" x="692" y="-125.8507" font-family="Times,serif" font-size="14.00" fill="#000000">check admin password,</text>
<text text-anchor="middle" x="692" y="-110.8507" font-family="Times,serif" font-size="14.00" fill="#000000">query group membership</text>
<text text-anchor="middle" x="692" y="-95.8507" font-family="Times,serif" font-size="14.00" fill="#000000">(LDAPS)</text>
</g>
</g>
</svg>
