<?xml version="1.0" encoding="UTF-8" standalone="no"?>
<!DOCTYPE svg PUBLIC "-//W3C//DTD SVG 1.1//EN"
 "http://www.w3.org/Graphics/SVG/1.1/DTD/svg11.dtd">
<!-- Generated by graphviz version 2.40.1 (20161225.0304)
 -->
<!-- Title: G Pages: 1 -->
<svg width="875pt" height="123pt"
 viewBox="0.00 0.00 875.00 123.00" xmlns="http://www.w3.org/2000/svg" xmlns:xlink="http://www.w3.org/1999/xlink">
<g id="graph0" class="graph" transform="scale(1 1) rotate(0) translate(4 119)">
<title>G</title>
<polygon fill="#ffffff" stroke="transparent" points="-4,4 -4,-119 871,-119 871,4 -4,4"/>
<g id="clust1" class="cluster">
<title>clusterap</title>
<polygon fill="none" stroke="#000000" points="187,-8 187,-107 573,-107 573,-8 187,-8"/>
<text text-anchor="middle" x="380" y="-91.8" font-family="Times,serif" font-size="14.00" fill="#000000">Wifi access point</text>
</g>
<!-- hostapd -->
<g id="node1" class="node">
<title>hostapd</title>
<polygon fill="none" stroke="#000000" points="195,-17 195,-75 317,-75 317,-17 195,-17"/>
<text text-anchor="middle" x="256" y="-42.3" font-family="Times,serif" font-size="14.00" fill="#000000">hostapd</text>
</g>
<!-- radiusd -->
<g id="node2" class="node">
<title>radiusd</title>
<polygon fill="none" stroke="#000000" points="443,-17 443,-75 565,-75 565,-17 443,-17"/>
<text text-anchor="middle" x="504" y="-42.3" font-family="Times,serif" font-size="14.00" fill="#000000">FreeRADIUS</text>
</g>
<!-- hostapd&#45;&gt;radiusd -->
<g id="edge1" class="edge">
<title>hostapd&#45;&gt;radiusd</title>
<path fill="none" stroke="#000000" d="M317.3034,-46C352.3099,-46 396.3634,-46 432.885,-46"/>
<polygon fill="#000000" stroke="#000000" points="432.9726,-49.5001 442.9725,-46 432.9725,-42.5001 432.9726,-49.5001"/>
<text text-anchor="middle" x="380" y="-64.8" font-family="Times,serif" font-size="14.00" fill="#000000">RADIUS</text>
<text text-anchor="middle" x="380" y="-49.8" font-family="Times,serif" font-size="14.00" fill="#000000">auth/acct</text>
</g>
<!-- aedir_consumer -->
<g id="node4" class="node">
<title>aedir_consumer</title>
<polygon fill="none" stroke="#000000" points="745,-17 745,-75 867,-75 867,-17 745,-17"/>
<text text-anchor="middle" x="806" y="-49.8" font-family="Times,serif" font-size="14.00" fill="#000000">Æ&#45;DIR</text>
<text text-anchor="middle" x="806" y="-34.8" font-family="Times,serif" font-size="14.00" fill="#000000">consumer</text>
</g>
<!-- radiusd&#45;&gt;aedir_consumer -->
<g id="edge3" class="edge">
<title>radiusd&#45;&gt;aedir_consumer</title>
<path fill="none" stroke="#000000" d="M565.1142,-46C614.2351,-46 683.3088,-46 734.9022,-46"/>
<polygon fill="#000000" stroke="#000000" points="734.9767,-49.5001 744.9767,-46 734.9766,-42.5001 734.9767,-49.5001"/>
<text text-anchor="middle" x="655" y="-79.8" font-family="Times,serif" font-size="14.00" fill="#000000">check password,</text>
<text text-anchor="middle" x="655" y="-64.8" font-family="Times,serif" font-size="14.00" fill="#000000">query group membership</text>
<text text-anchor="middle" x="655" y="-49.8" font-family="Times,serif" font-size="14.00" fill="#000000">(LDAPS)</text>
</g>
<!-- wpa_supplicant -->
<g id="node3" class="node">
<title>wpa_supplicant</title>
<polygon fill="none" stroke="#000000" points="0,-17 0,-75 122,-75 122,-17 0,-17"/>
<text text-anchor="middle" x="61" y="-42.3" font-family="Times,serif" font-size="14.00" fill="#000000">Wifi client</text>
</g>
<!-- wpa_supplicant&#45;&gt;hostapd -->
<g id="edge2" class="edge">
<title>wpa_supplicant&#45;&gt;hostapd</title>
<path fill="none" stroke="#000000" d="M122.1642,-46C141.9431,-46 164.0501,-46 184.5087,-46"/>
<polygon fill="#000000" stroke="#000000" points="184.7179,-49.5001 194.7178,-46 184.7178,-42.5001 184.7179,-49.5001"/>
<text text-anchor="middle" x="158.5" y="-49.8" font-family="Times,serif" font-size="14.00" fill="#000000">access</text>
</g>
</g>
</svg>
