<?xml version="1.0" encoding="UTF-8" standalone="no"?>
<!DOCTYPE svg PUBLIC "-//W3C//DTD SVG 1.1//EN"
 "http://www.w3.org/Graphics/SVG/1.1/DTD/svg11.dtd">
<!-- Generated by graphviz version 2.40.1 (20161225.0304)
 -->
<!-- Title: G Pages: 1 -->
<svg width="905pt" height="123pt"
 viewBox="0.00 0.00 905.00 123.00" xmlns="http://www.w3.org/2000/svg" xmlns:xlink="http://www.w3.org/1999/xlink">
<g id="graph0" class="graph" transform="scale(1 1) rotate(0) translate(4 119)">
<title>G</title>
<polygon fill="#ffffff" stroke="transparent" points="-4,4 -4,-119 901,-119 901,4 -4,4"/>
<g id="clust1" class="cluster">
<title>clusterap</title>
<polygon fill="none" stroke="#000000" points="217,-8 217,-107 603,-107 603,-8 217,-8"/>
<text text-anchor="middle" x="410" y="-91.8" font-family="Times,serif" font-size="14.00" fill="#000000">Wifi access point</text>
</g>
<!-- hostapd -->
<g id="node1" class="node">
<title>hostapd</title>
<polygon fill="none" stroke="#000000" points="225,-17 225,-75 347,-75 347,-17 225,-17"/>
<text text-anchor="middle" x="286" y="-42.3" font-family="Times,serif" font-size="14.00" fill="#000000">hostapd</text>
</g>
<!-- radiusd -->
<g id="node2" class="node">
<title>radiusd</title>
<polygon fill="none" stroke="#000000" points="473,-17 473,-75 595,-75 595,-17 473,-17"/>
<text text-anchor="middle" x="534" y="-42.3" font-family="Times,serif" font-size="14.00" fill="#000000">FreeRADIUS</text>
</g>
<!-- hostapd&#45;&gt;radiusd -->
<g id="edge1" class="edge">
<title>hostapd&#45;&gt;radiusd</title>
<path fill="none" stroke="#000000" d="M347.3034,-46C382.3099,-46 426.3634,-46 462.885,-46"/>
<polygon fill="#000000" stroke="#000000" points="462.9726,-49.5001 472.9725,-46 462.9725,-42.5001 462.9726,-49.5001"/>
<text text-anchor="middle" x="410" y="-64.8" font-family="Times,serif" font-size="14.00" fill="#000000">RADIUS</text>
<text text-anchor="middle" x="410" y="-49.8" font-family="Times,serif" font-size="14.00" fill="#000000">auth/acct</text>
</g>
<!-- aedir_consumer -->
<g id="node4" class="node">
<title>aedir_consumer</title>
<polygon fill="none" stroke="#000000" points="775,-17 775,-75 897,-75 897,-17 775,-17"/>
<text text-anchor="middle" x="836" y="-49.8" font-family="Times,serif" font-size="14.00" fill="#000000">Æ&#45;DIR</text>
<text text-anchor="middle" x="836" y="-34.8" font-family="Times,serif" font-size="14.00" fill="#000000">consumer</text>
</g>
<!-- radiusd&#45;&gt;aedir_consumer -->
<g id="edge3" class="edge">
<title>radiusd&#45;&gt;aedir_consumer</title>
<path fill="none" stroke="#000000" d="M595.1142,-46C644.2351,-46 713.3088,-46 764.9022,-46"/>
<polygon fill="#000000" stroke="#000000" points="764.9767,-49.5001 774.9767,-46 764.9766,-42.5001 764.9767,-49.5001"/>
<text text-anchor="middle" x="685" y="-79.8" font-family="Times,serif" font-size="14.00" fill="#000000">check password,</text>
<text text-anchor="middle" x="685" y="-64.8" font-family="Times,serif" font-size="14.00" fill="#000000">query group membership</text>
<text text-anchor="middle" x="685" y="-49.8" font-family="Times,serif" font-size="14.00" fill="#000000">(LDAPS)</text>
</g>
<!-- wpa_supplicant -->
<g id="node3" class="node">
<title>wpa_supplicant</title>
<polygon fill="none" stroke="#000000" points="0,-17 0,-75 122,-75 122,-17 0,-17"/>
<text text-anchor="middle" x="61" y="-42.3" font-family="Times,serif" font-size="14.00" fill="#000000">Wifi client</text>
</g>
<!-- wpa_supplicant&#45;&gt;hostapd -->
<g id="edge2" class="edge">
<title>wpa_supplicant&#45;&gt;hostapd</title>
<path fill="none" stroke="#000000" d="M122.185,-46C150.7045,-46 184.8235,-46 214.5229,-46"/>
<polygon fill="#000000" stroke="#000000" points="214.8272,-49.5001 224.8271,-46 214.8271,-42.5001 214.8272,-49.5001"/>
<text text-anchor="middle" x="173.5" y="-64.8" font-family="Times,serif" font-size="14.00" fill="#000000">EAP&#45;TTLS</text>
<text text-anchor="middle" x="173.5" y="-49.8" font-family="Times,serif" font-size="14.00" fill="#000000">inner PAP</text>
</g>
</g>
</svg>
