<?xml version="1.0" encoding="UTF-8" standalone="no"?>
<!DOCTYPE svg PUBLIC "-//W3C//DTD SVG 1.1//EN"
 "http://www.w3.org/Graphics/SVG/1.1/DTD/svg11.dtd">
<!-- Generated by graphviz version 2.38.0 (20140413.2041)
 -->
<!-- Title: G Pages: 1 -->
<svg width="2103pt" height="594pt"
 viewBox="0.00 0.00 2103.00 594.00" xmlns="http://www.w3.org/2000/svg" xmlns:xlink="http://www.w3.org/1999/xlink">
<g id="graph0" class="graph" transform="scale(1 1) rotate(0) translate(4 589.998)">
<title>G</title>
<polygon fill="white" stroke="none" points="-4,4 -4,-589.998 2099,-589.998 2099,4 -4,4"/>
<!-- aeSrvGroup -->
<g id="node1" class="node"><title>aeSrvGroup</title>
<g id="a_node1"><a xlink:href="https://ae-dir.com/docs.html#schema-oc-aeSrvGroup" xlink:title="\N">
<polygon fill="none" stroke="black" points="0,-368.998 0,-426.998 122,-426.998 122,-368.998 0,-368.998"/>
<text text-anchor="middle" x="61" y="-394.298" font-family="Times,serif" font-size="14.00">aeSrvGroup</text>
</a>
</g>
</g>
<!-- aeSrvGroup&#45;&gt;aeSrvGroup -->
<g id="edge3" class="edge"><title>aeSrvGroup&#45;&gt;aeSrvGroup</title>
<path fill="none" stroke="black" d="M37.0059,-427.22C36.752,-437.332 44.75,-445.498 61,-445.498 71.4102,-445.498 78.4337,-442.147 82.0707,-437.079"/>
<polygon fill="black" stroke="black" points="85.5068,-437.803 84.9941,-427.22 78.7956,-435.813 85.5068,-437.803"/>
<text text-anchor="middle" x="61" y="-449.298" font-family="Times,serif" font-size="14.00">aeProxyFor</text>
</g>
<!-- aeGroup -->
<g id="node2" class="node"><title>aeGroup</title>
<g id="a_node2"><a xlink:href="https://ae-dir.com/docs.html#schema-oc-aeGroup" xlink:title="\N">
<polygon fill="none" stroke="black" points="542,-287.998 542,-345.998 664,-345.998 664,-287.998 542,-287.998"/>
<text text-anchor="middle" x="603" y="-313.298" font-family="Times,serif" font-size="14.00">aeGroup</text>
</a>
</g>
</g>
<!-- aeSrvGroup&#45;&gt;aeGroup -->
<g id="edge1" class="edge"><title>aeSrvGroup&#45;&gt;aeGroup</title>
<path fill="none" stroke="black" d="M98.1498,-368.848C135.407,-340.832 196.438,-300.402 257,-283.998 349.908,-258.833 461.423,-278.006 532.009,-295.93"/>
<polygon fill="black" stroke="black" points="531.132,-299.319 541.691,-298.446 532.893,-292.544 531.132,-299.319"/>
<text text-anchor="middle" x="323" y="-347.798" font-family="Times,serif" font-size="14.00">aeSetupGroups</text>
<text text-anchor="middle" x="323" y="-332.798" font-family="Times,serif" font-size="14.00">aeLogStoreGroups</text>
<text text-anchor="middle" x="323" y="-317.798" font-family="Times,serif" font-size="14.00">aeLoginGroups</text>
<text text-anchor="middle" x="323" y="-302.798" font-family="Times,serif" font-size="14.00">aeVisibleGroups</text>
<text text-anchor="middle" x="323" y="-287.798" font-family="Times,serif" font-size="14.00">aeDisplayNameGroups</text>
</g>
<!-- aeSudoRule -->
<g id="node3" class="node"><title>aeSudoRule</title>
<g id="a_node3"><a xlink:href="https://ae-dir.com/docs.html#schema-oc-aeSudoRule" xlink:title="\N">
<polygon fill="none" stroke="black" points="262,-368.998 262,-426.998 384,-426.998 384,-368.998 262,-368.998"/>
<text text-anchor="middle" x="323" y="-394.298" font-family="Times,serif" font-size="14.00">aeSudoRule</text>
</a>
</g>
</g>
<!-- aeSrvGroup&#45;&gt;aeSudoRule -->
<g id="edge4" class="edge"><title>aeSrvGroup&#45;&gt;aeSudoRule</title>
<path fill="none" stroke="black" d="M122.303,-397.998C160.887,-397.998 211.1,-397.998 251.522,-397.998"/>
<polygon fill="black" stroke="black" points="251.575,-401.498 261.574,-397.998 251.574,-394.498 251.575,-401.498"/>
<text text-anchor="middle" x="189.5" y="-401.798" font-family="Times,serif" font-size="14.00">aeVisibleSudoers</text>
</g>
<!-- aeMailGroup -->
<g id="node14" class="node"><title>aeMailGroup</title>
<g id="a_node14"><a xlink:href="https://ae-dir.com/docs.html#schema-oc-aeMailGroup" xlink:title="\N">
<polygon fill="none" stroke="black" points="989,-464.998 989,-522.998 1111,-522.998 1111,-464.998 989,-464.998"/>
<text text-anchor="middle" x="1050" y="-490.298" font-family="Times,serif" font-size="14.00">aeMailGroup</text>
</a>
</g>
</g>
<!-- aeSrvGroup&#45;&gt;aeMailGroup -->
<g id="edge2" class="edge"><title>aeSrvGroup&#45;&gt;aeMailGroup</title>
<path fill="none" stroke="black" d="M96.4389,-427.222C143.933,-464.443 233.718,-523.998 322,-523.998 322,-523.998 322,-523.998 830,-523.998 880.094,-523.998 936.042,-516.198 978.85,-508.553"/>
<polygon fill="black" stroke="black" points="979.673,-511.96 988.882,-506.721 978.416,-505.074 979.673,-511.96"/>
<text text-anchor="middle" x="603" y="-542.798" font-family="Times,serif" font-size="14.00">aeVisibleGroups</text>
<text text-anchor="middle" x="603" y="-527.798" font-family="Times,serif" font-size="14.00">aeDisplayNameGroups</text>
</g>
<!-- aeDept -->
<g id="node8" class="node"><title>aeDept</title>
<g id="a_node8"><a xlink:href="https://ae-dir.com/docs.html#schema-oc-aeDept" xlink:title="\N">
<polygon fill="none" stroke="black" points="1973,-300.998 1973,-358.998 2095,-358.998 2095,-300.998 1973,-300.998"/>
<text text-anchor="middle" x="2034" y="-326.298" font-family="Times,serif" font-size="14.00">aeDept</text>
</a>
</g>
</g>
<!-- aeGroup&#45;&gt;aeDept -->
<g id="edge5" class="edge"><title>aeGroup&#45;&gt;aeDept</title>
<path fill="none" stroke="black" d="M664.377,-301.103C709.195,-290.69 771.989,-278.998 828,-278.998 828,-278.998 828,-278.998 1813,-278.998 1876.42,-278.998 1893.89,-276.046 1955,-292.998 1959.34,-294.203 1963.74,-295.634 1968.12,-297.223"/>
<polygon fill="black" stroke="black" points="1967.07,-300.569 1977.65,-300.927 1969.6,-294.043 1967.07,-300.569"/>
<text text-anchor="middle" x="1272" y="-282.798" font-family="Times,serif" font-size="14.00">aeDept</text>
</g>
<!-- aeLocation -->
<g id="node9" class="node"><title>aeLocation</title>
<g id="a_node9"><a xlink:href="https://ae-dir.com/docs.html#schema-oc-aeLocation" xlink:title="\N">
<polygon fill="none" stroke="black" points="1973,-126.998 1973,-184.998 2095,-184.998 2095,-126.998 1973,-126.998"/>
<text text-anchor="middle" x="2034" y="-152.298" font-family="Times,serif" font-size="14.00">aeLocation</text>
</a>
</g>
</g>
<!-- aeGroup&#45;&gt;aeLocation -->
<g id="edge6" class="edge"><title>aeGroup&#45;&gt;aeLocation</title>
<path fill="none" stroke="black" d="M620.763,-287.779C653.367,-235.186 730.735,-129.998 828,-129.998 828,-129.998 828,-129.998 1813,-129.998 1863.38,-129.998 1919.81,-136.806 1962.9,-143.455"/>
<polygon fill="black" stroke="black" points="1962.57,-146.946 1973,-145.047 1963.67,-140.032 1962.57,-146.946"/>
<text text-anchor="middle" x="1272" y="-133.798" font-family="Times,serif" font-size="14.00">aeLocation</text>
</g>
<!-- aeService -->
<g id="node10" class="node"><title>aeService</title>
<g id="a_node10"><a xlink:href="https://ae-dir.com/docs.html#schema-oc-aeService" xlink:title="\N">
<polygon fill="none" stroke="black" points="768,-396.998 768,-454.998 890,-454.998 890,-396.998 768,-396.998"/>
<text text-anchor="middle" x="829" y="-422.298" font-family="Times,serif" font-size="14.00">aeService</text>
</a>
</g>
</g>
<!-- aeGroup&#45;&gt;aeService -->
<g id="edge7" class="edge"><title>aeGroup&#45;&gt;aeService</title>
<path fill="none" stroke="black" d="M649.716,-346.008C661.622,-352.998 674.595,-360.133 687,-365.998 713.947,-378.739 722.505,-377.487 750,-388.998 752.972,-390.243 755.996,-391.539 759.04,-392.87"/>
<polygon fill="black" stroke="black" points="757.65,-396.082 768.209,-396.948 760.495,-389.686 757.65,-396.082"/>
<text text-anchor="middle" x="718.5" y="-392.798" font-family="Times,serif" font-size="14.00">member</text>
</g>
<!-- aeUser -->
<g id="node11" class="node"><title>aeUser</title>
<g id="a_node11"><a xlink:href="https://ae-dir.com/docs.html#schema-oc-aeUser" xlink:title="\N">
<polygon fill="none" stroke="black" points="1211,-388.998 1211,-446.998 1333,-446.998 1333,-388.998 1211,-388.998"/>
<text text-anchor="middle" x="1272" y="-414.298" font-family="Times,serif" font-size="14.00">aeUser</text>
</a>
</g>
</g>
<!-- aeGroup&#45;&gt;aeUser -->
<g id="edge8" class="edge"><title>aeGroup&#45;&gt;aeUser</title>
<path fill="none" stroke="black" d="M664.193,-313.065C795.385,-305.506 1102.58,-293.612 1193,-340.998 1203.89,-346.704 1202.49,-353.124 1211,-361.998 1217.37,-368.646 1224.35,-375.506 1231.22,-382.047"/>
<polygon fill="black" stroke="black" points="1228.92,-384.69 1238.61,-388.995 1233.72,-379.593 1228.92,-384.69"/>
<text text-anchor="middle" x="939.5" y="-310.798" font-family="Times,serif" font-size="14.00">member</text>
</g>
<!-- aeSudoRule&#45;&gt;aeGroup -->
<g id="edge25" class="edge"><title>aeSudoRule&#45;&gt;aeGroup</title>
<path fill="none" stroke="black" d="M384.322,-380.422C427.764,-367.765 486.495,-350.653 532.003,-337.393"/>
<polygon fill="black" stroke="black" points="533.174,-340.697 541.796,-334.54 531.216,-333.977 533.174,-340.697"/>
<text text-anchor="middle" x="463" y="-375.798" font-family="Times,serif" font-size="14.00">sudoUser</text>
</g>
<!-- aeHost -->
<g id="node4" class="node"><title>aeHost</title>
<g id="a_node4"><a xlink:href="https://ae-dir.com/docs.html#schema-oc-aeHost" xlink:title="\N">
<polygon fill="none" stroke="black" points="989,-158.998 989,-216.998 1111,-216.998 1111,-158.998 989,-158.998"/>
<text text-anchor="middle" x="1050" y="-184.298" font-family="Times,serif" font-size="14.00">aeHost</text>
</a>
</g>
</g>
<!-- aeHost&#45;&gt;aeSrvGroup -->
<g id="edge9" class="edge"><title>aeHost&#45;&gt;aeSrvGroup</title>
<path fill="none" stroke="black" d="M988.764,-162.922C917.158,-136.16 793.894,-99.6793 687,-115.998 435.204,-154.438 345.722,-136.807 140,-286.998 114.192,-305.84 93.8319,-335.885 80.3934,-359.968"/>
<polygon fill="black" stroke="black" points="77.258,-358.408 75.585,-368.87 83.417,-361.735 77.258,-358.408"/>
<text text-anchor="middle" x="603" y="-154.798" font-family="Times,serif" font-size="14.00">(child of)</text>
<text text-anchor="middle" x="603" y="-139.798" font-family="Times,serif" font-size="14.00">aeSrvGroup</text>
</g>
<!-- aeHost&#45;&gt;aeLocation -->
<g id="edge10" class="edge"><title>aeHost&#45;&gt;aeLocation</title>
<path fill="none" stroke="black" d="M1111.22,-185.471C1155.42,-183.831 1216.93,-181.998 1271,-181.998 1271,-181.998 1271,-181.998 1813,-181.998 1863.38,-181.998 1919.81,-175.19 1962.9,-168.541"/>
<polygon fill="black" stroke="black" points="1963.67,-171.964 1973,-166.949 1962.57,-165.05 1963.67,-171.964"/>
<text text-anchor="middle" x="1542" y="-185.798" font-family="Times,serif" font-size="14.00">aeLocation</text>
</g>
<!-- pwdPolicy -->
<g id="node15" class="node"><title>pwdPolicy</title>
<g id="a_node15"><a xlink:href="https://ae-dir.com/docs.html#schema-oc-pwdPolicy" xlink:title="\N">
<polygon fill="none" stroke="black" points="1751,-307.998 1751,-365.998 1873,-365.998 1873,-307.998 1751,-307.998"/>
<text text-anchor="middle" x="1812" y="-333.298" font-family="Times,serif" font-size="14.00">pwdPolicy</text>
</a>
</g>
</g>
<!-- aeHost&#45;&gt;pwdPolicy -->
<g id="edge11" class="edge"><title>aeHost&#45;&gt;pwdPolicy</title>
<path fill="none" stroke="black" d="M1111.25,-194.406C1231.32,-208.107 1508.21,-244.386 1733,-308.998 1735.63,-309.755 1738.3,-310.553 1740.99,-311.384"/>
<polygon fill="black" stroke="black" points="1740.19,-314.802 1750.78,-314.511 1742.32,-308.134 1740.19,-314.802"/>
<text text-anchor="middle" x="1407" y="-250.798" font-family="Times,serif" font-size="14.00">pwdPolicySubentry</text>
</g>
<!-- aeNwDevice -->
<g id="node5" class="node"><title>aeNwDevice</title>
<g id="a_node5"><a xlink:href="https://ae-dir.com/docs.html#schema-oc-aeNwDevice" xlink:title="\N">
<polygon fill="none" stroke="black" points="768,-158.998 768,-216.998 890,-216.998 890,-158.998 768,-158.998"/>
<text text-anchor="middle" x="829" y="-184.298" font-family="Times,serif" font-size="14.00">aeNwDevice</text>
</a>
</g>
</g>
<!-- aeNwDevice&#45;&gt;aeHost -->
<g id="edge12" class="edge"><title>aeNwDevice&#45;&gt;aeHost</title>
<path fill="none" stroke="black" d="M890.132,-187.998C917.424,-187.998 949.891,-187.998 978.34,-187.998"/>
<polygon fill="black" stroke="black" points="978.622,-191.498 988.622,-187.998 978.622,-184.498 978.622,-191.498"/>
<text text-anchor="middle" x="939.5" y="-191.798" font-family="Times,serif" font-size="14.00">(child of)</text>
</g>
<!-- aeNwDevice&#45;&gt;aeNwDevice -->
<g id="edge13" class="edge"><title>aeNwDevice&#45;&gt;aeNwDevice</title>
<path fill="none" stroke="black" d="M808.38,-217.22C808.162,-227.332 815.035,-235.498 829,-235.498 837.946,-235.498 843.982,-232.147 847.108,-227.079"/>
<polygon fill="black" stroke="black" points="850.542,-227.775 849.62,-217.22 843.759,-226.046 850.542,-227.775"/>
<text text-anchor="middle" x="829" y="-239.298" font-family="Times,serif" font-size="14.00">aeNwDevice</text>
</g>
<!-- aePerson -->
<g id="node6" class="node"><title>aePerson</title>
<g id="a_node6"><a xlink:href="https://ae-dir.com/docs.html#schema-oc-aePerson" xlink:title="\N">
<polygon fill="none" stroke="black" points="1751,-384.998 1751,-442.998 1873,-442.998 1873,-384.998 1751,-384.998"/>
<text text-anchor="middle" x="1812" y="-410.298" font-family="Times,serif" font-size="14.00">aePerson</text>
</a>
</g>
</g>
<!-- aePerson&#45;&gt;aeDept -->
<g id="edge18" class="edge"><title>aePerson&#45;&gt;aeDept</title>
<path fill="none" stroke="black" d="M1873.12,-391.045C1901.01,-380.396 1934.32,-367.675 1963.31,-356.608"/>
<polygon fill="black" stroke="black" points="1964.86,-359.761 1972.96,-352.924 1962.37,-353.221 1964.86,-359.761"/>
<text text-anchor="middle" x="1923" y="-385.798" font-family="Times,serif" font-size="14.00">aeDept</text>
</g>
<!-- aePerson&#45;&gt;aeLocation -->
<g id="edge19" class="edge"><title>aePerson&#45;&gt;aeLocation</title>
<path fill="none" stroke="black" d="M1862.35,-384.764C1866.14,-381.684 1869.75,-378.419 1873,-374.998 1883.98,-363.453 1882.18,-357.268 1891,-343.998 1926.99,-289.838 1973.04,-230.444 2002.78,-193.203"/>
<polygon fill="black" stroke="black" points="2005.71,-195.138 2009.23,-185.146 2000.25,-190.761 2005.71,-195.138"/>
<text text-anchor="middle" x="1923" y="-347.798" font-family="Times,serif" font-size="14.00">aeLocation</text>
</g>
<!-- aeZone -->
<g id="node7" class="node"><title>aeZone</title>
<g id="a_node7"><a xlink:href="https://ae-dir.com/docs.html#schema-oc-aeZone" xlink:title="\N">
<polygon fill="none" stroke="black" points="262,-11.9981 262,-69.9981 384,-69.9981 384,-11.9981 262,-11.9981"/>
<text text-anchor="middle" x="323" y="-37.2981" font-family="Times,serif" font-size="14.00">aeZone</text>
</a>
</g>
</g>
<!-- aeZone&#45;&gt;aeGroup -->
<g id="edge33" class="edge"><title>aeZone&#45;&gt;aeGroup</title>
<path fill="none" stroke="black" d="M359.632,-70.1511C399.891,-103.72 466.623,-161.291 519,-215.998 538.227,-236.081 558.058,-260.07 573.513,-279.629"/>
<polygon fill="black" stroke="black" points="570.929,-282.006 579.854,-287.716 576.438,-277.687 570.929,-282.006"/>
<text text-anchor="middle" x="463" y="-249.798" font-family="Times,serif" font-size="14.00">aeZoneAdmins</text>
<text text-anchor="middle" x="463" y="-234.798" font-family="Times,serif" font-size="14.00">aeZoneAuditors</text>
<text text-anchor="middle" x="463" y="-219.798" font-family="Times,serif" font-size="14.00">aePasswordAdmins</text>
</g>
<!-- aeZone&#45;&gt;aeDept -->
<g id="edge31" class="edge"><title>aeZone&#45;&gt;aeDept</title>
<path fill="none" stroke="black" d="M384.195,-40.9981C440.502,-40.9981 526.95,-40.9981 602,-40.9981 602,-40.9981 602,-40.9981 1813,-40.9981 1875.34,-40.9981 1972.61,-213.379 2013.67,-291.875"/>
<polygon fill="black" stroke="black" points="2010.68,-293.705 2018.4,-300.964 2016.89,-290.477 2010.68,-293.705"/>
<text text-anchor="middle" x="1161" y="-44.7981" font-family="Times,serif" font-size="14.00">aeDept</text>
</g>
<!-- aeZone&#45;&gt;aeLocation -->
<g id="edge32" class="edge"><title>aeZone&#45;&gt;aeLocation</title>
<path fill="none" stroke="black" d="M384.143,-27.9738C440.232,-16.9736 526.374,-2.99811 602,-2.99811 602,-2.99811 602,-2.99811 1813,-2.99811 1877.01,-2.99811 1902.07,8.99432 1955,-26.9981 1986.69,-48.5504 2007.65,-87.6591 2019.78,-117.185"/>
<polygon fill="black" stroke="black" points="2016.65,-118.767 2023.56,-126.791 2023.16,-116.204 2016.65,-118.767"/>
<text text-anchor="middle" x="1161" y="-6.79811" font-family="Times,serif" font-size="14.00">aeLocation</text>
</g>
<!-- aeService&#45;&gt;aeSrvGroup -->
<g id="edge24" class="edge"><title>aeService&#45;&gt;aeSrvGroup</title>
<path fill="none" stroke="black" d="M767.719,-439.618C761.757,-440.587 755.776,-441.412 750,-441.998 722.143,-444.826 714.999,-442.193 687,-441.998 495.875,-440.665 447.399,-452.695 257,-435.998 215.23,-432.335 169.156,-423.582 132.286,-415.398"/>
<polygon fill="black" stroke="black" points="132.667,-411.896 122.142,-413.11 131.127,-418.725 132.667,-411.896"/>
<text text-anchor="middle" x="463" y="-463.798" font-family="Times,serif" font-size="14.00">(child of)</text>
<text text-anchor="middle" x="463" y="-448.798" font-family="Times,serif" font-size="14.00">aeSrvGroup</text>
</g>
<!-- aeService&#45;&gt;aeGroup -->
<g id="edge20" class="edge"><title>aeService&#45;&gt;aeGroup</title>
<path fill="none" stroke="black" stroke-dasharray="1,5" d="M767.69,-425.153C741.651,-422.676 711.589,-416.857 687,-403.998 664.542,-392.253 644.718,-372.081 630.08,-354.117"/>
<polygon fill="black" stroke="black" points="632.667,-351.745 623.729,-346.056 627.169,-356.077 632.667,-351.745"/>
<text text-anchor="middle" x="718.5" y="-426.798" font-family="Times,serif" font-size="14.00">memberOf</text>
</g>
<!-- aeService&#45;&gt;aeHost -->
<g id="edge21" class="edge"><title>aeService&#45;&gt;aeHost</title>
<path fill="none" stroke="black" d="M890.374,-400.956C896.317,-398.573 902.268,-396.219 908,-393.998 935.794,-383.228 949.373,-391.511 971,-370.998 1012,-332.108 1032.46,-268.167 1041.88,-227.089"/>
<polygon fill="black" stroke="black" points="1045.33,-227.683 1044.04,-217.167 1038.49,-226.191 1045.33,-227.683"/>
<text text-anchor="middle" x="939.5" y="-397.798" font-family="Times,serif" font-size="14.00">aeHost</text>
</g>
<!-- aeService&#45;&gt;aeMailGroup -->
<g id="edge22" class="edge"><title>aeService&#45;&gt;aeMailGroup</title>
<path fill="none" stroke="black" stroke-dasharray="1,5" d="M890.022,-433.492C915.45,-437.685 945.122,-443.944 971,-452.998 977.065,-455.12 983.239,-457.649 989.324,-460.395"/>
<polygon fill="black" stroke="black" points="988.246,-463.757 998.783,-464.861 991.234,-457.427 988.246,-463.757"/>
<text text-anchor="middle" x="939.5" y="-456.798" font-family="Times,serif" font-size="14.00">memberOf</text>
</g>
<!-- aeService&#45;&gt;pwdPolicy -->
<g id="edge23" class="edge"><title>aeService&#45;&gt;pwdPolicy</title>
<path fill="none" stroke="black" d="M890.152,-419.623C915.203,-416.74 944.559,-413.066 971,-408.998 1078.26,-392.494 1103.19,-376.468 1211,-363.998 1401.6,-341.952 1628.18,-337.649 1740.55,-336.972"/>
<polygon fill="black" stroke="black" points="1740.76,-340.471 1750.74,-336.919 1740.72,-333.472 1740.76,-340.471"/>
<text text-anchor="middle" x="1272" y="-367.798" font-family="Times,serif" font-size="14.00">pwdPolicySubentry</text>
</g>
<!-- aeUser&#45;&gt;aeGroup -->
<g id="edge27" class="edge"><title>aeUser&#45;&gt;aeGroup</title>
<path fill="none" stroke="black" stroke-dasharray="1,5" d="M1210.79,-402.485C1150.51,-387.491 1054.9,-365.165 971,-351.998 845.742,-332.34 813.214,-337.08 687,-324.998 682.866,-324.602 678.616,-324.195 674.328,-323.783"/>
<polygon fill="black" stroke="black" points="674.581,-320.291 664.292,-322.819 673.911,-327.259 674.581,-320.291"/>
<text text-anchor="middle" x="939.5" y="-355.798" font-family="Times,serif" font-size="14.00">memberOf</text>
</g>
<!-- aeUser&#45;&gt;aePerson -->
<g id="edge29" class="edge"><title>aeUser&#45;&gt;aePerson</title>
<path fill="none" stroke="black" d="M1333.15,-417.551C1433.42,-416.805 1634.24,-415.312 1740.81,-414.52"/>
<polygon fill="black" stroke="black" points="1740.85,-418.02 1750.83,-414.445 1740.8,-411.02 1740.85,-418.02"/>
<text text-anchor="middle" x="1542" y="-420.798" font-family="Times,serif" font-size="14.00">aePerson</text>
</g>
<!-- aeAuthcToken -->
<g id="node12" class="node"><title>aeAuthcToken</title>
<g id="a_node12"><a xlink:href="https://ae-dir.com/docs.html#schema-oc-aeAuthcToken" xlink:title="\N">
<polygon fill="none" stroke="black" points="1481,-454.998 1481,-512.998 1603,-512.998 1603,-454.998 1481,-454.998"/>
<text text-anchor="middle" x="1542" y="-480.298" font-family="Times,serif" font-size="14.00">aeAuthcToken</text>
</a>
</g>
</g>
<!-- aeUser&#45;&gt;aeAuthcToken -->
<g id="edge26" class="edge"><title>aeUser&#45;&gt;aeAuthcToken</title>
<path fill="none" stroke="black" d="M1333.14,-432.81C1373.95,-442.859 1428.04,-456.18 1470.82,-466.714"/>
<polygon fill="black" stroke="black" points="1470.05,-470.129 1480.59,-469.122 1471.72,-463.332 1470.05,-470.129"/>
<text text-anchor="middle" x="1407" y="-483.798" font-family="Times,serif" font-size="14.00">oathHOTPToken</text>
<text text-anchor="middle" x="1407" y="-468.798" font-family="Times,serif" font-size="14.00">oathTOTPToken</text>
</g>
<!-- aeUser&#45;&gt;aeMailGroup -->
<g id="edge28" class="edge"><title>aeUser&#45;&gt;aeMailGroup</title>
<path fill="none" stroke="black" stroke-dasharray="1,5" d="M1210.96,-438.74C1183.08,-448.372 1149.76,-459.881 1120.77,-469.896"/>
<polygon fill="black" stroke="black" points="1119.43,-466.657 1111.12,-473.231 1121.71,-473.274 1119.43,-466.657"/>
<text text-anchor="middle" x="1161" y="-469.798" font-family="Times,serif" font-size="14.00">memberOf</text>
</g>
<!-- aeUser&#45;&gt;pwdPolicy -->
<g id="edge30" class="edge"><title>aeUser&#45;&gt;pwdPolicy</title>
<path fill="none" stroke="black" d="M1333.15,-408.942C1433.42,-393.845 1634.24,-363.611 1740.81,-347.565"/>
<polygon fill="black" stroke="black" points="1741.46,-351.008 1750.83,-346.058 1740.42,-344.086 1741.46,-351.008"/>
<text text-anchor="middle" x="1542" y="-389.798" font-family="Times,serif" font-size="14.00">pwdPolicySubentry</text>
</g>
<!-- aeAuthcToken&#45;&gt;aePerson -->
<g id="edge34" class="edge"><title>aeAuthcToken&#45;&gt;aePerson</title>
<path fill="none" stroke="black" d="M1603.06,-480.291C1649.53,-476.878 1709.73,-471.111 1733,-462.998 1743.41,-459.37 1753.86,-454.145 1763.58,-448.446"/>
<polygon fill="black" stroke="black" points="1765.59,-451.321 1772.29,-443.11 1761.93,-445.353 1765.59,-451.321"/>
<text text-anchor="middle" x="1677" y="-482.798" font-family="Times,serif" font-size="14.00">aePerson</text>
</g>
<!-- aeAuthcToken&#45;&gt;pwdPolicy -->
<g id="edge36" class="edge"><title>aeAuthcToken&#45;&gt;pwdPolicy</title>
<path fill="none" stroke="black" d="M1599.47,-454.815C1637.45,-434.983 1688.51,-407.923 1733,-382.998 1739.75,-379.216 1746.79,-375.188 1753.75,-371.148"/>
<polygon fill="black" stroke="black" points="1755.63,-374.103 1762.51,-366.042 1752.11,-368.055 1755.63,-374.103"/>
<text text-anchor="middle" x="1677" y="-445.798" font-family="Times,serif" font-size="14.00">pwdPolicySubentry</text>
</g>
<!-- oathParams -->
<g id="node16" class="node"><title>oathParams</title>
<g id="a_node16"><a xlink:href="https://ae-dir.com/docs.html#schema-oc-oathParams" xlink:title="\N">
<polygon fill="none" stroke="black" points="1751,-483.998 1751,-541.998 1873,-541.998 1873,-483.998 1751,-483.998"/>
<text text-anchor="middle" x="1812" y="-509.298" font-family="Times,serif" font-size="14.00">oathParams</text>
</a>
</g>
</g>
<!-- aeAuthcToken&#45;&gt;oathParams -->
<g id="edge35" class="edge"><title>aeAuthcToken&#45;&gt;oathParams</title>
<path fill="none" stroke="black" d="M1603.3,-498.087C1609.26,-499.194 1615.23,-500.193 1621,-500.998 1660.33,-506.493 1704.59,-509.474 1740.49,-511.089"/>
<polygon fill="black" stroke="black" points="1740.73,-514.602 1750.86,-511.529 1741.02,-507.609 1740.73,-514.602"/>
<text text-anchor="middle" x="1677" y="-514.798" font-family="Times,serif" font-size="14.00">oathHOTPParams</text>
</g>
<!-- aeContact -->
<g id="node13" class="node"><title>aeContact</title>
<g id="a_node13"><a xlink:href="https://ae-dir.com/docs.html#schema-oc-aeContact" xlink:title="\N">
<polygon fill="none" stroke="black" points="1211,-474.998 1211,-532.998 1333,-532.998 1333,-474.998 1211,-474.998"/>
<text text-anchor="middle" x="1272" y="-500.298" font-family="Times,serif" font-size="14.00">aeContact</text>
</a>
</g>
</g>
<!-- aeContact&#45;&gt;aeMailGroup -->
<g id="edge37" class="edge"><title>aeContact&#45;&gt;aeMailGroup</title>
<path fill="none" stroke="black" stroke-dasharray="1,5" d="M1210.78,-510.348C1185.47,-512.03 1155.76,-512.714 1129,-509.998 1126.47,-509.742 1123.91,-509.439 1121.32,-509.1"/>
<polygon fill="black" stroke="black" points="1121.69,-505.616 1111.28,-507.618 1120.66,-512.541 1121.69,-505.616"/>
<text text-anchor="middle" x="1161" y="-515.798" font-family="Times,serif" font-size="14.00">memberOf</text>
</g>
<!-- aeMailGroup&#45;&gt;aeDept -->
<g id="edge14" class="edge"><title>aeMailGroup&#45;&gt;aeDept</title>
<path fill="none" stroke="black" d="M1102.57,-523.109C1146.07,-544.914 1210.71,-570.998 1271,-570.998 1271,-570.998 1271,-570.998 1813,-570.998 1921.26,-570.998 1990.49,-436.701 2018.63,-368.61"/>
<polygon fill="black" stroke="black" points="2021.98,-369.651 2022.48,-359.068 2015.49,-367.03 2021.98,-369.651"/>
<text text-anchor="middle" x="1542" y="-574.798" font-family="Times,serif" font-size="14.00">aeDept</text>
</g>
<!-- aeMailGroup&#45;&gt;aeService -->
<g id="edge16" class="edge"><title>aeMailGroup&#45;&gt;aeService</title>
<path fill="none" stroke="black" d="M988.763,-489.657C963.299,-486.538 933.658,-481.184 908,-471.998 899.102,-468.812 890.082,-464.586 881.487,-459.984"/>
<polygon fill="black" stroke="black" points="883.145,-456.901 872.708,-455.079 879.731,-463.012 883.145,-456.901"/>
<text text-anchor="middle" x="939.5" y="-490.798" font-family="Times,serif" font-size="14.00">member</text>
</g>
<!-- aeMailGroup&#45;&gt;aeUser -->
<g id="edge17" class="edge"><title>aeMailGroup&#45;&gt;aeUser</title>
<path fill="none" stroke="black" d="M1072.01,-464.833C1086.01,-447.992 1106.03,-428.344 1129,-418.998 1151.18,-409.974 1176.97,-407.653 1200.44,-408.249"/>
<polygon fill="black" stroke="black" points="1200.54,-411.756 1210.68,-408.692 1200.85,-404.763 1200.54,-411.756"/>
<text text-anchor="middle" x="1161" y="-422.798" font-family="Times,serif" font-size="14.00">member</text>
</g>
<!-- aeMailGroup&#45;&gt;aeContact -->
<g id="edge15" class="edge"><title>aeMailGroup&#45;&gt;aeContact</title>
<path fill="none" stroke="black" d="M1111.16,-492.989C1136.45,-492.937 1166.18,-493.361 1193,-494.998 1195.5,-495.151 1198.04,-495.328 1200.61,-495.525"/>
<polygon fill="black" stroke="black" points="1200.33,-499.014 1210.59,-496.377 1200.92,-492.039 1200.33,-499.014"/>
<text text-anchor="middle" x="1161" y="-498.798" font-family="Times,serif" font-size="14.00">member</text>
</g>
</g>
</svg>
