<?xml version="1.0" encoding="UTF-8" standalone="no"?>
<!DOCTYPE svg PUBLIC "-//W3C//DTD SVG 1.1//EN"
 "http://www.w3.org/Graphics/SVG/1.1/DTD/svg11.dtd">
<!-- Generated by graphviz version 2.38.0 (20140413.2041)
 -->
<!-- Title: G Pages: 1 -->
<svg width="1324pt" height="274pt"
 viewBox="0.00 0.00 1324.00 274.00" xmlns="http://www.w3.org/2000/svg" xmlns:xlink="http://www.w3.org/1999/xlink">
<g id="graph0" class="graph" transform="scale(1 1) rotate(0) translate(4 270)">
<title>G</title>
<polygon fill="white" stroke="none" points="-4,4 -4,-270 1320,-270 1320,4 -4,4"/>
<!-- aeSrvGroup -->
<g id="node1" class="node"><title>aeSrvGroup</title>
<g id="a_node1"><a xlink:href="https://ae-dir.com/docs.html#schema-oc-aeSrvGroup" xlink:title="\N">
<polygon fill="none" stroke="black" points="226,-18.5 226,-76.5 348,-76.5 348,-18.5 226,-18.5"/>
<text text-anchor="middle" x="287" y="-43.8" font-family="Times,serif" font-size="14.00">aeSrvGroup</text>
</a>
</g>
</g>
<!-- aeSrvGroup&#45;&gt;aeSrvGroup -->
<g id="edge2" class="edge"><title>aeSrvGroup&#45;&gt;aeSrvGroup</title>
<path fill="none" stroke="black" d="M266.005,-76.7222C265.783,-86.834 272.781,-95 287,-95 296.109,-95 302.254,-91.6487 305.437,-86.5814"/>
<polygon fill="black" stroke="black" points="308.871,-87.2807 307.995,-76.7222 302.096,-85.5227 308.871,-87.2807"/>
<text text-anchor="middle" x="287" y="-98.8" font-family="Times,serif" font-size="14.00">aeProxyFor</text>
</g>
<!-- aeGroup -->
<g id="node2" class="node"><title>aeGroup</title>
<g id="a_node2"><a xlink:href="https://ae-dir.com/docs.html#schema-oc-aeGroup" xlink:title="\N">
<polygon fill="none" stroke="black" points="763,-76.5 763,-134.5 885,-134.5 885,-76.5 763,-76.5"/>
<text text-anchor="middle" x="824" y="-101.8" font-family="Times,serif" font-size="14.00">aeGroup</text>
</a>
</g>
</g>
<!-- aeSrvGroup&#45;&gt;aeGroup -->
<g id="edge1" class="edge"><title>aeSrvGroup&#45;&gt;aeGroup</title>
<path fill="none" stroke="black" d="M348.363,-62.696C354.309,-64.0446 360.263,-65.3372 366,-66.5 483.187,-90.2504 513.662,-92.0537 633,-99.5 672.423,-101.96 716.513,-103.431 752.29,-104.3"/>
<polygon fill="black" stroke="black" points="752.55,-107.807 762.629,-104.541 752.713,-100.809 752.55,-107.807"/>
<text text-anchor="middle" x="549" y="-162.3" font-family="Times,serif" font-size="14.00">aeSetupGroups</text>
<text text-anchor="middle" x="549" y="-147.3" font-family="Times,serif" font-size="14.00">aeLogStoreGroups</text>
<text text-anchor="middle" x="549" y="-132.3" font-family="Times,serif" font-size="14.00">aeLoginGroups</text>
<text text-anchor="middle" x="549" y="-117.3" font-family="Times,serif" font-size="14.00">aeVisibleGroups</text>
<text text-anchor="middle" x="549" y="-102.3" font-family="Times,serif" font-size="14.00">aeDisplayNameGroups</text>
</g>
<!-- aeSudoRule -->
<g id="node3" class="node"><title>aeSudoRule</title>
<g id="a_node3"><a xlink:href="https://ae-dir.com/docs.html#schema-oc-aeSudoRule" xlink:title="\N">
<polygon fill="none" stroke="black" points="488,-18.5 488,-76.5 610,-76.5 610,-18.5 488,-18.5"/>
<text text-anchor="middle" x="549" y="-43.8" font-family="Times,serif" font-size="14.00">aeSudoRule</text>
</a>
</g>
</g>
<!-- aeSrvGroup&#45;&gt;aeSudoRule -->
<g id="edge3" class="edge"><title>aeSrvGroup&#45;&gt;aeSudoRule</title>
<path fill="none" stroke="black" d="M348.303,-47.5C386.887,-47.5 437.1,-47.5 477.522,-47.5"/>
<polygon fill="black" stroke="black" points="477.575,-51.0001 487.574,-47.5 477.574,-44.0001 477.575,-51.0001"/>
<text text-anchor="middle" x="415.5" y="-51.3" font-family="Times,serif" font-size="14.00">aeVisibleSudoers</text>
</g>
<!-- aeService -->
<g id="node6" class="node"><title>aeService</title>
<g id="a_node6"><a xlink:href="https://ae-dir.com/docs.html#schema-oc-aeService" xlink:title="\N">
<polygon fill="none" stroke="black" points="984,-0.5 984,-58.5 1106,-58.5 1106,-0.5 984,-0.5"/>
<text text-anchor="middle" x="1045" y="-25.8" font-family="Times,serif" font-size="14.00">aeService</text>
</a>
</g>
</g>
<!-- aeGroup&#45;&gt;aeService -->
<g id="edge4" class="edge"><title>aeGroup&#45;&gt;aeService</title>
<path fill="none" stroke="black" d="M885.132,-84.6321C912.664,-75.0779 945.461,-63.6962 974.087,-53.7619"/>
<polygon fill="black" stroke="black" points="975.322,-57.0383 983.622,-50.4532 973.027,-50.4252 975.322,-57.0383"/>
<text text-anchor="middle" x="934.5" y="-81.3" font-family="Times,serif" font-size="14.00">member</text>
</g>
<!-- aeUser -->
<g id="node7" class="node"><title>aeUser</title>
<g id="a_node7"><a xlink:href="https://ae-dir.com/docs.html#schema-oc-aeUser" xlink:title="\N">
<polygon fill="none" stroke="black" points="984,-95.5 984,-153.5 1106,-153.5 1106,-95.5 984,-95.5"/>
<text text-anchor="middle" x="1045" y="-120.8" font-family="Times,serif" font-size="14.00">aeUser</text>
</a>
</g>
</g>
<!-- aeGroup&#45;&gt;aeUser -->
<g id="edge5" class="edge"><title>aeGroup&#45;&gt;aeUser</title>
<path fill="none" stroke="black" d="M885.214,-103.027C910.274,-102.749 939.621,-103.401 966,-106.5 968.536,-106.798 971.11,-107.146 973.704,-107.535"/>
<polygon fill="black" stroke="black" points="973.321,-111.02 983.762,-109.222 974.479,-104.116 973.321,-111.02"/>
<text text-anchor="middle" x="934.5" y="-110.3" font-family="Times,serif" font-size="14.00">member</text>
</g>
<!-- aeSudoRule&#45;&gt;aeGroup -->
<g id="edge9" class="edge"><title>aeSudoRule&#45;&gt;aeGroup</title>
<path fill="none" stroke="black" d="M610.418,-57.7503C649.058,-64.6048 700.16,-74.2253 745,-84.5 747.601,-85.0961 750.247,-85.7197 752.916,-86.3633"/>
<polygon fill="black" stroke="black" points="752.098,-89.7661 762.645,-88.7682 753.777,-82.9707 752.098,-89.7661"/>
<text text-anchor="middle" x="689" y="-88.3" font-family="Times,serif" font-size="14.00">sudoUser</text>
</g>
<!-- aeHost -->
<g id="node4" class="node"><title>aeHost</title>
<g id="a_node4"><a xlink:href="https://ae-dir.com/docs.html#schema-oc-aeHost" xlink:title="\N">
<polygon fill="none" stroke="black" points="0,-18.5 0,-76.5 122,-76.5 122,-18.5 0,-18.5"/>
<text text-anchor="middle" x="61" y="-43.8" font-family="Times,serif" font-size="14.00">aeHost</text>
</a>
</g>
</g>
<!-- aeHost&#45;&gt;aeSrvGroup -->
<g id="edge6" class="edge"><title>aeHost&#45;&gt;aeSrvGroup</title>
<path fill="none" stroke="black" d="M122.028,-47.5C150.903,-47.5 185.699,-47.5 215.795,-47.5"/>
<polygon fill="black" stroke="black" points="215.806,-51.0001 225.806,-47.5 215.806,-44.0001 215.806,-51.0001"/>
<text text-anchor="middle" x="174" y="-66.3" font-family="Times,serif" font-size="14.00">(child of)</text>
<text text-anchor="middle" x="174" y="-51.3" font-family="Times,serif" font-size="14.00">aeSrvGroup</text>
</g>
<!-- aePerson -->
<g id="node5" class="node"><title>aePerson</title>
<g id="a_node5"><a xlink:href="https://ae-dir.com/docs.html#schema-oc-aePerson" xlink:title="\N">
<polygon fill="none" stroke="black" points="1194,-95.5 1194,-153.5 1316,-153.5 1316,-95.5 1194,-95.5"/>
<text text-anchor="middle" x="1255" y="-120.8" font-family="Times,serif" font-size="14.00">aePerson</text>
</a>
</g>
</g>
<!-- aeService&#45;&gt;aeSrvGroup -->
<g id="edge8" class="edge"><title>aeService&#45;&gt;aeSrvGroup</title>
<path fill="none" stroke="black" d="M983.646,-21.8789C880.688,-10.0763 664.613,9.48326 483,-8.5 441.233,-12.6358 395.159,-21.6386 358.289,-29.9532"/>
<polygon fill="black" stroke="black" points="357.111,-26.6322 348.144,-32.2755 358.673,-33.4556 357.111,-26.6322"/>
<text text-anchor="middle" x="689" y="-22.3" font-family="Times,serif" font-size="14.00">(child of)</text>
<text text-anchor="middle" x="689" y="-7.3" font-family="Times,serif" font-size="14.00">aeSrvGroup</text>
</g>
<!-- aeService&#45;&gt;aeGroup -->
<g id="edge7" class="edge"><title>aeService&#45;&gt;aeGroup</title>
<path fill="none" stroke="black" stroke-dasharray="1,5" d="M983.821,-25.607C958.09,-25.9872 928.23,-29.2311 903,-39.5 886.672,-46.1454 871.268,-57.5768 858.529,-69.0772"/>
<polygon fill="black" stroke="black" points="855.84,-66.8016 850.958,-76.2045 860.638,-71.8985 855.84,-66.8016"/>
<text text-anchor="middle" x="934.5" y="-43.3" font-family="Times,serif" font-size="14.00">memberOf</text>
</g>
<!-- aeUser&#45;&gt;aeGroup -->
<g id="edge10" class="edge"><title>aeUser&#45;&gt;aeGroup</title>
<path fill="none" stroke="black" stroke-dasharray="1,5" d="M983.807,-125.612C958.75,-125.454 929.4,-124.464 903,-121.5 900.476,-121.217 897.912,-120.891 895.328,-120.532"/>
<polygon fill="black" stroke="black" points="895.71,-117.05 885.295,-118.991 894.648,-123.969 895.71,-117.05"/>
<text text-anchor="middle" x="934.5" y="-129.3" font-family="Times,serif" font-size="14.00">memberOf</text>
</g>
<!-- aeUser&#45;&gt;aePerson -->
<g id="edge11" class="edge"><title>aeUser&#45;&gt;aePerson</title>
<path fill="none" stroke="black" d="M1106.16,-124.5C1130.42,-124.5 1158.56,-124.5 1183.75,-124.5"/>
<polygon fill="black" stroke="black" points="1183.97,-128 1193.97,-124.5 1183.97,-121 1183.97,-128"/>
<text text-anchor="middle" x="1150" y="-128.3" font-family="Times,serif" font-size="14.00">aePerson</text>
</g>
<!-- aeZone -->
<g id="node8" class="node"><title>aeZone</title>
<g id="a_node8"><a xlink:href="https://ae-dir.com/docs.html#schema-oc-aeZone" xlink:title="\N">
<polygon fill="none" stroke="black" points="488,-207.5 488,-265.5 610,-265.5 610,-207.5 488,-207.5"/>
<text text-anchor="middle" x="549" y="-232.8" font-family="Times,serif" font-size="14.00">aeZone</text>
</a>
</g>
</g>
<!-- aeZone&#45;&gt;aeGroup -->
<g id="edge12" class="edge"><title>aeZone&#45;&gt;aeGroup</title>
<path fill="none" stroke="black" d="M610.249,-207.589C652.615,-187.26 709.41,-160.006 753.662,-138.772"/>
<polygon fill="black" stroke="black" points="755.403,-141.819 762.905,-134.337 752.375,-135.508 755.403,-141.819"/>
<text text-anchor="middle" x="689" y="-227.3" font-family="Times,serif" font-size="14.00">aeZoneAdmins</text>
<text text-anchor="middle" x="689" y="-212.3" font-family="Times,serif" font-size="14.00">aeZoneAuditors</text>
<text text-anchor="middle" x="689" y="-197.3" font-family="Times,serif" font-size="14.00">aePasswordAdmins</text>
</g>
</g>
</svg>
