<?xml version="1.0" encoding="UTF-8" standalone="no"?>
<!DOCTYPE svg PUBLIC "-//W3C//DTD SVG 1.1//EN"
 "http://www.w3.org/Graphics/SVG/1.1/DTD/svg11.dtd">
<!-- Generated by graphviz version 2.38.0 (20140413.2041)
 -->
<!-- Title: G Pages: 1 -->
<svg width="2136pt" height="567pt"
 viewBox="0.00 0.00 2136.00 567.00" xmlns="http://www.w3.org/2000/svg" xmlns:xlink="http://www.w3.org/1999/xlink">
<g id="graph0" class="graph" transform="scale(1 1) rotate(0) translate(4 563)">
<title>G</title>
<polygon fill="white" stroke="none" points="-4,4 -4,-563 2132,-563 2132,4 -4,4"/>
<!-- aeSrvGroup -->
<g id="node1" class="node"><title>aeSrvGroup</title>
<g id="a_node1"><a xlink:href="https://ae-dir.com/docs.html#schema-oc-aeSrvGroup" xlink:title="\N">
<polygon fill="none" stroke="black" points="0,-216 0,-274 122,-274 122,-216 0,-216"/>
<text text-anchor="middle" x="61" y="-241.3" font-family="Times,serif" font-size="14.00">aeSrvGroup</text>
</a>
</g>
</g>
<!-- aeSrvGroup&#45;&gt;aeSrvGroup -->
<g id="edge3" class="edge"><title>aeSrvGroup&#45;&gt;aeSrvGroup</title>
<path fill="none" stroke="black" d="M37.0059,-274.222C36.752,-284.334 44.75,-292.5 61,-292.5 71.4102,-292.5 78.4337,-289.149 82.0707,-284.081"/>
<polygon fill="black" stroke="black" points="85.5068,-284.805 84.9941,-274.222 78.7956,-282.815 85.5068,-284.805"/>
<text text-anchor="middle" x="61" y="-296.3" font-family="Times,serif" font-size="14.00">aeProxyFor</text>
</g>
<!-- aeGroup -->
<g id="node2" class="node"><title>aeGroup</title>
<g id="a_node2"><a xlink:href="https://ae-dir.com/docs.html#schema-oc-aeGroup" xlink:title="\N">
<polygon fill="none" stroke="black" points="498,-353 498,-411 620,-411 620,-353 498,-353"/>
<text text-anchor="middle" x="559" y="-378.3" font-family="Times,serif" font-size="14.00">aeGroup</text>
</a>
</g>
</g>
<!-- aeSrvGroup&#45;&gt;aeGroup -->
<g id="edge1" class="edge"><title>aeSrvGroup&#45;&gt;aeGroup</title>
<path fill="none" stroke="black" d="M122.029,-255.864C128.097,-256.936 134.17,-257.997 140,-259 250.533,-278.019 282.103,-266.056 389,-300 426.908,-312.037 467.054,-331.216 498.702,-348.001"/>
<polygon fill="black" stroke="black" points="497.348,-351.247 507.815,-352.892 500.659,-345.079 497.348,-351.247"/>
<text text-anchor="middle" x="323" y="-363.8" font-family="Times,serif" font-size="14.00">aeSetupGroups</text>
<text text-anchor="middle" x="323" y="-348.8" font-family="Times,serif" font-size="14.00">aeLogStoreGroups</text>
<text text-anchor="middle" x="323" y="-333.8" font-family="Times,serif" font-size="14.00">aeLoginGroups</text>
<text text-anchor="middle" x="323" y="-318.8" font-family="Times,serif" font-size="14.00">aeVisibleGroups</text>
<text text-anchor="middle" x="323" y="-303.8" font-family="Times,serif" font-size="14.00">aeDisplayNameGroups</text>
</g>
<!-- aeSudoRule -->
<g id="node3" class="node"><title>aeSudoRule</title>
<g id="a_node3"><a xlink:href="https://ae-dir.com/docs.html#schema-oc-aeSudoRule" xlink:title="\N">
<polygon fill="none" stroke="black" points="262,-385 262,-443 384,-443 384,-385 262,-385"/>
<text text-anchor="middle" x="323" y="-410.3" font-family="Times,serif" font-size="14.00">aeSudoRule</text>
</a>
</g>
</g>
<!-- aeSrvGroup&#45;&gt;aeSudoRule -->
<g id="edge4" class="edge"><title>aeSrvGroup&#45;&gt;aeSudoRule</title>
<path fill="none" stroke="black" d="M98.2508,-274.282C111.185,-284.353 126.018,-295.483 140,-305 179.154,-331.652 224.899,-359.034 260.732,-379.686"/>
<polygon fill="black" stroke="black" points="259.203,-382.844 269.618,-384.787 262.688,-376.773 259.203,-382.844"/>
<text text-anchor="middle" x="189.5" y="-370.8" font-family="Times,serif" font-size="14.00">aeVisibleSudoers</text>
</g>
<!-- aeMailGroup -->
<g id="node14" class="node"><title>aeMailGroup</title>
<g id="a_node14"><a xlink:href="https://ae-dir.com/docs.html#schema-oc-aeMailGroup" xlink:title="\N">
<polygon fill="none" stroke="black" points="994,-242 994,-300 1116,-300 1116,-242 994,-242"/>
<text text-anchor="middle" x="1055" y="-267.3" font-family="Times,serif" font-size="14.00">aeMailGroup</text>
</a>
</g>
</g>
<!-- aeSrvGroup&#45;&gt;aeMailGroup -->
<g id="edge2" class="edge"><title>aeSrvGroup&#45;&gt;aeMailGroup</title>
<path fill="none" stroke="black" d="M122.093,-223.732C174.255,-207.179 252.165,-187 322,-187 322,-187 322,-187 786,-187 872.679,-187 894.597,-201.22 976,-231 981.402,-232.976 986.909,-235.241 992.373,-237.666"/>
<polygon fill="black" stroke="black" points="990.953,-240.865 1001.5,-241.875 993.885,-234.509 990.953,-240.865"/>
<text text-anchor="middle" x="559" y="-205.8" font-family="Times,serif" font-size="14.00">aeVisibleGroups</text>
<text text-anchor="middle" x="559" y="-190.8" font-family="Times,serif" font-size="14.00">aeDisplayNameGroups</text>
</g>
<!-- aeZone -->
<g id="node7" class="node"><title>aeZone</title>
<g id="a_node7"><a xlink:href="https://ae-dir.com/docs.html#schema-oc-aeZone" xlink:title="\N">
<polygon fill="none" stroke="black" points="1244,-378 1244,-436 1366,-436 1366,-378 1244,-378"/>
<text text-anchor="middle" x="1305" y="-403.3" font-family="Times,serif" font-size="14.00">aeZone</text>
</a>
</g>
</g>
<!-- aeGroup&#45;&gt;aeZone -->
<g id="edge9" class="edge"><title>aeGroup&#45;&gt;aeZone</title>
<path fill="none" stroke="black" d="M611.404,-411.036C621.585,-415.55 632.407,-419.53 643,-422 769.171,-451.418 1097.08,-434.804 1226,-422 1228.52,-421.75 1231.08,-421.458 1233.67,-421.132"/>
<polygon fill="black" stroke="black" points="1234.28,-424.58 1243.69,-419.721 1233.3,-417.649 1234.28,-424.58"/>
<text text-anchor="middle" x="920" y="-442.8" font-family="Times,serif" font-size="14.00">aeMemberZone</text>
</g>
<!-- aeDept -->
<g id="node8" class="node"><title>aeDept</title>
<g id="a_node8"><a xlink:href="https://ae-dir.com/docs.html#schema-oc-aeDept" xlink:title="\N">
<polygon fill="none" stroke="black" points="2006,-413 2006,-471 2128,-471 2128,-413 2006,-413"/>
<text text-anchor="middle" x="2067" y="-438.3" font-family="Times,serif" font-size="14.00">aeDept</text>
</a>
</g>
</g>
<!-- aeGroup&#45;&gt;aeDept -->
<g id="edge5" class="edge"><title>aeGroup&#45;&gt;aeDept</title>
<path fill="none" stroke="black" d="M580.774,-411.337C616.516,-458.021 694.492,-544 784,-544 784,-544 784,-544 1846,-544 1911.32,-544 1978.28,-506.532 2020.89,-477.013"/>
<polygon fill="black" stroke="black" points="2022.93,-479.857 2029.08,-471.229 2018.89,-474.139 2022.93,-479.857"/>
<text text-anchor="middle" x="1305" y="-547.8" font-family="Times,serif" font-size="14.00">aeDept</text>
</g>
<!-- aeLocation -->
<g id="node9" class="node"><title>aeLocation</title>
<g id="a_node9"><a xlink:href="https://ae-dir.com/docs.html#schema-oc-aeLocation" xlink:title="\N">
<polygon fill="none" stroke="black" points="2006,-140 2006,-198 2128,-198 2128,-140 2006,-140"/>
<text text-anchor="middle" x="2067" y="-165.3" font-family="Times,serif" font-size="14.00">aeLocation</text>
</a>
</g>
</g>
<!-- aeGroup&#45;&gt;aeLocation -->
<g id="edge6" class="edge"><title>aeGroup&#45;&gt;aeLocation</title>
<path fill="none" stroke="black" d="M575.787,-352.86C590.807,-326.84 615.195,-288.674 643,-261 673.842,-230.303 684.4,-224.039 724,-206 1015.73,-73.11 1118.43,-111 1439,-111 1439,-111 1439,-111 1846,-111 1897.59,-111 1953.81,-126.1 1996.51,-140.891"/>
<polygon fill="black" stroke="black" points="1995.36,-144.197 2005.95,-144.235 1997.69,-137.598 1995.36,-144.197"/>
<text text-anchor="middle" x="1305" y="-114.8" font-family="Times,serif" font-size="14.00">aeLocation</text>
</g>
<!-- aeService -->
<g id="node10" class="node"><title>aeService</title>
<g id="a_node10"><a xlink:href="https://ae-dir.com/docs.html#schema-oc-aeService" xlink:title="\N">
<polygon fill="none" stroke="black" points="724,-216 724,-274 846,-274 846,-216 724,-216"/>
<text text-anchor="middle" x="785" y="-241.3" font-family="Times,serif" font-size="14.00">aeService</text>
</a>
</g>
</g>
<!-- aeGroup&#45;&gt;aeService -->
<g id="edge7" class="edge"><title>aeGroup&#45;&gt;aeService</title>
<path fill="none" stroke="black" d="M581.474,-352.769C596.776,-333.739 618.848,-309.636 643,-294 664.51,-280.074 690.438,-269.596 714.163,-261.98"/>
<polygon fill="black" stroke="black" points="715.306,-265.29 723.827,-258.993 713.239,-258.602 715.306,-265.29"/>
<text text-anchor="middle" x="674.5" y="-297.8" font-family="Times,serif" font-size="14.00">member</text>
</g>
<!-- aeUser -->
<g id="node11" class="node"><title>aeUser</title>
<g id="a_node11"><a xlink:href="https://ae-dir.com/docs.html#schema-oc-aeUser" xlink:title="\N">
<polygon fill="none" stroke="black" points="1244,-280 1244,-338 1366,-338 1366,-280 1244,-280"/>
<text text-anchor="middle" x="1305" y="-305.3" font-family="Times,serif" font-size="14.00">aeUser</text>
</a>
</g>
</g>
<!-- aeGroup&#45;&gt;aeUser -->
<g id="edge8" class="edge"><title>aeGroup&#45;&gt;aeUser</title>
<path fill="none" stroke="black" d="M620.267,-379.569C681.597,-377.154 779.404,-373.465 864,-371 884.107,-370.414 1206.87,-369.21 1226,-363 1238.86,-358.827 1251.49,-351.779 1262.72,-344.128"/>
<polygon fill="black" stroke="black" points="1264.91,-346.862 1271.01,-338.198 1260.84,-341.168 1264.91,-346.862"/>
<text text-anchor="middle" x="920" y="-374.8" font-family="Times,serif" font-size="14.00">member</text>
</g>
<!-- aeSudoRule&#45;&gt;aeGroup -->
<g id="edge27" class="edge"><title>aeSudoRule&#45;&gt;aeGroup</title>
<path fill="none" stroke="black" d="M384.261,-405.759C415.923,-401.429 454.899,-396.099 487.906,-391.585"/>
<polygon fill="black" stroke="black" points="488.51,-395.036 497.943,-390.213 487.561,-388.1 488.51,-395.036"/>
<text text-anchor="middle" x="441" y="-405.8" font-family="Times,serif" font-size="14.00">sudoUser</text>
</g>
<!-- aeHost -->
<g id="node4" class="node"><title>aeHost</title>
<g id="a_node4"><a xlink:href="https://ae-dir.com/docs.html#schema-oc-aeHost" xlink:title="\N">
<polygon fill="none" stroke="black" points="994,-29 994,-87 1116,-87 1116,-29 994,-29"/>
<text text-anchor="middle" x="1055" y="-54.3" font-family="Times,serif" font-size="14.00">aeHost</text>
</a>
</g>
</g>
<!-- aeHost&#45;&gt;aeSrvGroup -->
<g id="edge10" class="edge"><title>aeHost&#45;&gt;aeSrvGroup</title>
<path fill="none" stroke="black" d="M993.867,-37.3063C940.071,-20.6495 858.717,-0 786,-0 322,-0 322,-0 322,-0 202.936,-0 116.235,-137.77 80.3135,-206.687"/>
<polygon fill="black" stroke="black" points="77.022,-205.436 75.5837,-215.933 83.254,-208.624 77.022,-205.436"/>
<text text-anchor="middle" x="559" y="-18.8" font-family="Times,serif" font-size="14.00">(child of)</text>
<text text-anchor="middle" x="559" y="-3.8" font-family="Times,serif" font-size="14.00">aeSrvGroup</text>
</g>
<!-- aeHost&#45;&gt;aeLocation -->
<g id="edge11" class="edge"><title>aeHost&#45;&gt;aeLocation</title>
<path fill="none" stroke="black" d="M1116.13,-46.236C1166.19,-37.4664 1239.46,-27 1304,-27 1304,-27 1304,-27 1846,-27 1923.67,-27 1995.67,-90.2581 2034.96,-132.332"/>
<polygon fill="black" stroke="black" points="2032.58,-134.911 2041.91,-139.922 2037.74,-130.183 2032.58,-134.911"/>
<text text-anchor="middle" x="1575" y="-30.8" font-family="Times,serif" font-size="14.00">aeLocation</text>
</g>
<!-- pwdPolicy -->
<g id="node15" class="node"><title>pwdPolicy</title>
<g id="a_node15"><a xlink:href="https://ae-dir.com/docs.html#schema-oc-pwdPolicy" xlink:title="\N">
<polygon fill="none" stroke="black" points="1784,-140 1784,-198 1906,-198 1906,-140 1784,-140"/>
<text text-anchor="middle" x="1845" y="-165.3" font-family="Times,serif" font-size="14.00">pwdPolicy</text>
</a>
</g>
</g>
<!-- aeHost&#45;&gt;pwdPolicy -->
<g id="edge12" class="edge"><title>aeHost&#45;&gt;pwdPolicy</title>
<path fill="none" stroke="black" d="M1116.11,-63.0842C1178.64,-68.5901 1279.34,-78.066 1366,-89 1544.42,-111.51 1589.58,-115.131 1766,-150 1768.51,-150.497 1771.07,-151.02 1773.64,-151.563"/>
<polygon fill="black" stroke="black" points="1773.13,-155.034 1783.65,-153.746 1774.62,-148.195 1773.13,-155.034"/>
<text text-anchor="middle" x="1440" y="-109.8" font-family="Times,serif" font-size="14.00">pwdPolicySubentry</text>
</g>
<!-- aeNwDevice -->
<g id="node5" class="node"><title>aeNwDevice</title>
<g id="a_node5"><a xlink:href="https://ae-dir.com/docs.html#schema-oc-aeNwDevice" xlink:title="\N">
<polygon fill="none" stroke="black" points="724,-29 724,-87 846,-87 846,-29 724,-29"/>
<text text-anchor="middle" x="785" y="-54.3" font-family="Times,serif" font-size="14.00">aeNwDevice</text>
</a>
</g>
</g>
<!-- aeNwDevice&#45;&gt;aeHost -->
<g id="edge13" class="edge"><title>aeNwDevice&#45;&gt;aeHost</title>
<path fill="none" stroke="black" d="M846.144,-58C886.863,-58 940.814,-58 983.545,-58"/>
<polygon fill="black" stroke="black" points="983.593,-61.5001 993.593,-58 983.593,-54.5001 983.593,-61.5001"/>
<text text-anchor="middle" x="920" y="-61.8" font-family="Times,serif" font-size="14.00">(child of)</text>
</g>
<!-- aeNwDevice&#45;&gt;aeNwDevice -->
<g id="edge14" class="edge"><title>aeNwDevice&#45;&gt;aeNwDevice</title>
<path fill="none" stroke="black" d="M764.38,-87.2222C764.162,-97.334 771.035,-105.5 785,-105.5 793.946,-105.5 799.982,-102.149 803.108,-97.0814"/>
<polygon fill="black" stroke="black" points="806.542,-97.7768 805.62,-87.2222 799.759,-96.0482 806.542,-97.7768"/>
<text text-anchor="middle" x="785" y="-109.3" font-family="Times,serif" font-size="14.00">aeNwDevice</text>
</g>
<!-- aePerson -->
<g id="node6" class="node"><title>aePerson</title>
<g id="a_node6"><a xlink:href="https://ae-dir.com/docs.html#schema-oc-aePerson" xlink:title="\N">
<polygon fill="none" stroke="black" points="1784,-294 1784,-352 1906,-352 1906,-294 1784,-294"/>
<text text-anchor="middle" x="1845" y="-319.3" font-family="Times,serif" font-size="14.00">aePerson</text>
</a>
</g>
</g>
<!-- aePerson&#45;&gt;aeDept -->
<g id="edge20" class="edge"><title>aePerson&#45;&gt;aeDept</title>
<path fill="none" stroke="black" d="M1906.06,-348.964C1931.74,-360.67 1961.78,-375.179 1988,-390 1997.23,-395.219 2006.82,-401.151 2015.98,-407.094"/>
<polygon fill="black" stroke="black" points="2014.34,-410.199 2024.61,-412.773 2018.18,-404.352 2014.34,-410.199"/>
<text text-anchor="middle" x="1956" y="-393.8" font-family="Times,serif" font-size="14.00">aeDept</text>
</g>
<!-- aePerson&#45;&gt;aeLocation -->
<g id="edge21" class="edge"><title>aePerson&#45;&gt;aeLocation</title>
<path fill="none" stroke="black" d="M1891.36,-293.837C1896.32,-290.552 1901.28,-287.226 1906,-284 1944.23,-257.855 1986.78,-227.196 2018.39,-204.112"/>
<polygon fill="black" stroke="black" points="2020.58,-206.843 2026.58,-198.114 2016.45,-201.193 2020.58,-206.843"/>
<text text-anchor="middle" x="1956" y="-272.8" font-family="Times,serif" font-size="14.00">aeLocation</text>
</g>
<!-- aeZone&#45;&gt;aeGroup -->
<g id="edge35" class="edge"><title>aeZone&#45;&gt;aeGroup</title>
<path fill="none" stroke="black" d="M1243.76,-434.744C1237.85,-436.782 1231.86,-438.588 1226,-440 1178.35,-451.481 1164.89,-444.476 1116,-448 1053.78,-452.485 1038.34,-455.776 976,-458 864.015,-461.994 835.663,-459.387 724,-450 687.906,-446.966 676.844,-453.906 643,-441 628.23,-435.368 613.652,-426.472 600.934,-417.28"/>
<polygon fill="black" stroke="black" points="602.962,-414.426 592.861,-411.228 598.763,-420.027 602.962,-414.426"/>
<text text-anchor="middle" x="920" y="-493.8" font-family="Times,serif" font-size="14.00">aeZoneAdmins</text>
<text text-anchor="middle" x="920" y="-478.8" font-family="Times,serif" font-size="14.00">aeZoneAuditors</text>
<text text-anchor="middle" x="920" y="-463.8" font-family="Times,serif" font-size="14.00">aePasswordAdmins</text>
</g>
<!-- aeZone&#45;&gt;aeDept -->
<g id="edge33" class="edge"><title>aeZone&#45;&gt;aeDept</title>
<path fill="none" stroke="black" d="M1366.27,-409.776C1505.21,-416.174 1847.42,-431.934 1995.65,-438.76"/>
<polygon fill="black" stroke="black" points="1995.84,-442.272 2005.99,-439.236 1996.16,-435.28 1995.84,-442.272"/>
<text text-anchor="middle" x="1710" y="-432.8" font-family="Times,serif" font-size="14.00">aeDept</text>
</g>
<!-- aeZone&#45;&gt;aeLocation -->
<g id="edge34" class="edge"><title>aeZone&#45;&gt;aeLocation</title>
<path fill="none" stroke="black" d="M1366.01,-405.226C1527.89,-400.21 1963.01,-385.105 1988,-367 2039.04,-330.017 2056.69,-254.396 2062.79,-208.057"/>
<polygon fill="black" stroke="black" points="2066.27,-208.42 2063.98,-198.075 2059.32,-207.588 2066.27,-208.42"/>
<text text-anchor="middle" x="1710" y="-398.8" font-family="Times,serif" font-size="14.00">aeLocation</text>
</g>
<!-- aeService&#45;&gt;aeSrvGroup -->
<g id="edge26" class="edge"><title>aeService&#45;&gt;aeSrvGroup</title>
<path fill="none" stroke="black" d="M723.79,-245C591.057,-245 273.86,-245 132.299,-245"/>
<polygon fill="black" stroke="black" points="132.007,-241.5 122.007,-245 132.007,-248.5 132.007,-241.5"/>
<text text-anchor="middle" x="441" y="-263.8" font-family="Times,serif" font-size="14.00">(child of)</text>
<text text-anchor="middle" x="441" y="-248.8" font-family="Times,serif" font-size="14.00">aeSrvGroup</text>
</g>
<!-- aeService&#45;&gt;aeGroup -->
<g id="edge22" class="edge"><title>aeService&#45;&gt;aeGroup</title>
<path fill="none" stroke="black" stroke-dasharray="1,5" d="M751.848,-274.117C738.234,-285.706 721.872,-298.706 706,-309 702.123,-311.514 664.289,-330.42 628.111,-348.36"/>
<polygon fill="black" stroke="black" points="626.376,-345.314 618.97,-352.89 629.484,-351.586 626.376,-345.314"/>
<text text-anchor="middle" x="674.5" y="-342.8" font-family="Times,serif" font-size="14.00">memberOf</text>
</g>
<!-- aeService&#45;&gt;aeHost -->
<g id="edge23" class="edge"><title>aeService&#45;&gt;aeHost</title>
<path fill="none" stroke="black" d="M800.174,-215.628C813.55,-190.639 835.752,-155.344 864,-133 898.979,-105.332 945.444,-86.7483 983.668,-75.0005"/>
<polygon fill="black" stroke="black" points="985.118,-78.2208 993.704,-72.0133 983.121,-71.5117 985.118,-78.2208"/>
<text text-anchor="middle" x="920" y="-136.8" font-family="Times,serif" font-size="14.00">aeHost</text>
</g>
<!-- aeService&#45;&gt;aeMailGroup -->
<g id="edge24" class="edge"><title>aeService&#45;&gt;aeMailGroup</title>
<path fill="none" stroke="black" stroke-dasharray="1,5" d="M846.013,-252.961C852.085,-253.687 858.162,-254.38 864,-255 903.398,-259.182 947.487,-262.951 983.269,-265.779"/>
<polygon fill="black" stroke="black" points="983.367,-269.297 993.61,-266.589 983.913,-262.319 983.367,-269.297"/>
<text text-anchor="middle" x="920" y="-268.8" font-family="Times,serif" font-size="14.00">memberOf</text>
</g>
<!-- aeService&#45;&gt;pwdPolicy -->
<g id="edge25" class="edge"><title>aeService&#45;&gt;pwdPolicy</title>
<path fill="none" stroke="black" d="M844.009,-215.971C897.243,-192.036 978.99,-162 1054,-162 1054,-162 1054,-162 1576,-162 1643.12,-162 1719.66,-164.221 1773.71,-166.161"/>
<polygon fill="black" stroke="black" points="1773.75,-169.665 1783.87,-166.532 1774.01,-162.67 1773.75,-169.665"/>
<text text-anchor="middle" x="1305" y="-165.8" font-family="Times,serif" font-size="14.00">pwdPolicySubentry</text>
</g>
<!-- aeUser&#45;&gt;aeGroup -->
<g id="edge29" class="edge"><title>aeUser&#45;&gt;aeGroup</title>
<path fill="none" stroke="black" stroke-dasharray="1,5" d="M1276.27,-338.11C1258.84,-355.601 1237.55,-375.348 1226,-380 1011.56,-466.36 937.159,-389.463 706,-392 678.002,-392.307 670.95,-393.678 643,-392 638.844,-391.751 634.577,-391.431 630.276,-391.061"/>
<polygon fill="black" stroke="black" points="630.5,-387.567 620.216,-390.114 629.844,-394.536 630.5,-387.567"/>
<text text-anchor="middle" x="920" y="-421.8" font-family="Times,serif" font-size="14.00">memberOf</text>
</g>
<!-- aeUser&#45;&gt;aePerson -->
<g id="edge31" class="edge"><title>aeUser&#45;&gt;aePerson</title>
<path fill="none" stroke="black" d="M1366.3,-321.77C1372.26,-322.678 1378.23,-323.451 1384,-324 1521.6,-337.111 1683.41,-332.036 1773.79,-327.373"/>
<polygon fill="black" stroke="black" points="1774.12,-330.861 1783.92,-326.837 1773.74,-323.871 1774.12,-330.861"/>
<text text-anchor="middle" x="1575" y="-336.8" font-family="Times,serif" font-size="14.00">aePerson</text>
</g>
<!-- aeAuthcToken -->
<g id="node12" class="node"><title>aeAuthcToken</title>
<g id="a_node12"><a xlink:href="https://ae-dir.com/docs.html#schema-oc-aeAuthcToken" xlink:title="\N">
<polygon fill="none" stroke="black" points="1514,-243 1514,-301 1636,-301 1636,-243 1514,-243"/>
<text text-anchor="middle" x="1575" y="-268.3" font-family="Times,serif" font-size="14.00">aeAuthcToken</text>
</a>
</g>
</g>
<!-- aeUser&#45;&gt;aeAuthcToken -->
<g id="edge28" class="edge"><title>aeUser&#45;&gt;aeAuthcToken</title>
<path fill="none" stroke="black" d="M1366.39,-296.925C1372.33,-295.876 1378.28,-294.881 1384,-294 1423.43,-287.934 1467.7,-282.717 1503.58,-278.887"/>
<polygon fill="black" stroke="black" points="1504.37,-282.323 1513.94,-277.794 1503.63,-275.362 1504.37,-282.323"/>
<text text-anchor="middle" x="1440" y="-312.8" font-family="Times,serif" font-size="14.00">oathHOTPToken</text>
<text text-anchor="middle" x="1440" y="-297.8" font-family="Times,serif" font-size="14.00">oathTOTPToken</text>
</g>
<!-- aeUser&#45;&gt;aeMailGroup -->
<g id="edge30" class="edge"><title>aeUser&#45;&gt;aeMailGroup</title>
<path fill="none" stroke="black" stroke-dasharray="1,5" d="M1243.65,-302.287C1211.09,-298.388 1170.25,-293.055 1134,-287 1131.49,-286.582 1128.95,-286.141 1126.38,-285.683"/>
<polygon fill="black" stroke="black" points="1126.85,-282.212 1116.39,-283.844 1125.59,-289.096 1126.85,-282.212"/>
<text text-anchor="middle" x="1180" y="-303.8" font-family="Times,serif" font-size="14.00">memberOf</text>
</g>
<!-- aeUser&#45;&gt;pwdPolicy -->
<g id="edge32" class="edge"><title>aeUser&#45;&gt;pwdPolicy</title>
<path fill="none" stroke="black" d="M1361.44,-279.919C1402.5,-259.585 1460.4,-233.408 1514,-218 1561.43,-204.367 1691.91,-187.174 1773.88,-177.2"/>
<polygon fill="black" stroke="black" points="1774.37,-180.667 1783.88,-175.991 1773.53,-173.718 1774.37,-180.667"/>
<text text-anchor="middle" x="1575" y="-221.8" font-family="Times,serif" font-size="14.00">pwdPolicySubentry</text>
</g>
<!-- aeAuthcToken&#45;&gt;aePerson -->
<g id="edge36" class="edge"><title>aeAuthcToken&#45;&gt;aePerson</title>
<path fill="none" stroke="black" d="M1636.14,-283.445C1676.86,-291.194 1730.81,-301.461 1773.54,-309.593"/>
<polygon fill="black" stroke="black" points="1773.12,-313.073 1783.59,-311.505 1774.42,-306.197 1773.12,-313.073"/>
<text text-anchor="middle" x="1710" y="-311.8" font-family="Times,serif" font-size="14.00">aePerson</text>
</g>
<!-- aeAuthcToken&#45;&gt;pwdPolicy -->
<g id="edge38" class="edge"><title>aeAuthcToken&#45;&gt;pwdPolicy</title>
<path fill="none" stroke="black" d="M1633.76,-242.865C1640.49,-239.988 1647.34,-237.291 1654,-235 1702.23,-218.412 1718.12,-227.574 1766,-210 1771.94,-207.821 1777.99,-205.276 1783.97,-202.54"/>
<polygon fill="black" stroke="black" points="1785.75,-205.569 1793.27,-198.11 1782.74,-199.249 1785.75,-205.569"/>
<text text-anchor="middle" x="1710" y="-238.8" font-family="Times,serif" font-size="14.00">pwdPolicySubentry</text>
</g>
<!-- oathParams -->
<g id="node16" class="node"><title>oathParams</title>
<g id="a_node16"><a xlink:href="https://ae-dir.com/docs.html#schema-oc-oathParams" xlink:title="\N">
<polygon fill="none" stroke="black" points="1784,-217 1784,-275 1906,-275 1906,-217 1784,-217"/>
<text text-anchor="middle" x="1845" y="-242.3" font-family="Times,serif" font-size="14.00">oathParams</text>
</a>
</g>
</g>
<!-- aeAuthcToken&#45;&gt;oathParams -->
<g id="edge37" class="edge"><title>aeAuthcToken&#45;&gt;oathParams</title>
<path fill="none" stroke="black" d="M1636.14,-266.165C1676.86,-262.215 1730.81,-256.981 1773.54,-252.835"/>
<polygon fill="black" stroke="black" points="1773.98,-256.31 1783.59,-251.86 1773.3,-249.342 1773.98,-256.31"/>
<text text-anchor="middle" x="1710" y="-268.8" font-family="Times,serif" font-size="14.00">oathHOTPParams</text>
</g>
<!-- aeContact -->
<g id="node13" class="node"><title>aeContact</title>
<g id="a_node13"><a xlink:href="https://ae-dir.com/docs.html#schema-oc-aeContact" xlink:title="\N">
<polygon fill="none" stroke="black" points="1244,-200 1244,-258 1366,-258 1366,-200 1244,-200"/>
<text text-anchor="middle" x="1305" y="-225.3" font-family="Times,serif" font-size="14.00">aeContact</text>
</a>
</g>
</g>
<!-- aeContact&#45;&gt;aeMailGroup -->
<g id="edge39" class="edge"><title>aeContact&#45;&gt;aeMailGroup</title>
<path fill="none" stroke="black" stroke-dasharray="1,5" d="M1243.74,-231.929C1211.02,-234.293 1170.01,-238.516 1134,-246 1131.35,-246.551 1128.66,-247.158 1125.96,-247.81"/>
<polygon fill="black" stroke="black" points="1124.94,-244.458 1116.13,-250.346 1126.69,-251.236 1124.94,-244.458"/>
<text text-anchor="middle" x="1180" y="-249.8" font-family="Times,serif" font-size="14.00">memberOf</text>
</g>
<!-- aeMailGroup&#45;&gt;aeZone -->
<g id="edge19" class="edge"><title>aeMailGroup&#45;&gt;aeZone</title>
<path fill="none" stroke="black" d="M1102.27,-300.251C1112.63,-306.579 1123.62,-313.13 1134,-319 1167.18,-337.76 1204.74,-357.372 1236.11,-373.308"/>
<polygon fill="black" stroke="black" points="1234.7,-376.519 1245.21,-377.915 1237.87,-370.274 1234.7,-376.519"/>
<text text-anchor="middle" x="1180" y="-372.8" font-family="Times,serif" font-size="14.00">aeMemberZone</text>
</g>
<!-- aeMailGroup&#45;&gt;aeDept -->
<g id="edge15" class="edge"><title>aeMailGroup&#45;&gt;aeDept</title>
<path fill="none" stroke="black" d="M1070.08,-300.225C1083.6,-325.914 1106.09,-362.998 1134,-388 1238.14,-481.28 1299.19,-465 1439,-465 1439,-465 1439,-465 1846,-465 1896.31,-465 1952.73,-458.977 1995.85,-453.096"/>
<polygon fill="black" stroke="black" points="1996.53,-456.535 2005.95,-451.687 1995.56,-449.602 1996.53,-456.535"/>
<text text-anchor="middle" x="1575" y="-468.8" font-family="Times,serif" font-size="14.00">aeDept</text>
</g>
<!-- aeMailGroup&#45;&gt;aeService -->
<g id="edge17" class="edge"><title>aeMailGroup&#45;&gt;aeService</title>
<path fill="none" stroke="black" d="M993.778,-244.508C987.857,-242.682 981.868,-241.123 976,-240 936.916,-232.518 892.492,-233.195 856.432,-236.004"/>
<polygon fill="black" stroke="black" points="855.677,-232.555 846.011,-236.892 856.272,-239.53 855.677,-232.555"/>
<text text-anchor="middle" x="920" y="-243.8" font-family="Times,serif" font-size="14.00">member</text>
</g>
<!-- aeMailGroup&#45;&gt;aeUser -->
<g id="edge18" class="edge"><title>aeMailGroup&#45;&gt;aeUser</title>
<path fill="none" stroke="black" d="M1116.13,-265.048C1148.99,-263.363 1190.18,-263.823 1226,-272 1230.99,-273.138 1236.03,-274.63 1241.03,-276.362"/>
<polygon fill="black" stroke="black" points="1239.96,-279.699 1250.55,-279.957 1242.43,-273.15 1239.96,-279.699"/>
<text text-anchor="middle" x="1180" y="-275.8" font-family="Times,serif" font-size="14.00">member</text>
</g>
<!-- aeMailGroup&#45;&gt;aeContact -->
<g id="edge16" class="edge"><title>aeMailGroup&#45;&gt;aeContact</title>
<path fill="none" stroke="black" d="M1076.98,-241.778C1090.98,-224.915 1111,-205.265 1134,-196 1165.72,-183.225 1202.81,-188.315 1234.24,-197.917"/>
<polygon fill="black" stroke="black" points="1233.2,-201.261 1243.79,-201.027 1235.37,-194.605 1233.2,-201.261"/>
<text text-anchor="middle" x="1180" y="-199.8" font-family="Times,serif" font-size="14.00">member</text>
</g>
</g>
</svg>
