<?xml version="1.0" encoding="UTF-8" standalone="no"?>
<!DOCTYPE svg PUBLIC "-//W3C//DTD SVG 1.1//EN"
 "http://www.w3.org/Graphics/SVG/1.1/DTD/svg11.dtd">
<!-- Generated by graphviz version 2.38.0 (20140413.2041)
 -->
<!-- Title: G Pages: 1 -->
<svg width="963pt" height="888pt"
 viewBox="0.00 0.00 962.84 888.00" xmlns="http://www.w3.org/2000/svg" xmlns:xlink="http://www.w3.org/1999/xlink">
<g id="graph0" class="graph" transform="scale(1 1) rotate(0) translate(4 884)">
<title>G</title>
<polygon fill="white" stroke="none" points="-4,4 -4,-884 958.838,-884 958.838,4 -4,4"/>
<!-- aeSrvGroup -->
<g id="node1" class="node"><title>aeSrvGroup</title>
<polygon fill="none" stroke="black" points="384.838,-836.5 384.838,-879.5 506.838,-879.5 506.838,-836.5 384.838,-836.5"/>
<text text-anchor="middle" x="445.838" y="-854.3" font-family="Times,serif" font-size="14.00">aeSrvGroup</text>
</g>
<!-- aeSrvGroup&#45;&gt;aeSrvGroup -->
<g id="edge3" class="edge"><title>aeSrvGroup&#45;&gt;aeSrvGroup</title>
<path fill="none" stroke="black" d="M507.117,-866.052C517.585,-864.951 524.838,-862.268 524.838,-858 524.838,-855.266 521.861,-853.182 516.97,-851.748"/>
<polygon fill="black" stroke="black" points="517.583,-848.302 507.117,-849.948 516.325,-855.188 517.583,-848.302"/>
<text text-anchor="middle" x="558.838" y="-854.3" font-family="Times,serif" font-size="14.00">aeProxyFor</text>
</g>
<!-- aeGroup -->
<g id="node2" class="node"><title>aeGroup</title>
<polygon fill="none" stroke="black" points="150.838,-585.5 150.838,-628.5 272.838,-628.5 272.838,-585.5 150.838,-585.5"/>
<text text-anchor="middle" x="211.838" y="-603.3" font-family="Times,serif" font-size="14.00">aeGroup</text>
</g>
<!-- aeSrvGroup&#45;&gt;aeGroup -->
<g id="edge1" class="edge"><title>aeSrvGroup&#45;&gt;aeGroup</title>
<path fill="none" stroke="black" d="M384.802,-856.102C277.398,-853.088 61.5345,-840.144 14.8379,-785 -6.70313,-759.562 -2.48595,-738.478 14.8379,-710 42.1572,-665.091 96.3423,-639.075 140.981,-624.572"/>
<polygon fill="black" stroke="black" points="142.133,-627.879 150.639,-621.562 140.05,-621.196 142.133,-627.879"/>
<text text-anchor="middle" x="80.8379" y="-773.8" font-family="Times,serif" font-size="14.00">aeSetupGroups</text>
<text text-anchor="middle" x="80.8379" y="-758.8" font-family="Times,serif" font-size="14.00">aeLogStoreGroups</text>
<text text-anchor="middle" x="80.8379" y="-743.8" font-family="Times,serif" font-size="14.00">aeLoginGroups</text>
<text text-anchor="middle" x="80.8379" y="-728.8" font-family="Times,serif" font-size="14.00">aeVisibleGroups</text>
<text text-anchor="middle" x="80.8379" y="-713.8" font-family="Times,serif" font-size="14.00">aeDisplayNameGroups</text>
</g>
<!-- aeSudoRule -->
<g id="node3" class="node"><title>aeSudoRule</title>
<polygon fill="none" stroke="black" points="155.838,-726 155.838,-769 277.838,-769 277.838,-726 155.838,-726"/>
<text text-anchor="middle" x="216.838" y="-743.8" font-family="Times,serif" font-size="14.00">aeSudoRule</text>
</g>
<!-- aeSrvGroup&#45;&gt;aeSudoRule -->
<g id="edge4" class="edge"><title>aeSrvGroup&#45;&gt;aeSudoRule</title>
<path fill="none" stroke="black" d="M384.81,-838.523C367.707,-832.653 349.298,-825.67 332.838,-818 306.161,-805.569 277.795,-788.648 255.791,-774.614"/>
<polygon fill="black" stroke="black" points="257.685,-771.67 247.384,-769.195 253.893,-777.554 257.685,-771.67"/>
<text text-anchor="middle" x="382.338" y="-806.8" font-family="Times,serif" font-size="14.00">aeVisibleSudoers</text>
</g>
<!-- aeMailGroup -->
<g id="node13" class="node"><title>aeMailGroup</title>
<polygon fill="none" stroke="black" points="315.838,-395.5 315.838,-438.5 437.838,-438.5 437.838,-395.5 315.838,-395.5"/>
<text text-anchor="middle" x="376.838" y="-413.3" font-family="Times,serif" font-size="14.00">aeMailGroup</text>
</g>
<!-- aeSrvGroup&#45;&gt;aeMailGroup -->
<g id="edge2" class="edge"><title>aeSrvGroup&#45;&gt;aeMailGroup</title>
<path fill="none" stroke="black" d="M507.09,-844.428C556.156,-830.358 616.838,-802.118 616.838,-748.5 616.838,-748.5 616.838,-748.5 616.838,-511 616.838,-486.207 621.08,-473.791 602.838,-457 580.66,-436.586 505.66,-426.677 448.079,-421.988"/>
<polygon fill="black" stroke="black" points="448.152,-418.483 437.911,-421.199 447.61,-425.462 448.152,-418.483"/>
<text text-anchor="middle" x="682.838" y="-610.8" font-family="Times,serif" font-size="14.00">aeVisibleGroups</text>
<text text-anchor="middle" x="682.838" y="-595.8" font-family="Times,serif" font-size="14.00">aeDisplayNameGroups</text>
</g>
<!-- aeDept -->
<g id="node8" class="node"><title>aeDept</title>
<polygon fill="none" stroke="black" points="152.838,-0.5 152.838,-43.5 274.838,-43.5 274.838,-0.5 152.838,-0.5"/>
<text text-anchor="middle" x="213.838" y="-18.3" font-family="Times,serif" font-size="14.00">aeDept</text>
</g>
<!-- aeGroup&#45;&gt;aeDept -->
<g id="edge5" class="edge"><title>aeGroup&#45;&gt;aeDept</title>
<path fill="none" stroke="black" d="M159.588,-585.38C130.798,-570.233 100.838,-546.437 100.838,-513 100.838,-513 100.838,-513 100.838,-116 100.838,-85.7538 125.273,-63.5273 151.417,-48.4024"/>
<polygon fill="black" stroke="black" points="153.216,-51.4079 160.316,-43.544 149.862,-45.2638 153.216,-51.4079"/>
<text text-anchor="middle" x="120.838" y="-318.3" font-family="Times,serif" font-size="14.00">aeDept</text>
</g>
<!-- aeService -->
<g id="node9" class="node"><title>aeService</title>
<polygon fill="none" stroke="black" points="337.838,-490.5 337.838,-533.5 459.838,-533.5 459.838,-490.5 337.838,-490.5"/>
<text text-anchor="middle" x="398.838" y="-508.3" font-family="Times,serif" font-size="14.00">aeService</text>
</g>
<!-- aeGroup&#45;&gt;aeService -->
<g id="edge6" class="edge"><title>aeGroup&#45;&gt;aeService</title>
<path fill="none" stroke="black" d="M273.02,-589.235C290.858,-583.297 310.054,-575.85 326.838,-567 340.988,-559.539 355.335,-549.41 367.458,-539.939"/>
<polygon fill="black" stroke="black" points="369.847,-542.511 375.467,-533.529 365.473,-537.046 369.847,-542.511"/>
<text text-anchor="middle" x="373.838" y="-555.8" font-family="Times,serif" font-size="14.00">member</text>
</g>
<!-- aeUser -->
<g id="node10" class="node"><title>aeUser</title>
<polygon fill="none" stroke="black" points="158.838,-300.5 158.838,-343.5 280.838,-343.5 280.838,-300.5 158.838,-300.5"/>
<text text-anchor="middle" x="219.838" y="-318.3" font-family="Times,serif" font-size="14.00">aeUser</text>
</g>
<!-- aeGroup&#45;&gt;aeUser -->
<g id="edge7" class="edge"><title>aeGroup&#45;&gt;aeUser</title>
<path fill="none" stroke="black" d="M191.849,-585.104C167.772,-557.413 131.52,-506.293 139.838,-457 147.275,-412.926 147.37,-398.732 172.838,-362 175.564,-358.068 178.79,-354.31 182.254,-350.788"/>
<polygon fill="black" stroke="black" points="184.7,-353.293 189.615,-343.907 179.92,-348.179 184.7,-353.293"/>
<text text-anchor="middle" x="163.838" y="-460.8" font-family="Times,serif" font-size="14.00">member</text>
</g>
<!-- aeSudoRule&#45;&gt;aeGroup -->
<g id="edge19" class="edge"><title>aeSudoRule&#45;&gt;aeGroup</title>
<path fill="none" stroke="black" d="M216.089,-725.765C215.261,-702.817 213.917,-665.584 212.962,-639.131"/>
<polygon fill="black" stroke="black" points="216.45,-638.744 212.592,-628.877 209.455,-638.996 216.45,-638.744"/>
<text text-anchor="middle" x="241.338" y="-665.8" font-family="Times,serif" font-size="14.00">sudoUser</text>
</g>
<!-- aeHost -->
<g id="node4" class="node"><title>aeHost</title>
<polygon fill="none" stroke="black" points="644.838,-395.5 644.838,-438.5 766.838,-438.5 766.838,-395.5 644.838,-395.5"/>
<text text-anchor="middle" x="705.838" y="-413.3" font-family="Times,serif" font-size="14.00">aeHost</text>
</g>
<!-- aeHost&#45;&gt;aeSrvGroup -->
<g id="edge8" class="edge"><title>aeHost&#45;&gt;aeSrvGroup</title>
<path fill="none" stroke="black" d="M766.864,-424.213C819.41,-433.337 886.838,-455.799 886.838,-511 886.838,-748.5 886.838,-748.5 886.838,-748.5 886.838,-823.656 642.276,-847.046 517.397,-854.091"/>
<polygon fill="black" stroke="black" points="516.953,-850.61 507.157,-854.647 517.332,-857.599 516.953,-850.61"/>
<text text-anchor="middle" x="920.838" y="-610.8" font-family="Times,serif" font-size="14.00">(child of)</text>
<text text-anchor="middle" x="920.838" y="-595.8" font-family="Times,serif" font-size="14.00">aeSrvGroup</text>
</g>
<!-- aeNwDevice -->
<g id="node5" class="node"><title>aeNwDevice</title>
<polygon fill="none" stroke="black" points="644.838,-490.5 644.838,-533.5 766.838,-533.5 766.838,-490.5 644.838,-490.5"/>
<text text-anchor="middle" x="705.838" y="-508.3" font-family="Times,serif" font-size="14.00">aeNwDevice</text>
</g>
<!-- aeNwDevice&#45;&gt;aeHost -->
<g id="edge9" class="edge"><title>aeNwDevice&#45;&gt;aeHost</title>
<path fill="none" stroke="black" d="M705.838,-490.36C705.838,-478.2 705.838,-462.579 705.838,-448.965"/>
<polygon fill="black" stroke="black" points="709.338,-448.582 705.838,-438.582 702.338,-448.582 709.338,-448.582"/>
<text text-anchor="middle" x="733.338" y="-460.8" font-family="Times,serif" font-size="14.00">(child of)</text>
</g>
<!-- aeNwDevice&#45;&gt;aeNwDevice -->
<g id="edge10" class="edge"><title>aeNwDevice&#45;&gt;aeNwDevice</title>
<path fill="none" stroke="black" d="M767.117,-520.052C777.585,-518.951 784.838,-516.268 784.838,-512 784.838,-509.266 781.861,-507.182 776.97,-505.748"/>
<polygon fill="black" stroke="black" points="777.583,-502.302 767.117,-503.948 776.325,-509.188 777.583,-502.302"/>
<text text-anchor="middle" x="821.838" y="-508.3" font-family="Times,serif" font-size="14.00">aeNwDevice</text>
</g>
<!-- aePerson -->
<g id="node6" class="node"><title>aePerson</title>
<polygon fill="none" stroke="black" points="152.838,-95.5 152.838,-138.5 274.838,-138.5 274.838,-95.5 152.838,-95.5"/>
<text text-anchor="middle" x="213.838" y="-113.3" font-family="Times,serif" font-size="14.00">aePerson</text>
</g>
<!-- aePerson&#45;&gt;aeDept -->
<g id="edge14" class="edge"><title>aePerson&#45;&gt;aeDept</title>
<path fill="none" stroke="black" d="M213.838,-95.3603C213.838,-83.1995 213.838,-67.5788 213.838,-53.9651"/>
<polygon fill="black" stroke="black" points="217.338,-53.582 213.838,-43.582 210.338,-53.5821 217.338,-53.582"/>
<text text-anchor="middle" x="233.838" y="-65.8" font-family="Times,serif" font-size="14.00">aeDept</text>
</g>
<!-- aeZone -->
<g id="node7" class="node"><title>aeZone</title>
<polygon fill="none" stroke="black" points="295.838,-726 295.838,-769 417.838,-769 417.838,-726 295.838,-726"/>
<text text-anchor="middle" x="356.838" y="-743.8" font-family="Times,serif" font-size="14.00">aeZone</text>
</g>
<!-- aeZone&#45;&gt;aeGroup -->
<g id="edge25" class="edge"><title>aeZone&#45;&gt;aeGroup</title>
<path fill="none" stroke="black" d="M339.644,-725.814C316.195,-697.651 276.643,-650.333 272.838,-647 267.755,-642.549 262.118,-638.248 256.383,-634.229"/>
<polygon fill="black" stroke="black" points="258.213,-631.242 247.963,-628.561 254.303,-637.049 258.213,-631.242"/>
<text text-anchor="middle" x="364.838" y="-680.8" font-family="Times,serif" font-size="14.00">aeZoneAdmins</text>
<text text-anchor="middle" x="364.838" y="-665.8" font-family="Times,serif" font-size="14.00">aeZoneAuditors</text>
<text text-anchor="middle" x="364.838" y="-650.8" font-family="Times,serif" font-size="14.00">aePasswordAdmins</text>
</g>
<!-- aeZone&#45;&gt;aeDept -->
<g id="edge24" class="edge"><title>aeZone&#45;&gt;aeDept</title>
<path fill="none" stroke="black" d="M418.061,-738.602C447.773,-731.463 481.206,-717.873 500.838,-692 550.602,-626.415 533.838,-405.327 533.838,-323 533.838,-323 533.838,-323 533.838,-116 533.838,-64.5756 379.526,-39.725 285.218,-29.3393"/>
<polygon fill="black" stroke="black" points="285.475,-25.8468 275.159,-28.2611 284.729,-32.807 285.475,-25.8468"/>
<text text-anchor="middle" x="554.838" y="-365.8" font-family="Times,serif" font-size="14.00">aeDept</text>
</g>
<!-- aeService&#45;&gt;aeSrvGroup -->
<g id="edge18" class="edge"><title>aeService&#45;&gt;aeSrvGroup</title>
<path fill="none" stroke="black" d="M403.254,-533.803C408.708,-560.076 417.98,-606.719 423.838,-647 433.063,-710.437 439.951,-785.198 443.39,-826.21"/>
<polygon fill="black" stroke="black" points="439.917,-826.686 444.228,-836.364 446.893,-826.11 439.917,-826.686"/>
<text text-anchor="middle" x="462.838" y="-673.3" font-family="Times,serif" font-size="14.00">(child of)</text>
<text text-anchor="middle" x="462.838" y="-658.3" font-family="Times,serif" font-size="14.00">aeSrvGroup</text>
</g>
<!-- aeService&#45;&gt;aeGroup -->
<g id="edge15" class="edge"><title>aeService&#45;&gt;aeGroup</title>
<path fill="none" stroke="black" stroke-dasharray="1,5" d="M337.584,-522.322C312.165,-528.126 283.214,-537.382 259.838,-552 249.309,-558.584 239.745,-568.152 231.975,-577.41"/>
<polygon fill="black" stroke="black" points="229.117,-575.381 225.628,-585.385 234.594,-579.74 229.117,-575.381"/>
<text text-anchor="middle" x="291.338" y="-555.8" font-family="Times,serif" font-size="14.00">memberOf</text>
</g>
<!-- aeService&#45;&gt;aeHost -->
<g id="edge16" class="edge"><title>aeService&#45;&gt;aeHost</title>
<path fill="none" stroke="black" d="M459.858,-492.515C510.314,-477.23 582.022,-455.508 635.005,-439.458"/>
<polygon fill="black" stroke="black" points="636.115,-442.778 644.671,-436.529 634.085,-436.079 636.115,-442.778"/>
<text text-anchor="middle" x="589.838" y="-460.8" font-family="Times,serif" font-size="14.00">aeHost</text>
</g>
<!-- aeService&#45;&gt;aeMailGroup -->
<g id="edge17" class="edge"><title>aeService&#45;&gt;aeMailGroup</title>
<path fill="none" stroke="black" stroke-dasharray="1,5" d="M381.812,-490.292C378.134,-484.683 374.772,-478.386 372.838,-472 370.609,-464.639 370.214,-456.468 370.707,-448.756"/>
<polygon fill="black" stroke="black" points="374.205,-448.972 371.842,-438.644 367.248,-448.191 374.205,-448.972"/>
<text text-anchor="middle" x="404.338" y="-460.8" font-family="Times,serif" font-size="14.00">memberOf</text>
</g>
<!-- aeUser&#45;&gt;aeGroup -->
<g id="edge21" class="edge"><title>aeUser&#45;&gt;aeGroup</title>
<path fill="none" stroke="black" stroke-dasharray="1,5" d="M213.461,-343.863C211.966,-349.678 210.59,-356.036 209.838,-362 209.003,-368.614 209.809,-370.333 209.838,-377 210.148,-448.072 211,-531.548 211.486,-575.45"/>
<polygon fill="black" stroke="black" points="207.987,-575.513 211.599,-585.473 214.986,-575.434 207.987,-575.513"/>
<text text-anchor="middle" x="241.338" y="-460.8" font-family="Times,serif" font-size="14.00">memberOf</text>
</g>
<!-- aeUser&#45;&gt;aePerson -->
<g id="edge23" class="edge"><title>aeUser&#45;&gt;aePerson</title>
<path fill="none" stroke="black" d="M214.956,-300.404C211.063,-282.867 205.93,-256.941 203.838,-234 202.062,-214.525 202.49,-209.509 203.838,-190 204.776,-176.426 206.698,-161.516 208.608,-148.801"/>
<polygon fill="black" stroke="black" points="212.098,-149.137 210.188,-138.716 205.182,-148.053 212.098,-149.137"/>
<text text-anchor="middle" x="229.838" y="-208.3" font-family="Times,serif" font-size="14.00">aePerson</text>
</g>
<!-- aeAuthcToken -->
<g id="node11" class="node"><title>aeAuthcToken</title>
<polygon fill="none" stroke="black" points="264.838,-190.5 264.838,-233.5 386.838,-233.5 386.838,-190.5 264.838,-190.5"/>
<text text-anchor="middle" x="325.838" y="-208.3" font-family="Times,serif" font-size="14.00">aeAuthcToken</text>
</g>
<!-- aeUser&#45;&gt;aeAuthcToken -->
<g id="edge20" class="edge"><title>aeUser&#45;&gt;aeAuthcToken</title>
<path fill="none" stroke="black" d="M240.025,-300.432C256.424,-283.724 279.732,-259.976 297.919,-241.446"/>
<polygon fill="black" stroke="black" points="300.858,-243.448 305.365,-233.859 295.862,-238.545 300.858,-243.448"/>
<text text-anchor="middle" x="334.838" y="-270.8" font-family="Times,serif" font-size="14.00">oathHOTPToken</text>
<text text-anchor="middle" x="334.838" y="-255.8" font-family="Times,serif" font-size="14.00">oathTOTPToken</text>
</g>
<!-- aeUser&#45;&gt;aeMailGroup -->
<g id="edge22" class="edge"><title>aeUser&#45;&gt;aeMailGroup</title>
<path fill="none" stroke="black" stroke-dasharray="1,5" d="M252.254,-343.625C268.525,-353.848 288.606,-366.271 306.838,-377 314.417,-381.46 322.521,-386.095 330.428,-390.547"/>
<polygon fill="black" stroke="black" points="328.799,-393.646 339.234,-395.477 332.218,-387.538 328.799,-393.646"/>
<text text-anchor="middle" x="338.338" y="-365.8" font-family="Times,serif" font-size="14.00">memberOf</text>
</g>
<!-- aeAuthcToken&#45;&gt;aePerson -->
<g id="edge26" class="edge"><title>aeAuthcToken&#45;&gt;aePerson</title>
<path fill="none" stroke="black" d="M300.981,-190.36C284.886,-176.995 263.758,-159.452 246.337,-144.986"/>
<polygon fill="black" stroke="black" points="248.554,-142.278 238.625,-138.582 244.082,-147.663 248.554,-142.278"/>
<text text-anchor="middle" x="301.838" y="-160.8" font-family="Times,serif" font-size="14.00">aePerson</text>
</g>
<!-- aeContact -->
<g id="node12" class="node"><title>aeContact</title>
<polygon fill="none" stroke="black" points="349.838,-300.5 349.838,-343.5 471.838,-343.5 471.838,-300.5 349.838,-300.5"/>
<text text-anchor="middle" x="410.838" y="-318.3" font-family="Times,serif" font-size="14.00">aeContact</text>
</g>
<!-- aeContact&#45;&gt;aeMailGroup -->
<g id="edge27" class="edge"><title>aeContact&#45;&gt;aeMailGroup</title>
<path fill="none" stroke="black" stroke-dasharray="1,5" d="M423.334,-343.623C427.93,-353.96 430.909,-366.483 425.838,-377 423.872,-381.077 421.251,-384.859 418.238,-388.334"/>
<polygon fill="black" stroke="black" points="415.719,-385.903 411.121,-395.448 420.668,-390.854 415.719,-385.903"/>
<text text-anchor="middle" x="459.338" y="-365.8" font-family="Times,serif" font-size="14.00">memberOf</text>
</g>
<!-- aeMailGroup&#45;&gt;aeService -->
<g id="edge12" class="edge"><title>aeMailGroup&#45;&gt;aeService</title>
<path fill="none" stroke="black" d="M422.921,-438.536C429.705,-443.586 435.769,-449.696 439.838,-457 444.736,-465.792 441.788,-474.735 435.69,-482.747"/>
<polygon fill="black" stroke="black" points="432.859,-480.658 428.715,-490.409 438.035,-485.37 432.859,-480.658"/>
<text text-anchor="middle" x="465.838" y="-460.8" font-family="Times,serif" font-size="14.00">member</text>
</g>
<!-- aeMailGroup&#45;&gt;aeUser -->
<g id="edge13" class="edge"><title>aeMailGroup&#45;&gt;aeUser</title>
<path fill="none" stroke="black" d="M315.605,-408.388C277.227,-402.228 232.832,-392.073 220.838,-377 215.706,-370.552 213.98,-362.166 213.927,-353.933"/>
<polygon fill="black" stroke="black" points="217.433,-353.96 214.622,-343.744 210.449,-353.483 217.433,-353.96"/>
<text text-anchor="middle" x="244.838" y="-365.8" font-family="Times,serif" font-size="14.00">member</text>
</g>
<!-- aeMailGroup&#45;&gt;aeContact -->
<g id="edge11" class="edge"><title>aeMailGroup&#45;&gt;aeContact</title>
<path fill="none" stroke="black" d="M374.025,-395.387C373.402,-385.052 373.87,-372.529 377.838,-362 379.167,-358.473 380.965,-355.042 383.038,-351.772"/>
<polygon fill="black" stroke="black" points="385.977,-353.682 389.04,-343.54 380.321,-349.558 385.977,-353.682"/>
<text text-anchor="middle" x="401.838" y="-365.8" font-family="Times,serif" font-size="14.00">member</text>
</g>
</g>
</svg>
