<?xml version="1.0" encoding="UTF-8" standalone="no"?>
<!DOCTYPE svg PUBLIC "-//W3C//DTD SVG 1.1//EN"
 "http://www.w3.org/Graphics/SVG/1.1/DTD/svg11.dtd">
<!-- Generated by graphviz version 2.38.0 (20140413.2041)
 -->
<!-- Title: G Pages: 1 -->
<svg width="891pt" height="888pt"
 viewBox="0.00 0.00 891.00 888.00" xmlns="http://www.w3.org/2000/svg" xmlns:xlink="http://www.w3.org/1999/xlink">
<g id="graph0" class="graph" transform="scale(1 1) rotate(0) translate(4 884)">
<title>G</title>
<polygon fill="white" stroke="none" points="-4,4 -4,-884 887,-884 887,4 -4,4"/>
<!-- aeSrvGroup -->
<g id="node1" class="node"><title>aeSrvGroup</title>
<polygon fill="none" stroke="black" points="266,-836.5 266,-879.5 388,-879.5 388,-836.5 266,-836.5"/>
<text text-anchor="middle" x="327" y="-854.3" font-family="Times,serif" font-size="14.00">aeSrvGroup</text>
</g>
<!-- aeSrvGroup&#45;&gt;aeSrvGroup -->
<g id="edge3" class="edge"><title>aeSrvGroup&#45;&gt;aeSrvGroup</title>
<path fill="none" stroke="black" d="M388.279,-866.052C398.747,-864.951 406,-862.268 406,-858 406,-855.266 403.023,-853.182 398.132,-851.748"/>
<polygon fill="black" stroke="black" points="398.745,-848.302 388.279,-849.948 397.487,-855.188 398.745,-848.302"/>
<text text-anchor="middle" x="440" y="-854.3" font-family="Times,serif" font-size="14.00">aeProxyFor</text>
</g>
<!-- aeGroup -->
<g id="node2" class="node"><title>aeGroup</title>
<polygon fill="none" stroke="black" points="117,-585.5 117,-628.5 239,-628.5 239,-585.5 117,-585.5"/>
<text text-anchor="middle" x="178" y="-603.3" font-family="Times,serif" font-size="14.00">aeGroup</text>
</g>
<!-- aeSrvGroup&#45;&gt;aeGroup -->
<g id="edge1" class="edge"><title>aeSrvGroup&#45;&gt;aeGroup</title>
<path fill="none" stroke="black" d="M265.706,-851.276C186.028,-842.42 53.5422,-822.385 24,-785 3.33315,-758.847 8.22729,-739.366 24,-710 43.0023,-674.622 80.2637,-649.448 113.374,-632.961"/>
<polygon fill="black" stroke="black" points="115.083,-636.023 122.584,-628.54 112.054,-629.712 115.083,-636.023"/>
<text text-anchor="middle" x="90" y="-773.8" font-family="Times,serif" font-size="14.00">aeSetupGroups</text>
<text text-anchor="middle" x="90" y="-758.8" font-family="Times,serif" font-size="14.00">aeLogStoreGroups</text>
<text text-anchor="middle" x="90" y="-743.8" font-family="Times,serif" font-size="14.00">aeLoginGroups</text>
<text text-anchor="middle" x="90" y="-728.8" font-family="Times,serif" font-size="14.00">aeVisibleGroups</text>
<text text-anchor="middle" x="90" y="-713.8" font-family="Times,serif" font-size="14.00">aeDisplayNameGroups</text>
</g>
<!-- aeSudoRule -->
<g id="node3" class="node"><title>aeSudoRule</title>
<polygon fill="none" stroke="black" points="165,-726 165,-769 287,-769 287,-726 165,-726"/>
<text text-anchor="middle" x="226" y="-743.8" font-family="Times,serif" font-size="14.00">aeSudoRule</text>
</g>
<!-- aeSrvGroup&#45;&gt;aeSudoRule -->
<g id="edge4" class="edge"><title>aeSrvGroup&#45;&gt;aeSudoRule</title>
<path fill="none" stroke="black" d="M265.972,-850.113C246.122,-844.644 226.106,-834.985 214,-818 205.958,-806.717 207.37,-791.83 211.45,-778.729"/>
<polygon fill="black" stroke="black" points="214.806,-779.742 214.977,-769.148 208.237,-777.323 214.806,-779.742"/>
<text text-anchor="middle" x="263.5" y="-806.8" font-family="Times,serif" font-size="14.00">aeVisibleSudoers</text>
</g>
<!-- aeMailGroup -->
<g id="node14" class="node"><title>aeMailGroup</title>
<polygon fill="none" stroke="black" points="220,-395.5 220,-438.5 342,-438.5 342,-395.5 220,-395.5"/>
<text text-anchor="middle" x="281" y="-413.3" font-family="Times,serif" font-size="14.00">aeMailGroup</text>
</g>
<!-- aeSrvGroup&#45;&gt;aeMailGroup -->
<g id="edge2" class="edge"><title>aeSrvGroup&#45;&gt;aeMailGroup</title>
<path fill="none" stroke="black" d="M356.029,-836.446C379.964,-816.868 410,-785.023 410,-748.5 410,-748.5 410,-748.5 410,-558.5 410,-526.906 407.44,-513.095 429,-490 445.403,-472.429 466.117,-491.622 480,-472 483.85,-466.558 484.237,-462.147 480,-457 463.857,-437.386 402.679,-427.493 352.369,-422.593"/>
<polygon fill="black" stroke="black" points="352.423,-419.083 342.144,-421.65 351.78,-426.054 352.423,-419.083"/>
<text text-anchor="middle" x="476" y="-610.8" font-family="Times,serif" font-size="14.00">aeVisibleGroups</text>
<text text-anchor="middle" x="476" y="-595.8" font-family="Times,serif" font-size="14.00">aeDisplayNameGroups</text>
</g>
<!-- aeDept -->
<g id="node8" class="node"><title>aeDept</title>
<polygon fill="none" stroke="black" points="54,-0.5 54,-43.5 176,-43.5 176,-0.5 54,-0.5"/>
<text text-anchor="middle" x="115" y="-18.3" font-family="Times,serif" font-size="14.00">aeDept</text>
</g>
<!-- aeGroup&#45;&gt;aeDept -->
<g id="edge5" class="edge"><title>aeGroup&#45;&gt;aeDept</title>
<path fill="none" stroke="black" d="M116.742,-599.231C65.2534,-589.736 0,-567.043 0,-513 0,-513 0,-513 0,-116 0,-85.6642 24.4932,-63.521 50.8722,-48.4695"/>
<polygon fill="black" stroke="black" points="52.7096,-51.4555 59.8578,-43.6354 49.3931,-45.291 52.7096,-51.4555"/>
<text text-anchor="middle" x="20" y="-318.3" font-family="Times,serif" font-size="14.00">aeDept</text>
</g>
<!-- aeLocation -->
<g id="node9" class="node"><title>aeLocation</title>
<polygon fill="none" stroke="black" points="466,-300.5 466,-343.5 588,-343.5 588,-300.5 466,-300.5"/>
<text text-anchor="middle" x="527" y="-318.3" font-family="Times,serif" font-size="14.00">aeLocation</text>
</g>
<!-- aeGroup&#45;&gt;aeLocation -->
<g id="edge6" class="edge"><title>aeGroup&#45;&gt;aeLocation</title>
<path fill="none" stroke="black" d="M239.293,-595.431C260.883,-589.59 284.386,-580.636 303,-567 345.748,-535.683 318.735,-500.499 349,-457 382.067,-409.475 437.317,-371.715 477.506,-348.549"/>
<polygon fill="black" stroke="black" points="479.37,-351.515 486.35,-343.545 475.922,-345.423 479.37,-351.515"/>
<text text-anchor="middle" x="381" y="-460.8" font-family="Times,serif" font-size="14.00">aeLocation</text>
</g>
<!-- aeService -->
<g id="node10" class="node"><title>aeService</title>
<polygon fill="none" stroke="black" points="195,-490.5 195,-533.5 317,-533.5 317,-490.5 195,-490.5"/>
<text text-anchor="middle" x="256" y="-508.3" font-family="Times,serif" font-size="14.00">aeService</text>
</g>
<!-- aeGroup&#45;&gt;aeService -->
<g id="edge7" class="edge"><title>aeGroup&#45;&gt;aeService</title>
<path fill="none" stroke="black" d="M173.567,-585.33C172.401,-574.618 172.871,-561.77 179,-552 181.814,-547.513 185.319,-543.522 189.271,-539.975"/>
<polygon fill="black" stroke="black" points="191.61,-542.59 197.355,-533.688 187.312,-537.064 191.61,-542.59"/>
<text text-anchor="middle" x="203" y="-555.8" font-family="Times,serif" font-size="14.00">member</text>
</g>
<!-- aeUser -->
<g id="node11" class="node"><title>aeUser</title>
<polygon fill="none" stroke="black" points="63,-300.5 63,-343.5 185,-343.5 185,-300.5 63,-300.5"/>
<text text-anchor="middle" x="124" y="-318.3" font-family="Times,serif" font-size="14.00">aeUser</text>
</g>
<!-- aeGroup&#45;&gt;aeUser -->
<g id="edge8" class="edge"><title>aeGroup&#45;&gt;aeUser</title>
<path fill="none" stroke="black" d="M121.976,-585.361C112.33,-580.277 102.887,-574.183 95,-567 58.7635,-533.999 51.8992,-519.284 39,-472 26.4807,-426.108 62.6735,-379.479 91.666,-350.898"/>
<polygon fill="black" stroke="black" points="94.4092,-353.118 99.2261,-343.681 89.5758,-348.054 94.4092,-353.118"/>
<text text-anchor="middle" x="63" y="-460.8" font-family="Times,serif" font-size="14.00">member</text>
</g>
<!-- aeSudoRule&#45;&gt;aeGroup -->
<g id="edge21" class="edge"><title>aeSudoRule&#45;&gt;aeGroup</title>
<path fill="none" stroke="black" d="M218.814,-725.765C210.79,-702.613 197.727,-664.921 188.546,-638.428"/>
<polygon fill="black" stroke="black" points="191.817,-637.179 185.235,-628.877 185.203,-639.471 191.817,-637.179"/>
<text text-anchor="middle" x="233.5" y="-665.8" font-family="Times,serif" font-size="14.00">sudoUser</text>
</g>
<!-- aeHost -->
<g id="node4" class="node"><title>aeHost</title>
<polygon fill="none" stroke="black" points="466,-395.5 466,-438.5 588,-438.5 588,-395.5 466,-395.5"/>
<text text-anchor="middle" x="527" y="-413.3" font-family="Times,serif" font-size="14.00">aeHost</text>
</g>
<!-- aeHost&#45;&gt;aeSrvGroup -->
<g id="edge9" class="edge"><title>aeHost&#45;&gt;aeSrvGroup</title>
<path fill="none" stroke="black" d="M588.243,-435.033C615.54,-446.014 645.076,-463.366 661,-490 671.035,-506.784 668.153,-515.8 661,-534 597.965,-694.393 532.603,-711.647 397,-818 391.13,-822.604 384.648,-826.99 378.067,-831.048"/>
<polygon fill="black" stroke="black" points="375.903,-828.262 369.081,-836.368 379.469,-834.286 375.903,-828.262"/>
<text text-anchor="middle" x="672" y="-610.8" font-family="Times,serif" font-size="14.00">(child of)</text>
<text text-anchor="middle" x="672" y="-595.8" font-family="Times,serif" font-size="14.00">aeSrvGroup</text>
</g>
<!-- aeHost&#45;&gt;aeLocation -->
<g id="edge10" class="edge"><title>aeHost&#45;&gt;aeLocation</title>
<path fill="none" stroke="black" d="M527,-395.36C527,-383.2 527,-367.579 527,-353.965"/>
<polygon fill="black" stroke="black" points="530.5,-353.582 527,-343.582 523.5,-353.582 530.5,-353.582"/>
<text text-anchor="middle" x="559" y="-365.8" font-family="Times,serif" font-size="14.00">aeLocation</text>
</g>
<!-- aeNwDevice -->
<g id="node5" class="node"><title>aeNwDevice</title>
<polygon fill="none" stroke="black" points="438,-490.5 438,-533.5 560,-533.5 560,-490.5 438,-490.5"/>
<text text-anchor="middle" x="499" y="-508.3" font-family="Times,serif" font-size="14.00">aeNwDevice</text>
</g>
<!-- aeNwDevice&#45;&gt;aeHost -->
<g id="edge11" class="edge"><title>aeNwDevice&#45;&gt;aeHost</title>
<path fill="none" stroke="black" d="M505.214,-490.36C508.948,-477.959 513.765,-461.959 517.92,-448.159"/>
<polygon fill="black" stroke="black" points="521.272,-449.166 520.803,-438.582 514.569,-447.148 521.272,-449.166"/>
<text text-anchor="middle" x="541.5" y="-460.8" font-family="Times,serif" font-size="14.00">(child of)</text>
</g>
<!-- aeNwDevice&#45;&gt;aeNwDevice -->
<g id="edge12" class="edge"><title>aeNwDevice&#45;&gt;aeNwDevice</title>
<path fill="none" stroke="black" d="M560.279,-520.052C570.747,-518.951 578,-516.268 578,-512 578,-509.266 575.023,-507.182 570.132,-505.748"/>
<polygon fill="black" stroke="black" points="570.745,-502.302 560.279,-503.948 569.487,-509.188 570.745,-502.302"/>
<text text-anchor="middle" x="615" y="-508.3" font-family="Times,serif" font-size="14.00">aeNwDevice</text>
</g>
<!-- aePerson -->
<g id="node6" class="node"><title>aePerson</title>
<polygon fill="none" stroke="black" points="54,-95.5 54,-138.5 176,-138.5 176,-95.5 54,-95.5"/>
<text text-anchor="middle" x="115" y="-113.3" font-family="Times,serif" font-size="14.00">aePerson</text>
</g>
<!-- aePerson&#45;&gt;aeDept -->
<g id="edge16" class="edge"><title>aePerson&#45;&gt;aeDept</title>
<path fill="none" stroke="black" d="M115,-95.3603C115,-83.1995 115,-67.5788 115,-53.9651"/>
<polygon fill="black" stroke="black" points="118.5,-53.582 115,-43.582 111.5,-53.5821 118.5,-53.582"/>
<text text-anchor="middle" x="135" y="-65.8" font-family="Times,serif" font-size="14.00">aeDept</text>
</g>
<!-- aeZone -->
<g id="node7" class="node"><title>aeZone</title>
<polygon fill="none" stroke="black" points="690,-726 690,-769 812,-769 812,-726 690,-726"/>
<text text-anchor="middle" x="751" y="-743.8" font-family="Times,serif" font-size="14.00">aeZone</text>
</g>
<!-- aeZone&#45;&gt;aeGroup -->
<g id="edge28" class="edge"><title>aeZone&#45;&gt;aeGroup</title>
<path fill="none" stroke="black" d="M689.805,-727.172C619.967,-705.59 502.07,-670.599 399,-647 349.321,-635.626 292.708,-625.692 249.22,-618.698"/>
<polygon fill="black" stroke="black" points="249.732,-615.235 239.306,-617.117 248.63,-622.148 249.732,-615.235"/>
<text text-anchor="middle" x="619" y="-680.8" font-family="Times,serif" font-size="14.00">aeZoneAdmins</text>
<text text-anchor="middle" x="619" y="-665.8" font-family="Times,serif" font-size="14.00">aeZoneAuditors</text>
<text text-anchor="middle" x="619" y="-650.8" font-family="Times,serif" font-size="14.00">aePasswordAdmins</text>
</g>
<!-- aeZone&#45;&gt;aeDept -->
<g id="edge26" class="edge"><title>aeZone&#45;&gt;aeDept</title>
<path fill="none" stroke="black" d="M776.139,-725.846C803.379,-700.988 843,-656.496 843,-608 843,-608 843,-608 843,-116 843,-50.2305 369.443,-30.0555 186.205,-24.7108"/>
<polygon fill="black" stroke="black" points="186.225,-21.21 176.129,-24.4234 186.025,-28.2072 186.225,-21.21"/>
<text text-anchor="middle" x="863" y="-365.8" font-family="Times,serif" font-size="14.00">aeDept</text>
</g>
<!-- aeZone&#45;&gt;aeLocation -->
<g id="edge27" class="edge"><title>aeZone&#45;&gt;aeLocation</title>
<path fill="none" stroke="black" d="M751,-725.851C751,-698.786 751,-649.839 751,-608 751,-608 751,-608 751,-416 751,-348.852 664.08,-329.273 598.529,-324.055"/>
<polygon fill="black" stroke="black" points="598.428,-320.539 588.209,-323.336 597.941,-327.523 598.428,-320.539"/>
<text text-anchor="middle" x="783" y="-508.3" font-family="Times,serif" font-size="14.00">aeLocation</text>
</g>
<!-- aeService&#45;&gt;aeSrvGroup -->
<g id="edge20" class="edge"><title>aeService&#45;&gt;aeSrvGroup</title>
<path fill="none" stroke="black" d="M288.012,-533.546C293.937,-538.837 299.388,-545.034 303,-552 327.426,-599.109 328.343,-758.485 327.569,-826.178"/>
<polygon fill="black" stroke="black" points="324.069,-826.177 327.434,-836.224 331.068,-826.272 324.069,-826.177"/>
<text text-anchor="middle" x="359" y="-673.3" font-family="Times,serif" font-size="14.00">(child of)</text>
<text text-anchor="middle" x="359" y="-658.3" font-family="Times,serif" font-size="14.00">aeSrvGroup</text>
</g>
<!-- aeService&#45;&gt;aeGroup -->
<g id="edge17" class="edge"><title>aeService&#45;&gt;aeGroup</title>
<path fill="none" stroke="black" stroke-dasharray="1,5" d="M247.321,-533.706C242.297,-544.303 235.321,-557.035 227,-567 223.645,-571.018 219.82,-574.904 215.819,-578.565"/>
<polygon fill="black" stroke="black" points="213.283,-576.129 207.986,-585.305 217.849,-581.435 213.283,-576.129"/>
<text text-anchor="middle" x="267.5" y="-555.8" font-family="Times,serif" font-size="14.00">memberOf</text>
</g>
<!-- aeService&#45;&gt;aeHost -->
<g id="edge18" class="edge"><title>aeService&#45;&gt;aeHost</title>
<path fill="none" stroke="black" d="M317.324,-499.447C347.764,-492.884 384.816,-483.639 417,-472 438.761,-464.13 461.889,-453.199 481.294,-443.229"/>
<polygon fill="black" stroke="black" points="482.962,-446.306 490.212,-438.58 479.727,-440.099 482.962,-446.306"/>
<text text-anchor="middle" x="471" y="-460.8" font-family="Times,serif" font-size="14.00">aeHost</text>
</g>
<!-- aeService&#45;&gt;aeMailGroup -->
<g id="edge19" class="edge"><title>aeService&#45;&gt;aeMailGroup</title>
<path fill="none" stroke="black" stroke-dasharray="1,5" d="M214.063,-490.362C201.157,-481.105 192.167,-469.465 200,-457 203.062,-452.127 206.923,-447.849 211.288,-444.095"/>
<polygon fill="black" stroke="black" points="213.695,-446.667 219.628,-437.889 209.516,-441.051 213.695,-446.667"/>
<text text-anchor="middle" x="231.5" y="-460.8" font-family="Times,serif" font-size="14.00">memberOf</text>
</g>
<!-- aeUser&#45;&gt;aeGroup -->
<g id="edge23" class="edge"><title>aeUser&#45;&gt;aeGroup</title>
<path fill="none" stroke="black" stroke-dasharray="1,5" d="M120.617,-343.745C119.355,-353.778 118.365,-366.003 119,-377 121.449,-419.434 120.326,-430.611 130,-472 138.528,-508.486 153.793,-548.761 164.823,-575.536"/>
<polygon fill="black" stroke="black" points="161.735,-577.223 168.82,-585.101 168.193,-574.524 161.735,-577.223"/>
<text text-anchor="middle" x="161.5" y="-460.8" font-family="Times,serif" font-size="14.00">memberOf</text>
</g>
<!-- aeUser&#45;&gt;aePerson -->
<g id="edge25" class="edge"><title>aeUser&#45;&gt;aePerson</title>
<path fill="none" stroke="black" d="M118.205,-300.463C113.584,-282.963 107.488,-257.056 105,-234 102.902,-214.557 103.652,-209.509 105,-190 105.938,-176.426 107.86,-161.516 109.77,-148.801"/>
<polygon fill="black" stroke="black" points="113.26,-149.137 111.35,-138.716 106.344,-148.053 113.26,-149.137"/>
<text text-anchor="middle" x="131" y="-208.3" font-family="Times,serif" font-size="14.00">aePerson</text>
</g>
<!-- aeAuthcToken -->
<g id="node12" class="node"><title>aeAuthcToken</title>
<polygon fill="none" stroke="black" points="166,-190.5 166,-233.5 288,-233.5 288,-190.5 166,-190.5"/>
<text text-anchor="middle" x="227" y="-208.3" font-family="Times,serif" font-size="14.00">aeAuthcToken</text>
</g>
<!-- aeUser&#45;&gt;aeAuthcToken -->
<g id="edge22" class="edge"><title>aeUser&#45;&gt;aeAuthcToken</title>
<path fill="none" stroke="black" d="M143.616,-300.432C159.55,-283.724 182.199,-259.976 199.871,-241.446"/>
<polygon fill="black" stroke="black" points="202.737,-243.512 207.106,-233.859 197.672,-238.681 202.737,-243.512"/>
<text text-anchor="middle" x="237" y="-270.8" font-family="Times,serif" font-size="14.00">oathHOTPToken</text>
<text text-anchor="middle" x="237" y="-255.8" font-family="Times,serif" font-size="14.00">oathTOTPToken</text>
</g>
<!-- aeUser&#45;&gt;aeMailGroup -->
<g id="edge24" class="edge"><title>aeUser&#45;&gt;aeMailGroup</title>
<path fill="none" stroke="black" stroke-dasharray="1,5" d="M156.416,-343.625C172.687,-353.848 192.768,-366.271 211,-377 218.579,-381.46 226.683,-386.095 234.59,-390.547"/>
<polygon fill="black" stroke="black" points="232.961,-393.646 243.396,-395.477 236.38,-387.538 232.961,-393.646"/>
<text text-anchor="middle" x="242.5" y="-365.8" font-family="Times,serif" font-size="14.00">memberOf</text>
</g>
<!-- aeAuthcToken&#45;&gt;aePerson -->
<g id="edge29" class="edge"><title>aeAuthcToken&#45;&gt;aePerson</title>
<path fill="none" stroke="black" d="M202.144,-190.36C186.048,-176.995 164.92,-159.452 147.499,-144.986"/>
<polygon fill="black" stroke="black" points="149.716,-142.278 139.787,-138.582 145.245,-147.663 149.716,-142.278"/>
<text text-anchor="middle" x="204" y="-160.8" font-family="Times,serif" font-size="14.00">aePerson</text>
</g>
<!-- aeContact -->
<g id="node13" class="node"><title>aeContact</title>
<polygon fill="none" stroke="black" points="268,-300.5 268,-343.5 390,-343.5 390,-300.5 268,-300.5"/>
<text text-anchor="middle" x="329" y="-318.3" font-family="Times,serif" font-size="14.00">aeContact</text>
</g>
<!-- aeContact&#45;&gt;aeMailGroup -->
<g id="edge30" class="edge"><title>aeContact&#45;&gt;aeMailGroup</title>
<path fill="none" stroke="black" stroke-dasharray="1,5" d="M297.443,-343.541C291.658,-348.833 286.386,-355.031 283,-362 279.551,-369.099 278.152,-377.365 277.83,-385.263"/>
<polygon fill="black" stroke="black" points="274.33,-385.346 277.943,-395.305 281.33,-385.266 274.33,-385.346"/>
<text text-anchor="middle" x="314.5" y="-365.8" font-family="Times,serif" font-size="14.00">memberOf</text>
</g>
<!-- aeMailGroup&#45;&gt;aeService -->
<g id="edge14" class="edge"><title>aeMailGroup&#45;&gt;aeService</title>
<path fill="none" stroke="black" d="M275.467,-438.582C272.169,-450.852 267.919,-466.66 264.233,-480.374"/>
<polygon fill="black" stroke="black" points="260.764,-479.794 261.548,-490.36 267.524,-481.612 260.764,-479.794"/>
<text text-anchor="middle" x="293" y="-460.8" font-family="Times,serif" font-size="14.00">member</text>
</g>
<!-- aeMailGroup&#45;&gt;aeUser -->
<g id="edge15" class="edge"><title>aeMailGroup&#45;&gt;aeUser</title>
<path fill="none" stroke="black" d="M219.712,-407.352C183.31,-400.898 141.973,-390.808 130,-377 124.464,-370.616 122.068,-362.088 121.292,-353.698"/>
<polygon fill="black" stroke="black" points="124.791,-353.597 121.047,-343.686 117.793,-353.769 124.791,-353.597"/>
<text text-anchor="middle" x="154" y="-365.8" font-family="Times,serif" font-size="14.00">member</text>
</g>
<!-- aeMailGroup&#45;&gt;aeContact -->
<g id="edge13" class="edge"><title>aeMailGroup&#45;&gt;aeContact</title>
<path fill="none" stroke="black" d="M332.412,-395.45C339.437,-390.456 345.701,-384.369 350,-377 354.372,-369.506 353.415,-360.933 350.222,-352.857"/>
<polygon fill="black" stroke="black" points="353.243,-351.073 345.634,-343.701 346.985,-354.209 353.243,-351.073"/>
<text text-anchor="middle" x="376" y="-365.8" font-family="Times,serif" font-size="14.00">member</text>
</g>
</g>
</svg>
