<?xml version="1.0" encoding="UTF-8" standalone="no"?>
<!DOCTYPE svg PUBLIC "-//W3C//DTD SVG 1.1//EN"
 "http://www.w3.org/Graphics/SVG/1.1/DTD/svg11.dtd">
<!-- Generated by graphviz version 2.38.0 (20140413.2041)
 -->
<!-- Title: G Pages: 1 -->
<svg width="963pt" height="888pt"
 viewBox="0.00 0.00 963.00 888.00" xmlns="http://www.w3.org/2000/svg" xmlns:xlink="http://www.w3.org/1999/xlink">
<g id="graph0" class="graph" transform="scale(1 1) rotate(0) translate(4 884)">
<title>G</title>
<polygon fill="white" stroke="none" points="-4,4 -4,-884 959,-884 959,4 -4,4"/>
<!-- aeSrvGroup -->
<g id="node1" class="node"><title>aeSrvGroup</title>
<polygon fill="none" stroke="black" points="275,-836.5 275,-879.5 397,-879.5 397,-836.5 275,-836.5"/>
<text text-anchor="middle" x="336" y="-854.3" font-family="Times,serif" font-size="14.00">aeSrvGroup</text>
</g>
<!-- aeSrvGroup&#45;&gt;aeSrvGroup -->
<g id="edge3" class="edge"><title>aeSrvGroup&#45;&gt;aeSrvGroup</title>
<path fill="none" stroke="black" d="M397.279,-866.052C407.747,-864.951 415,-862.268 415,-858 415,-855.266 412.023,-853.182 407.132,-851.748"/>
<polygon fill="black" stroke="black" points="407.745,-848.302 397.279,-849.948 406.487,-855.188 407.745,-848.302"/>
<text text-anchor="middle" x="449" y="-854.3" font-family="Times,serif" font-size="14.00">aeProxyFor</text>
</g>
<!-- aeGroup -->
<g id="node2" class="node"><title>aeGroup</title>
<polygon fill="none" stroke="black" points="93,-585.5 93,-628.5 215,-628.5 215,-585.5 93,-585.5"/>
<text text-anchor="middle" x="154" y="-603.3" font-family="Times,serif" font-size="14.00">aeGroup</text>
</g>
<!-- aeSrvGroup&#45;&gt;aeGroup -->
<g id="edge1" class="edge"><title>aeSrvGroup&#45;&gt;aeGroup</title>
<path fill="none" stroke="black" d="M274.798,-840.786C244.907,-829.802 210.956,-812.202 190,-785 151.807,-735.423 174.51,-708.32 162,-647 161.449,-644.3 160.876,-641.494 160.3,-638.682"/>
<polygon fill="black" stroke="black" points="163.679,-637.737 158.243,-628.643 156.822,-639.142 163.679,-637.737"/>
<text text-anchor="middle" x="256" y="-773.8" font-family="Times,serif" font-size="14.00">aeSetupGroups</text>
<text text-anchor="middle" x="256" y="-758.8" font-family="Times,serif" font-size="14.00">aeLogStoreGroups</text>
<text text-anchor="middle" x="256" y="-743.8" font-family="Times,serif" font-size="14.00">aeLoginGroups</text>
<text text-anchor="middle" x="256" y="-728.8" font-family="Times,serif" font-size="14.00">aeVisibleGroups</text>
<text text-anchor="middle" x="256" y="-713.8" font-family="Times,serif" font-size="14.00">aeDisplayNameGroups</text>
</g>
<!-- aeSudoRule -->
<g id="node3" class="node"><title>aeSudoRule</title>
<polygon fill="none" stroke="black" points="10,-726 10,-769 132,-769 132,-726 10,-726"/>
<text text-anchor="middle" x="71" y="-743.8" font-family="Times,serif" font-size="14.00">aeSudoRule</text>
</g>
<!-- aeSrvGroup&#45;&gt;aeSudoRule -->
<g id="edge4" class="edge"><title>aeSrvGroup&#45;&gt;aeSudoRule</title>
<path fill="none" stroke="black" d="M274.882,-857.19C202.948,-855.957 89.8598,-848.97 63,-818 53.8684,-807.471 54.5305,-792.417 58.0411,-779.01"/>
<polygon fill="black" stroke="black" points="61.4716,-779.772 61.1659,-769.181 54.8006,-777.651 61.4716,-779.772"/>
<text text-anchor="middle" x="112.5" y="-806.8" font-family="Times,serif" font-size="14.00">aeVisibleSudoers</text>
</g>
<!-- aeMailGroup -->
<g id="node14" class="node"><title>aeMailGroup</title>
<polygon fill="none" stroke="black" points="250,-395.5 250,-438.5 372,-438.5 372,-395.5 250,-395.5"/>
<text text-anchor="middle" x="311" y="-413.3" font-family="Times,serif" font-size="14.00">aeMailGroup</text>
</g>
<!-- aeSrvGroup&#45;&gt;aeMailGroup -->
<g id="edge2" class="edge"><title>aeSrvGroup&#45;&gt;aeMailGroup</title>
<path fill="none" stroke="black" d="M347.137,-836.366C363.036,-805.816 391.777,-746.303 405,-692 417.392,-641.112 453.34,-499.692 423,-457 413.079,-443.041 397.782,-434.035 381.649,-428.238"/>
<polygon fill="black" stroke="black" points="382.679,-424.893 372.088,-425.183 380.548,-431.561 382.679,-424.893"/>
<text text-anchor="middle" x="493" y="-610.8" font-family="Times,serif" font-size="14.00">aeVisibleGroups</text>
<text text-anchor="middle" x="493" y="-595.8" font-family="Times,serif" font-size="14.00">aeDisplayNameGroups</text>
</g>
<!-- aeDept -->
<g id="node8" class="node"><title>aeDept</title>
<polygon fill="none" stroke="black" points="313,-0.5 313,-43.5 435,-43.5 435,-0.5 313,-0.5"/>
<text text-anchor="middle" x="374" y="-18.3" font-family="Times,serif" font-size="14.00">aeDept</text>
</g>
<!-- aeGroup&#45;&gt;aeDept -->
<g id="edge5" class="edge"><title>aeGroup&#45;&gt;aeDept</title>
<path fill="none" stroke="black" d="M92.6926,-594.377C49.747,-582.273 0,-558.444 0,-513 0,-513 0,-513 0,-116 0,-54.3428 193.849,-33.2614 302.428,-26.2893"/>
<polygon fill="black" stroke="black" points="302.895,-29.7672 312.66,-25.6577 302.464,-22.7805 302.895,-29.7672"/>
<text text-anchor="middle" x="20" y="-318.3" font-family="Times,serif" font-size="14.00">aeDept</text>
</g>
<!-- aeLocation -->
<g id="node9" class="node"><title>aeLocation</title>
<polygon fill="none" stroke="black" points="461,-0.5 461,-43.5 583,-43.5 583,-0.5 461,-0.5"/>
<text text-anchor="middle" x="522" y="-18.3" font-family="Times,serif" font-size="14.00">aeLocation</text>
</g>
<!-- aeGroup&#45;&gt;aeLocation -->
<g id="edge6" class="edge"><title>aeGroup&#45;&gt;aeLocation</title>
<path fill="none" stroke="black" d="M140.066,-585.19C129.221,-566.961 116,-539.337 116,-513 116,-513 116,-513 116,-116 116,-41.3757 371.506,-61.705 444,-44 446.299,-43.4385 448.634,-42.8598 450.99,-42.2686"/>
<polygon fill="black" stroke="black" points="451.93,-45.6408 460.756,-39.7797 450.202,-38.8576 451.93,-45.6408"/>
<text text-anchor="middle" x="148" y="-318.3" font-family="Times,serif" font-size="14.00">aeLocation</text>
</g>
<!-- aeService -->
<g id="node10" class="node"><title>aeService</title>
<polygon fill="none" stroke="black" points="223,-490.5 223,-533.5 345,-533.5 345,-490.5 223,-490.5"/>
<text text-anchor="middle" x="284" y="-508.3" font-family="Times,serif" font-size="14.00">aeService</text>
</g>
<!-- aeGroup&#45;&gt;aeService -->
<g id="edge7" class="edge"><title>aeGroup&#45;&gt;aeService</title>
<path fill="none" stroke="black" d="M163.121,-585.302C168.896,-574.186 177.3,-560.965 188,-552 195.653,-545.588 204.5,-540.123 213.663,-535.496"/>
<polygon fill="black" stroke="black" points="215.345,-538.573 222.9,-531.145 212.362,-532.241 215.345,-538.573"/>
<text text-anchor="middle" x="212" y="-555.8" font-family="Times,serif" font-size="14.00">member</text>
</g>
<!-- aeUser -->
<g id="node11" class="node"><title>aeUser</title>
<polygon fill="none" stroke="black" points="198,-300.5 198,-343.5 320,-343.5 320,-300.5 198,-300.5"/>
<text text-anchor="middle" x="259" y="-318.3" font-family="Times,serif" font-size="14.00">aeUser</text>
</g>
<!-- aeGroup&#45;&gt;aeUser -->
<g id="edge8" class="edge"><title>aeGroup&#45;&gt;aeUser</title>
<path fill="none" stroke="black" d="M151.643,-585.408C147.604,-540.313 144.09,-431.327 194,-362 197.22,-357.528 201.125,-353.475 205.406,-349.824"/>
<polygon fill="black" stroke="black" points="207.625,-352.533 213.45,-343.683 203.378,-346.969 207.625,-352.533"/>
<text text-anchor="middle" x="180" y="-460.8" font-family="Times,serif" font-size="14.00">member</text>
</g>
<!-- aeSudoRule&#45;&gt;aeGroup -->
<g id="edge22" class="edge"><title>aeSudoRule&#45;&gt;aeGroup</title>
<path fill="none" stroke="black" d="M75.0749,-725.954C80.0163,-704.725 89.8869,-671.347 107,-647 109.824,-642.983 113.164,-639.142 116.742,-635.547"/>
<polygon fill="black" stroke="black" points="119.363,-637.89 124.329,-628.531 114.61,-632.75 119.363,-637.89"/>
<text text-anchor="middle" x="134.5" y="-665.8" font-family="Times,serif" font-size="14.00">sudoUser</text>
</g>
<!-- aeHost -->
<g id="node4" class="node"><title>aeHost</title>
<polygon fill="none" stroke="black" points="645,-395.5 645,-438.5 767,-438.5 767,-395.5 645,-395.5"/>
<text text-anchor="middle" x="706" y="-413.3" font-family="Times,serif" font-size="14.00">aeHost</text>
</g>
<!-- aeHost&#45;&gt;aeSrvGroup -->
<g id="edge9" class="edge"><title>aeHost&#45;&gt;aeSrvGroup</title>
<path fill="none" stroke="black" d="M767.026,-424.213C819.572,-433.337 887,-455.799 887,-511 887,-748.5 887,-748.5 887,-748.5 887,-845.14 556.582,-857.171 407.486,-857.681"/>
<polygon fill="black" stroke="black" points="407.066,-854.182 397.072,-857.699 407.078,-861.182 407.066,-854.182"/>
<text text-anchor="middle" x="921" y="-610.8" font-family="Times,serif" font-size="14.00">(child of)</text>
<text text-anchor="middle" x="921" y="-595.8" font-family="Times,serif" font-size="14.00">aeSrvGroup</text>
</g>
<!-- aeHost&#45;&gt;aeLocation -->
<g id="edge10" class="edge"><title>aeHost&#45;&gt;aeLocation</title>
<path fill="none" stroke="black" d="M699.959,-395.145C695.072,-376.427 689,-348.112 689,-323 689,-323 689,-323 689,-116 689,-69.3152 638.57,-45.8554 593.135,-34.193"/>
<polygon fill="black" stroke="black" points="593.778,-30.7477 583.236,-31.8118 592.14,-37.5536 593.778,-30.7477"/>
<text text-anchor="middle" x="721" y="-208.3" font-family="Times,serif" font-size="14.00">aeLocation</text>
</g>
<!-- aeNwDevice -->
<g id="node5" class="node"><title>aeNwDevice</title>
<polygon fill="none" stroke="black" points="645,-490.5 645,-533.5 767,-533.5 767,-490.5 645,-490.5"/>
<text text-anchor="middle" x="706" y="-508.3" font-family="Times,serif" font-size="14.00">aeNwDevice</text>
</g>
<!-- aeNwDevice&#45;&gt;aeHost -->
<g id="edge11" class="edge"><title>aeNwDevice&#45;&gt;aeHost</title>
<path fill="none" stroke="black" d="M706,-490.36C706,-478.2 706,-462.579 706,-448.965"/>
<polygon fill="black" stroke="black" points="709.5,-448.582 706,-438.582 702.5,-448.582 709.5,-448.582"/>
<text text-anchor="middle" x="733.5" y="-460.8" font-family="Times,serif" font-size="14.00">(child of)</text>
</g>
<!-- aeNwDevice&#45;&gt;aeNwDevice -->
<g id="edge12" class="edge"><title>aeNwDevice&#45;&gt;aeNwDevice</title>
<path fill="none" stroke="black" d="M767.279,-520.052C777.747,-518.951 785,-516.268 785,-512 785,-509.266 782.023,-507.182 777.132,-505.748"/>
<polygon fill="black" stroke="black" points="777.745,-502.302 767.279,-503.948 776.487,-509.188 777.745,-502.302"/>
<text text-anchor="middle" x="822" y="-508.3" font-family="Times,serif" font-size="14.00">aeNwDevice</text>
</g>
<!-- aePerson -->
<g id="node6" class="node"><title>aePerson</title>
<polygon fill="none" stroke="black" points="313,-95.5 313,-138.5 435,-138.5 435,-95.5 313,-95.5"/>
<text text-anchor="middle" x="374" y="-113.3" font-family="Times,serif" font-size="14.00">aePerson</text>
</g>
<!-- aePerson&#45;&gt;aeDept -->
<g id="edge16" class="edge"><title>aePerson&#45;&gt;aeDept</title>
<path fill="none" stroke="black" d="M374,-95.3603C374,-83.1995 374,-67.5788 374,-53.9651"/>
<polygon fill="black" stroke="black" points="377.5,-53.582 374,-43.582 370.5,-53.5821 377.5,-53.582"/>
<text text-anchor="middle" x="394" y="-65.8" font-family="Times,serif" font-size="14.00">aeDept</text>
</g>
<!-- aePerson&#45;&gt;aeLocation -->
<g id="edge17" class="edge"><title>aePerson&#45;&gt;aeLocation</title>
<path fill="none" stroke="black" d="M402.446,-95.3173C417.035,-84.9652 435.222,-72.447 452,-62 459.215,-57.5075 466.973,-52.9381 474.604,-48.5844"/>
<polygon fill="black" stroke="black" points="476.471,-51.5497 483.463,-43.5901 473.033,-45.4519 476.471,-51.5497"/>
<text text-anchor="middle" x="484" y="-65.8" font-family="Times,serif" font-size="14.00">aeLocation</text>
</g>
<!-- aeZone -->
<g id="node7" class="node"><title>aeZone</title>
<polygon fill="none" stroke="black" points="518,-726 518,-769 640,-769 640,-726 518,-726"/>
<text text-anchor="middle" x="579" y="-743.8" font-family="Times,serif" font-size="14.00">aeZone</text>
</g>
<!-- aeZone&#45;&gt;aeGroup -->
<g id="edge29" class="edge"><title>aeZone&#45;&gt;aeGroup</title>
<path fill="none" stroke="black" d="M518.898,-725.894C497.195,-717.09 473.108,-705.663 453,-692 429.605,-676.104 433.232,-659.781 408,-647 376.833,-631.212 288.73,-620.145 225.023,-613.931"/>
<polygon fill="black" stroke="black" points="225.308,-610.442 215.021,-612.976 224.643,-617.411 225.308,-610.442"/>
<text text-anchor="middle" x="509" y="-680.8" font-family="Times,serif" font-size="14.00">aeZoneAdmins</text>
<text text-anchor="middle" x="509" y="-665.8" font-family="Times,serif" font-size="14.00">aeZoneAuditors</text>
<text text-anchor="middle" x="509" y="-650.8" font-family="Times,serif" font-size="14.00">aePasswordAdmins</text>
</g>
<!-- aeZone&#45;&gt;aeDept -->
<g id="edge27" class="edge"><title>aeZone&#45;&gt;aeDept</title>
<path fill="none" stroke="black" d="M588.393,-725.867C599.646,-699.221 617,-651.135 617,-608 617,-608 617,-608 617,-116 617,-35.9889 529.304,-64.6376 452,-44 449.714,-43.3896 447.39,-42.7684 445.043,-42.1405"/>
<polygon fill="black" stroke="black" points="445.872,-38.7393 435.307,-39.5319 444.061,-45.5008 445.872,-38.7393"/>
<text text-anchor="middle" x="637" y="-365.8" font-family="Times,serif" font-size="14.00">aeDept</text>
</g>
<!-- aeZone&#45;&gt;aeLocation -->
<g id="edge28" class="edge"><title>aeZone&#45;&gt;aeLocation</title>
<path fill="none" stroke="black" d="M577.31,-725.81C574.715,-695.048 569.376,-635.455 563,-585 551.274,-492.206 538.995,-470.19 531,-377 528.948,-353.084 530,-347.004 530,-323 530,-323 530,-323 530,-116 530,-95.138 527.977,-71.7401 525.966,-53.6324"/>
<polygon fill="black" stroke="black" points="529.435,-53.1673 524.798,-43.6412 522.482,-53.9799 529.435,-53.1673"/>
<text text-anchor="middle" x="563" y="-365.8" font-family="Times,serif" font-size="14.00">aeLocation</text>
</g>
<!-- aeService&#45;&gt;aeSrvGroup -->
<g id="edge21" class="edge"><title>aeService&#45;&gt;aeSrvGroup</title>
<path fill="none" stroke="black" d="M307.286,-533.839C311.967,-539.266 316.279,-545.446 319,-552 339.275,-600.833 338.279,-758.634 336.848,-826.026"/>
<polygon fill="black" stroke="black" points="333.34,-826.328 336.608,-836.406 340.338,-826.489 333.34,-826.328"/>
<text text-anchor="middle" x="370" y="-673.3" font-family="Times,serif" font-size="14.00">(child of)</text>
<text text-anchor="middle" x="370" y="-658.3" font-family="Times,serif" font-size="14.00">aeSrvGroup</text>
</g>
<!-- aeService&#45;&gt;aeGroup -->
<g id="edge18" class="edge"><title>aeService&#45;&gt;aeGroup</title>
<path fill="none" stroke="black" stroke-dasharray="1,5" d="M269.006,-533.553C260.276,-544.49 248.538,-557.586 236,-567 229.529,-571.858 222.357,-576.336 215.025,-580.391"/>
<polygon fill="black" stroke="black" points="212.915,-577.546 205.692,-585.298 216.172,-583.742 212.915,-577.546"/>
<text text-anchor="middle" x="283.5" y="-555.8" font-family="Times,serif" font-size="14.00">memberOf</text>
</g>
<!-- aeService&#45;&gt;aeHost -->
<g id="edge19" class="edge"><title>aeService&#45;&gt;aeHost</title>
<path fill="none" stroke="black" d="M345.362,-497.477C422.199,-480.544 553.578,-451.591 634.772,-433.697"/>
<polygon fill="black" stroke="black" points="635.894,-437.034 644.906,-431.464 634.387,-430.198 635.894,-437.034"/>
<text text-anchor="middle" x="540" y="-460.8" font-family="Times,serif" font-size="14.00">aeHost</text>
</g>
<!-- aeService&#45;&gt;aeMailGroup -->
<g id="edge20" class="edge"><title>aeService&#45;&gt;aeMailGroup</title>
<path fill="none" stroke="black" stroke-dasharray="1,5" d="M242.005,-490.326C229.089,-481.062 220.108,-469.428 228,-457 231.529,-451.443 236.082,-446.664 241.238,-442.556"/>
<polygon fill="black" stroke="black" points="243.55,-445.212 249.774,-436.639 239.562,-439.46 243.55,-445.212"/>
<text text-anchor="middle" x="259.5" y="-460.8" font-family="Times,serif" font-size="14.00">memberOf</text>
</g>
<!-- aeUser&#45;&gt;aeGroup -->
<g id="edge24" class="edge"><title>aeUser&#45;&gt;aeGroup</title>
<path fill="none" stroke="black" stroke-dasharray="1,5" d="M197.977,-340.724C144.866,-359.823 71.4538,-396.001 39,-457 14.0154,-503.96 67.3046,-551.445 109.425,-579.8"/>
<polygon fill="black" stroke="black" points="107.659,-582.828 117.942,-585.381 111.496,-576.973 107.659,-582.828"/>
<text text-anchor="middle" x="70.5" y="-460.8" font-family="Times,serif" font-size="14.00">memberOf</text>
</g>
<!-- aeUser&#45;&gt;aePerson -->
<g id="edge26" class="edge"><title>aeUser&#45;&gt;aePerson</title>
<path fill="none" stroke="black" d="M320.102,-309.553C335.377,-303.774 350.185,-295.08 360,-282 388.91,-243.472 385.818,-184.579 380.334,-148.843"/>
<polygon fill="black" stroke="black" points="383.71,-147.818 378.588,-138.544 376.808,-148.989 383.71,-147.818"/>
<text text-anchor="middle" x="409" y="-208.3" font-family="Times,serif" font-size="14.00">aePerson</text>
</g>
<!-- aeAuthcToken -->
<g id="node12" class="node"><title>aeAuthcToken</title>
<polygon fill="none" stroke="black" points="207,-190.5 207,-233.5 329,-233.5 329,-190.5 207,-190.5"/>
<text text-anchor="middle" x="268" y="-208.3" font-family="Times,serif" font-size="14.00">aeAuthcToken</text>
</g>
<!-- aeUser&#45;&gt;aeAuthcToken -->
<g id="edge23" class="edge"><title>aeUser&#45;&gt;aeAuthcToken</title>
<path fill="none" stroke="black" d="M258.291,-300.407C258.065,-286.659 258.237,-268.198 260,-252 260.298,-249.26 260.698,-246.428 261.159,-243.598"/>
<polygon fill="black" stroke="black" points="264.644,-244.003 263.036,-233.531 257.763,-242.72 264.644,-244.003"/>
<text text-anchor="middle" x="310" y="-270.8" font-family="Times,serif" font-size="14.00">oathHOTPToken</text>
<text text-anchor="middle" x="310" y="-255.8" font-family="Times,serif" font-size="14.00">oathTOTPToken</text>
</g>
<!-- aeUser&#45;&gt;aeMailGroup -->
<g id="edge25" class="edge"><title>aeUser&#45;&gt;aeMailGroup</title>
<path fill="none" stroke="black" stroke-dasharray="1,5" d="M261.775,-343.695C263.806,-354.168 267.248,-366.79 273,-377 275.088,-380.706 277.616,-384.315 280.365,-387.745"/>
<polygon fill="black" stroke="black" points="277.849,-390.184 287.077,-395.389 283.109,-385.565 277.849,-390.184"/>
<text text-anchor="middle" x="304.5" y="-365.8" font-family="Times,serif" font-size="14.00">memberOf</text>
</g>
<!-- aeAuthcToken&#45;&gt;aePerson -->
<g id="edge30" class="edge"><title>aeAuthcToken&#45;&gt;aePerson</title>
<path fill="none" stroke="black" d="M280.365,-190.46C287.533,-179.657 297.253,-166.685 308,-157 313.048,-152.45 318.709,-148.164 324.536,-144.217"/>
<polygon fill="black" stroke="black" points="326.622,-147.037 333.141,-138.686 322.837,-141.149 326.622,-147.037"/>
<text text-anchor="middle" x="334" y="-160.8" font-family="Times,serif" font-size="14.00">aePerson</text>
</g>
<!-- aeContact -->
<g id="node13" class="node"><title>aeContact</title>
<polygon fill="none" stroke="black" points="367,-300.5 367,-343.5 489,-343.5 489,-300.5 367,-300.5"/>
<text text-anchor="middle" x="428" y="-318.3" font-family="Times,serif" font-size="14.00">aeContact</text>
</g>
<!-- aeContact&#45;&gt;aeMailGroup -->
<g id="edge31" class="edge"><title>aeContact&#45;&gt;aeMailGroup</title>
<path fill="none" stroke="black" stroke-dasharray="1,5" d="M382.602,-343.646C373.029,-348.966 363.319,-355.15 355,-362 346.228,-369.224 337.967,-378.42 331.024,-387.167"/>
<polygon fill="black" stroke="black" points="328.075,-385.263 324.798,-395.338 333.643,-389.505 328.075,-385.263"/>
<text text-anchor="middle" x="386.5" y="-365.8" font-family="Times,serif" font-size="14.00">memberOf</text>
</g>
<!-- aeMailGroup&#45;&gt;aeService -->
<g id="edge14" class="edge"><title>aeMailGroup&#45;&gt;aeService</title>
<path fill="none" stroke="black" d="M305.025,-438.582C301.462,-450.852 296.873,-466.66 292.891,-480.374"/>
<polygon fill="black" stroke="black" points="289.419,-479.781 289.992,-490.36 296.142,-481.733 289.419,-479.781"/>
<text text-anchor="middle" x="323" y="-460.8" font-family="Times,serif" font-size="14.00">member</text>
</g>
<!-- aeMailGroup&#45;&gt;aeUser -->
<g id="edge15" class="edge"><title>aeMailGroup&#45;&gt;aeUser</title>
<path fill="none" stroke="black" d="M249.794,-407.914C231.404,-402.301 213.168,-392.857 202,-377 195.255,-367.422 199.461,-358.19 208.027,-350.15"/>
<polygon fill="black" stroke="black" points="210.477,-352.673 216.103,-343.695 206.106,-347.205 210.477,-352.673"/>
<text text-anchor="middle" x="226" y="-365.8" font-family="Times,serif" font-size="14.00">member</text>
</g>
<!-- aeMailGroup&#45;&gt;aeContact -->
<g id="edge13" class="edge"><title>aeMailGroup&#45;&gt;aeContact</title>
<path fill="none" stroke="black" d="M372.287,-407.414C390.941,-401.766 409.732,-392.428 422,-377 427.16,-370.511 429.484,-362.113 430.311,-353.881"/>
<polygon fill="black" stroke="black" points="433.816,-353.813 430.659,-343.699 426.82,-353.574 433.816,-353.813"/>
<text text-anchor="middle" x="452" y="-365.8" font-family="Times,serif" font-size="14.00">member</text>
</g>
</g>
</svg>
