<?xml version="1.0" encoding="UTF-8" standalone="no"?>
<!DOCTYPE svg PUBLIC "-//W3C//DTD SVG 1.1//EN"
 "http://www.w3.org/Graphics/SVG/1.1/DTD/svg11.dtd">
<!-- Generated by graphviz version 2.38.0 (20140413.2041)
 -->
<!-- Title: G Pages: 1 -->
<svg width="953pt" height="888pt"
 viewBox="0.00 0.00 953.00 888.00" xmlns="http://www.w3.org/2000/svg" xmlns:xlink="http://www.w3.org/1999/xlink">
<g id="graph0" class="graph" transform="scale(1 1) rotate(0) translate(4 884)">
<title>G</title>
<polygon fill="white" stroke="none" points="-4,4 -4,-884 949,-884 949,4 -4,4"/>
<!-- aeSrvGroup -->
<g id="node1" class="node"><title>aeSrvGroup</title>
<polygon fill="none" stroke="black" points="202,-836.5 202,-879.5 324,-879.5 324,-836.5 202,-836.5"/>
<text text-anchor="middle" x="263" y="-854.3" font-family="Times,serif" font-size="14.00">aeSrvGroup</text>
</g>
<!-- aeSrvGroup&#45;&gt;aeSrvGroup -->
<g id="edge3" class="edge"><title>aeSrvGroup&#45;&gt;aeSrvGroup</title>
<path fill="none" stroke="black" d="M324.279,-866.052C334.747,-864.951 342,-862.268 342,-858 342,-855.266 339.023,-853.182 334.132,-851.748"/>
<polygon fill="black" stroke="black" points="334.745,-848.302 324.279,-849.948 333.487,-855.188 334.745,-848.302"/>
<text text-anchor="middle" x="376" y="-854.3" font-family="Times,serif" font-size="14.00">aeProxyFor</text>
</g>
<!-- aeGroup -->
<g id="node2" class="node"><title>aeGroup</title>
<polygon fill="none" stroke="black" points="326,-585.5 326,-628.5 448,-628.5 448,-585.5 326,-585.5"/>
<text text-anchor="middle" x="387" y="-603.3" font-family="Times,serif" font-size="14.00">aeGroup</text>
</g>
<!-- aeSrvGroup&#45;&gt;aeGroup -->
<g id="edge1" class="edge"><title>aeSrvGroup&#45;&gt;aeGroup</title>
<path fill="none" stroke="black" d="M259.514,-836.271C255.545,-806.622 251.961,-751.148 272,-710 287.432,-678.312 317.549,-652.172 343.091,-634.29"/>
<polygon fill="black" stroke="black" points="345.244,-637.059 351.55,-628.546 341.311,-631.268 345.244,-637.059"/>
<text text-anchor="middle" x="338" y="-773.8" font-family="Times,serif" font-size="14.00">aeSetupGroups</text>
<text text-anchor="middle" x="338" y="-758.8" font-family="Times,serif" font-size="14.00">aeLogStoreGroups</text>
<text text-anchor="middle" x="338" y="-743.8" font-family="Times,serif" font-size="14.00">aeLoginGroups</text>
<text text-anchor="middle" x="338" y="-728.8" font-family="Times,serif" font-size="14.00">aeVisibleGroups</text>
<text text-anchor="middle" x="338" y="-713.8" font-family="Times,serif" font-size="14.00">aeDisplayNameGroups</text>
</g>
<!-- aeSudoRule -->
<g id="node3" class="node"><title>aeSudoRule</title>
<polygon fill="none" stroke="black" points="563,-726 563,-769 685,-769 685,-726 563,-726"/>
<text text-anchor="middle" x="624" y="-743.8" font-family="Times,serif" font-size="14.00">aeSudoRule</text>
</g>
<!-- aeSrvGroup&#45;&gt;aeSudoRule -->
<g id="edge4" class="edge"><title>aeSrvGroup&#45;&gt;aeSudoRule</title>
<path fill="none" stroke="black" d="M324.223,-844.598C381.779,-832.172 469.92,-811.158 544,-785 553.609,-781.607 563.646,-777.502 573.234,-773.287"/>
<polygon fill="black" stroke="black" points="574.955,-776.35 582.641,-769.057 572.085,-769.966 574.955,-776.35"/>
<text text-anchor="middle" x="532.5" y="-806.8" font-family="Times,serif" font-size="14.00">aeVisibleSudoers</text>
</g>
<!-- aeMailGroup -->
<g id="node14" class="node"><title>aeMailGroup</title>
<polygon fill="none" stroke="black" points="131,-395.5 131,-438.5 253,-438.5 253,-395.5 131,-395.5"/>
<text text-anchor="middle" x="192" y="-413.3" font-family="Times,serif" font-size="14.00">aeMailGroup</text>
</g>
<!-- aeSrvGroup&#45;&gt;aeMailGroup -->
<g id="edge2" class="edge"><title>aeSrvGroup&#45;&gt;aeMailGroup</title>
<path fill="none" stroke="black" d="M237.556,-836.403C194.79,-799.944 110.034,-719.32 78,-629 53.2367,-559.179 117.964,-484.487 159.748,-445.423"/>
<polygon fill="black" stroke="black" points="162.241,-447.886 167.256,-438.553 157.516,-442.721 162.241,-447.886"/>
<text text-anchor="middle" x="144" y="-610.8" font-family="Times,serif" font-size="14.00">aeVisibleGroups</text>
<text text-anchor="middle" x="144" y="-595.8" font-family="Times,serif" font-size="14.00">aeDisplayNameGroups</text>
</g>
<!-- aeDept -->
<g id="node8" class="node"><title>aeDept</title>
<polygon fill="none" stroke="black" points="19,-0.5 19,-43.5 141,-43.5 141,-0.5 19,-0.5"/>
<text text-anchor="middle" x="80" y="-18.3" font-family="Times,serif" font-size="14.00">aeDept</text>
</g>
<!-- aeGroup&#45;&gt;aeDept -->
<g id="edge5" class="edge"><title>aeGroup&#45;&gt;aeDept</title>
<path fill="none" stroke="black" d="M325.956,-595.617C295.776,-589.342 259.224,-580.001 228,-567 202.034,-556.189 193.651,-554.123 174,-534 82.3375,-440.134 46,-399.198 46,-268 46,-268 46,-268 46,-116 46,-93.9525 54.5332,-70.6547 63.0498,-52.8927"/>
<polygon fill="black" stroke="black" points="66.3402,-54.1415 67.7252,-43.6376 60.0921,-50.9851 66.3402,-54.1415"/>
<text text-anchor="middle" x="72" y="-318.3" font-family="Times,serif" font-size="14.00">aeDept</text>
</g>
<!-- aeLocation -->
<g id="node9" class="node"><title>aeLocation</title>
<polygon fill="none" stroke="black" points="520,-0.5 520,-43.5 642,-43.5 642,-0.5 520,-0.5"/>
<text text-anchor="middle" x="581" y="-18.3" font-family="Times,serif" font-size="14.00">aeLocation</text>
</g>
<!-- aeGroup&#45;&gt;aeLocation -->
<g id="edge6" class="edge"><title>aeGroup&#45;&gt;aeLocation</title>
<path fill="none" stroke="black" d="M405.556,-585.38C410.875,-579.455 416.675,-572.978 422,-567 489.011,-491.774 535,-471.244 535,-370.5 535,-370.5 535,-370.5 535,-116 535,-92.9913 546.452,-69.7899 557.928,-52.3165"/>
<polygon fill="black" stroke="black" points="561.057,-53.9467 563.871,-43.7325 555.301,-49.9621 561.057,-53.9467"/>
<text text-anchor="middle" x="567" y="-318.3" font-family="Times,serif" font-size="14.00">aeLocation</text>
</g>
<!-- aeService -->
<g id="node10" class="node"><title>aeService</title>
<polygon fill="none" stroke="black" points="183,-490.5 183,-533.5 305,-533.5 305,-490.5 183,-490.5"/>
<text text-anchor="middle" x="244" y="-508.3" font-family="Times,serif" font-size="14.00">aeService</text>
</g>
<!-- aeGroup&#45;&gt;aeService -->
<g id="edge7" class="edge"><title>aeGroup&#45;&gt;aeService</title>
<path fill="none" stroke="black" d="M353.755,-585.314C344.421,-579.445 334.286,-573.014 325,-567 311.269,-558.107 296.341,-548.218 283.085,-539.359"/>
<polygon fill="black" stroke="black" points="284.901,-536.363 274.644,-533.706 281.005,-542.179 284.901,-536.363"/>
<text text-anchor="middle" x="349" y="-555.8" font-family="Times,serif" font-size="14.00">member</text>
</g>
<!-- aeUser -->
<g id="node11" class="node"><title>aeUser</title>
<polygon fill="none" stroke="black" points="334,-300.5 334,-343.5 456,-343.5 456,-300.5 334,-300.5"/>
<text text-anchor="middle" x="395" y="-318.3" font-family="Times,serif" font-size="14.00">aeUser</text>
</g>
<!-- aeGroup&#45;&gt;aeUser -->
<g id="edge8" class="edge"><title>aeGroup&#45;&gt;aeUser</title>
<path fill="none" stroke="black" d="M384.78,-585.04C382.235,-555.989 379.434,-501.979 388,-457 395.134,-419.542 411.992,-414.482 419,-377 420.225,-370.447 420.816,-368.415 419,-362 418.112,-358.864 416.893,-355.732 415.472,-352.683"/>
<polygon fill="black" stroke="black" points="418.549,-351.015 410.73,-343.866 412.384,-354.331 418.549,-351.015"/>
<text text-anchor="middle" x="412" y="-460.8" font-family="Times,serif" font-size="14.00">member</text>
</g>
<!-- aeSudoRule&#45;&gt;aeGroup -->
<g id="edge23" class="edge"><title>aeSudoRule&#45;&gt;aeGroup</title>
<path fill="none" stroke="black" d="M615.103,-725.937C604.119,-703.06 583.239,-666.728 554,-647 525.828,-627.991 489.577,-618.18 458.053,-613.144"/>
<polygon fill="black" stroke="black" points="458.402,-609.658 448,-611.671 457.387,-616.584 458.402,-609.658"/>
<text text-anchor="middle" x="621.5" y="-665.8" font-family="Times,serif" font-size="14.00">sudoUser</text>
</g>
<!-- aeHost -->
<g id="node4" class="node"><title>aeHost</title>
<polygon fill="none" stroke="black" points="652,-395.5 652,-438.5 774,-438.5 774,-395.5 652,-395.5"/>
<text text-anchor="middle" x="713" y="-413.3" font-family="Times,serif" font-size="14.00">aeHost</text>
</g>
<!-- aeHost&#45;&gt;aeSrvGroup -->
<g id="edge9" class="edge"><title>aeHost&#45;&gt;aeSrvGroup</title>
<path fill="none" stroke="black" d="M774.068,-427.377C820.695,-438.412 877,-461.903 877,-511 877,-748.5 877,-748.5 877,-748.5 877,-803.05 496.321,-838.965 334.456,-851.77"/>
<polygon fill="black" stroke="black" points="333.813,-848.309 324.117,-852.58 334.36,-855.288 333.813,-848.309"/>
<text text-anchor="middle" x="911" y="-610.8" font-family="Times,serif" font-size="14.00">(child of)</text>
<text text-anchor="middle" x="911" y="-595.8" font-family="Times,serif" font-size="14.00">aeSrvGroup</text>
</g>
<!-- aeHost&#45;&gt;aeLocation -->
<g id="edge10" class="edge"><title>aeHost&#45;&gt;aeLocation</title>
<path fill="none" stroke="black" d="M711.601,-395.326C710.448,-376.487 709,-347.888 709,-323 709,-323 709,-323 709,-116 709,-83.1409 681.051,-60.6839 651.272,-46.0824"/>
<polygon fill="black" stroke="black" points="652.547,-42.8159 642.001,-41.8003 649.612,-49.1709 652.547,-42.8159"/>
<text text-anchor="middle" x="741" y="-208.3" font-family="Times,serif" font-size="14.00">aeLocation</text>
</g>
<!-- aeNwDevice -->
<g id="node5" class="node"><title>aeNwDevice</title>
<polygon fill="none" stroke="black" points="635,-490.5 635,-533.5 757,-533.5 757,-490.5 635,-490.5"/>
<text text-anchor="middle" x="696" y="-508.3" font-family="Times,serif" font-size="14.00">aeNwDevice</text>
</g>
<!-- aeNwDevice&#45;&gt;aeHost -->
<g id="edge11" class="edge"><title>aeNwDevice&#45;&gt;aeHost</title>
<path fill="none" stroke="black" d="M699.773,-490.36C702.018,-478.079 704.908,-462.269 707.414,-448.561"/>
<polygon fill="black" stroke="black" points="710.882,-449.048 709.238,-438.582 703.997,-447.79 710.882,-449.048"/>
<text text-anchor="middle" x="732.5" y="-460.8" font-family="Times,serif" font-size="14.00">(child of)</text>
</g>
<!-- aeNwDevice&#45;&gt;aeNwDevice -->
<g id="edge12" class="edge"><title>aeNwDevice&#45;&gt;aeNwDevice</title>
<path fill="none" stroke="black" d="M757.279,-520.052C767.747,-518.951 775,-516.268 775,-512 775,-509.266 772.023,-507.182 767.132,-505.748"/>
<polygon fill="black" stroke="black" points="767.745,-502.302 757.279,-503.948 766.487,-509.188 767.745,-502.302"/>
<text text-anchor="middle" x="812" y="-508.3" font-family="Times,serif" font-size="14.00">aeNwDevice</text>
</g>
<!-- aePerson -->
<g id="node6" class="node"><title>aePerson</title>
<polygon fill="none" stroke="black" points="274,-95.5 274,-138.5 396,-138.5 396,-95.5 274,-95.5"/>
<text text-anchor="middle" x="335" y="-113.3" font-family="Times,serif" font-size="14.00">aePerson</text>
</g>
<!-- aePerson&#45;&gt;aeDept -->
<g id="edge17" class="edge"><title>aePerson&#45;&gt;aeDept</title>
<path fill="none" stroke="black" d="M278.723,-95.4756C239.535,-81.1834 187.13,-62.0709 145.974,-47.0611"/>
<polygon fill="black" stroke="black" points="147.167,-43.7707 136.573,-43.6325 144.768,-50.347 147.167,-43.7707"/>
<text text-anchor="middle" x="243" y="-65.8" font-family="Times,serif" font-size="14.00">aeDept</text>
</g>
<!-- aePerson&#45;&gt;aeLocation -->
<g id="edge18" class="edge"><title>aePerson&#45;&gt;aeLocation</title>
<path fill="none" stroke="black" d="M378.27,-95.431C401.376,-84.8095 430.452,-72.0144 457,-62 474.103,-55.5484 492.797,-49.275 510.363,-43.713"/>
<polygon fill="black" stroke="black" points="511.491,-47.0275 519.989,-40.6996 509.4,-40.3472 511.491,-47.0275"/>
<text text-anchor="middle" x="489" y="-65.8" font-family="Times,serif" font-size="14.00">aeLocation</text>
</g>
<!-- aeZone -->
<g id="node7" class="node"><title>aeZone</title>
<polygon fill="none" stroke="black" points="413,-726 413,-769 535,-769 535,-726 413,-726"/>
<text text-anchor="middle" x="474" y="-743.8" font-family="Times,serif" font-size="14.00">aeZone</text>
</g>
<!-- aeZone&#45;&gt;aeGroup -->
<g id="edge30" class="edge"><title>aeZone&#45;&gt;aeGroup</title>
<path fill="none" stroke="black" d="M460.975,-725.765C446.24,-702.307 422.128,-663.922 405.458,-637.384"/>
<polygon fill="black" stroke="black" points="408.397,-635.483 400.114,-628.877 402.469,-639.206 408.397,-635.483"/>
<text text-anchor="middle" x="494" y="-680.8" font-family="Times,serif" font-size="14.00">aeZoneAdmins</text>
<text text-anchor="middle" x="494" y="-665.8" font-family="Times,serif" font-size="14.00">aeZoneAuditors</text>
<text text-anchor="middle" x="494" y="-650.8" font-family="Times,serif" font-size="14.00">aePasswordAdmins</text>
</g>
<!-- aeZone&#45;&gt;aeDept -->
<g id="edge28" class="edge"><title>aeZone&#45;&gt;aeDept</title>
<path fill="none" stroke="black" d="M441.868,-725.87C393.052,-694.681 297.089,-633.969 214,-585 120.151,-529.69 0,-574.435 0,-465.5 0,-465.5 0,-465.5 0,-116 0,-89.2324 19.2827,-66.3319 38.9143,-49.9532"/>
<polygon fill="black" stroke="black" points="41.325,-52.5091 46.9991,-43.5617 36.9838,-47.0178 41.325,-52.5091"/>
<text text-anchor="middle" x="20" y="-365.8" font-family="Times,serif" font-size="14.00">aeDept</text>
</g>
<!-- aeZone&#45;&gt;aeLocation -->
<g id="edge29" class="edge"><title>aeZone&#45;&gt;aeLocation</title>
<path fill="none" stroke="black" d="M516.175,-725.786C530.043,-717.092 544.359,-705.765 554,-692 608.85,-613.69 627,-363.609 627,-268 627,-268 627,-268 627,-116 627,-92.9913 615.548,-69.7899 604.072,-52.3165"/>
<polygon fill="black" stroke="black" points="606.699,-49.9621 598.129,-43.7325 600.943,-53.9467 606.699,-49.9621"/>
<text text-anchor="middle" x="655" y="-365.8" font-family="Times,serif" font-size="14.00">aeLocation</text>
</g>
<!-- aeService&#45;&gt;aeSrvGroup -->
<g id="edge22" class="edge"><title>aeService&#45;&gt;aeSrvGroup</title>
<path fill="none" stroke="black" d="M234.49,-533.747C232.1,-539.561 229.728,-545.948 228,-552 216.246,-593.172 215.568,-604.332 212,-647 210.333,-666.93 209.013,-672.224 212,-692 219.324,-740.496 238.111,-794.384 250.722,-826.973"/>
<polygon fill="black" stroke="black" points="247.501,-828.348 254.417,-836.374 254.016,-825.787 247.501,-828.348"/>
<text text-anchor="middle" x="246" y="-673.3" font-family="Times,serif" font-size="14.00">(child of)</text>
<text text-anchor="middle" x="246" y="-658.3" font-family="Times,serif" font-size="14.00">aeSrvGroup</text>
</g>
<!-- aeService&#45;&gt;aeGroup -->
<g id="edge19" class="edge"><title>aeService&#45;&gt;aeGroup</title>
<path fill="none" stroke="black" stroke-dasharray="1,5" d="M234.161,-533.592C230.483,-544.54 228.746,-557.634 236,-567 246.223,-580.199 281.64,-589.732 315.604,-596.068"/>
<polygon fill="black" stroke="black" points="315.135,-599.54 325.594,-597.851 316.365,-592.649 315.135,-599.54"/>
<text text-anchor="middle" x="267.5" y="-555.8" font-family="Times,serif" font-size="14.00">memberOf</text>
</g>
<!-- aeService&#45;&gt;aeHost -->
<g id="edge20" class="edge"><title>aeService&#45;&gt;aeHost</title>
<path fill="none" stroke="black" d="M305.001,-505.058C362.213,-498.89 449.956,-487.902 525,-472 564.172,-463.7 607.144,-451.589 642.104,-440.94"/>
<polygon fill="black" stroke="black" points="643.211,-444.261 651.743,-437.979 641.156,-437.57 643.211,-444.261"/>
<text text-anchor="middle" x="602" y="-460.8" font-family="Times,serif" font-size="14.00">aeHost</text>
</g>
<!-- aeService&#45;&gt;aeMailGroup -->
<g id="edge21" class="edge"><title>aeService&#45;&gt;aeMailGroup</title>
<path fill="none" stroke="black" stroke-dasharray="1,5" d="M184.103,-490.247C176.92,-485.346 170.537,-479.341 166,-472 161.179,-464.2 162.759,-455.371 166.903,-447.146"/>
<polygon fill="black" stroke="black" points="169.945,-448.882 172.225,-438.535 163.99,-445.201 169.945,-448.882"/>
<text text-anchor="middle" x="197.5" y="-460.8" font-family="Times,serif" font-size="14.00">memberOf</text>
</g>
<!-- aeUser&#45;&gt;aeGroup -->
<g id="edge25" class="edge"><title>aeUser&#45;&gt;aeGroup</title>
<path fill="none" stroke="black" stroke-dasharray="1,5" d="M420.382,-343.503C425.46,-348.943 430.115,-355.214 433,-362 462.667,-431.783 441.346,-441.811 436,-472 429.421,-509.147 413.328,-549.52 401.369,-576.135"/>
<polygon fill="black" stroke="black" points="398.16,-574.737 397.176,-585.286 404.523,-577.653 398.16,-574.737"/>
<text text-anchor="middle" x="470.5" y="-460.8" font-family="Times,serif" font-size="14.00">memberOf</text>
</g>
<!-- aeUser&#45;&gt;aePerson -->
<g id="edge27" class="edge"><title>aeUser&#45;&gt;aePerson</title>
<path fill="none" stroke="black" d="M362.727,-300.185C341.949,-284.733 316.711,-261.609 305,-234 293.024,-205.767 304.792,-171.581 316.927,-147.661"/>
<polygon fill="black" stroke="black" points="320.082,-149.183 321.725,-138.717 313.914,-145.875 320.082,-149.183"/>
<text text-anchor="middle" x="331" y="-208.3" font-family="Times,serif" font-size="14.00">aePerson</text>
</g>
<!-- aeAuthcToken -->
<g id="node12" class="node"><title>aeAuthcToken</title>
<polygon fill="none" stroke="black" points="366,-190.5 366,-233.5 488,-233.5 488,-190.5 366,-190.5"/>
<text text-anchor="middle" x="427" y="-208.3" font-family="Times,serif" font-size="14.00">aeAuthcToken</text>
</g>
<!-- aeUser&#45;&gt;aeAuthcToken -->
<g id="edge24" class="edge"><title>aeUser&#45;&gt;aeAuthcToken</title>
<path fill="none" stroke="black" d="M401.094,-300.432C405.868,-284.32 412.581,-261.663 417.978,-243.451"/>
<polygon fill="black" stroke="black" points="421.334,-244.442 420.819,-233.859 414.623,-242.453 421.334,-244.442"/>
<text text-anchor="middle" x="464" y="-270.8" font-family="Times,serif" font-size="14.00">oathHOTPToken</text>
<text text-anchor="middle" x="464" y="-255.8" font-family="Times,serif" font-size="14.00">oathTOTPToken</text>
</g>
<!-- aeUser&#45;&gt;aeMailGroup -->
<g id="edge26" class="edge"><title>aeUser&#45;&gt;aeMailGroup</title>
<path fill="none" stroke="black" stroke-dasharray="1,5" d="M333.92,-339.664C316.317,-345.58 297.439,-353.042 281,-362 271.553,-367.148 270.95,-371.029 262,-377 255.246,-381.505 247.934,-385.984 240.669,-390.213"/>
<polygon fill="black" stroke="black" points="238.49,-387.426 231.537,-395.419 241.957,-393.507 238.49,-387.426"/>
<text text-anchor="middle" x="312.5" y="-365.8" font-family="Times,serif" font-size="14.00">memberOf</text>
</g>
<!-- aeAuthcToken&#45;&gt;aePerson -->
<g id="edge31" class="edge"><title>aeAuthcToken&#45;&gt;aePerson</title>
<path fill="none" stroke="black" d="M406.582,-190.36C393.599,-177.236 376.63,-160.082 362.472,-145.771"/>
<polygon fill="black" stroke="black" points="364.882,-143.23 355.361,-138.582 359.905,-148.153 364.882,-143.23"/>
<text text-anchor="middle" x="412" y="-160.8" font-family="Times,serif" font-size="14.00">aePerson</text>
</g>
<!-- aeContact -->
<g id="node13" class="node"><title>aeContact</title>
<polygon fill="none" stroke="black" points="142,-300.5 142,-343.5 264,-343.5 264,-300.5 142,-300.5"/>
<text text-anchor="middle" x="203" y="-318.3" font-family="Times,serif" font-size="14.00">aeContact</text>
</g>
<!-- aeContact&#45;&gt;aeMailGroup -->
<g id="edge32" class="edge"><title>aeContact&#45;&gt;aeMailGroup</title>
<path fill="none" stroke="black" stroke-dasharray="1,5" d="M200.566,-343.582C199.114,-355.852 197.245,-371.66 195.622,-385.374"/>
<polygon fill="black" stroke="black" points="192.14,-385.018 194.441,-395.36 199.092,-385.841 192.14,-385.018"/>
<text text-anchor="middle" x="230.5" y="-365.8" font-family="Times,serif" font-size="14.00">memberOf</text>
</g>
<!-- aeMailGroup&#45;&gt;aeDept -->
<g id="edge13" class="edge"><title>aeMailGroup&#45;&gt;aeDept</title>
<path fill="none" stroke="black" d="M140.321,-395.282C133.137,-390.308 126.639,-384.271 122,-377 95.8745,-336.049 114,-316.575 114,-268 114,-268 114,-268 114,-116 114,-93.9525 105.467,-70.6547 96.9502,-52.8927"/>
<polygon fill="black" stroke="black" points="99.9079,-50.9851 92.2748,-43.6376 93.6598,-54.1415 99.9079,-50.9851"/>
<text text-anchor="middle" x="134" y="-208.3" font-family="Times,serif" font-size="14.00">aeDept</text>
</g>
<!-- aeMailGroup&#45;&gt;aeService -->
<g id="edge15" class="edge"><title>aeMailGroup&#45;&gt;aeService</title>
<path fill="none" stroke="black" d="M218.517,-438.622C224.032,-444.057 229.288,-450.296 233,-457 236.931,-464.1 239.465,-472.424 241.096,-480.381"/>
<polygon fill="black" stroke="black" points="237.683,-481.198 242.761,-490.496 244.59,-480.061 237.683,-481.198"/>
<text text-anchor="middle" x="263" y="-460.8" font-family="Times,serif" font-size="14.00">member</text>
</g>
<!-- aeMailGroup&#45;&gt;aeUser -->
<g id="edge16" class="edge"><title>aeMailGroup&#45;&gt;aeUser</title>
<path fill="none" stroke="black" d="M253.119,-409.495C283.374,-404.167 319.436,-394.504 348,-377 358.491,-370.571 367.897,-361.039 375.488,-351.765"/>
<polygon fill="black" stroke="black" points="378.325,-353.818 381.673,-343.766 372.787,-349.535 378.325,-353.818"/>
<text text-anchor="middle" x="391" y="-365.8" font-family="Times,serif" font-size="14.00">member</text>
</g>
<!-- aeMailGroup&#45;&gt;aeContact -->
<g id="edge14" class="edge"><title>aeMailGroup&#45;&gt;aeContact</title>
<path fill="none" stroke="black" d="M143.199,-395.42C129.421,-386.477 120.078,-375.048 128,-362 130.738,-357.49 134.187,-353.477 138.092,-349.911"/>
<polygon fill="black" stroke="black" points="140.417,-352.534 146.098,-343.591 136.08,-347.04 140.417,-352.534"/>
<text text-anchor="middle" x="152" y="-365.8" font-family="Times,serif" font-size="14.00">member</text>
</g>
</g>
</svg>
