<?xml version="1.0" encoding="UTF-8" standalone="no"?>
<!DOCTYPE svg PUBLIC "-//W3C//DTD SVG 1.1//EN"
 "http://www.w3.org/Graphics/SVG/1.1/DTD/svg11.dtd">
<!-- Generated by graphviz version 2.38.0 (20140413.2041)
 -->
<!-- Title: AE&#45;DIR object classes Pages: 1 -->
<svg width="384pt" height="692pt"
 viewBox="0.00 0.00 384.00 692.00" xmlns="http://www.w3.org/2000/svg" xmlns:xlink="http://www.w3.org/1999/xlink">
<g id="graph0" class="graph" transform="scale(1 1) rotate(0) translate(4 688)">
<title>AE&#45;DIR object classes</title>
<polygon fill="white" stroke="none" points="-4,4 -4,-688 380,-688 380,4 -4,4"/>
<!-- account -->
<g id="node1" class="node"><title>account</title>
<path fill="none" stroke="black" d="M79.5,-684C79.5,-684 42.5,-684 42.5,-684 36.5,-684 30.5,-678 30.5,-672 30.5,-672 30.5,-660 30.5,-660 30.5,-654 36.5,-648 42.5,-648 42.5,-648 79.5,-648 79.5,-648 85.5,-648 91.5,-654 91.5,-660 91.5,-660 91.5,-672 91.5,-672 91.5,-678 85.5,-684 79.5,-684"/>
<text text-anchor="middle" x="61" y="-662.3" font-family="Times,serif" font-size="14.00">account</text>
</g>
<!-- aeService -->
<g id="node2" class="node"><title>aeService</title>
<path fill="none" stroke="black" d="M228,-630C228,-630 180,-630 180,-630 174,-630 168,-624 168,-618 168,-618 168,-606 168,-606 168,-600 174,-594 180,-594 180,-594 228,-594 228,-594 234,-594 240,-600 240,-606 240,-606 240,-618 240,-618 240,-624 234,-630 228,-630"/>
<text text-anchor="middle" x="204" y="-608.3" font-family="Times,serif" font-size="14.00">aeService</text>
</g>
<!-- account&#45;&gt;aeService -->
<g id="edge1" class="edge"><title>account&#45;&gt;aeService</title>
<path fill="none" stroke="black" d="M91.5582,-654.68C110.903,-647.271 136.541,-637.452 158.349,-629.1"/>
<polygon fill="black" stroke="black" points="159.659,-632.347 167.746,-625.502 157.156,-625.81 159.659,-632.347"/>
</g>
<!-- aeUser -->
<g id="node3" class="node"><title>aeUser</title>
<path fill="none" stroke="black" d="M220,-684C220,-684 188,-684 188,-684 182,-684 176,-678 176,-672 176,-672 176,-660 176,-660 176,-654 182,-648 188,-648 188,-648 220,-648 220,-648 226,-648 232,-654 232,-660 232,-660 232,-672 232,-672 232,-678 226,-684 220,-684"/>
<text text-anchor="middle" x="204" y="-662.3" font-family="Times,serif" font-size="14.00">aeUser</text>
</g>
<!-- account&#45;&gt;aeUser -->
<g id="edge2" class="edge"><title>account&#45;&gt;aeUser</title>
<path fill="none" stroke="black" d="M91.5582,-666C113.127,-666 142.52,-666 165.704,-666"/>
<polygon fill="black" stroke="black" points="165.869,-669.5 175.869,-666 165.869,-662.5 165.869,-669.5"/>
</g>
<!-- sudoRole -->
<g id="node4" class="node"><title>sudoRole</title>
<path fill="none" stroke="black" d="M84.5,-576C84.5,-576 37.5,-576 37.5,-576 31.5,-576 25.5,-570 25.5,-564 25.5,-564 25.5,-552 25.5,-552 25.5,-546 31.5,-540 37.5,-540 37.5,-540 84.5,-540 84.5,-540 90.5,-540 96.5,-546 96.5,-552 96.5,-552 96.5,-564 96.5,-564 96.5,-570 90.5,-576 84.5,-576"/>
<text text-anchor="middle" x="61" y="-554.3" font-family="Times,serif" font-size="14.00">sudoRole</text>
</g>
<!-- aeSudoRule -->
<g id="node5" class="node"><title>aeSudoRule</title>
<path fill="none" stroke="black" d="M234.5,-522C234.5,-522 173.5,-522 173.5,-522 167.5,-522 161.5,-516 161.5,-510 161.5,-510 161.5,-498 161.5,-498 161.5,-492 167.5,-486 173.5,-486 173.5,-486 234.5,-486 234.5,-486 240.5,-486 246.5,-492 246.5,-498 246.5,-498 246.5,-510 246.5,-510 246.5,-516 240.5,-522 234.5,-522"/>
<text text-anchor="middle" x="204" y="-500.3" font-family="Times,serif" font-size="14.00">aeSudoRule</text>
</g>
<!-- sudoRole&#45;&gt;aeSudoRule -->
<g id="edge3" class="edge"><title>sudoRole&#45;&gt;aeSudoRule</title>
<path fill="none" stroke="black" d="M96.8539,-544.652C113.451,-538.295 133.626,-530.569 151.911,-523.566"/>
<polygon fill="black" stroke="black" points="153.185,-526.826 161.272,-519.981 150.682,-520.289 153.185,-526.826"/>
</g>
<!-- inetOrgPerson -->
<g id="node6" class="node"><title>inetOrgPerson</title>
<path fill="none" stroke="black" d="M98.5,-630C98.5,-630 23.5,-630 23.5,-630 17.5,-630 11.5,-624 11.5,-618 11.5,-618 11.5,-606 11.5,-606 11.5,-600 17.5,-594 23.5,-594 23.5,-594 98.5,-594 98.5,-594 104.5,-594 110.5,-600 110.5,-606 110.5,-606 110.5,-618 110.5,-618 110.5,-624 104.5,-630 98.5,-630"/>
<text text-anchor="middle" x="61" y="-608.3" font-family="Times,serif" font-size="14.00">inetOrgPerson</text>
</g>
<!-- inetOrgPerson&#45;&gt;aeUser -->
<g id="edge4" class="edge"><title>inetOrgPerson&#45;&gt;aeUser</title>
<path fill="none" stroke="black" d="M109.343,-630.131C127.802,-637.201 148.642,-645.182 165.97,-651.818"/>
<polygon fill="black" stroke="black" points="165.132,-655.245 175.722,-655.553 167.636,-648.708 165.132,-655.245"/>
</g>
<!-- aePerson -->
<g id="node7" class="node"><title>aePerson</title>
<path fill="none" stroke="black" d="M226,-576C226,-576 182,-576 182,-576 176,-576 170,-570 170,-564 170,-564 170,-552 170,-552 170,-546 176,-540 182,-540 182,-540 226,-540 226,-540 232,-540 238,-546 238,-552 238,-552 238,-564 238,-564 238,-570 232,-576 226,-576"/>
<text text-anchor="middle" x="204" y="-554.3" font-family="Times,serif" font-size="14.00">aePerson</text>
</g>
<!-- inetOrgPerson&#45;&gt;aePerson -->
<g id="edge5" class="edge"><title>inetOrgPerson&#45;&gt;aePerson</title>
<path fill="none" stroke="black" d="M109.343,-593.869C125.774,-587.576 144.093,-580.56 160.141,-574.414"/>
<polygon fill="black" stroke="black" points="161.716,-577.559 169.803,-570.714 159.212,-571.022 161.716,-577.559"/>
</g>
<!-- posixGroup -->
<g id="node8" class="node"><title>posixGroup</title>
<path fill="none" stroke="black" d="M90.5,-522C90.5,-522 31.5,-522 31.5,-522 25.5,-522 19.5,-516 19.5,-510 19.5,-510 19.5,-498 19.5,-498 19.5,-492 25.5,-486 31.5,-486 31.5,-486 90.5,-486 90.5,-486 96.5,-486 102.5,-492 102.5,-498 102.5,-498 102.5,-510 102.5,-510 102.5,-516 96.5,-522 90.5,-522"/>
<text text-anchor="middle" x="61" y="-500.3" font-family="Times,serif" font-size="14.00">posixGroup</text>
</g>
<!-- aeGroup -->
<g id="node9" class="node"><title>aeGroup</title>
<path fill="none" stroke="black" d="M224.5,-468C224.5,-468 183.5,-468 183.5,-468 177.5,-468 171.5,-462 171.5,-456 171.5,-456 171.5,-444 171.5,-444 171.5,-438 177.5,-432 183.5,-432 183.5,-432 224.5,-432 224.5,-432 230.5,-432 236.5,-438 236.5,-444 236.5,-444 236.5,-456 236.5,-456 236.5,-462 230.5,-468 224.5,-468"/>
<text text-anchor="middle" x="204" y="-446.3" font-family="Times,serif" font-size="14.00">aeGroup</text>
</g>
<!-- posixGroup&#45;&gt;aeGroup -->
<g id="edge6" class="edge"><title>posixGroup&#45;&gt;aeGroup</title>
<path fill="none" stroke="black" d="M102.783,-488.381C121.345,-481.272 143.271,-472.875 161.874,-465.751"/>
<polygon fill="black" stroke="black" points="163.177,-468.999 171.263,-462.154 160.673,-462.462 163.177,-468.999"/>
</g>
<!-- namedObject -->
<g id="node10" class="node"><title>namedObject</title>
<path fill="none" stroke="black" d="M96,-306C96,-306 26,-306 26,-306 20,-306 14,-300 14,-294 14,-294 14,-282 14,-282 14,-276 20,-270 26,-270 26,-270 96,-270 96,-270 102,-270 108,-276 108,-282 108,-282 108,-294 108,-294 108,-300 102,-306 96,-306"/>
<text text-anchor="middle" x="61" y="-284.3" font-family="Times,serif" font-size="14.00">namedObject</text>
</g>
<!-- aeSrvGroup -->
<g id="node11" class="node"><title>aeSrvGroup</title>
<path fill="none" stroke="black" d="M234,-414C234,-414 174,-414 174,-414 168,-414 162,-408 162,-402 162,-402 162,-390 162,-390 162,-384 168,-378 174,-378 174,-378 234,-378 234,-378 240,-378 246,-384 246,-390 246,-390 246,-402 246,-402 246,-408 240,-414 234,-414"/>
<text text-anchor="middle" x="204" y="-392.3" font-family="Times,serif" font-size="14.00">aeSrvGroup</text>
</g>
<!-- namedObject&#45;&gt;aeSrvGroup -->
<g id="edge7" class="edge"><title>namedObject&#45;&gt;aeSrvGroup</title>
<path fill="none" stroke="black" d="M108.177,-305.489C113.092,-308.292 117.816,-311.456 122,-315 144.009,-333.644 137.124,-349.095 158,-369 158.927,-369.884 159.888,-370.753 160.877,-371.605"/>
<polygon fill="black" stroke="black" points="158.831,-374.447 168.884,-377.794 163.113,-368.909 158.831,-374.447"/>
</g>
<!-- aeTag -->
<g id="node12" class="node"><title>aeTag</title>
<path fill="none" stroke="black" d="M219,-252C219,-252 189,-252 189,-252 183,-252 177,-246 177,-240 177,-240 177,-228 177,-228 177,-222 183,-216 189,-216 189,-216 219,-216 219,-216 225,-216 231,-222 231,-228 231,-228 231,-240 231,-240 231,-246 225,-252 219,-252"/>
<text text-anchor="middle" x="204" y="-230.3" font-family="Times,serif" font-size="14.00">aeTag</text>
</g>
<!-- namedObject&#45;&gt;aeTag -->
<g id="edge8" class="edge"><title>namedObject&#45;&gt;aeTag</title>
<path fill="none" stroke="black" d="M108.169,-270.318C127.414,-262.948 149.417,-254.521 167.381,-247.641"/>
<polygon fill="black" stroke="black" points="168.815,-250.84 176.902,-243.995 166.312,-244.303 168.815,-250.84"/>
</g>
<!-- aeZone -->
<g id="node13" class="node"><title>aeZone</title>
<path fill="none" stroke="black" d="M221.5,-360C221.5,-360 186.5,-360 186.5,-360 180.5,-360 174.5,-354 174.5,-348 174.5,-348 174.5,-336 174.5,-336 174.5,-330 180.5,-324 186.5,-324 186.5,-324 221.5,-324 221.5,-324 227.5,-324 233.5,-330 233.5,-336 233.5,-336 233.5,-348 233.5,-348 233.5,-354 227.5,-360 221.5,-360"/>
<text text-anchor="middle" x="204" y="-338.3" font-family="Times,serif" font-size="14.00">aeZone</text>
</g>
<!-- namedObject&#45;&gt;aeZone -->
<g id="edge9" class="edge"><title>namedObject&#45;&gt;aeZone</title>
<path fill="none" stroke="black" d="M108.169,-305.682C126.601,-312.741 147.563,-320.769 165.083,-327.478"/>
<polygon fill="black" stroke="black" points="163.834,-330.748 174.424,-331.056 166.337,-324.211 163.834,-330.748"/>
</g>
<!-- namedPolicy -->
<g id="node14" class="node"><title>namedPolicy</title>
<path fill="none" stroke="black" d="M238,-144C238,-144 170,-144 170,-144 164,-144 158,-138 158,-132 158,-132 158,-120 158,-120 158,-114 164,-108 170,-108 170,-108 238,-108 238,-108 244,-108 250,-114 250,-120 250,-120 250,-132 250,-132 250,-138 244,-144 238,-144"/>
<text text-anchor="middle" x="204" y="-122.3" font-family="Times,serif" font-size="14.00">namedPolicy</text>
</g>
<!-- namedObject&#45;&gt;namedPolicy -->
<g id="edge10" class="edge"><title>namedObject&#45;&gt;namedPolicy</title>
<path fill="none" stroke="black" d="M75.844,-269.852C88.1765,-253.558 106.6,-228.904 122,-207 138.59,-183.404 137.124,-172.905 158,-153 158.927,-152.116 159.888,-151.247 160.877,-150.395"/>
<polygon fill="black" stroke="black" points="163.113,-153.091 168.884,-144.206 158.831,-147.553 163.113,-153.091"/>
</g>
<!-- aeMailbox -->
<g id="node15" class="node"><title>aeMailbox</title>
<path fill="none" stroke="black" d="M230.5,-306C230.5,-306 177.5,-306 177.5,-306 171.5,-306 165.5,-300 165.5,-294 165.5,-294 165.5,-282 165.5,-282 165.5,-276 171.5,-270 177.5,-270 177.5,-270 230.5,-270 230.5,-270 236.5,-270 242.5,-276 242.5,-282 242.5,-282 242.5,-294 242.5,-294 242.5,-300 236.5,-306 230.5,-306"/>
<text text-anchor="middle" x="204" y="-284.3" font-family="Times,serif" font-size="14.00">aeMailbox</text>
</g>
<!-- namedObject&#45;&gt;aeMailbox -->
<g id="edge11" class="edge"><title>namedObject&#45;&gt;aeMailbox</title>
<path fill="none" stroke="black" d="M108.169,-288C123.178,-288 139.864,-288 155.003,-288"/>
<polygon fill="black" stroke="black" points="155.197,-291.5 165.197,-288 155.197,-284.5 155.197,-291.5"/>
</g>
<!-- device -->
<g id="node16" class="node"><title>device</title>
<path fill="none" stroke="black" d="M76.5,-198C76.5,-198 45.5,-198 45.5,-198 39.5,-198 33.5,-192 33.5,-186 33.5,-186 33.5,-174 33.5,-174 33.5,-168 39.5,-162 45.5,-162 45.5,-162 76.5,-162 76.5,-162 82.5,-162 88.5,-168 88.5,-174 88.5,-174 88.5,-186 88.5,-186 88.5,-192 82.5,-198 76.5,-198"/>
<text text-anchor="middle" x="61" y="-176.3" font-family="Times,serif" font-size="14.00">device</text>
</g>
<!-- aeDevice -->
<g id="node17" class="node"><title>aeDevice</title>
<path fill="none" stroke="black" d="M227,-198C227,-198 181,-198 181,-198 175,-198 169,-192 169,-186 169,-186 169,-174 169,-174 169,-168 175,-162 181,-162 181,-162 227,-162 227,-162 233,-162 239,-168 239,-174 239,-174 239,-186 239,-186 239,-192 233,-198 227,-198"/>
<text text-anchor="middle" x="204" y="-176.3" font-family="Times,serif" font-size="14.00">aeDevice</text>
</g>
<!-- device&#45;&gt;aeDevice -->
<g id="edge12" class="edge"><title>device&#45;&gt;aeDevice</title>
<path fill="none" stroke="black" d="M88.521,-180C108.237,-180 135.594,-180 158.62,-180"/>
<polygon fill="black" stroke="black" points="158.852,-183.5 168.852,-180 158.852,-176.5 158.852,-183.5"/>
</g>
<!-- aeHost -->
<g id="node18" class="node"><title>aeHost</title>
<path fill="none" stroke="black" d="M347,-225C347,-225 315,-225 315,-225 309,-225 303,-219 303,-213 303,-213 303,-201 303,-201 303,-195 309,-189 315,-189 315,-189 347,-189 347,-189 353,-189 359,-195 359,-201 359,-201 359,-213 359,-213 359,-219 353,-225 347,-225"/>
<text text-anchor="middle" x="331" y="-203.3" font-family="Times,serif" font-size="14.00">aeHost</text>
</g>
<!-- aeDevice&#45;&gt;aeHost -->
<g id="edge13" class="edge"><title>aeDevice&#45;&gt;aeHost</title>
<path fill="none" stroke="black" d="M239.157,-187.378C255.679,-190.947 275.553,-195.239 292.494,-198.899"/>
<polygon fill="black" stroke="black" points="292.093,-202.393 302.607,-201.083 293.571,-195.551 292.093,-202.393"/>
</g>
<!-- aeNwDevice -->
<g id="node19" class="node"><title>aeNwDevice</title>
<path fill="none" stroke="black" d="M364,-171C364,-171 298,-171 298,-171 292,-171 286,-165 286,-159 286,-159 286,-147 286,-147 286,-141 292,-135 298,-135 298,-135 364,-135 364,-135 370,-135 376,-141 376,-147 376,-147 376,-159 376,-159 376,-165 370,-171 364,-171"/>
<text text-anchor="middle" x="331" y="-149.3" font-family="Times,serif" font-size="14.00">aeNwDevice</text>
</g>
<!-- aeDevice&#45;&gt;aeNwDevice -->
<g id="edge14" class="edge"><title>aeDevice&#45;&gt;aeNwDevice</title>
<path fill="none" stroke="black" d="M239.157,-172.622C250.45,-170.183 263.31,-167.405 275.729,-164.723"/>
<polygon fill="black" stroke="black" points="276.52,-168.132 285.556,-162.6 275.042,-161.29 276.52,-168.132"/>
</g>
<!-- aeObject -->
<g id="node20" class="node"><title>aeObject</title>
<path fill="none" stroke="black" d="M83,-360C83,-360 39,-360 39,-360 33,-360 27,-354 27,-348 27,-348 27,-336 27,-336 27,-330 33,-324 39,-324 39,-324 83,-324 83,-324 89,-324 95,-330 95,-336 95,-336 95,-348 95,-348 95,-354 89,-360 83,-360"/>
<text text-anchor="middle" x="61" y="-338.3" font-family="Times,serif" font-size="14.00">aeObject</text>
</g>
<!-- aeObject&#45;&gt;aeService -->
<g id="edge22" class="edge"><title>aeObject&#45;&gt;aeService</title>
<path fill="none" stroke="black" d="M95.1718,-350.278C105.196,-354.345 115.307,-360.314 122,-369 181.405,-446.091 103.226,-504.552 158,-585 158.75,-586.101 159.561,-587.165 160.424,-588.192"/>
<polygon fill="black" stroke="black" points="158.253,-590.959 167.895,-595.35 163.096,-585.904 158.253,-590.959"/>
</g>
<!-- aeObject&#45;&gt;aeUser -->
<g id="edge23" class="edge"><title>aeObject&#45;&gt;aeUser</title>
<path fill="none" stroke="black" d="M95.0252,-350.025C105.164,-354.086 115.381,-360.114 122,-369 194.322,-466.085 91.5069,-537.833 158,-639 160.546,-642.873 163.857,-646.274 167.529,-649.236"/>
<polygon fill="black" stroke="black" points="165.759,-652.266 175.986,-655.034 169.717,-646.493 165.759,-652.266"/>
</g>
<!-- aeObject&#45;&gt;aeSudoRule -->
<g id="edge20" class="edge"><title>aeObject&#45;&gt;aeSudoRule</title>
<path fill="none" stroke="black" d="M95.0233,-351.182C104.799,-355.277 114.801,-361.034 122,-369 155.924,-406.539 126.34,-437.533 158,-477 158.574,-477.715 159.172,-478.416 159.791,-479.102"/>
<polygon fill="black" stroke="black" points="157.416,-481.673 167.131,-485.902 162.174,-476.538 157.416,-481.673"/>
</g>
<!-- aeObject&#45;&gt;aePerson -->
<g id="edge24" class="edge"><title>aeObject&#45;&gt;aePerson</title>
<path fill="none" stroke="black" d="M95.215,-350.62C105.12,-354.697 115.149,-360.585 122,-369 168.567,-426.197 114.874,-471.166 158,-531 159.199,-532.663 160.534,-534.242 161.973,-535.74"/>
<polygon fill="black" stroke="black" points="160.018,-538.675 169.878,-542.553 164.588,-533.373 160.018,-538.675"/>
</g>
<!-- aeObject&#45;&gt;aeGroup -->
<g id="edge18" class="edge"><title>aeObject&#45;&gt;aeGroup</title>
<path fill="none" stroke="black" d="M95.0721,-352.953C104.411,-357.045 114.156,-362.355 122,-369 144.009,-387.644 137.124,-403.095 158,-423 159.607,-424.533 161.316,-426.018 163.093,-427.451"/>
<polygon fill="black" stroke="black" points="161.076,-430.312 171.214,-433.388 165.207,-424.661 161.076,-430.312"/>
</g>
<!-- aeObject&#45;&gt;aeSrvGroup -->
<g id="edge16" class="edge"><title>aeObject&#45;&gt;aeSrvGroup</title>
<path fill="none" stroke="black" d="M95.0582,-354.661C112.118,-361.194 133.299,-369.306 152.368,-376.609"/>
<polygon fill="black" stroke="black" points="151.232,-379.922 161.822,-380.23 153.736,-373.385 151.232,-379.922"/>
</g>
<!-- aeObject&#45;&gt;aeZone -->
<g id="edge17" class="edge"><title>aeObject&#45;&gt;aeZone</title>
<path fill="none" stroke="black" d="M95.0582,-342C115.764,-342 142.539,-342 164.242,-342"/>
<polygon fill="black" stroke="black" points="164.44,-345.5 174.44,-342 164.44,-338.5 164.44,-345.5"/>
</g>
<!-- aeObject&#45;&gt;aeMailbox -->
<g id="edge21" class="edge"><title>aeObject&#45;&gt;aeMailbox</title>
<path fill="none" stroke="black" d="M95.0582,-329.339C113.175,-322.401 135.94,-313.683 155.887,-306.043"/>
<polygon fill="black" stroke="black" points="157.334,-309.237 165.421,-302.392 154.83,-302.7 157.334,-309.237"/>
</g>
<!-- aeObject&#45;&gt;aeDevice -->
<g id="edge19" class="edge"><title>aeObject&#45;&gt;aeDevice</title>
<path fill="none" stroke="black" d="M95.0233,-332.818C104.799,-328.723 114.801,-322.966 122,-315 155.924,-277.461 126.34,-246.467 158,-207 158.962,-205.801 159.993,-204.642 161.079,-203.524"/>
<polygon fill="black" stroke="black" points="163.648,-205.929 168.912,-196.734 159.063,-200.64 163.648,-205.929"/>
</g>
<!-- aeDept -->
<g id="node21" class="node"><title>aeDept</title>
<path fill="none" stroke="black" d="M220,-90C220,-90 188,-90 188,-90 182,-90 176,-84 176,-78 176,-78 176,-66 176,-66 176,-60 182,-54 188,-54 188,-54 220,-54 220,-54 226,-54 232,-60 232,-66 232,-66 232,-78 232,-78 232,-84 226,-90 220,-90"/>
<text text-anchor="middle" x="204" y="-68.3" font-family="Times,serif" font-size="14.00">aeDept</text>
</g>
<!-- aeObject&#45;&gt;aeDept -->
<g id="edge15" class="edge"><title>aeObject&#45;&gt;aeDept</title>
<path fill="none" stroke="black" d="M95.1718,-333.722C105.196,-329.655 115.307,-323.686 122,-315 181.405,-237.909 103.226,-179.448 158,-99 160.549,-95.2557 163.806,-91.9473 167.399,-89.0469"/>
<polygon fill="black" stroke="black" points="169.421,-91.9034 175.657,-83.3378 165.441,-86.1454 169.421,-91.9034"/>
</g>
<!-- groupOfEntries -->
<g id="node22" class="node"><title>groupOfEntries</title>
<path fill="none" stroke="black" d="M101,-468C101,-468 21,-468 21,-468 15,-468 9,-462 9,-456 9,-456 9,-444 9,-444 9,-438 15,-432 21,-432 21,-432 101,-432 101,-432 107,-432 113,-438 113,-444 113,-444 113,-456 113,-456 113,-462 107,-468 101,-468"/>
<text text-anchor="middle" x="61" y="-446.3" font-family="Times,serif" font-size="14.00">groupOfEntries</text>
</g>
<!-- groupOfEntries&#45;&gt;aeGroup -->
<g id="edge25" class="edge"><title>groupOfEntries&#45;&gt;aeGroup</title>
<path fill="none" stroke="black" d="M113.303,-450C129.041,-450 146.161,-450 161.186,-450"/>
<polygon fill="black" stroke="black" points="161.21,-453.5 171.21,-450 161.21,-446.5 161.21,-453.5"/>
</g>
<!-- organizationalUnit -->
<g id="node23" class="node"><title>organizationalUnit</title>
<path fill="none" stroke="black" d="M110,-63C110,-63 12,-63 12,-63 6,-63 -7.10543e-15,-57 -7.10543e-15,-51 -7.10543e-15,-51 -7.10543e-15,-39 -7.10543e-15,-39 -7.10543e-15,-33 6,-27 12,-27 12,-27 110,-27 110,-27 116,-27 122,-33 122,-39 122,-39 122,-51 122,-51 122,-57 116,-63 110,-63"/>
<text text-anchor="middle" x="61" y="-41.3" font-family="Times,serif" font-size="14.00">organizationalUnit</text>
</g>
<!-- organizationalUnit&#45;&gt;aeDept -->
<g id="edge26" class="edge"><title>organizationalUnit&#45;&gt;aeDept</title>
<path fill="none" stroke="black" d="M122.206,-56.5287C136.971,-59.3562 152.352,-62.3015 165.683,-64.8541"/>
<polygon fill="black" stroke="black" points="165.403,-68.3641 175.883,-66.8074 166.72,-61.489 165.403,-68.3641"/>
</g>
<!-- aeRoot -->
<g id="node24" class="node"><title>aeRoot</title>
<path fill="none" stroke="black" d="M220.5,-36C220.5,-36 187.5,-36 187.5,-36 181.5,-36 175.5,-30 175.5,-24 175.5,-24 175.5,-12 175.5,-12 175.5,-6 181.5,-0 187.5,-0 187.5,-0 220.5,-0 220.5,-0 226.5,-0 232.5,-6 232.5,-12 232.5,-12 232.5,-24 232.5,-24 232.5,-30 226.5,-36 220.5,-36"/>
<text text-anchor="middle" x="204" y="-14.3" font-family="Times,serif" font-size="14.00">aeRoot</text>
</g>
<!-- organizationalUnit&#45;&gt;aeRoot -->
<g id="edge27" class="edge"><title>organizationalUnit&#45;&gt;aeRoot</title>
<path fill="none" stroke="black" d="M122.206,-33.4713C136.735,-30.6891 151.86,-27.7927 165.041,-25.2687"/>
<polygon fill="black" stroke="black" points="165.984,-28.6519 175.147,-23.3336 164.667,-21.7768 165.984,-28.6519"/>
</g>
<!-- groupOfURLs -->
<g id="node25" class="node"><title>groupOfURLs</title>
<path fill="none" stroke="black" d="M98,-414C98,-414 24,-414 24,-414 18,-414 12,-408 12,-402 12,-402 12,-390 12,-390 12,-384 18,-378 24,-378 24,-378 98,-378 98,-378 104,-378 110,-384 110,-390 110,-390 110,-402 110,-402 110,-408 104,-414 98,-414"/>
<text text-anchor="middle" x="61" y="-392.3" font-family="Times,serif" font-size="14.00">groupOfURLs</text>
</g>
<!-- groupOfURLs&#45;&gt;aeGroup -->
<g id="edge28" class="edge"><title>groupOfURLs&#45;&gt;aeGroup</title>
<path fill="none" stroke="black" d="M109.343,-414.131C126.33,-420.637 145.335,-427.916 161.763,-434.207"/>
<polygon fill="black" stroke="black" points="160.512,-437.476 171.103,-437.784 163.016,-430.939 160.512,-437.476"/>
</g>
</g>
</svg>
