<?xml version="1.0" encoding="UTF-8" standalone="no"?>
<!DOCTYPE svg PUBLIC "-//W3C//DTD SVG 1.1//EN"
 "http://www.w3.org/Graphics/SVG/1.1/DTD/svg11.dtd">
<!-- Generated by graphviz version 2.38.0 (20140413.2041)
 -->
<!-- Title: AE&#45;DIR object classes Pages: 1 -->
<svg width="395pt" height="798pt"
 viewBox="0.00 0.00 395.00 798.00" xmlns="http://www.w3.org/2000/svg" xmlns:xlink="http://www.w3.org/1999/xlink">
<g id="graph0" class="graph" transform="scale(1 1) rotate(0) translate(4 794)">
<title>AE&#45;DIR object classes</title>
<polygon fill="white" stroke="none" points="-4,4 -4,-794 391,-794 391,4 -4,4"/>
<!-- account -->
<g id="node1" class="node"><title>account</title>
<path fill="none" stroke="black" d="M79.5,-790C79.5,-790 42.5,-790 42.5,-790 36.5,-790 30.5,-784 30.5,-778 30.5,-778 30.5,-766 30.5,-766 30.5,-760 36.5,-754 42.5,-754 42.5,-754 79.5,-754 79.5,-754 85.5,-754 91.5,-760 91.5,-766 91.5,-766 91.5,-778 91.5,-778 91.5,-784 85.5,-790 79.5,-790"/>
<text text-anchor="middle" x="61" y="-768.3" font-family="Times,serif" font-size="14.00">account</text>
</g>
<!-- aeService -->
<g id="node2" class="node"><title>aeService</title>
<path fill="none" stroke="black" d="M228,-790C228,-790 180,-790 180,-790 174,-790 168,-784 168,-778 168,-778 168,-766 168,-766 168,-760 174,-754 180,-754 180,-754 228,-754 228,-754 234,-754 240,-760 240,-766 240,-766 240,-778 240,-778 240,-784 234,-790 228,-790"/>
<text text-anchor="middle" x="204" y="-768.3" font-family="Times,serif" font-size="14.00">aeService</text>
</g>
<!-- account&#45;&gt;aeService -->
<g id="edge1" class="edge"><title>account&#45;&gt;aeService</title>
<path fill="none" stroke="black" d="M91.5582,-772C110.643,-772 135.852,-772 157.467,-772"/>
<polygon fill="black" stroke="black" points="157.746,-775.5 167.746,-772 157.746,-768.5 157.746,-775.5"/>
</g>
<!-- aeUser -->
<g id="node3" class="node"><title>aeUser</title>
<path fill="none" stroke="black" d="M220,-736C220,-736 188,-736 188,-736 182,-736 176,-730 176,-724 176,-724 176,-712 176,-712 176,-706 182,-700 188,-700 188,-700 220,-700 220,-700 226,-700 232,-706 232,-712 232,-712 232,-724 232,-724 232,-730 226,-736 220,-736"/>
<text text-anchor="middle" x="204" y="-714.3" font-family="Times,serif" font-size="14.00">aeUser</text>
</g>
<!-- account&#45;&gt;aeUser -->
<g id="edge2" class="edge"><title>account&#45;&gt;aeUser</title>
<path fill="none" stroke="black" d="M91.5582,-760.68C113.321,-752.345 143.05,-740.96 166.329,-732.044"/>
<polygon fill="black" stroke="black" points="167.782,-735.236 175.869,-728.391 165.278,-728.699 167.782,-735.236"/>
</g>
<!-- sudoRole -->
<g id="node4" class="node"><title>sudoRole</title>
<path fill="none" stroke="black" d="M84.5,-466C84.5,-466 37.5,-466 37.5,-466 31.5,-466 25.5,-460 25.5,-454 25.5,-454 25.5,-442 25.5,-442 25.5,-436 31.5,-430 37.5,-430 37.5,-430 84.5,-430 84.5,-430 90.5,-430 96.5,-436 96.5,-442 96.5,-442 96.5,-454 96.5,-454 96.5,-460 90.5,-466 84.5,-466"/>
<text text-anchor="middle" x="61" y="-444.3" font-family="Times,serif" font-size="14.00">sudoRole</text>
</g>
<!-- aeSudoRule -->
<g id="node5" class="node"><title>aeSudoRule</title>
<path fill="none" stroke="black" d="M234.5,-506C234.5,-506 173.5,-506 173.5,-506 167.5,-506 161.5,-500 161.5,-494 161.5,-494 161.5,-482 161.5,-482 161.5,-476 167.5,-470 173.5,-470 173.5,-470 234.5,-470 234.5,-470 240.5,-470 246.5,-476 246.5,-482 246.5,-482 246.5,-494 246.5,-494 246.5,-500 240.5,-506 234.5,-506"/>
<text text-anchor="middle" x="204" y="-484.3" font-family="Times,serif" font-size="14.00">aeSudoRule</text>
</g>
<!-- sudoRole&#45;&gt;aeSudoRule -->
<g id="edge3" class="edge"><title>sudoRole&#45;&gt;aeSudoRule</title>
<path fill="none" stroke="black" d="M96.8539,-457.888C113.299,-462.553 133.256,-468.215 151.408,-473.364"/>
<polygon fill="black" stroke="black" points="150.696,-476.8 161.272,-476.162 152.607,-470.066 150.696,-476.8"/>
</g>
<!-- inetOrgPerson -->
<g id="node6" class="node"><title>inetOrgPerson</title>
<path fill="none" stroke="black" d="M98.5,-736C98.5,-736 23.5,-736 23.5,-736 17.5,-736 11.5,-730 11.5,-724 11.5,-724 11.5,-712 11.5,-712 11.5,-706 17.5,-700 23.5,-700 23.5,-700 98.5,-700 98.5,-700 104.5,-700 110.5,-706 110.5,-712 110.5,-712 110.5,-724 110.5,-724 110.5,-730 104.5,-736 98.5,-736"/>
<text text-anchor="middle" x="61" y="-714.3" font-family="Times,serif" font-size="14.00">inetOrgPerson</text>
</g>
<!-- inetOrgPerson&#45;&gt;aeUser -->
<g id="edge4" class="edge"><title>inetOrgPerson&#45;&gt;aeUser</title>
<path fill="none" stroke="black" d="M110.524,-718C128.6,-718 148.817,-718 165.727,-718"/>
<polygon fill="black" stroke="black" points="165.78,-721.5 175.78,-718 165.78,-714.5 165.78,-721.5"/>
</g>
<!-- aePerson -->
<g id="node7" class="node"><title>aePerson</title>
<path fill="none" stroke="black" d="M226,-678C226,-678 182,-678 182,-678 176,-678 170,-672 170,-666 170,-666 170,-654 170,-654 170,-648 176,-642 182,-642 182,-642 226,-642 226,-642 232,-642 238,-648 238,-654 238,-654 238,-666 238,-666 238,-672 232,-678 226,-678"/>
<text text-anchor="middle" x="204" y="-656.3" font-family="Times,serif" font-size="14.00">aePerson</text>
</g>
<!-- inetOrgPerson&#45;&gt;aePerson -->
<g id="edge5" class="edge"><title>inetOrgPerson&#45;&gt;aePerson</title>
<path fill="none" stroke="black" d="M105.84,-699.966C123.302,-692.784 143.323,-684.548 160.636,-677.426"/>
<polygon fill="black" stroke="black" points="162.025,-680.64 169.942,-673.598 159.362,-674.166 162.025,-680.64"/>
</g>
<!-- posixGroup -->
<g id="node8" class="node"><title>posixGroup</title>
<path fill="none" stroke="black" d="M90.5,-682C90.5,-682 31.5,-682 31.5,-682 25.5,-682 19.5,-676 19.5,-670 19.5,-670 19.5,-658 19.5,-658 19.5,-652 25.5,-646 31.5,-646 31.5,-646 90.5,-646 90.5,-646 96.5,-646 102.5,-652 102.5,-658 102.5,-658 102.5,-670 102.5,-670 102.5,-676 96.5,-682 90.5,-682"/>
<text text-anchor="middle" x="61" y="-660.3" font-family="Times,serif" font-size="14.00">posixGroup</text>
</g>
<!-- aeGroup -->
<g id="node9" class="node"><title>aeGroup</title>
<path fill="none" stroke="black" d="M224.5,-620C224.5,-620 183.5,-620 183.5,-620 177.5,-620 171.5,-614 171.5,-608 171.5,-608 171.5,-596 171.5,-596 171.5,-590 177.5,-584 183.5,-584 183.5,-584 224.5,-584 224.5,-584 230.5,-584 236.5,-590 236.5,-596 236.5,-596 236.5,-608 236.5,-608 236.5,-614 230.5,-620 224.5,-620"/>
<text text-anchor="middle" x="204" y="-598.3" font-family="Times,serif" font-size="14.00">aeGroup</text>
</g>
<!-- posixGroup&#45;&gt;aeGroup -->
<g id="edge6" class="edge"><title>posixGroup&#45;&gt;aeGroup</title>
<path fill="none" stroke="black" d="M102.783,-646.067C121.345,-637.905 143.271,-628.264 161.874,-620.084"/>
<polygon fill="black" stroke="black" points="163.518,-623.184 171.263,-615.955 160.701,-616.776 163.518,-623.184"/>
</g>
<!-- namedObject -->
<g id="node10" class="node"><title>namedObject</title>
<path fill="none" stroke="black" d="M96,-306C96,-306 26,-306 26,-306 20,-306 14,-300 14,-294 14,-294 14,-282 14,-282 14,-276 20,-270 26,-270 26,-270 96,-270 96,-270 102,-270 108,-276 108,-282 108,-282 108,-294 108,-294 108,-300 102,-306 96,-306"/>
<text text-anchor="middle" x="61" y="-284.3" font-family="Times,serif" font-size="14.00">namedObject</text>
</g>
<!-- namedPolicy -->
<g id="node11" class="node"><title>namedPolicy</title>
<path fill="none" stroke="black" d="M238,-252C238,-252 170,-252 170,-252 164,-252 158,-246 158,-240 158,-240 158,-228 158,-228 158,-222 164,-216 170,-216 170,-216 238,-216 238,-216 244,-216 250,-222 250,-228 250,-228 250,-240 250,-240 250,-246 244,-252 238,-252"/>
<text text-anchor="middle" x="204" y="-230.3" font-family="Times,serif" font-size="14.00">namedPolicy</text>
</g>
<!-- namedObject&#45;&gt;namedPolicy -->
<g id="edge7" class="edge"><title>namedObject&#45;&gt;namedPolicy</title>
<path fill="none" stroke="black" d="M108.169,-270.318C120.965,-265.418 134.981,-260.05 148.217,-254.981"/>
<polygon fill="black" stroke="black" points="149.603,-258.198 157.69,-251.353 147.099,-251.661 149.603,-258.198"/>
</g>
<!-- aeContact -->
<g id="node13" class="node"><title>aeContact</title>
<path fill="none" stroke="black" d="M229,-306C229,-306 179,-306 179,-306 173,-306 167,-300 167,-294 167,-294 167,-282 167,-282 167,-276 173,-270 179,-270 179,-270 229,-270 229,-270 235,-270 241,-276 241,-282 241,-282 241,-294 241,-294 241,-300 235,-306 229,-306"/>
<text text-anchor="middle" x="204" y="-284.3" font-family="Times,serif" font-size="14.00">aeContact</text>
</g>
<!-- namedObject&#45;&gt;aeContact -->
<g id="edge9" class="edge"><title>namedObject&#45;&gt;aeContact</title>
<path fill="none" stroke="black" d="M108.169,-288C123.569,-288 140.735,-288 156.184,-288"/>
<polygon fill="black" stroke="black" points="156.563,-291.5 166.563,-288 156.563,-284.5 156.563,-291.5"/>
</g>
<!-- aeSrvGroup -->
<g id="node14" class="node"><title>aeSrvGroup</title>
<path fill="none" stroke="black" d="M234,-414C234,-414 174,-414 174,-414 168,-414 162,-408 162,-402 162,-402 162,-390 162,-390 162,-384 168,-378 174,-378 174,-378 234,-378 234,-378 240,-378 246,-384 246,-390 246,-390 246,-402 246,-402 246,-408 240,-414 234,-414"/>
<text text-anchor="middle" x="204" y="-392.3" font-family="Times,serif" font-size="14.00">aeSrvGroup</text>
</g>
<!-- namedObject&#45;&gt;aeSrvGroup -->
<g id="edge10" class="edge"><title>namedObject&#45;&gt;aeSrvGroup</title>
<path fill="none" stroke="black" d="M81.4708,-306.039C100.352,-323.135 130.148,-349.09 158,-369 159.427,-370.02 160.893,-371.039 162.386,-372.052"/>
<polygon fill="black" stroke="black" points="160.829,-375.215 171.118,-377.744 164.652,-369.351 160.829,-375.215"/>
</g>
<!-- aeTag -->
<g id="node15" class="node"><title>aeTag</title>
<path fill="none" stroke="black" d="M219,-90C219,-90 189,-90 189,-90 183,-90 177,-84 177,-78 177,-78 177,-66 177,-66 177,-60 183,-54 189,-54 189,-54 219,-54 219,-54 225,-54 231,-60 231,-66 231,-66 231,-78 231,-78 231,-84 225,-90 219,-90"/>
<text text-anchor="middle" x="204" y="-68.3" font-family="Times,serif" font-size="14.00">aeTag</text>
</g>
<!-- namedObject&#45;&gt;aeTag -->
<g id="edge11" class="edge"><title>namedObject&#45;&gt;aeTag</title>
<path fill="none" stroke="black" d="M78.1112,-269.817C91.3689,-254.095 109.886,-230.288 122,-207 145.349,-162.113 126.34,-138.467 158,-99 160.9,-95.3844 164.425,-92.1395 168.212,-89.2608"/>
<polygon fill="black" stroke="black" points="170.404,-92.0052 176.778,-83.542 166.518,-86.1833 170.404,-92.0052"/>
</g>
<!-- aeZone -->
<g id="node16" class="node"><title>aeZone</title>
<path fill="none" stroke="black" d="M221.5,-360C221.5,-360 186.5,-360 186.5,-360 180.5,-360 174.5,-354 174.5,-348 174.5,-348 174.5,-336 174.5,-336 174.5,-330 180.5,-324 186.5,-324 186.5,-324 221.5,-324 221.5,-324 227.5,-324 233.5,-330 233.5,-336 233.5,-336 233.5,-348 233.5,-348 233.5,-354 227.5,-360 221.5,-360"/>
<text text-anchor="middle" x="204" y="-338.3" font-family="Times,serif" font-size="14.00">aeZone</text>
</g>
<!-- namedObject&#45;&gt;aeZone -->
<g id="edge12" class="edge"><title>namedObject&#45;&gt;aeZone</title>
<path fill="none" stroke="black" d="M108.169,-305.682C126.601,-312.741 147.563,-320.769 165.083,-327.478"/>
<polygon fill="black" stroke="black" points="163.834,-330.748 174.424,-331.056 166.337,-324.211 163.834,-330.748"/>
</g>
<!-- aePolicy -->
<g id="node12" class="node"><title>aePolicy</title>
<path fill="none" stroke="black" d="M358,-383C358,-383 315,-383 315,-383 309,-383 303,-377 303,-371 303,-371 303,-359 303,-359 303,-353 309,-347 315,-347 315,-347 358,-347 358,-347 364,-347 370,-353 370,-359 370,-359 370,-371 370,-371 370,-377 364,-383 358,-383"/>
<text text-anchor="middle" x="336.5" y="-361.3" font-family="Times,serif" font-size="14.00">aePolicy</text>
</g>
<!-- namedPolicy&#45;&gt;aePolicy -->
<g id="edge8" class="edge"><title>namedPolicy&#45;&gt;aePolicy</title>
<path fill="none" stroke="black" d="M238.349,-252.217C242.425,-254.955 246.412,-257.906 250,-261 276.723,-284.042 301.661,-316.073 317.626,-338.479"/>
<polygon fill="black" stroke="black" points="314.887,-340.67 323.493,-346.85 320.62,-336.652 314.887,-340.67"/>
</g>
<!-- device -->
<g id="node17" class="node"><title>device</title>
<path fill="none" stroke="black" d="M76.5,-198C76.5,-198 45.5,-198 45.5,-198 39.5,-198 33.5,-192 33.5,-186 33.5,-186 33.5,-174 33.5,-174 33.5,-168 39.5,-162 45.5,-162 45.5,-162 76.5,-162 76.5,-162 82.5,-162 88.5,-168 88.5,-174 88.5,-174 88.5,-186 88.5,-186 88.5,-192 82.5,-198 76.5,-198"/>
<text text-anchor="middle" x="61" y="-176.3" font-family="Times,serif" font-size="14.00">device</text>
</g>
<!-- aeDevice -->
<g id="node18" class="node"><title>aeDevice</title>
<path fill="none" stroke="black" d="M227,-198C227,-198 181,-198 181,-198 175,-198 169,-192 169,-186 169,-186 169,-174 169,-174 169,-168 175,-162 181,-162 181,-162 227,-162 227,-162 233,-162 239,-168 239,-174 239,-174 239,-186 239,-186 239,-192 233,-198 227,-198"/>
<text text-anchor="middle" x="204" y="-176.3" font-family="Times,serif" font-size="14.00">aeDevice</text>
</g>
<!-- device&#45;&gt;aeDevice -->
<g id="edge13" class="edge"><title>device&#45;&gt;aeDevice</title>
<path fill="none" stroke="black" d="M88.521,-180C108.237,-180 135.594,-180 158.62,-180"/>
<polygon fill="black" stroke="black" points="158.852,-183.5 168.852,-180 158.852,-176.5 158.852,-183.5"/>
</g>
<!-- aeHost -->
<g id="node19" class="node"><title>aeHost</title>
<path fill="none" stroke="black" d="M352.5,-252C352.5,-252 320.5,-252 320.5,-252 314.5,-252 308.5,-246 308.5,-240 308.5,-240 308.5,-228 308.5,-228 308.5,-222 314.5,-216 320.5,-216 320.5,-216 352.5,-216 352.5,-216 358.5,-216 364.5,-222 364.5,-228 364.5,-228 364.5,-240 364.5,-240 364.5,-246 358.5,-252 352.5,-252"/>
<text text-anchor="middle" x="336.5" y="-230.3" font-family="Times,serif" font-size="14.00">aeHost</text>
</g>
<!-- aeDevice&#45;&gt;aeHost -->
<g id="edge14" class="edge"><title>aeDevice&#45;&gt;aeHost</title>
<path fill="none" stroke="black" d="M239.287,-194.188C257.679,-201.798 280.344,-211.177 299.055,-218.919"/>
<polygon fill="black" stroke="black" points="297.857,-222.211 308.436,-222.801 300.534,-215.743 297.857,-222.211"/>
</g>
<!-- aeNwDevice -->
<g id="node20" class="node"><title>aeNwDevice</title>
<path fill="none" stroke="black" d="M369.5,-198C369.5,-198 303.5,-198 303.5,-198 297.5,-198 291.5,-192 291.5,-186 291.5,-186 291.5,-174 291.5,-174 291.5,-168 297.5,-162 303.5,-162 303.5,-162 369.5,-162 369.5,-162 375.5,-162 381.5,-168 381.5,-174 381.5,-174 381.5,-186 381.5,-186 381.5,-192 375.5,-198 369.5,-198"/>
<text text-anchor="middle" x="336.5" y="-176.3" font-family="Times,serif" font-size="14.00">aeNwDevice</text>
</g>
<!-- aeDevice&#45;&gt;aeNwDevice -->
<g id="edge15" class="edge"><title>aeDevice&#45;&gt;aeNwDevice</title>
<path fill="none" stroke="black" d="M239.287,-180C252.049,-180 266.867,-180 280.994,-180"/>
<polygon fill="black" stroke="black" points="281.12,-183.5 291.119,-180 281.119,-176.5 281.12,-183.5"/>
</g>
<!-- aeAuthcToken -->
<g id="node21" class="node"><title>aeAuthcToken</title>
<path fill="none" stroke="black" d="M375,-144C375,-144 298,-144 298,-144 292,-144 286,-138 286,-132 286,-132 286,-120 286,-120 286,-114 292,-108 298,-108 298,-108 375,-108 375,-108 381,-108 387,-114 387,-120 387,-120 387,-132 387,-132 387,-138 381,-144 375,-144"/>
<text text-anchor="middle" x="336.5" y="-122.3" font-family="Times,serif" font-size="14.00">aeAuthcToken</text>
</g>
<!-- aeDevice&#45;&gt;aeAuthcToken -->
<g id="edge16" class="edge"><title>aeDevice&#45;&gt;aeAuthcToken</title>
<path fill="none" stroke="black" d="M239.287,-165.812C252.42,-160.378 267.732,-154.042 282.227,-148.044"/>
<polygon fill="black" stroke="black" points="283.701,-151.222 291.603,-144.164 281.024,-144.754 283.701,-151.222"/>
</g>
<!-- nisMailAlias -->
<g id="node22" class="node"><title>nisMailAlias</title>
<path fill="none" stroke="black" d="M93,-520C93,-520 29,-520 29,-520 23,-520 17,-514 17,-508 17,-508 17,-496 17,-496 17,-490 23,-484 29,-484 29,-484 93,-484 93,-484 99,-484 105,-490 105,-496 105,-496 105,-508 105,-508 105,-514 99,-520 93,-520"/>
<text text-anchor="middle" x="61" y="-498.3" font-family="Times,serif" font-size="14.00">nisMailAlias</text>
</g>
<!-- aeMailGroup -->
<g id="node23" class="node"><title>aeMailGroup</title>
<path fill="none" stroke="black" d="M238,-564C238,-564 170,-564 170,-564 164,-564 158,-558 158,-552 158,-552 158,-540 158,-540 158,-534 164,-528 170,-528 170,-528 238,-528 238,-528 244,-528 250,-534 250,-540 250,-540 250,-552 250,-552 250,-558 244,-564 238,-564"/>
<text text-anchor="middle" x="204" y="-542.3" font-family="Times,serif" font-size="14.00">aeMailGroup</text>
</g>
<!-- nisMailAlias&#45;&gt;aeMailGroup -->
<g id="edge17" class="edge"><title>nisMailAlias&#45;&gt;aeMailGroup</title>
<path fill="none" stroke="black" d="M105.071,-515.441C118.626,-519.671 133.784,-524.401 148.048,-528.852"/>
<polygon fill="black" stroke="black" points="147.162,-532.242 157.75,-531.88 149.247,-525.559 147.162,-532.242"/>
</g>
<!-- aeObject -->
<g id="node24" class="node"><title>aeObject</title>
<path fill="none" stroke="black" d="M83,-412C83,-412 39,-412 39,-412 33,-412 27,-406 27,-400 27,-400 27,-388 27,-388 27,-382 33,-376 39,-376 39,-376 83,-376 83,-376 89,-376 95,-382 95,-388 95,-388 95,-400 95,-400 95,-406 89,-412 83,-412"/>
<text text-anchor="middle" x="61" y="-390.3" font-family="Times,serif" font-size="14.00">aeObject</text>
</g>
<!-- aeObject&#45;&gt;aeService -->
<g id="edge26" class="edge"><title>aeObject&#45;&gt;aeService</title>
<path fill="none" stroke="black" d="M95.1382,-401.942C105.285,-405.997 115.478,-412.042 122,-421 207.277,-538.132 79.7517,-623.061 158,-745 158.72,-746.121 159.504,-747.203 160.343,-748.245"/>
<polygon fill="black" stroke="black" points="158.111,-750.959 167.69,-755.485 163.024,-745.973 158.111,-750.959"/>
</g>
<!-- aeObject&#45;&gt;aeUser -->
<g id="edge27" class="edge"><title>aeObject&#45;&gt;aeUser</title>
<path fill="none" stroke="black" d="M95.0151,-402.033C105.153,-406.094 115.372,-412.121 122,-421 193.363,-516.602 95.5373,-585.359 158,-687 160.595,-691.223 164.006,-695.014 167.791,-698.373"/>
<polygon fill="black" stroke="black" points="165.888,-701.325 175.944,-704.66 170.163,-695.782 165.888,-701.325"/>
</g>
<!-- aeObject&#45;&gt;aeSudoRule -->
<g id="edge25" class="edge"><title>aeObject&#45;&gt;aeSudoRule</title>
<path fill="none" stroke="black" d="M95.1763,-406.459C104.22,-410.505 113.782,-415.413 122,-421 140.454,-433.546 140.857,-441.714 158,-456 161.061,-458.551 164.314,-461.117 167.616,-463.626"/>
<polygon fill="black" stroke="black" points="165.722,-466.577 175.845,-469.704 169.881,-460.947 165.722,-466.577"/>
</g>
<!-- aeObject&#45;&gt;aePerson -->
<g id="edge28" class="edge"><title>aeObject&#45;&gt;aePerson</title>
<path fill="none" stroke="black" d="M95.1401,-402.302C105.162,-406.372 115.28,-412.335 122,-421 179.497,-495.136 107.414,-549.987 158,-629 159.247,-630.947 160.664,-632.805 162.208,-634.572"/>
<polygon fill="black" stroke="black" points="160.023,-637.327 169.654,-641.741 164.877,-632.284 160.023,-637.327"/>
</g>
<!-- aeObject&#45;&gt;aeGroup -->
<g id="edge21" class="edge"><title>aeObject&#45;&gt;aeGroup</title>
<path fill="none" stroke="black" d="M95.1459,-402.676C105.046,-406.757 115.09,-412.632 122,-421 166.205,-474.532 117.92,-516.314 158,-573 159.549,-575.191 161.322,-577.257 163.247,-579.198"/>
<polygon fill="black" stroke="black" points="161.407,-582.23 171.283,-586.066 165.955,-576.908 161.407,-582.23"/>
</g>
<!-- aeObject&#45;&gt;aePolicy -->
<g id="edge29" class="edge"><title>aeObject&#45;&gt;aePolicy</title>
<path fill="none" stroke="black" d="M95.2524,-407.95C133.339,-421.919 197.28,-439.194 250,-423 271.61,-416.362 292.664,-402.203 308.473,-389.536"/>
<polygon fill="black" stroke="black" points="310.775,-392.175 316.237,-383.096 306.306,-386.787 310.775,-392.175"/>
</g>
<!-- aeObject&#45;&gt;aeContact -->
<g id="edge23" class="edge"><title>aeObject&#45;&gt;aeContact</title>
<path fill="none" stroke="black" d="M82.273,-375.82C101.238,-359.181 130.664,-334.289 158,-315 159.619,-313.858 161.288,-312.714 162.986,-311.579"/>
<polygon fill="black" stroke="black" points="165.125,-314.364 171.631,-306.003 161.331,-308.482 165.125,-314.364"/>
</g>
<!-- aeObject&#45;&gt;aeSrvGroup -->
<g id="edge19" class="edge"><title>aeObject&#45;&gt;aeSrvGroup</title>
<path fill="none" stroke="black" d="M95.0582,-394.469C111.885,-394.708 132.72,-395.003 151.583,-395.271"/>
<polygon fill="black" stroke="black" points="151.774,-398.774 161.822,-395.416 151.873,-391.774 151.774,-398.774"/>
</g>
<!-- aeObject&#45;&gt;aeZone -->
<g id="edge20" class="edge"><title>aeObject&#45;&gt;aeZone</title>
<path fill="none" stroke="black" d="M95.0582,-381.808C115.952,-374.103 143.026,-364.118 164.833,-356.076"/>
<polygon fill="black" stroke="black" points="166.269,-359.277 174.44,-352.533 163.847,-352.709 166.269,-359.277"/>
</g>
<!-- aeObject&#45;&gt;aeDevice -->
<g id="edge24" class="edge"><title>aeObject&#45;&gt;aeDevice</title>
<path fill="none" stroke="black" d="M78.6732,-375.718C91.9073,-360.424 110.102,-337.542 122,-315 145.618,-270.254 126.34,-246.467 158,-207 158.962,-205.801 159.993,-204.642 161.079,-203.524"/>
<polygon fill="black" stroke="black" points="163.648,-205.929 168.912,-196.734 159.063,-200.64 163.648,-205.929"/>
</g>
<!-- aeObject&#45;&gt;aeMailGroup -->
<g id="edge22" class="edge"><title>aeObject&#45;&gt;aeMailGroup</title>
<path fill="none" stroke="black" d="M95.1266,-403.506C104.793,-407.602 114.706,-413.277 122,-421 152.718,-453.524 130.336,-479.842 158,-515 159.643,-517.088 161.464,-519.089 163.406,-520.999"/>
<polygon fill="black" stroke="black" points="161.517,-523.993 171.367,-527.896 166.1,-518.703 161.517,-523.993"/>
</g>
<!-- aeDept -->
<g id="node25" class="node"><title>aeDept</title>
<path fill="none" stroke="black" d="M220,-144C220,-144 188,-144 188,-144 182,-144 176,-138 176,-132 176,-132 176,-120 176,-120 176,-114 182,-108 188,-108 188,-108 220,-108 220,-108 226,-108 232,-114 232,-120 232,-120 232,-132 232,-132 232,-138 226,-144 220,-144"/>
<text text-anchor="middle" x="204" y="-122.3" font-family="Times,serif" font-size="14.00">aeDept</text>
</g>
<!-- aeObject&#45;&gt;aeDept -->
<g id="edge18" class="edge"><title>aeObject&#45;&gt;aeDept</title>
<path fill="none" stroke="black" d="M79.578,-375.722C93.1486,-360.608 111.352,-337.969 122,-315 153.022,-248.085 114.874,-212.834 158,-153 160.649,-149.325 163.966,-146.059 167.592,-143.182"/>
<polygon fill="black" stroke="black" points="169.616,-146.039 175.884,-137.497 165.657,-140.265 169.616,-146.039"/>
</g>
<!-- groupOfEntries -->
<g id="node26" class="node"><title>groupOfEntries</title>
<path fill="none" stroke="black" d="M101,-574C101,-574 21,-574 21,-574 15,-574 9,-568 9,-562 9,-562 9,-550 9,-550 9,-544 15,-538 21,-538 21,-538 101,-538 101,-538 107,-538 113,-544 113,-550 113,-550 113,-562 113,-562 113,-568 107,-574 101,-574"/>
<text text-anchor="middle" x="61" y="-552.3" font-family="Times,serif" font-size="14.00">groupOfEntries</text>
</g>
<!-- groupOfEntries&#45;&gt;aeGroup -->
<g id="edge30" class="edge"><title>groupOfEntries&#45;&gt;aeGroup</title>
<path fill="none" stroke="black" d="M113.303,-572.737C129.193,-577.921 146.491,-583.564 161.619,-588.5"/>
<polygon fill="black" stroke="black" points="160.617,-591.855 171.21,-591.629 162.789,-585.2 160.617,-591.855"/>
</g>
<!-- groupOfEntries&#45;&gt;aeMailGroup -->
<g id="edge31" class="edge"><title>groupOfEntries&#45;&gt;aeMailGroup</title>
<path fill="none" stroke="black" d="M113.303,-552.361C124.396,-551.575 136.175,-550.739 147.423,-549.942"/>
<polygon fill="black" stroke="black" points="147.841,-553.421 157.568,-549.222 147.345,-546.438 147.841,-553.421"/>
</g>
<!-- organizationalUnit -->
<g id="node27" class="node"><title>organizationalUnit</title>
<path fill="none" stroke="black" d="M110,-90C110,-90 12,-90 12,-90 6,-90 -7.10543e-15,-84 -7.10543e-15,-78 -7.10543e-15,-78 -7.10543e-15,-66 -7.10543e-15,-66 -7.10543e-15,-60 6,-54 12,-54 12,-54 110,-54 110,-54 116,-54 122,-60 122,-66 122,-66 122,-78 122,-78 122,-84 116,-90 110,-90"/>
<text text-anchor="middle" x="61" y="-68.3" font-family="Times,serif" font-size="14.00">organizationalUnit</text>
</g>
<!-- organizationalUnit&#45;&gt;aeDept -->
<g id="edge32" class="edge"><title>organizationalUnit&#45;&gt;aeDept</title>
<path fill="none" stroke="black" d="M109.343,-90.1314C127.802,-97.2006 148.642,-105.182 165.97,-111.818"/>
<polygon fill="black" stroke="black" points="165.132,-115.245 175.722,-115.553 167.636,-108.708 165.132,-115.245"/>
</g>
<!-- aeRoot -->
<g id="node28" class="node"><title>aeRoot</title>
<path fill="none" stroke="black" d="M220.5,-36C220.5,-36 187.5,-36 187.5,-36 181.5,-36 175.5,-30 175.5,-24 175.5,-24 175.5,-12 175.5,-12 175.5,-6 181.5,-0 187.5,-0 187.5,-0 220.5,-0 220.5,-0 226.5,-0 232.5,-6 232.5,-12 232.5,-12 232.5,-24 232.5,-24 232.5,-30 226.5,-36 220.5,-36"/>
<text text-anchor="middle" x="204" y="-14.3" font-family="Times,serif" font-size="14.00">aeRoot</text>
</g>
<!-- organizationalUnit&#45;&gt;aeRoot -->
<g id="edge33" class="edge"><title>organizationalUnit&#45;&gt;aeRoot</title>
<path fill="none" stroke="black" d="M109.343,-53.8686C127.668,-46.8506 148.341,-38.9334 165.593,-32.326"/>
<polygon fill="black" stroke="black" points="167.226,-35.4488 175.312,-28.6037 164.722,-28.9118 167.226,-35.4488"/>
</g>
<!-- groupOfURLs -->
<g id="node29" class="node"><title>groupOfURLs</title>
<path fill="none" stroke="black" d="M98,-628C98,-628 24,-628 24,-628 18,-628 12,-622 12,-616 12,-616 12,-604 12,-604 12,-598 18,-592 24,-592 24,-592 98,-592 98,-592 104,-592 110,-598 110,-604 110,-604 110,-616 110,-616 110,-622 104,-628 98,-628"/>
<text text-anchor="middle" x="61" y="-606.3" font-family="Times,serif" font-size="14.00">groupOfURLs</text>
</g>
<!-- groupOfURLs&#45;&gt;aeGroup -->
<g id="edge34" class="edge"><title>groupOfURLs&#45;&gt;aeGroup</title>
<path fill="none" stroke="black" d="M110.13,-607.269C126.752,-606.326 145.226,-605.278 161.291,-604.366"/>
<polygon fill="black" stroke="black" points="161.671,-607.851 171.457,-603.79 161.275,-600.862 161.671,-607.851"/>
</g>
<!-- groupOfURLs&#45;&gt;aeMailGroup -->
<g id="edge35" class="edge"><title>groupOfURLs&#45;&gt;aeMailGroup</title>
<path fill="none" stroke="black" d="M102.357,-591.877C108.925,-588.916 115.654,-585.877 122,-583 132.455,-578.26 143.659,-573.157 154.298,-568.3"/>
<polygon fill="black" stroke="black" points="155.828,-571.45 163.47,-564.111 152.919,-565.082 155.828,-571.45"/>
</g>
</g>
</svg>
