<?xml version="1.0" encoding="UTF-8" standalone="no"?>
<!DOCTYPE svg PUBLIC "-//W3C//DTD SVG 1.1//EN"
 "http://www.w3.org/Graphics/SVG/1.1/DTD/svg11.dtd">
<!-- Generated by graphviz version 2.36.0 (20140111.2315)
 -->
<!-- Title: AE&#45;DIR object classes Pages: 1 -->
<svg width="382pt" height="730pt"
 viewBox="0.00 0.00 382.00 730.00" xmlns="http://www.w3.org/2000/svg" xmlns:xlink="http://www.w3.org/1999/xlink">
<g id="graph0" class="graph" transform="scale(1 1) rotate(0) translate(4 726)">
<title>AE&#45;DIR object classes</title>
<polygon fill="white" stroke="none" points="-4,4 -4,-726 378,-726 378,4 -4,4"/>
<!-- account -->
<g id="node1" class="node"><title>account</title>
<path fill="none" stroke="black" d="M76.5,-722C76.5,-722 41.5,-722 41.5,-722 35.5,-722 29.5,-716 29.5,-710 29.5,-710 29.5,-698 29.5,-698 29.5,-692 35.5,-686 41.5,-686 41.5,-686 76.5,-686 76.5,-686 82.5,-686 88.5,-692 88.5,-698 88.5,-698 88.5,-710 88.5,-710 88.5,-716 82.5,-722 76.5,-722"/>
<text text-anchor="middle" x="59" y="-700.3" font-family="Times,serif" font-size="14.00">account</text>
</g>
<!-- aeService -->
<g id="node2" class="node"><title>aeService</title>
<path fill="none" stroke="black" d="M220.5,-668C220.5,-668 175.5,-668 175.5,-668 169.5,-668 163.5,-662 163.5,-656 163.5,-656 163.5,-644 163.5,-644 163.5,-638 169.5,-632 175.5,-632 175.5,-632 220.5,-632 220.5,-632 226.5,-632 232.5,-638 232.5,-644 232.5,-644 232.5,-656 232.5,-656 232.5,-662 226.5,-668 220.5,-668"/>
<text text-anchor="middle" x="198" y="-646.3" font-family="Times,serif" font-size="14.00">aeService</text>
</g>
<!-- account&#45;&gt;aeService -->
<g id="edge1" class="edge"><title>account&#45;&gt;aeService</title>
<path fill="none" stroke="black" d="M88.7197,-692.68C107.635,-685.224 132.744,-675.327 154.02,-666.941"/>
<polygon fill="black" stroke="black" points="155.47,-670.132 163.49,-663.208 152.903,-663.619 155.47,-670.132"/>
</g>
<!-- aeUser -->
<g id="node3" class="node"><title>aeUser</title>
<path fill="none" stroke="black" d="M213,-722C213,-722 183,-722 183,-722 177,-722 171,-716 171,-710 171,-710 171,-698 171,-698 171,-692 177,-686 183,-686 183,-686 213,-686 213,-686 219,-686 225,-692 225,-698 225,-698 225,-710 225,-710 225,-716 219,-722 213,-722"/>
<text text-anchor="middle" x="198" y="-700.3" font-family="Times,serif" font-size="14.00">aeUser</text>
</g>
<!-- account&#45;&gt;aeUser -->
<g id="edge2" class="edge"><title>account&#45;&gt;aeUser</title>
<path fill="none" stroke="black" d="M88.7197,-704C109.582,-704 137.978,-704 160.457,-704"/>
<polygon fill="black" stroke="black" points="160.638,-707.5 170.638,-704 160.638,-700.5 160.638,-707.5"/>
</g>
<!-- sudoRole -->
<g id="node4" class="node"><title>sudoRole</title>
<path fill="none" stroke="black" d="M81,-614C81,-614 37,-614 37,-614 31,-614 25,-608 25,-602 25,-602 25,-590 25,-590 25,-584 31,-578 37,-578 37,-578 81,-578 81,-578 87,-578 93,-584 93,-590 93,-590 93,-602 93,-602 93,-608 87,-614 81,-614"/>
<text text-anchor="middle" x="59" y="-592.3" font-family="Times,serif" font-size="14.00">sudoRole</text>
</g>
<!-- aeSudoRule -->
<g id="node5" class="node"><title>aeSudoRule</title>
<path fill="none" stroke="black" d="M227,-560C227,-560 169,-560 169,-560 163,-560 157,-554 157,-548 157,-548 157,-536 157,-536 157,-530 163,-524 169,-524 169,-524 227,-524 227,-524 233,-524 239,-530 239,-536 239,-536 239,-548 239,-548 239,-554 233,-560 227,-560"/>
<text text-anchor="middle" x="198" y="-538.3" font-family="Times,serif" font-size="14.00">aeSudoRule</text>
</g>
<!-- sudoRole&#45;&gt;aeSudoRule -->
<g id="edge3" class="edge"><title>sudoRole&#45;&gt;aeSudoRule</title>
<path fill="none" stroke="black" d="M93.1639,-582.928C109.334,-576.555 129.121,-568.755 147.068,-561.681"/>
<polygon fill="black" stroke="black" points="148.795,-564.762 156.815,-557.839 146.229,-558.25 148.795,-564.762"/>
</g>
<!-- inetOrgPerson -->
<g id="node6" class="node"><title>inetOrgPerson</title>
<path fill="none" stroke="black" d="M94.5,-668C94.5,-668 23.5,-668 23.5,-668 17.5,-668 11.5,-662 11.5,-656 11.5,-656 11.5,-644 11.5,-644 11.5,-638 17.5,-632 23.5,-632 23.5,-632 94.5,-632 94.5,-632 100.5,-632 106.5,-638 106.5,-644 106.5,-644 106.5,-656 106.5,-656 106.5,-662 100.5,-668 94.5,-668"/>
<text text-anchor="middle" x="59" y="-646.3" font-family="Times,serif" font-size="14.00">inetOrgPerson</text>
</g>
<!-- inetOrgPerson&#45;&gt;aeUser -->
<g id="edge4" class="edge"><title>inetOrgPerson&#45;&gt;aeUser</title>
<path fill="none" stroke="black" d="M106,-668.131C124.065,-675.252 144.478,-683.298 161.386,-689.963"/>
<polygon fill="black" stroke="black" points="160.306,-693.299 170.892,-693.709 162.873,-686.786 160.306,-693.299"/>
</g>
<!-- aePerson -->
<g id="node7" class="node"><title>aePerson</title>
<path fill="none" stroke="black" d="M218.5,-614C218.5,-614 177.5,-614 177.5,-614 171.5,-614 165.5,-608 165.5,-602 165.5,-602 165.5,-590 165.5,-590 165.5,-584 171.5,-578 177.5,-578 177.5,-578 218.5,-578 218.5,-578 224.5,-578 230.5,-584 230.5,-590 230.5,-590 230.5,-602 230.5,-602 230.5,-608 224.5,-614 218.5,-614"/>
<text text-anchor="middle" x="198" y="-592.3" font-family="Times,serif" font-size="14.00">aePerson</text>
</g>
<!-- inetOrgPerson&#45;&gt;aePerson -->
<g id="edge5" class="edge"><title>inetOrgPerson&#45;&gt;aePerson</title>
<path fill="none" stroke="black" d="M106,-631.869C122.094,-625.525 140.051,-618.447 155.733,-612.266"/>
<polygon fill="black" stroke="black" points="157.147,-615.471 165.167,-608.547 154.58,-608.958 157.147,-615.471"/>
</g>
<!-- posixGroup -->
<g id="node8" class="node"><title>posixGroup</title>
<path fill="none" stroke="black" d="M87,-506C87,-506 31,-506 31,-506 25,-506 19,-500 19,-494 19,-494 19,-482 19,-482 19,-476 25,-470 31,-470 31,-470 87,-470 87,-470 93,-470 99,-476 99,-482 99,-482 99,-494 99,-494 99,-500 93,-506 87,-506"/>
<text text-anchor="middle" x="59" y="-484.3" font-family="Times,serif" font-size="14.00">posixGroup</text>
</g>
<!-- aeGroup -->
<g id="node9" class="node"><title>aeGroup</title>
<path fill="none" stroke="black" d="M217.5,-506C217.5,-506 178.5,-506 178.5,-506 172.5,-506 166.5,-500 166.5,-494 166.5,-494 166.5,-482 166.5,-482 166.5,-476 172.5,-470 178.5,-470 178.5,-470 217.5,-470 217.5,-470 223.5,-470 229.5,-476 229.5,-482 229.5,-482 229.5,-494 229.5,-494 229.5,-500 223.5,-506 217.5,-506"/>
<text text-anchor="middle" x="198" y="-484.3" font-family="Times,serif" font-size="14.00">aeGroup</text>
</g>
<!-- posixGroup&#45;&gt;aeGroup -->
<g id="edge6" class="edge"><title>posixGroup&#45;&gt;aeGroup</title>
<path fill="none" stroke="black" d="M99.2587,-488C117.105,-488 138.211,-488 156.234,-488"/>
<polygon fill="black" stroke="black" points="156.442,-491.5 166.442,-488 156.442,-484.5 156.442,-491.5"/>
</g>
<!-- namedObject -->
<g id="node10" class="node"><title>namedObject</title>
<path fill="none" stroke="black" d="M91.5,-306C91.5,-306 26.5,-306 26.5,-306 20.5,-306 14.5,-300 14.5,-294 14.5,-294 14.5,-282 14.5,-282 14.5,-276 20.5,-270 26.5,-270 26.5,-270 91.5,-270 91.5,-270 97.5,-270 103.5,-276 103.5,-282 103.5,-282 103.5,-294 103.5,-294 103.5,-300 97.5,-306 91.5,-306"/>
<text text-anchor="middle" x="59" y="-284.3" font-family="Times,serif" font-size="14.00">namedObject</text>
</g>
<!-- namedPolicy -->
<g id="node11" class="node"><title>namedPolicy</title>
<path fill="none" stroke="black" d="M230,-252C230,-252 166,-252 166,-252 160,-252 154,-246 154,-240 154,-240 154,-228 154,-228 154,-222 160,-216 166,-216 166,-216 230,-216 230,-216 236,-216 242,-222 242,-228 242,-228 242,-240 242,-240 242,-246 236,-252 230,-252"/>
<text text-anchor="middle" x="198" y="-230.3" font-family="Times,serif" font-size="14.00">namedPolicy</text>
</g>
<!-- namedObject&#45;&gt;namedPolicy -->
<g id="edge7" class="edge"><title>namedObject&#45;&gt;namedPolicy</title>
<path fill="none" stroke="black" d="M103.724,-270.766C116.579,-265.699 130.779,-260.102 144.141,-254.835"/>
<polygon fill="black" stroke="black" points="145.671,-257.994 153.691,-251.071 143.104,-251.482 145.671,-257.994"/>
</g>
<!-- aeSrvGroup -->
<g id="node13" class="node"><title>aeSrvGroup</title>
<path fill="none" stroke="black" d="M227,-414C227,-414 169,-414 169,-414 163,-414 157,-408 157,-402 157,-402 157,-390 157,-390 157,-384 163,-378 169,-378 169,-378 227,-378 227,-378 233,-378 239,-384 239,-390 239,-390 239,-402 239,-402 239,-408 233,-414 227,-414"/>
<text text-anchor="middle" x="198" y="-392.3" font-family="Times,serif" font-size="14.00">aeSrvGroup</text>
</g>
<!-- namedObject&#45;&gt;aeSrvGroup -->
<g id="edge9" class="edge"><title>namedObject&#45;&gt;aeSrvGroup</title>
<path fill="none" stroke="black" d="M79.4479,-306.286C97.9723,-323.327 126.964,-349.039 154,-369 155.414,-370.044 156.868,-371.089 158.349,-372.129"/>
<polygon fill="black" stroke="black" points="156.758,-375.278 167.003,-377.979 160.679,-369.479 156.758,-375.278"/>
</g>
<!-- aeTag -->
<g id="node14" class="node"><title>aeTag</title>
<path fill="none" stroke="black" d="M213,-198C213,-198 183,-198 183,-198 177,-198 171,-192 171,-186 171,-186 171,-174 171,-174 171,-168 177,-162 183,-162 183,-162 213,-162 213,-162 219,-162 225,-168 225,-174 225,-174 225,-186 225,-186 225,-192 219,-198 213,-198"/>
<text text-anchor="middle" x="198" y="-176.3" font-family="Times,serif" font-size="14.00">aeTag</text>
</g>
<!-- namedObject&#45;&gt;aeTag -->
<g id="edge10" class="edge"><title>namedObject&#45;&gt;aeTag</title>
<path fill="none" stroke="black" d="M79.4479,-269.714C97.9723,-252.673 126.964,-226.961 154,-207 156.624,-205.063 159.388,-203.122 162.196,-201.218"/>
<polygon fill="black" stroke="black" points="164.22,-204.076 170.659,-195.661 160.379,-198.224 164.22,-204.076"/>
</g>
<!-- aeZone -->
<g id="node15" class="node"><title>aeZone</title>
<path fill="none" stroke="black" d="M214,-360C214,-360 182,-360 182,-360 176,-360 170,-354 170,-348 170,-348 170,-336 170,-336 170,-330 176,-324 182,-324 182,-324 214,-324 214,-324 220,-324 226,-330 226,-336 226,-336 226,-348 226,-348 226,-354 220,-360 214,-360"/>
<text text-anchor="middle" x="198" y="-338.3" font-family="Times,serif" font-size="14.00">aeZone</text>
</g>
<!-- namedObject&#45;&gt;aeZone -->
<g id="edge11" class="edge"><title>namedObject&#45;&gt;aeZone</title>
<path fill="none" stroke="black" d="M103.724,-305.234C121.792,-312.356 142.516,-320.525 159.835,-327.351"/>
<polygon fill="black" stroke="black" points="159.006,-330.786 169.592,-331.197 161.573,-324.274 159.006,-330.786"/>
</g>
<!-- aeMailbox -->
<g id="node16" class="node"><title>aeMailbox</title>
<path fill="none" stroke="black" d="M223.5,-306C223.5,-306 172.5,-306 172.5,-306 166.5,-306 160.5,-300 160.5,-294 160.5,-294 160.5,-282 160.5,-282 160.5,-276 166.5,-270 172.5,-270 172.5,-270 223.5,-270 223.5,-270 229.5,-270 235.5,-276 235.5,-282 235.5,-282 235.5,-294 235.5,-294 235.5,-300 229.5,-306 223.5,-306"/>
<text text-anchor="middle" x="198" y="-284.3" font-family="Times,serif" font-size="14.00">aeMailbox</text>
</g>
<!-- namedObject&#45;&gt;aeMailbox -->
<g id="edge12" class="edge"><title>namedObject&#45;&gt;aeMailbox</title>
<path fill="none" stroke="black" d="M103.724,-288C118.485,-288 135.021,-288 150.023,-288"/>
<polygon fill="black" stroke="black" points="150.123,-291.5 160.123,-288 150.123,-284.5 150.123,-291.5"/>
</g>
<!-- aePolicy -->
<g id="node12" class="node"><title>aePolicy</title>
<path fill="none" stroke="black" d="M345.5,-356C345.5,-356 306.5,-356 306.5,-356 300.5,-356 294.5,-350 294.5,-344 294.5,-344 294.5,-332 294.5,-332 294.5,-326 300.5,-320 306.5,-320 306.5,-320 345.5,-320 345.5,-320 351.5,-320 357.5,-326 357.5,-332 357.5,-332 357.5,-344 357.5,-344 357.5,-350 351.5,-356 345.5,-356"/>
<text text-anchor="middle" x="326" y="-334.3" font-family="Times,serif" font-size="14.00">aePolicy</text>
</g>
<!-- namedPolicy&#45;&gt;aePolicy -->
<g id="edge8" class="edge"><title>namedPolicy&#45;&gt;aePolicy</title>
<path fill="none" stroke="black" d="M229.555,-252.188C233.822,-255.014 238.083,-257.996 242,-261 262.641,-276.832 284.122,-296.873 300.059,-312.541"/>
<polygon fill="black" stroke="black" points="297.849,-315.278 307.409,-319.843 302.782,-310.312 297.849,-315.278"/>
</g>
<!-- device -->
<g id="node17" class="node"><title>device</title>
<path fill="none" stroke="black" d="M74,-144C74,-144 44,-144 44,-144 38,-144 32,-138 32,-132 32,-132 32,-120 32,-120 32,-114 38,-108 44,-108 44,-108 74,-108 74,-108 80,-108 86,-114 86,-120 86,-120 86,-132 86,-132 86,-138 80,-144 74,-144"/>
<text text-anchor="middle" x="59" y="-122.3" font-family="Times,serif" font-size="14.00">device</text>
</g>
<!-- aeDevice -->
<g id="node18" class="node"><title>aeDevice</title>
<path fill="none" stroke="black" d="M219.5,-144C219.5,-144 176.5,-144 176.5,-144 170.5,-144 164.5,-138 164.5,-132 164.5,-132 164.5,-120 164.5,-120 164.5,-114 170.5,-108 176.5,-108 176.5,-108 219.5,-108 219.5,-108 225.5,-108 231.5,-114 231.5,-120 231.5,-120 231.5,-132 231.5,-132 231.5,-138 225.5,-144 219.5,-144"/>
<text text-anchor="middle" x="198" y="-122.3" font-family="Times,serif" font-size="14.00">aeDevice</text>
</g>
<!-- device&#45;&gt;aeDevice -->
<g id="edge13" class="edge"><title>device&#45;&gt;aeDevice</title>
<path fill="none" stroke="black" d="M86.0911,-126C105.326,-126 131.917,-126 154.239,-126"/>
<polygon fill="black" stroke="black" points="154.478,-129.5 164.478,-126 154.478,-122.5 154.478,-129.5"/>
</g>
<!-- aeHost -->
<g id="node19" class="node"><title>aeHost</title>
<path fill="none" stroke="black" d="M341,-198C341,-198 311,-198 311,-198 305,-198 299,-192 299,-186 299,-186 299,-174 299,-174 299,-168 305,-162 311,-162 311,-162 341,-162 341,-162 347,-162 353,-168 353,-174 353,-174 353,-186 353,-186 353,-192 347,-198 341,-198"/>
<text text-anchor="middle" x="326" y="-176.3" font-family="Times,serif" font-size="14.00">aeHost</text>
</g>
<!-- aeDevice&#45;&gt;aeHost -->
<g id="edge14" class="edge"><title>aeDevice&#45;&gt;aeHost</title>
<path fill="none" stroke="black" d="M231.776,-140.047C249.372,-147.588 271.09,-156.896 289.135,-164.629"/>
<polygon fill="black" stroke="black" points="288.163,-168.021 298.734,-168.743 290.921,-161.587 288.163,-168.021"/>
</g>
<!-- aeNwDevice -->
<g id="node20" class="node"><title>aeNwDevice</title>
<path fill="none" stroke="black" d="M357,-144C357,-144 295,-144 295,-144 289,-144 283,-138 283,-132 283,-132 283,-120 283,-120 283,-114 289,-108 295,-108 295,-108 357,-108 357,-108 363,-108 369,-114 369,-120 369,-120 369,-132 369,-132 369,-138 363,-144 357,-144"/>
<text text-anchor="middle" x="326" y="-122.3" font-family="Times,serif" font-size="14.00">aeNwDevice</text>
</g>
<!-- aeDevice&#45;&gt;aeNwDevice -->
<g id="edge15" class="edge"><title>aeDevice&#45;&gt;aeNwDevice</title>
<path fill="none" stroke="black" d="M231.776,-126C244.211,-126 258.704,-126 272.505,-126"/>
<polygon fill="black" stroke="black" points="272.878,-129.5 282.878,-126 272.878,-122.5 272.878,-129.5"/>
</g>
<!-- aeAuthcToken -->
<g id="node21" class="node"><title>aeAuthcToken</title>
<path fill="none" stroke="black" d="M362,-90C362,-90 290,-90 290,-90 284,-90 278,-84 278,-78 278,-78 278,-66 278,-66 278,-60 284,-54 290,-54 290,-54 362,-54 362,-54 368,-54 374,-60 374,-66 374,-66 374,-78 374,-78 374,-84 368,-90 362,-90"/>
<text text-anchor="middle" x="326" y="-68.3" font-family="Times,serif" font-size="14.00">aeAuthcToken</text>
</g>
<!-- aeDevice&#45;&gt;aeAuthcToken -->
<g id="edge16" class="edge"><title>aeDevice&#45;&gt;aeAuthcToken</title>
<path fill="none" stroke="black" d="M231.776,-111.953C244.454,-106.52 259.273,-100.169 273.316,-94.1503"/>
<polygon fill="black" stroke="black" points="275.066,-97.2084 282.878,-90.0522 272.308,-90.7744 275.066,-97.2084"/>
</g>
<!-- aeObject -->
<g id="node22" class="node"><title>aeObject</title>
<path fill="none" stroke="black" d="M79.5,-398C79.5,-398 38.5,-398 38.5,-398 32.5,-398 26.5,-392 26.5,-386 26.5,-386 26.5,-374 26.5,-374 26.5,-368 32.5,-362 38.5,-362 38.5,-362 79.5,-362 79.5,-362 85.5,-362 91.5,-368 91.5,-374 91.5,-374 91.5,-386 91.5,-386 91.5,-392 85.5,-398 79.5,-398"/>
<text text-anchor="middle" x="59" y="-376.3" font-family="Times,serif" font-size="14.00">aeObject</text>
</g>
<!-- aeObject&#45;&gt;aeService -->
<g id="edge24" class="edge"><title>aeObject&#45;&gt;aeService</title>
<path fill="none" stroke="black" d="M91.7823,-388.384C101.572,-392.471 111.479,-398.424 118,-407 176.909,-484.47 100.045,-542.001 154,-623 154.715,-624.073 155.488,-625.111 156.311,-626.116"/>
<polygon fill="black" stroke="black" points="153.868,-628.622 163.443,-633.157 158.786,-623.641 153.868,-628.622"/>
</g>
<!-- aeObject&#45;&gt;aeUser -->
<g id="edge25" class="edge"><title>aeObject&#45;&gt;aeUser</title>
<path fill="none" stroke="black" d="M91.6419,-388.136C101.543,-392.217 111.554,-398.229 118,-407 189.697,-504.547 88.5355,-575.165 154,-677 156.306,-680.587 159.276,-683.782 162.576,-686.606"/>
<polygon fill="black" stroke="black" points="160.575,-689.479 170.721,-692.53 164.692,-683.818 160.575,-689.479"/>
</g>
<!-- aeObject&#45;&gt;aeSudoRule -->
<g id="edge22" class="edge"><title>aeObject&#45;&gt;aeSudoRule</title>
<path fill="none" stroke="black" d="M91.6316,-389.262C101.178,-393.378 110.976,-399.126 118,-407 151.682,-444.756 122.742,-475.214 154,-515 154.47,-515.598 154.957,-516.186 155.459,-516.765"/>
<polygon fill="black" stroke="black" points="153.086,-519.338 162.723,-523.739 157.933,-514.288 153.086,-519.338"/>
</g>
<!-- aeObject&#45;&gt;aePerson -->
<g id="edge26" class="edge"><title>aeObject&#45;&gt;aePerson</title>
<path fill="none" stroke="black" d="M91.5194,-388.589C101.29,-392.691 111.252,-398.602 118,-407 164.199,-464.495 111.482,-508.732 154,-569 155.143,-570.621 156.418,-572.165 157.792,-573.634"/>
<polygon fill="black" stroke="black" points="155.544,-576.319 165.341,-580.354 160.199,-571.091 155.544,-576.319"/>
</g>
<!-- aeObject&#45;&gt;aeGroup -->
<g id="edge20" class="edge"><title>aeObject&#45;&gt;aeGroup</title>
<path fill="none" stroke="black" d="M91.781,-391.344C100.804,-395.447 110.268,-400.665 118,-407 138.903,-424.127 134.95,-436.833 154,-456 156.579,-458.595 159.38,-461.147 162.273,-463.609"/>
<polygon fill="black" stroke="black" points="160.078,-466.335 170.062,-469.882 164.469,-460.883 160.078,-466.335"/>
</g>
<!-- aeObject&#45;&gt;aePolicy -->
<g id="edge27" class="edge"><title>aeObject&#45;&gt;aePolicy</title>
<path fill="none" stroke="black" d="M91.5563,-394.625C118.2,-406.945 152.301,-422.63 154,-423 192.215,-431.326 205.956,-438.182 242,-423 270.108,-411.161 293.438,-384.638 308.131,-364.345"/>
<polygon fill="black" stroke="black" points="311.038,-366.295 313.888,-356.09 305.296,-362.29 311.038,-366.295"/>
</g>
<!-- aeObject&#45;&gt;aeSrvGroup -->
<g id="edge18" class="edge"><title>aeObject&#45;&gt;aeSrvGroup</title>
<path fill="none" stroke="black" d="M91.7749,-383.711C108.115,-385.619 128.414,-387.99 146.81,-390.138"/>
<polygon fill="black" stroke="black" points="146.46,-393.621 156.798,-391.305 147.272,-386.668 146.46,-393.621"/>
</g>
<!-- aeObject&#45;&gt;aeZone -->
<g id="edge19" class="edge"><title>aeObject&#45;&gt;aeZone</title>
<path fill="none" stroke="black" d="M91.7749,-371.187C112.11,-365.546 138.575,-358.205 159.877,-352.297"/>
<polygon fill="black" stroke="black" points="160.864,-355.655 169.564,-349.61 158.992,-348.91 160.864,-355.655"/>
</g>
<!-- aeObject&#45;&gt;aeMailbox -->
<g id="edge23" class="edge"><title>aeObject&#45;&gt;aeMailbox</title>
<path fill="none" stroke="black" d="M85.7242,-361.756C104.499,-348.552 130.643,-330.398 154,-315 155.656,-313.908 157.353,-312.8 159.071,-311.686"/>
<polygon fill="black" stroke="black" points="161.214,-314.47 167.744,-306.127 157.437,-308.577 161.214,-314.47"/>
</g>
<!-- aeObject&#45;&gt;aeDevice -->
<g id="edge21" class="edge"><title>aeObject&#45;&gt;aeDevice</title>
<path fill="none" stroke="black" d="M80.9478,-361.801C93.5289,-349.746 108.826,-332.901 118,-315 151.64,-249.362 111.482,-213.268 154,-153 154.889,-151.739 155.858,-150.525 156.891,-149.357"/>
<polygon fill="black" stroke="black" points="159.539,-151.674 164.483,-142.303 154.774,-146.545 159.539,-151.674"/>
</g>
<!-- aeDept -->
<g id="node23" class="node"><title>aeDept</title>
<path fill="none" stroke="black" d="M213.5,-90C213.5,-90 182.5,-90 182.5,-90 176.5,-90 170.5,-84 170.5,-78 170.5,-78 170.5,-66 170.5,-66 170.5,-60 176.5,-54 182.5,-54 182.5,-54 213.5,-54 213.5,-54 219.5,-54 225.5,-60 225.5,-66 225.5,-66 225.5,-78 225.5,-78 225.5,-84 219.5,-90 213.5,-90"/>
<text text-anchor="middle" x="198" y="-68.3" font-family="Times,serif" font-size="14.00">aeDept</text>
</g>
<!-- aeObject&#45;&gt;aeDept -->
<g id="edge17" class="edge"><title>aeObject&#45;&gt;aeDept</title>
<path fill="none" stroke="black" d="M81.2818,-361.966C93.9924,-349.976 109.308,-333.14 118,-315 160.056,-227.232 100.045,-179.999 154,-99 156.245,-95.6299 159.069,-92.5999 162.191,-89.8964"/>
<polygon fill="black" stroke="black" points="164.435,-92.5907 170.41,-83.8412 160.283,-86.9552 164.435,-92.5907"/>
</g>
<!-- groupOfEntries -->
<g id="node24" class="node"><title>groupOfEntries</title>
<path fill="none" stroke="black" d="M97.5,-452C97.5,-452 20.5,-452 20.5,-452 14.5,-452 8.5,-446 8.5,-440 8.5,-440 8.5,-428 8.5,-428 8.5,-422 14.5,-416 20.5,-416 20.5,-416 97.5,-416 97.5,-416 103.5,-416 109.5,-422 109.5,-428 109.5,-428 109.5,-440 109.5,-440 109.5,-446 103.5,-452 97.5,-452"/>
<text text-anchor="middle" x="59" y="-430.3" font-family="Times,serif" font-size="14.00">groupOfEntries</text>
</g>
<!-- groupOfEntries&#45;&gt;aeGroup -->
<g id="edge28" class="edge"><title>groupOfEntries&#45;&gt;aeGroup</title>
<path fill="none" stroke="black" d="M106,-452.131C122.48,-458.627 140.914,-465.893 156.859,-472.178"/>
<polygon fill="black" stroke="black" points="155.838,-475.538 166.425,-475.949 158.405,-469.025 155.838,-475.538"/>
</g>
<!-- organizationalUnit -->
<g id="node25" class="node"><title>organizationalUnit</title>
<path fill="none" stroke="black" d="M106,-63C106,-63 12,-63 12,-63 6,-63 0,-57 0,-51 0,-51 0,-39 0,-39 0,-33 6,-27 12,-27 12,-27 106,-27 106,-27 112,-27 118,-33 118,-39 118,-39 118,-51 118,-51 118,-57 112,-63 106,-63"/>
<text text-anchor="middle" x="59" y="-41.3" font-family="Times,serif" font-size="14.00">organizationalUnit</text>
</g>
<!-- organizationalUnit&#45;&gt;aeDept -->
<g id="edge29" class="edge"><title>organizationalUnit&#45;&gt;aeDept</title>
<path fill="none" stroke="black" d="M118.1,-56.4504C132.487,-59.2857 147.499,-62.2444 160.52,-64.8106"/>
<polygon fill="black" stroke="black" points="159.998,-68.2749 170.486,-66.7746 161.352,-61.407 159.998,-68.2749"/>
</g>
<!-- aeRoot -->
<g id="node26" class="node"><title>aeRoot</title>
<path fill="none" stroke="black" d="M213.5,-36C213.5,-36 182.5,-36 182.5,-36 176.5,-36 170.5,-30 170.5,-24 170.5,-24 170.5,-12 170.5,-12 170.5,-6 176.5,-0 182.5,-0 182.5,-0 213.5,-0 213.5,-0 219.5,-0 225.5,-6 225.5,-12 225.5,-12 225.5,-24 225.5,-24 225.5,-30 219.5,-36 213.5,-36"/>
<text text-anchor="middle" x="198" y="-14.3" font-family="Times,serif" font-size="14.00">aeRoot</text>
</g>
<!-- organizationalUnit&#45;&gt;aeRoot -->
<g id="edge30" class="edge"><title>organizationalUnit&#45;&gt;aeRoot</title>
<path fill="none" stroke="black" d="M118.1,-33.5496C132.487,-30.7143 147.499,-27.7556 160.52,-25.1894"/>
<polygon fill="black" stroke="black" points="161.352,-28.593 170.486,-23.2254 159.998,-21.7251 161.352,-28.593"/>
</g>
<!-- groupOfURLs -->
<g id="node27" class="node"><title>groupOfURLs</title>
<path fill="none" stroke="black" d="M94.5,-560C94.5,-560 23.5,-560 23.5,-560 17.5,-560 11.5,-554 11.5,-548 11.5,-548 11.5,-536 11.5,-536 11.5,-530 17.5,-524 23.5,-524 23.5,-524 94.5,-524 94.5,-524 100.5,-524 106.5,-530 106.5,-536 106.5,-536 106.5,-548 106.5,-548 106.5,-554 100.5,-560 94.5,-560"/>
<text text-anchor="middle" x="59" y="-538.3" font-family="Times,serif" font-size="14.00">groupOfURLs</text>
</g>
<!-- groupOfURLs&#45;&gt;aeGroup -->
<g id="edge31" class="edge"><title>groupOfURLs&#45;&gt;aeGroup</title>
<path fill="none" stroke="black" d="M106,-523.869C122.48,-517.373 140.914,-510.107 156.859,-503.822"/>
<polygon fill="black" stroke="black" points="158.405,-506.975 166.425,-500.051 155.838,-500.462 158.405,-506.975"/>
</g>
</g>
</svg>
