<?xml version="1.0" encoding="UTF-8" standalone="no"?>
<!DOCTYPE svg PUBLIC "-//W3C//DTD SVG 1.1//EN"
 "http://www.w3.org/Graphics/SVG/1.1/DTD/svg11.dtd">
<!-- Generated by graphviz version 2.38.0 (20140413.2041)
 -->
<!-- Title: AE&#45;DIR object classes Pages: 1 -->
<svg width="384pt" height="692pt"
 viewBox="0.00 0.00 384.00 692.00" xmlns="http://www.w3.org/2000/svg" xmlns:xlink="http://www.w3.org/1999/xlink">
<g id="graph0" class="graph" transform="scale(1 1) rotate(0) translate(4 688)">
<title>AE&#45;DIR object classes</title>
<polygon fill="white" stroke="none" points="-4,4 -4,-688 380,-688 380,4 -4,4"/>
<!-- account -->
<g id="node1" class="node"><title>account</title>
<path fill="none" stroke="black" d="M79.5,-670C79.5,-670 42.5,-670 42.5,-670 36.5,-670 30.5,-664 30.5,-658 30.5,-658 30.5,-646 30.5,-646 30.5,-640 36.5,-634 42.5,-634 42.5,-634 79.5,-634 79.5,-634 85.5,-634 91.5,-640 91.5,-646 91.5,-646 91.5,-658 91.5,-658 91.5,-664 85.5,-670 79.5,-670"/>
<text text-anchor="middle" x="61" y="-648.3" font-family="Times,serif" font-size="14.00">account</text>
</g>
<!-- aeService -->
<g id="node2" class="node"><title>aeService</title>
<path fill="none" stroke="black" d="M228,-630C228,-630 180,-630 180,-630 174,-630 168,-624 168,-618 168,-618 168,-606 168,-606 168,-600 174,-594 180,-594 180,-594 228,-594 228,-594 234,-594 240,-600 240,-606 240,-606 240,-618 240,-618 240,-624 234,-630 228,-630"/>
<text text-anchor="middle" x="204" y="-608.3" font-family="Times,serif" font-size="14.00">aeService</text>
</g>
<!-- account&#45;&gt;aeService -->
<g id="edge1" class="edge"><title>account&#45;&gt;aeService</title>
<path fill="none" stroke="black" d="M91.5582,-643.615C110.816,-638.151 136.311,-630.919 158.055,-624.75"/>
<polygon fill="black" stroke="black" points="159.081,-628.098 167.746,-622.001 157.17,-621.363 159.081,-628.098"/>
</g>
<!-- aeUser -->
<g id="node3" class="node"><title>aeUser</title>
<path fill="none" stroke="black" d="M220,-684C220,-684 188,-684 188,-684 182,-684 176,-678 176,-672 176,-672 176,-660 176,-660 176,-654 182,-648 188,-648 188,-648 220,-648 220,-648 226,-648 232,-654 232,-660 232,-660 232,-672 232,-672 232,-678 226,-684 220,-684"/>
<text text-anchor="middle" x="204" y="-662.3" font-family="Times,serif" font-size="14.00">aeUser</text>
</g>
<!-- account&#45;&gt;aeUser -->
<g id="edge2" class="edge"><title>account&#45;&gt;aeUser</title>
<path fill="none" stroke="black" d="M91.5582,-654.935C113.127,-657.076 142.52,-659.995 165.704,-662.297"/>
<polygon fill="black" stroke="black" points="165.572,-665.801 175.869,-663.306 166.263,-658.835 165.572,-665.801"/>
</g>
<!-- sudoRole -->
<g id="node4" class="node"><title>sudoRole</title>
<path fill="none" stroke="black" d="M84.5,-522C84.5,-522 37.5,-522 37.5,-522 31.5,-522 25.5,-516 25.5,-510 25.5,-510 25.5,-498 25.5,-498 25.5,-492 31.5,-486 37.5,-486 37.5,-486 84.5,-486 84.5,-486 90.5,-486 96.5,-492 96.5,-498 96.5,-498 96.5,-510 96.5,-510 96.5,-516 90.5,-522 84.5,-522"/>
<text text-anchor="middle" x="61" y="-500.3" font-family="Times,serif" font-size="14.00">sudoRole</text>
</g>
<!-- aeSudoRule -->
<g id="node5" class="node"><title>aeSudoRule</title>
<path fill="none" stroke="black" d="M234.5,-522C234.5,-522 173.5,-522 173.5,-522 167.5,-522 161.5,-516 161.5,-510 161.5,-510 161.5,-498 161.5,-498 161.5,-492 167.5,-486 173.5,-486 173.5,-486 234.5,-486 234.5,-486 240.5,-486 246.5,-492 246.5,-498 246.5,-498 246.5,-510 246.5,-510 246.5,-516 240.5,-522 234.5,-522"/>
<text text-anchor="middle" x="204" y="-500.3" font-family="Times,serif" font-size="14.00">aeSudoRule</text>
</g>
<!-- sudoRole&#45;&gt;aeSudoRule -->
<g id="edge3" class="edge"><title>sudoRole&#45;&gt;aeSudoRule</title>
<path fill="none" stroke="black" d="M96.8539,-504C113.223,-504 133.071,-504 151.155,-504"/>
<polygon fill="black" stroke="black" points="151.272,-507.5 161.272,-504 151.272,-500.5 151.272,-507.5"/>
</g>
<!-- inetOrgPerson -->
<g id="node6" class="node"><title>inetOrgPerson</title>
<path fill="none" stroke="black" d="M98.5,-603C98.5,-603 23.5,-603 23.5,-603 17.5,-603 11.5,-597 11.5,-591 11.5,-591 11.5,-579 11.5,-579 11.5,-573 17.5,-567 23.5,-567 23.5,-567 98.5,-567 98.5,-567 104.5,-567 110.5,-573 110.5,-579 110.5,-579 110.5,-591 110.5,-591 110.5,-597 104.5,-603 98.5,-603"/>
<text text-anchor="middle" x="61" y="-581.3" font-family="Times,serif" font-size="14.00">inetOrgPerson</text>
</g>
<!-- inetOrgPerson&#45;&gt;aeUser -->
<g id="edge4" class="edge"><title>inetOrgPerson&#45;&gt;aeUser</title>
<path fill="none" stroke="black" d="M93.6432,-603.178C115.337,-615.641 144.17,-632.204 166.783,-645.195"/>
<polygon fill="black" stroke="black" points="165.326,-648.394 175.741,-650.34 168.813,-642.324 165.326,-648.394"/>
</g>
<!-- aePerson -->
<g id="node7" class="node"><title>aePerson</title>
<path fill="none" stroke="black" d="M226,-576C226,-576 182,-576 182,-576 176,-576 170,-570 170,-564 170,-564 170,-552 170,-552 170,-546 176,-540 182,-540 182,-540 226,-540 226,-540 232,-540 238,-546 238,-552 238,-552 238,-564 238,-564 238,-570 232,-576 226,-576"/>
<text text-anchor="middle" x="204" y="-554.3" font-family="Times,serif" font-size="14.00">aePerson</text>
</g>
<!-- inetOrgPerson&#45;&gt;aePerson -->
<g id="edge5" class="edge"><title>inetOrgPerson&#45;&gt;aePerson</title>
<path fill="none" stroke="black" d="M110.524,-575.708C126.599,-572.63 144.368,-569.227 159.999,-566.234"/>
<polygon fill="black" stroke="black" points="160.759,-569.652 169.922,-564.334 159.442,-562.777 160.759,-569.652"/>
</g>
<!-- posixGroup -->
<g id="node8" class="node"><title>posixGroup</title>
<path fill="none" stroke="black" d="M90.5,-414C90.5,-414 31.5,-414 31.5,-414 25.5,-414 19.5,-408 19.5,-402 19.5,-402 19.5,-390 19.5,-390 19.5,-384 25.5,-378 31.5,-378 31.5,-378 90.5,-378 90.5,-378 96.5,-378 102.5,-384 102.5,-390 102.5,-390 102.5,-402 102.5,-402 102.5,-408 96.5,-414 90.5,-414"/>
<text text-anchor="middle" x="61" y="-392.3" font-family="Times,serif" font-size="14.00">posixGroup</text>
</g>
<!-- aeGroup -->
<g id="node9" class="node"><title>aeGroup</title>
<path fill="none" stroke="black" d="M224.5,-414C224.5,-414 183.5,-414 183.5,-414 177.5,-414 171.5,-408 171.5,-402 171.5,-402 171.5,-390 171.5,-390 171.5,-384 177.5,-378 183.5,-378 183.5,-378 224.5,-378 224.5,-378 230.5,-378 236.5,-384 236.5,-390 236.5,-390 236.5,-402 236.5,-402 236.5,-408 230.5,-414 224.5,-414"/>
<text text-anchor="middle" x="204" y="-392.3" font-family="Times,serif" font-size="14.00">aeGroup</text>
</g>
<!-- posixGroup&#45;&gt;aeGroup -->
<g id="edge6" class="edge"><title>posixGroup&#45;&gt;aeGroup</title>
<path fill="none" stroke="black" d="M102.783,-396C121.089,-396 142.668,-396 161.104,-396"/>
<polygon fill="black" stroke="black" points="161.264,-399.5 171.263,-396 161.263,-392.5 161.264,-399.5"/>
</g>
<!-- namedObject -->
<g id="node10" class="node"><title>namedObject</title>
<path fill="none" stroke="black" d="M96,-198C96,-198 26,-198 26,-198 20,-198 14,-192 14,-186 14,-186 14,-174 14,-174 14,-168 20,-162 26,-162 26,-162 96,-162 96,-162 102,-162 108,-168 108,-174 108,-174 108,-186 108,-186 108,-192 102,-198 96,-198"/>
<text text-anchor="middle" x="61" y="-176.3" font-family="Times,serif" font-size="14.00">namedObject</text>
</g>
<!-- aeSrvGroup -->
<g id="node11" class="node"><title>aeSrvGroup</title>
<path fill="none" stroke="black" d="M234,-252C234,-252 174,-252 174,-252 168,-252 162,-246 162,-240 162,-240 162,-228 162,-228 162,-222 168,-216 174,-216 174,-216 234,-216 234,-216 240,-216 246,-222 246,-228 246,-228 246,-240 246,-240 246,-246 240,-252 234,-252"/>
<text text-anchor="middle" x="204" y="-230.3" font-family="Times,serif" font-size="14.00">aeSrvGroup</text>
</g>
<!-- namedObject&#45;&gt;aeSrvGroup -->
<g id="edge7" class="edge"><title>namedObject&#45;&gt;aeSrvGroup</title>
<path fill="none" stroke="black" d="M108.169,-197.682C122.264,-203.08 137.838,-209.045 152.222,-214.553"/>
<polygon fill="black" stroke="black" points="151.366,-217.973 161.956,-218.281 153.87,-211.436 151.366,-217.973"/>
</g>
<!-- aeTag -->
<g id="node12" class="node"><title>aeTag</title>
<path fill="none" stroke="black" d="M219,-144C219,-144 189,-144 189,-144 183,-144 177,-138 177,-132 177,-132 177,-120 177,-120 177,-114 183,-108 189,-108 189,-108 219,-108 219,-108 225,-108 231,-114 231,-120 231,-120 231,-132 231,-132 231,-138 225,-144 219,-144"/>
<text text-anchor="middle" x="204" y="-122.3" font-family="Times,serif" font-size="14.00">aeTag</text>
</g>
<!-- namedObject&#45;&gt;aeTag -->
<g id="edge8" class="edge"><title>namedObject&#45;&gt;aeTag</title>
<path fill="none" stroke="black" d="M108.169,-162.318C127.414,-154.948 149.417,-146.521 167.381,-139.641"/>
<polygon fill="black" stroke="black" points="168.815,-142.84 176.902,-135.995 166.312,-136.303 168.815,-142.84"/>
</g>
<!-- aeZone -->
<g id="node13" class="node"><title>aeZone</title>
<path fill="none" stroke="black" d="M221.5,-306C221.5,-306 186.5,-306 186.5,-306 180.5,-306 174.5,-300 174.5,-294 174.5,-294 174.5,-282 174.5,-282 174.5,-276 180.5,-270 186.5,-270 186.5,-270 221.5,-270 221.5,-270 227.5,-270 233.5,-276 233.5,-282 233.5,-282 233.5,-294 233.5,-294 233.5,-300 227.5,-306 221.5,-306"/>
<text text-anchor="middle" x="204" y="-284.3" font-family="Times,serif" font-size="14.00">aeZone</text>
</g>
<!-- namedObject&#45;&gt;aeZone -->
<g id="edge9" class="edge"><title>namedObject&#45;&gt;aeZone</title>
<path fill="none" stroke="black" d="M108.177,-197.489C113.092,-200.292 117.816,-203.456 122,-207 144.009,-225.644 137.124,-241.095 158,-261 160.374,-263.263 162.97,-265.424 165.679,-267.466"/>
<polygon fill="black" stroke="black" points="163.813,-270.431 174.034,-273.222 167.784,-264.667 163.813,-270.431"/>
</g>
<!-- namedPolicy -->
<g id="node14" class="node"><title>namedPolicy</title>
<path fill="none" stroke="black" d="M238,-198C238,-198 170,-198 170,-198 164,-198 158,-192 158,-186 158,-186 158,-174 158,-174 158,-168 164,-162 170,-162 170,-162 238,-162 238,-162 244,-162 250,-168 250,-174 250,-174 250,-186 250,-186 250,-192 244,-198 238,-198"/>
<text text-anchor="middle" x="204" y="-176.3" font-family="Times,serif" font-size="14.00">namedPolicy</text>
</g>
<!-- namedObject&#45;&gt;namedPolicy -->
<g id="edge10" class="edge"><title>namedObject&#45;&gt;namedPolicy</title>
<path fill="none" stroke="black" d="M108.169,-180C120.717,-180 134.437,-180 147.445,-180"/>
<polygon fill="black" stroke="black" points="147.69,-183.5 157.69,-180 147.69,-176.5 147.69,-183.5"/>
</g>
<!-- device -->
<g id="node15" class="node"><title>device</title>
<path fill="none" stroke="black" d="M76.5,-252C76.5,-252 45.5,-252 45.5,-252 39.5,-252 33.5,-246 33.5,-240 33.5,-240 33.5,-228 33.5,-228 33.5,-222 39.5,-216 45.5,-216 45.5,-216 76.5,-216 76.5,-216 82.5,-216 88.5,-222 88.5,-228 88.5,-228 88.5,-240 88.5,-240 88.5,-246 82.5,-252 76.5,-252"/>
<text text-anchor="middle" x="61" y="-230.3" font-family="Times,serif" font-size="14.00">device</text>
</g>
<!-- aeDevice -->
<g id="node16" class="node"><title>aeDevice</title>
<path fill="none" stroke="black" d="M227,-360C227,-360 181,-360 181,-360 175,-360 169,-354 169,-348 169,-348 169,-336 169,-336 169,-330 175,-324 181,-324 181,-324 227,-324 227,-324 233,-324 239,-330 239,-336 239,-336 239,-348 239,-348 239,-354 233,-360 227,-360"/>
<text text-anchor="middle" x="204" y="-338.3" font-family="Times,serif" font-size="14.00">aeDevice</text>
</g>
<!-- device&#45;&gt;aeDevice -->
<g id="edge11" class="edge"><title>device&#45;&gt;aeDevice</title>
<path fill="none" stroke="black" d="M88.6302,-242.286C99.7604,-246.64 112.325,-252.804 122,-261 144.009,-279.644 137.124,-295.095 158,-315 158.927,-315.884 159.888,-316.753 160.877,-317.605"/>
<polygon fill="black" stroke="black" points="158.831,-320.447 168.884,-323.794 163.113,-314.909 158.831,-320.447"/>
</g>
<!-- aeHost -->
<g id="node17" class="node"><title>aeHost</title>
<path fill="none" stroke="black" d="M347,-387C347,-387 315,-387 315,-387 309,-387 303,-381 303,-375 303,-375 303,-363 303,-363 303,-357 309,-351 315,-351 315,-351 347,-351 347,-351 353,-351 359,-357 359,-363 359,-363 359,-375 359,-375 359,-381 353,-387 347,-387"/>
<text text-anchor="middle" x="331" y="-365.3" font-family="Times,serif" font-size="14.00">aeHost</text>
</g>
<!-- aeDevice&#45;&gt;aeHost -->
<g id="edge12" class="edge"><title>aeDevice&#45;&gt;aeHost</title>
<path fill="none" stroke="black" d="M239.157,-349.378C255.679,-352.947 275.553,-357.239 292.494,-360.899"/>
<polygon fill="black" stroke="black" points="292.093,-364.393 302.607,-363.083 293.571,-357.551 292.093,-364.393"/>
</g>
<!-- aeNwDevice -->
<g id="node18" class="node"><title>aeNwDevice</title>
<path fill="none" stroke="black" d="M364,-333C364,-333 298,-333 298,-333 292,-333 286,-327 286,-321 286,-321 286,-309 286,-309 286,-303 292,-297 298,-297 298,-297 364,-297 364,-297 370,-297 376,-303 376,-309 376,-309 376,-321 376,-321 376,-327 370,-333 364,-333"/>
<text text-anchor="middle" x="331" y="-311.3" font-family="Times,serif" font-size="14.00">aeNwDevice</text>
</g>
<!-- aeDevice&#45;&gt;aeNwDevice -->
<g id="edge13" class="edge"><title>aeDevice&#45;&gt;aeNwDevice</title>
<path fill="none" stroke="black" d="M239.157,-334.622C250.45,-332.183 263.31,-329.405 275.729,-326.723"/>
<polygon fill="black" stroke="black" points="276.52,-330.132 285.556,-324.6 275.042,-323.29 276.52,-330.132"/>
</g>
<!-- aeObject -->
<g id="node19" class="node"><title>aeObject</title>
<path fill="none" stroke="black" d="M83,-468C83,-468 39,-468 39,-468 33,-468 27,-462 27,-456 27,-456 27,-444 27,-444 27,-438 33,-432 39,-432 39,-432 83,-432 83,-432 89,-432 95,-438 95,-444 95,-444 95,-456 95,-456 95,-462 89,-468 83,-468"/>
<text text-anchor="middle" x="61" y="-446.3" font-family="Times,serif" font-size="14.00">aeObject</text>
</g>
<!-- aeObject&#45;&gt;aeService -->
<g id="edge21" class="edge"><title>aeObject&#45;&gt;aeService</title>
<path fill="none" stroke="black" d="M95.0233,-459.182C104.799,-463.277 114.801,-469.034 122,-477 155.924,-514.539 126.34,-545.533 158,-585 158.684,-585.853 159.403,-586.685 160.152,-587.497"/>
<polygon fill="black" stroke="black" points="157.82,-590.107 167.572,-594.248 162.531,-584.929 157.82,-590.107"/>
</g>
<!-- aeObject&#45;&gt;aeUser -->
<g id="edge22" class="edge"><title>aeObject&#45;&gt;aeUser</title>
<path fill="none" stroke="black" d="M95.215,-458.62C105.12,-462.697 115.149,-468.585 122,-477 168.567,-534.197 114.874,-579.166 158,-639 160.649,-642.675 163.966,-645.941 167.592,-648.818"/>
<polygon fill="black" stroke="black" points="165.657,-651.735 175.884,-654.503 169.616,-645.961 165.657,-651.735"/>
</g>
<!-- aeObject&#45;&gt;aeSudoRule -->
<g id="edge19" class="edge"><title>aeObject&#45;&gt;aeSudoRule</title>
<path fill="none" stroke="black" d="M95.0582,-462.661C111.979,-469.141 132.954,-477.174 151.901,-484.43"/>
<polygon fill="black" stroke="black" points="150.711,-487.722 161.301,-488.03 153.214,-481.185 150.711,-487.722"/>
</g>
<!-- aeObject&#45;&gt;aePerson -->
<g id="edge23" class="edge"><title>aeObject&#45;&gt;aePerson</title>
<path fill="none" stroke="black" d="M95.0721,-460.953C104.411,-465.045 114.156,-470.355 122,-477 144.009,-495.644 137.124,-511.095 158,-531 159.113,-532.061 160.274,-533.099 161.473,-534.114"/>
<polygon fill="black" stroke="black" points="159.73,-537.184 169.813,-540.439 163.96,-531.607 159.73,-537.184"/>
</g>
<!-- aeObject&#45;&gt;aeGroup -->
<g id="edge17" class="edge"><title>aeObject&#45;&gt;aeGroup</title>
<path fill="none" stroke="black" d="M95.0582,-437.339C114.964,-429.716 140.479,-419.944 161.704,-411.815"/>
<polygon fill="black" stroke="black" points="163.032,-415.055 171.119,-408.21 160.529,-408.518 163.032,-415.055"/>
</g>
<!-- aeObject&#45;&gt;aeSrvGroup -->
<g id="edge15" class="edge"><title>aeObject&#45;&gt;aeSrvGroup</title>
<path fill="none" stroke="black" d="M95.215,-441.38C105.12,-437.303 115.149,-431.415 122,-423 168.567,-365.803 114.874,-320.834 158,-261 158.366,-260.492 158.745,-259.992 159.136,-259.499"/>
<polygon fill="black" stroke="black" points="161.817,-261.765 166.354,-252.191 156.837,-256.847 161.817,-261.765"/>
</g>
<!-- aeObject&#45;&gt;aeZone -->
<g id="edge16" class="edge"><title>aeObject&#45;&gt;aeZone</title>
<path fill="none" stroke="black" d="M95.0233,-440.818C104.799,-436.723 114.801,-430.966 122,-423 155.924,-385.461 126.34,-354.467 158,-315 160.362,-312.055 163.139,-309.356 166.134,-306.901"/>
<polygon fill="black" stroke="black" points="168.335,-309.63 174.436,-300.968 164.265,-303.934 168.335,-309.63"/>
</g>
<!-- aeObject&#45;&gt;aeDevice -->
<g id="edge18" class="edge"><title>aeObject&#45;&gt;aeDevice</title>
<path fill="none" stroke="black" d="M95.0721,-439.047C104.411,-434.955 114.156,-429.645 122,-423 144.009,-404.356 137.124,-388.905 158,-369 158.927,-368.116 159.888,-367.247 160.877,-366.395"/>
<polygon fill="black" stroke="black" points="163.113,-369.091 168.884,-360.206 158.831,-363.553 163.113,-369.091"/>
</g>
<!-- aeDept -->
<g id="node20" class="node"><title>aeDept</title>
<path fill="none" stroke="black" d="M220,-90C220,-90 188,-90 188,-90 182,-90 176,-84 176,-78 176,-78 176,-66 176,-66 176,-60 182,-54 188,-54 188,-54 220,-54 220,-54 226,-54 232,-60 232,-66 232,-66 232,-78 232,-78 232,-84 226,-90 220,-90"/>
<text text-anchor="middle" x="204" y="-68.3" font-family="Times,serif" font-size="14.00">aeDept</text>
</g>
<!-- aeObject&#45;&gt;aeDept -->
<g id="edge14" class="edge"><title>aeObject&#45;&gt;aeDept</title>
<path fill="none" stroke="black" d="M95.1382,-442.058C105.285,-438.003 115.478,-431.958 122,-423 207.277,-305.868 79.7517,-220.939 158,-99 160.503,-95.099 163.789,-91.6821 167.447,-88.711"/>
<polygon fill="black" stroke="black" points="169.634,-91.4544 175.891,-82.9041 165.668,-85.6867 169.634,-91.4544"/>
</g>
<!-- aeMailbox -->
<g id="node21" class="node"><title>aeMailbox</title>
<path fill="none" stroke="black" d="M230.5,-468C230.5,-468 177.5,-468 177.5,-468 171.5,-468 165.5,-462 165.5,-456 165.5,-456 165.5,-444 165.5,-444 165.5,-438 171.5,-432 177.5,-432 177.5,-432 230.5,-432 230.5,-432 236.5,-432 242.5,-438 242.5,-444 242.5,-444 242.5,-456 242.5,-456 242.5,-462 236.5,-468 230.5,-468"/>
<text text-anchor="middle" x="204" y="-446.3" font-family="Times,serif" font-size="14.00">aeMailbox</text>
</g>
<!-- aeObject&#45;&gt;aeMailbox -->
<g id="edge20" class="edge"><title>aeObject&#45;&gt;aeMailbox</title>
<path fill="none" stroke="black" d="M95.0582,-450C113.011,-450 135.526,-450 155.343,-450"/>
<polygon fill="black" stroke="black" points="155.421,-453.5 165.421,-450 155.421,-446.5 155.421,-453.5"/>
</g>
<!-- groupOfEntries -->
<g id="node22" class="node"><title>groupOfEntries</title>
<path fill="none" stroke="black" d="M101,-360C101,-360 21,-360 21,-360 15,-360 9,-354 9,-348 9,-348 9,-336 9,-336 9,-330 15,-324 21,-324 21,-324 101,-324 101,-324 107,-324 113,-330 113,-336 113,-336 113,-348 113,-348 113,-354 107,-360 101,-360"/>
<text text-anchor="middle" x="61" y="-338.3" font-family="Times,serif" font-size="14.00">groupOfEntries</text>
</g>
<!-- groupOfEntries&#45;&gt;aeGroup -->
<g id="edge24" class="edge"><title>groupOfEntries&#45;&gt;aeGroup</title>
<path fill="none" stroke="black" d="M109.343,-360.131C126.33,-366.637 145.335,-373.916 161.763,-380.207"/>
<polygon fill="black" stroke="black" points="160.512,-383.476 171.103,-383.784 163.016,-376.939 160.512,-383.476"/>
</g>
<!-- organizationalUnit -->
<g id="node23" class="node"><title>organizationalUnit</title>
<path fill="none" stroke="black" d="M110,-63C110,-63 12,-63 12,-63 6,-63 -7.10543e-15,-57 -7.10543e-15,-51 -7.10543e-15,-51 -7.10543e-15,-39 -7.10543e-15,-39 -7.10543e-15,-33 6,-27 12,-27 12,-27 110,-27 110,-27 116,-27 122,-33 122,-39 122,-39 122,-51 122,-51 122,-57 116,-63 110,-63"/>
<text text-anchor="middle" x="61" y="-41.3" font-family="Times,serif" font-size="14.00">organizationalUnit</text>
</g>
<!-- organizationalUnit&#45;&gt;aeDept -->
<g id="edge25" class="edge"><title>organizationalUnit&#45;&gt;aeDept</title>
<path fill="none" stroke="black" d="M122.206,-56.5287C136.971,-59.3562 152.352,-62.3015 165.683,-64.8541"/>
<polygon fill="black" stroke="black" points="165.403,-68.3641 175.883,-66.8074 166.72,-61.489 165.403,-68.3641"/>
</g>
<!-- aeRoot -->
<g id="node24" class="node"><title>aeRoot</title>
<path fill="none" stroke="black" d="M220.5,-36C220.5,-36 187.5,-36 187.5,-36 181.5,-36 175.5,-30 175.5,-24 175.5,-24 175.5,-12 175.5,-12 175.5,-6 181.5,-0 187.5,-0 187.5,-0 220.5,-0 220.5,-0 226.5,-0 232.5,-6 232.5,-12 232.5,-12 232.5,-24 232.5,-24 232.5,-30 226.5,-36 220.5,-36"/>
<text text-anchor="middle" x="204" y="-14.3" font-family="Times,serif" font-size="14.00">aeRoot</text>
</g>
<!-- organizationalUnit&#45;&gt;aeRoot -->
<g id="edge26" class="edge"><title>organizationalUnit&#45;&gt;aeRoot</title>
<path fill="none" stroke="black" d="M122.206,-33.4713C136.735,-30.6891 151.86,-27.7927 165.041,-25.2687"/>
<polygon fill="black" stroke="black" points="165.984,-28.6519 175.147,-23.3336 164.667,-21.7768 165.984,-28.6519"/>
</g>
<!-- groupOfURLs -->
<g id="node25" class="node"><title>groupOfURLs</title>
<path fill="none" stroke="black" d="M98,-306C98,-306 24,-306 24,-306 18,-306 12,-300 12,-294 12,-294 12,-282 12,-282 12,-276 18,-270 24,-270 24,-270 98,-270 98,-270 104,-270 110,-276 110,-282 110,-282 110,-294 110,-294 110,-300 104,-306 98,-306"/>
<text text-anchor="middle" x="61" y="-284.3" font-family="Times,serif" font-size="14.00">groupOfURLs</text>
</g>
<!-- groupOfURLs&#45;&gt;aeGroup -->
<g id="edge27" class="edge"><title>groupOfURLs&#45;&gt;aeGroup</title>
<path fill="none" stroke="black" d="M109.097,-306.019C113.681,-308.689 118.078,-311.677 122,-315 144.009,-333.644 137.124,-349.095 158,-369 159.607,-370.533 161.316,-372.018 163.093,-373.451"/>
<polygon fill="black" stroke="black" points="161.076,-376.312 171.214,-379.388 165.207,-370.661 161.076,-376.312"/>
</g>
</g>
</svg>
