<?xml version="1.0" encoding="UTF-8" standalone="no"?>
<!DOCTYPE svg PUBLIC "-//W3C//DTD SVG 1.1//EN"
 "http://www.w3.org/Graphics/SVG/1.1/DTD/svg11.dtd">
<!-- Generated by graphviz version 2.38.0 (20140413.2041)
 -->
<!-- Title: AE&#45;DIR object classes Pages: 1 -->
<svg width="395pt" height="784pt"
 viewBox="0.00 0.00 395.00 784.00" xmlns="http://www.w3.org/2000/svg" xmlns:xlink="http://www.w3.org/1999/xlink">
<g id="graph0" class="graph" transform="scale(1 1) rotate(0) translate(4 780)">
<title>AE&#45;DIR object classes</title>
<polygon fill="white" stroke="none" points="-4,4 -4,-780 391,-780 391,4 -4,4"/>
<!-- account -->
<g id="node1" class="node"><title>account</title>
<path fill="none" stroke="black" d="M79.5,-776C79.5,-776 42.5,-776 42.5,-776 36.5,-776 30.5,-770 30.5,-764 30.5,-764 30.5,-752 30.5,-752 30.5,-746 36.5,-740 42.5,-740 42.5,-740 79.5,-740 79.5,-740 85.5,-740 91.5,-746 91.5,-752 91.5,-752 91.5,-764 91.5,-764 91.5,-770 85.5,-776 79.5,-776"/>
<text text-anchor="middle" x="61" y="-754.3" font-family="Times,serif" font-size="14.00">account</text>
</g>
<!-- aeService -->
<g id="node2" class="node"><title>aeService</title>
<path fill="none" stroke="black" d="M228,-722C228,-722 180,-722 180,-722 174,-722 168,-716 168,-710 168,-710 168,-698 168,-698 168,-692 174,-686 180,-686 180,-686 228,-686 228,-686 234,-686 240,-692 240,-698 240,-698 240,-710 240,-710 240,-716 234,-722 228,-722"/>
<text text-anchor="middle" x="204" y="-700.3" font-family="Times,serif" font-size="14.00">aeService</text>
</g>
<!-- account&#45;&gt;aeService -->
<g id="edge1" class="edge"><title>account&#45;&gt;aeService</title>
<path fill="none" stroke="black" d="M91.5582,-746.68C110.903,-739.271 136.541,-729.452 158.349,-721.1"/>
<polygon fill="black" stroke="black" points="159.659,-724.347 167.746,-717.502 157.156,-717.81 159.659,-724.347"/>
</g>
<!-- aeUser -->
<g id="node3" class="node"><title>aeUser</title>
<path fill="none" stroke="black" d="M220,-776C220,-776 188,-776 188,-776 182,-776 176,-770 176,-764 176,-764 176,-752 176,-752 176,-746 182,-740 188,-740 188,-740 220,-740 220,-740 226,-740 232,-746 232,-752 232,-752 232,-764 232,-764 232,-770 226,-776 220,-776"/>
<text text-anchor="middle" x="204" y="-754.3" font-family="Times,serif" font-size="14.00">aeUser</text>
</g>
<!-- account&#45;&gt;aeUser -->
<g id="edge2" class="edge"><title>account&#45;&gt;aeUser</title>
<path fill="none" stroke="black" d="M91.5582,-758C113.127,-758 142.52,-758 165.704,-758"/>
<polygon fill="black" stroke="black" points="165.869,-761.5 175.869,-758 165.869,-754.5 165.869,-761.5"/>
</g>
<!-- sudoRole -->
<g id="node4" class="node"><title>sudoRole</title>
<path fill="none" stroke="black" d="M84.5,-668C84.5,-668 37.5,-668 37.5,-668 31.5,-668 25.5,-662 25.5,-656 25.5,-656 25.5,-644 25.5,-644 25.5,-638 31.5,-632 37.5,-632 37.5,-632 84.5,-632 84.5,-632 90.5,-632 96.5,-638 96.5,-644 96.5,-644 96.5,-656 96.5,-656 96.5,-662 90.5,-668 84.5,-668"/>
<text text-anchor="middle" x="61" y="-646.3" font-family="Times,serif" font-size="14.00">sudoRole</text>
</g>
<!-- aeSudoRule -->
<g id="node5" class="node"><title>aeSudoRule</title>
<path fill="none" stroke="black" d="M234.5,-614C234.5,-614 173.5,-614 173.5,-614 167.5,-614 161.5,-608 161.5,-602 161.5,-602 161.5,-590 161.5,-590 161.5,-584 167.5,-578 173.5,-578 173.5,-578 234.5,-578 234.5,-578 240.5,-578 246.5,-584 246.5,-590 246.5,-590 246.5,-602 246.5,-602 246.5,-608 240.5,-614 234.5,-614"/>
<text text-anchor="middle" x="204" y="-592.3" font-family="Times,serif" font-size="14.00">aeSudoRule</text>
</g>
<!-- sudoRole&#45;&gt;aeSudoRule -->
<g id="edge3" class="edge"><title>sudoRole&#45;&gt;aeSudoRule</title>
<path fill="none" stroke="black" d="M96.8539,-636.652C113.451,-630.295 133.626,-622.569 151.911,-615.566"/>
<polygon fill="black" stroke="black" points="153.185,-618.826 161.272,-611.981 150.682,-612.289 153.185,-618.826"/>
</g>
<!-- inetOrgPerson -->
<g id="node6" class="node"><title>inetOrgPerson</title>
<path fill="none" stroke="black" d="M98.5,-722C98.5,-722 23.5,-722 23.5,-722 17.5,-722 11.5,-716 11.5,-710 11.5,-710 11.5,-698 11.5,-698 11.5,-692 17.5,-686 23.5,-686 23.5,-686 98.5,-686 98.5,-686 104.5,-686 110.5,-692 110.5,-698 110.5,-698 110.5,-710 110.5,-710 110.5,-716 104.5,-722 98.5,-722"/>
<text text-anchor="middle" x="61" y="-700.3" font-family="Times,serif" font-size="14.00">inetOrgPerson</text>
</g>
<!-- inetOrgPerson&#45;&gt;aeUser -->
<g id="edge4" class="edge"><title>inetOrgPerson&#45;&gt;aeUser</title>
<path fill="none" stroke="black" d="M109.343,-722.131C127.802,-729.201 148.642,-737.182 165.97,-743.818"/>
<polygon fill="black" stroke="black" points="165.132,-747.245 175.722,-747.553 167.636,-740.708 165.132,-747.245"/>
</g>
<!-- aePerson -->
<g id="node7" class="node"><title>aePerson</title>
<path fill="none" stroke="black" d="M226,-668C226,-668 182,-668 182,-668 176,-668 170,-662 170,-656 170,-656 170,-644 170,-644 170,-638 176,-632 182,-632 182,-632 226,-632 226,-632 232,-632 238,-638 238,-644 238,-644 238,-656 238,-656 238,-662 232,-668 226,-668"/>
<text text-anchor="middle" x="204" y="-646.3" font-family="Times,serif" font-size="14.00">aePerson</text>
</g>
<!-- inetOrgPerson&#45;&gt;aePerson -->
<g id="edge5" class="edge"><title>inetOrgPerson&#45;&gt;aePerson</title>
<path fill="none" stroke="black" d="M109.343,-685.869C125.774,-679.576 144.093,-672.56 160.141,-666.414"/>
<polygon fill="black" stroke="black" points="161.716,-669.559 169.803,-662.714 159.212,-663.022 161.716,-669.559"/>
</g>
<!-- posixGroup -->
<g id="node8" class="node"><title>posixGroup</title>
<path fill="none" stroke="black" d="M90.5,-614C90.5,-614 31.5,-614 31.5,-614 25.5,-614 19.5,-608 19.5,-602 19.5,-602 19.5,-590 19.5,-590 19.5,-584 25.5,-578 31.5,-578 31.5,-578 90.5,-578 90.5,-578 96.5,-578 102.5,-584 102.5,-590 102.5,-590 102.5,-602 102.5,-602 102.5,-608 96.5,-614 90.5,-614"/>
<text text-anchor="middle" x="61" y="-592.3" font-family="Times,serif" font-size="14.00">posixGroup</text>
</g>
<!-- aeGroup -->
<g id="node9" class="node"><title>aeGroup</title>
<path fill="none" stroke="black" d="M224.5,-560C224.5,-560 183.5,-560 183.5,-560 177.5,-560 171.5,-554 171.5,-548 171.5,-548 171.5,-536 171.5,-536 171.5,-530 177.5,-524 183.5,-524 183.5,-524 224.5,-524 224.5,-524 230.5,-524 236.5,-530 236.5,-536 236.5,-536 236.5,-548 236.5,-548 236.5,-554 230.5,-560 224.5,-560"/>
<text text-anchor="middle" x="204" y="-538.3" font-family="Times,serif" font-size="14.00">aeGroup</text>
</g>
<!-- posixGroup&#45;&gt;aeGroup -->
<g id="edge6" class="edge"><title>posixGroup&#45;&gt;aeGroup</title>
<path fill="none" stroke="black" d="M102.783,-580.381C121.345,-573.272 143.271,-564.875 161.874,-557.751"/>
<polygon fill="black" stroke="black" points="163.177,-560.999 171.263,-554.154 160.673,-554.462 163.177,-560.999"/>
</g>
<!-- namedObject -->
<g id="node10" class="node"><title>namedObject</title>
<path fill="none" stroke="black" d="M96,-306C96,-306 26,-306 26,-306 20,-306 14,-300 14,-294 14,-294 14,-282 14,-282 14,-276 20,-270 26,-270 26,-270 96,-270 96,-270 102,-270 108,-276 108,-282 108,-282 108,-294 108,-294 108,-300 102,-306 96,-306"/>
<text text-anchor="middle" x="61" y="-284.3" font-family="Times,serif" font-size="14.00">namedObject</text>
</g>
<!-- namedPolicy -->
<g id="node11" class="node"><title>namedPolicy</title>
<path fill="none" stroke="black" d="M238,-252C238,-252 170,-252 170,-252 164,-252 158,-246 158,-240 158,-240 158,-228 158,-228 158,-222 164,-216 170,-216 170,-216 238,-216 238,-216 244,-216 250,-222 250,-228 250,-228 250,-240 250,-240 250,-246 244,-252 238,-252"/>
<text text-anchor="middle" x="204" y="-230.3" font-family="Times,serif" font-size="14.00">namedPolicy</text>
</g>
<!-- namedObject&#45;&gt;namedPolicy -->
<g id="edge7" class="edge"><title>namedObject&#45;&gt;namedPolicy</title>
<path fill="none" stroke="black" d="M108.169,-270.318C120.965,-265.418 134.981,-260.05 148.217,-254.981"/>
<polygon fill="black" stroke="black" points="149.603,-258.198 157.69,-251.353 147.099,-251.661 149.603,-258.198"/>
</g>
<!-- aeContact -->
<g id="node13" class="node"><title>aeContact</title>
<path fill="none" stroke="black" d="M229,-360C229,-360 179,-360 179,-360 173,-360 167,-354 167,-348 167,-348 167,-336 167,-336 167,-330 173,-324 179,-324 179,-324 229,-324 229,-324 235,-324 241,-330 241,-336 241,-336 241,-348 241,-348 241,-354 235,-360 229,-360"/>
<text text-anchor="middle" x="204" y="-338.3" font-family="Times,serif" font-size="14.00">aeContact</text>
</g>
<!-- namedObject&#45;&gt;aeContact -->
<g id="edge9" class="edge"><title>namedObject&#45;&gt;aeContact</title>
<path fill="none" stroke="black" d="M108.169,-305.682C123.865,-311.693 141.396,-318.407 157.074,-324.411"/>
<polygon fill="black" stroke="black" points="155.973,-327.737 166.563,-328.045 158.476,-321.2 155.973,-327.737"/>
</g>
<!-- aeSrvGroup -->
<g id="node14" class="node"><title>aeSrvGroup</title>
<path fill="none" stroke="black" d="M234,-306C234,-306 174,-306 174,-306 168,-306 162,-300 162,-294 162,-294 162,-282 162,-282 162,-276 168,-270 174,-270 174,-270 234,-270 234,-270 240,-270 246,-276 246,-282 246,-282 246,-294 246,-294 246,-300 240,-306 234,-306"/>
<text text-anchor="middle" x="204" y="-284.3" font-family="Times,serif" font-size="14.00">aeSrvGroup</text>
</g>
<!-- namedObject&#45;&gt;aeSrvGroup -->
<g id="edge10" class="edge"><title>namedObject&#45;&gt;aeSrvGroup</title>
<path fill="none" stroke="black" d="M108.169,-288C122.129,-288 137.539,-288 151.807,-288"/>
<polygon fill="black" stroke="black" points="151.957,-291.5 161.956,-288 151.956,-284.5 151.957,-291.5"/>
</g>
<!-- aeTag -->
<g id="node15" class="node"><title>aeTag</title>
<path fill="none" stroke="black" d="M219,-90C219,-90 189,-90 189,-90 183,-90 177,-84 177,-78 177,-78 177,-66 177,-66 177,-60 183,-54 189,-54 189,-54 219,-54 219,-54 225,-54 231,-60 231,-66 231,-66 231,-78 231,-78 231,-84 225,-90 219,-90"/>
<text text-anchor="middle" x="204" y="-68.3" font-family="Times,serif" font-size="14.00">aeTag</text>
</g>
<!-- namedObject&#45;&gt;aeTag -->
<g id="edge11" class="edge"><title>namedObject&#45;&gt;aeTag</title>
<path fill="none" stroke="black" d="M78.1112,-269.817C91.3689,-254.095 109.886,-230.288 122,-207 145.349,-162.113 126.34,-138.467 158,-99 160.9,-95.3844 164.425,-92.1395 168.212,-89.2608"/>
<polygon fill="black" stroke="black" points="170.404,-92.0052 176.778,-83.542 166.518,-86.1833 170.404,-92.0052"/>
</g>
<!-- aeZone -->
<g id="node16" class="node"><title>aeZone</title>
<path fill="none" stroke="black" d="M221.5,-414C221.5,-414 186.5,-414 186.5,-414 180.5,-414 174.5,-408 174.5,-402 174.5,-402 174.5,-390 174.5,-390 174.5,-384 180.5,-378 186.5,-378 186.5,-378 221.5,-378 221.5,-378 227.5,-378 233.5,-384 233.5,-390 233.5,-390 233.5,-402 233.5,-402 233.5,-408 227.5,-414 221.5,-414"/>
<text text-anchor="middle" x="204" y="-392.3" font-family="Times,serif" font-size="14.00">aeZone</text>
</g>
<!-- namedObject&#45;&gt;aeZone -->
<g id="edge12" class="edge"><title>namedObject&#45;&gt;aeZone</title>
<path fill="none" stroke="black" d="M81.4708,-306.039C100.352,-323.135 130.148,-349.09 158,-369 160.513,-370.797 163.15,-372.591 165.833,-374.352"/>
<polygon fill="black" stroke="black" points="164.15,-377.429 174.47,-379.826 167.898,-371.516 164.15,-377.429"/>
</g>
<!-- aePolicy -->
<g id="node12" class="node"><title>aePolicy</title>
<path fill="none" stroke="black" d="M358,-383C358,-383 315,-383 315,-383 309,-383 303,-377 303,-371 303,-371 303,-359 303,-359 303,-353 309,-347 315,-347 315,-347 358,-347 358,-347 364,-347 370,-353 370,-359 370,-359 370,-371 370,-371 370,-377 364,-383 358,-383"/>
<text text-anchor="middle" x="336.5" y="-361.3" font-family="Times,serif" font-size="14.00">aePolicy</text>
</g>
<!-- namedPolicy&#45;&gt;aePolicy -->
<g id="edge8" class="edge"><title>namedPolicy&#45;&gt;aePolicy</title>
<path fill="none" stroke="black" d="M238.349,-252.217C242.425,-254.955 246.412,-257.906 250,-261 276.723,-284.042 301.661,-316.073 317.626,-338.479"/>
<polygon fill="black" stroke="black" points="314.887,-340.67 323.493,-346.85 320.62,-336.652 314.887,-340.67"/>
</g>
<!-- device -->
<g id="node17" class="node"><title>device</title>
<path fill="none" stroke="black" d="M76.5,-198C76.5,-198 45.5,-198 45.5,-198 39.5,-198 33.5,-192 33.5,-186 33.5,-186 33.5,-174 33.5,-174 33.5,-168 39.5,-162 45.5,-162 45.5,-162 76.5,-162 76.5,-162 82.5,-162 88.5,-168 88.5,-174 88.5,-174 88.5,-186 88.5,-186 88.5,-192 82.5,-198 76.5,-198"/>
<text text-anchor="middle" x="61" y="-176.3" font-family="Times,serif" font-size="14.00">device</text>
</g>
<!-- aeDevice -->
<g id="node18" class="node"><title>aeDevice</title>
<path fill="none" stroke="black" d="M227,-198C227,-198 181,-198 181,-198 175,-198 169,-192 169,-186 169,-186 169,-174 169,-174 169,-168 175,-162 181,-162 181,-162 227,-162 227,-162 233,-162 239,-168 239,-174 239,-174 239,-186 239,-186 239,-192 233,-198 227,-198"/>
<text text-anchor="middle" x="204" y="-176.3" font-family="Times,serif" font-size="14.00">aeDevice</text>
</g>
<!-- device&#45;&gt;aeDevice -->
<g id="edge13" class="edge"><title>device&#45;&gt;aeDevice</title>
<path fill="none" stroke="black" d="M88.521,-180C108.237,-180 135.594,-180 158.62,-180"/>
<polygon fill="black" stroke="black" points="158.852,-183.5 168.852,-180 158.852,-176.5 158.852,-183.5"/>
</g>
<!-- aeHost -->
<g id="node19" class="node"><title>aeHost</title>
<path fill="none" stroke="black" d="M352.5,-252C352.5,-252 320.5,-252 320.5,-252 314.5,-252 308.5,-246 308.5,-240 308.5,-240 308.5,-228 308.5,-228 308.5,-222 314.5,-216 320.5,-216 320.5,-216 352.5,-216 352.5,-216 358.5,-216 364.5,-222 364.5,-228 364.5,-228 364.5,-240 364.5,-240 364.5,-246 358.5,-252 352.5,-252"/>
<text text-anchor="middle" x="336.5" y="-230.3" font-family="Times,serif" font-size="14.00">aeHost</text>
</g>
<!-- aeDevice&#45;&gt;aeHost -->
<g id="edge14" class="edge"><title>aeDevice&#45;&gt;aeHost</title>
<path fill="none" stroke="black" d="M239.287,-194.188C257.679,-201.798 280.344,-211.177 299.055,-218.919"/>
<polygon fill="black" stroke="black" points="297.857,-222.211 308.436,-222.801 300.534,-215.743 297.857,-222.211"/>
</g>
<!-- aeNwDevice -->
<g id="node20" class="node"><title>aeNwDevice</title>
<path fill="none" stroke="black" d="M369.5,-198C369.5,-198 303.5,-198 303.5,-198 297.5,-198 291.5,-192 291.5,-186 291.5,-186 291.5,-174 291.5,-174 291.5,-168 297.5,-162 303.5,-162 303.5,-162 369.5,-162 369.5,-162 375.5,-162 381.5,-168 381.5,-174 381.5,-174 381.5,-186 381.5,-186 381.5,-192 375.5,-198 369.5,-198"/>
<text text-anchor="middle" x="336.5" y="-176.3" font-family="Times,serif" font-size="14.00">aeNwDevice</text>
</g>
<!-- aeDevice&#45;&gt;aeNwDevice -->
<g id="edge15" class="edge"><title>aeDevice&#45;&gt;aeNwDevice</title>
<path fill="none" stroke="black" d="M239.287,-180C252.049,-180 266.867,-180 280.994,-180"/>
<polygon fill="black" stroke="black" points="281.12,-183.5 291.119,-180 281.119,-176.5 281.12,-183.5"/>
</g>
<!-- aeAuthcToken -->
<g id="node21" class="node"><title>aeAuthcToken</title>
<path fill="none" stroke="black" d="M375,-144C375,-144 298,-144 298,-144 292,-144 286,-138 286,-132 286,-132 286,-120 286,-120 286,-114 292,-108 298,-108 298,-108 375,-108 375,-108 381,-108 387,-114 387,-120 387,-120 387,-132 387,-132 387,-138 381,-144 375,-144"/>
<text text-anchor="middle" x="336.5" y="-122.3" font-family="Times,serif" font-size="14.00">aeAuthcToken</text>
</g>
<!-- aeDevice&#45;&gt;aeAuthcToken -->
<g id="edge16" class="edge"><title>aeDevice&#45;&gt;aeAuthcToken</title>
<path fill="none" stroke="black" d="M239.287,-165.812C252.42,-160.378 267.732,-154.042 282.227,-148.044"/>
<polygon fill="black" stroke="black" points="283.701,-151.222 291.603,-144.164 281.024,-144.754 283.701,-151.222"/>
</g>
<!-- aeObject -->
<g id="node22" class="node"><title>aeObject</title>
<path fill="none" stroke="black" d="M83,-452C83,-452 39,-452 39,-452 33,-452 27,-446 27,-440 27,-440 27,-428 27,-428 27,-422 33,-416 39,-416 39,-416 83,-416 83,-416 89,-416 95,-422 95,-428 95,-428 95,-440 95,-440 95,-446 89,-452 83,-452"/>
<text text-anchor="middle" x="61" y="-430.3" font-family="Times,serif" font-size="14.00">aeObject</text>
</g>
<!-- aeObject&#45;&gt;aeService -->
<g id="edge25" class="edge"><title>aeObject&#45;&gt;aeService</title>
<path fill="none" stroke="black" d="M95.1718,-442.278C105.196,-446.345 115.307,-452.314 122,-461 181.405,-538.091 103.226,-596.552 158,-677 158.75,-678.101 159.561,-679.165 160.424,-680.192"/>
<polygon fill="black" stroke="black" points="158.253,-682.959 167.895,-687.35 163.096,-677.904 158.253,-682.959"/>
</g>
<!-- aeObject&#45;&gt;aeUser -->
<g id="edge26" class="edge"><title>aeObject&#45;&gt;aeUser</title>
<path fill="none" stroke="black" d="M95.0252,-442.025C105.164,-446.086 115.381,-452.114 122,-461 194.322,-558.085 91.5069,-629.833 158,-731 160.546,-734.873 163.857,-738.274 167.529,-741.236"/>
<polygon fill="black" stroke="black" points="165.759,-744.266 175.986,-747.034 169.717,-738.493 165.759,-744.266"/>
</g>
<!-- aeObject&#45;&gt;aeSudoRule -->
<g id="edge24" class="edge"><title>aeObject&#45;&gt;aeSudoRule</title>
<path fill="none" stroke="black" d="M95.0233,-443.182C104.799,-447.277 114.801,-453.034 122,-461 155.924,-498.539 126.34,-529.533 158,-569 158.574,-569.715 159.172,-570.416 159.791,-571.102"/>
<polygon fill="black" stroke="black" points="157.416,-573.673 167.131,-577.902 162.174,-568.538 157.416,-573.673"/>
</g>
<!-- aeObject&#45;&gt;aePerson -->
<g id="edge27" class="edge"><title>aeObject&#45;&gt;aePerson</title>
<path fill="none" stroke="black" d="M95.215,-442.62C105.12,-446.697 115.149,-452.585 122,-461 168.567,-518.197 114.874,-563.166 158,-623 159.199,-624.663 160.534,-626.242 161.973,-627.74"/>
<polygon fill="black" stroke="black" points="160.018,-630.675 169.878,-634.553 164.588,-625.373 160.018,-630.675"/>
</g>
<!-- aeObject&#45;&gt;aeGroup -->
<g id="edge20" class="edge"><title>aeObject&#45;&gt;aeGroup</title>
<path fill="none" stroke="black" d="M95.0721,-444.953C104.411,-449.045 114.156,-454.355 122,-461 144.009,-479.644 137.124,-495.095 158,-515 159.607,-516.533 161.316,-518.018 163.093,-519.451"/>
<polygon fill="black" stroke="black" points="161.076,-522.312 171.214,-525.388 165.207,-516.661 161.076,-522.312"/>
</g>
<!-- aeObject&#45;&gt;aePolicy -->
<g id="edge28" class="edge"><title>aeObject&#45;&gt;aePolicy</title>
<path fill="none" stroke="black" d="M95.277,-437.276C133.662,-439.88 198.143,-440.603 250,-423 271.117,-415.832 291.889,-401.946 307.67,-389.558"/>
<polygon fill="black" stroke="black" points="309.877,-392.275 315.444,-383.261 305.47,-386.836 309.877,-392.275"/>
</g>
<!-- aeObject&#45;&gt;aeContact -->
<g id="edge22" class="edge"><title>aeObject&#45;&gt;aeContact</title>
<path fill="none" stroke="black" d="M87.8212,-415.955C107.002,-402.688 133.904,-384.37 158,-369 159.872,-367.806 161.796,-366.594 163.744,-365.379"/>
<polygon fill="black" stroke="black" points="165.68,-368.298 172.362,-360.076 162.011,-362.336 165.68,-368.298"/>
</g>
<!-- aeObject&#45;&gt;aeSrvGroup -->
<g id="edge18" class="edge"><title>aeObject&#45;&gt;aeSrvGroup</title>
<path fill="none" stroke="black" d="M73.659,-415.809C90.2347,-390.925 122.56,-345.846 158,-315 159.117,-314.028 160.273,-313.071 161.459,-312.13"/>
<polygon fill="black" stroke="black" points="163.6,-314.901 169.624,-306.185 159.479,-309.242 163.6,-314.901"/>
</g>
<!-- aeObject&#45;&gt;aeZone -->
<g id="edge19" class="edge"><title>aeObject&#45;&gt;aeZone</title>
<path fill="none" stroke="black" d="M95.0582,-425.091C115.858,-419.485 142.783,-412.229 164.538,-406.366"/>
<polygon fill="black" stroke="black" points="165.695,-409.679 174.44,-403.697 163.874,-402.92 165.695,-409.679"/>
</g>
<!-- aeObject&#45;&gt;aeDevice -->
<g id="edge23" class="edge"><title>aeObject&#45;&gt;aeDevice</title>
<path fill="none" stroke="black" d="M72.2016,-415.839C84.8804,-392.83 106.709,-351.741 122,-315 141.441,-268.288 126.34,-246.467 158,-207 158.962,-205.801 159.993,-204.642 161.079,-203.524"/>
<polygon fill="black" stroke="black" points="163.648,-205.929 168.912,-196.734 159.063,-200.64 163.648,-205.929"/>
</g>
<!-- aeDept -->
<g id="node23" class="node"><title>aeDept</title>
<path fill="none" stroke="black" d="M220,-144C220,-144 188,-144 188,-144 182,-144 176,-138 176,-132 176,-132 176,-120 176,-120 176,-114 182,-108 188,-108 188,-108 220,-108 220,-108 226,-108 232,-114 232,-120 232,-120 232,-132 232,-132 232,-138 226,-144 220,-144"/>
<text text-anchor="middle" x="204" y="-122.3" font-family="Times,serif" font-size="14.00">aeDept</text>
</g>
<!-- aeObject&#45;&gt;aeDept -->
<g id="edge17" class="edge"><title>aeObject&#45;&gt;aeDept</title>
<path fill="none" stroke="black" d="M73.0527,-415.678C86.397,-392.84 108.7,-352.262 122,-315 146.794,-245.536 114.874,-212.834 158,-153 160.649,-149.325 163.966,-146.059 167.592,-143.182"/>
<polygon fill="black" stroke="black" points="169.616,-146.039 175.884,-137.497 165.657,-140.265 169.616,-146.039"/>
</g>
<!-- aeMailGroup -->
<g id="node24" class="node"><title>aeMailGroup</title>
<path fill="none" stroke="black" d="M238,-506C238,-506 170,-506 170,-506 164,-506 158,-500 158,-494 158,-494 158,-482 158,-482 158,-476 164,-470 170,-470 170,-470 238,-470 238,-470 244,-470 250,-476 250,-482 250,-482 250,-494 250,-494 250,-500 244,-506 238,-506"/>
<text text-anchor="middle" x="204" y="-484.3" font-family="Times,serif" font-size="14.00">aeMailGroup</text>
</g>
<!-- aeObject&#45;&gt;aeMailGroup -->
<g id="edge21" class="edge"><title>aeObject&#45;&gt;aeMailGroup</title>
<path fill="none" stroke="black" d="M95.0582,-446.661C110.854,-452.71 130.183,-460.113 148.098,-466.974"/>
<polygon fill="black" stroke="black" points="147.283,-470.409 157.873,-470.717 149.786,-463.872 147.283,-470.409"/>
</g>
<!-- groupOfEntries -->
<g id="node25" class="node"><title>groupOfEntries</title>
<path fill="none" stroke="black" d="M101,-506C101,-506 21,-506 21,-506 15,-506 9,-500 9,-494 9,-494 9,-482 9,-482 9,-476 15,-470 21,-470 21,-470 101,-470 101,-470 107,-470 113,-476 113,-482 113,-482 113,-494 113,-494 113,-500 107,-506 101,-506"/>
<text text-anchor="middle" x="61" y="-484.3" font-family="Times,serif" font-size="14.00">groupOfEntries</text>
</g>
<!-- groupOfEntries&#45;&gt;aeGroup -->
<g id="edge29" class="edge"><title>groupOfEntries&#45;&gt;aeGroup</title>
<path fill="none" stroke="black" d="M109.343,-506.131C126.33,-512.637 145.335,-519.916 161.763,-526.207"/>
<polygon fill="black" stroke="black" points="160.512,-529.476 171.103,-529.784 163.016,-522.939 160.512,-529.476"/>
</g>
<!-- groupOfEntries&#45;&gt;aeMailGroup -->
<g id="edge30" class="edge"><title>groupOfEntries&#45;&gt;aeMailGroup</title>
<path fill="none" stroke="black" d="M113.303,-488C124.396,-488 136.175,-488 147.423,-488"/>
<polygon fill="black" stroke="black" points="147.568,-491.5 157.568,-488 147.568,-484.5 147.568,-491.5"/>
</g>
<!-- organizationalUnit -->
<g id="node26" class="node"><title>organizationalUnit</title>
<path fill="none" stroke="black" d="M110,-90C110,-90 12,-90 12,-90 6,-90 -7.10543e-15,-84 -7.10543e-15,-78 -7.10543e-15,-78 -7.10543e-15,-66 -7.10543e-15,-66 -7.10543e-15,-60 6,-54 12,-54 12,-54 110,-54 110,-54 116,-54 122,-60 122,-66 122,-66 122,-78 122,-78 122,-84 116,-90 110,-90"/>
<text text-anchor="middle" x="61" y="-68.3" font-family="Times,serif" font-size="14.00">organizationalUnit</text>
</g>
<!-- organizationalUnit&#45;&gt;aeDept -->
<g id="edge31" class="edge"><title>organizationalUnit&#45;&gt;aeDept</title>
<path fill="none" stroke="black" d="M109.343,-90.1314C127.802,-97.2006 148.642,-105.182 165.97,-111.818"/>
<polygon fill="black" stroke="black" points="165.132,-115.245 175.722,-115.553 167.636,-108.708 165.132,-115.245"/>
</g>
<!-- aeRoot -->
<g id="node27" class="node"><title>aeRoot</title>
<path fill="none" stroke="black" d="M220.5,-36C220.5,-36 187.5,-36 187.5,-36 181.5,-36 175.5,-30 175.5,-24 175.5,-24 175.5,-12 175.5,-12 175.5,-6 181.5,-0 187.5,-0 187.5,-0 220.5,-0 220.5,-0 226.5,-0 232.5,-6 232.5,-12 232.5,-12 232.5,-24 232.5,-24 232.5,-30 226.5,-36 220.5,-36"/>
<text text-anchor="middle" x="204" y="-14.3" font-family="Times,serif" font-size="14.00">aeRoot</text>
</g>
<!-- organizationalUnit&#45;&gt;aeRoot -->
<g id="edge32" class="edge"><title>organizationalUnit&#45;&gt;aeRoot</title>
<path fill="none" stroke="black" d="M109.343,-53.8686C127.668,-46.8506 148.341,-38.9334 165.593,-32.326"/>
<polygon fill="black" stroke="black" points="167.226,-35.4488 175.312,-28.6037 164.722,-28.9118 167.226,-35.4488"/>
</g>
<!-- groupOfURLs -->
<g id="node28" class="node"><title>groupOfURLs</title>
<path fill="none" stroke="black" d="M98,-560C98,-560 24,-560 24,-560 18,-560 12,-554 12,-548 12,-548 12,-536 12,-536 12,-530 18,-524 24,-524 24,-524 98,-524 98,-524 104,-524 110,-530 110,-536 110,-536 110,-548 110,-548 110,-554 104,-560 98,-560"/>
<text text-anchor="middle" x="61" y="-538.3" font-family="Times,serif" font-size="14.00">groupOfURLs</text>
</g>
<!-- groupOfURLs&#45;&gt;aeGroup -->
<g id="edge33" class="edge"><title>groupOfURLs&#45;&gt;aeGroup</title>
<path fill="none" stroke="black" d="M110.13,-542C126.752,-542 145.226,-542 161.291,-542"/>
<polygon fill="black" stroke="black" points="161.457,-545.5 171.457,-542 161.457,-538.5 161.457,-545.5"/>
</g>
<!-- groupOfURLs&#45;&gt;aeMailGroup -->
<g id="edge34" class="edge"><title>groupOfURLs&#45;&gt;aeMailGroup</title>
<path fill="none" stroke="black" d="M109.343,-523.869C121.839,-519.083 135.426,-513.879 148.277,-508.958"/>
<polygon fill="black" stroke="black" points="149.843,-512.106 157.929,-505.261 147.339,-505.569 149.843,-512.106"/>
</g>
</g>
</svg>
